<?xml version="1.0" encoding="UTF-8"?>
<svg version="1.1" viewBox="0 0 1000 1000" width="1280" height="1280" xmlns="http://www.w3.org/2000/svg">
<path transform="translate(0)" d="m0 0h1e3v1e3h-1e3z" fill="#FCEF22"/>
<path transform="translate(0)" d="m0 0h1e3v1e3h-1e3zm494 49-32 1-34 4-26 5-27 7-36 12-26 11-17 8-23 13-24 15-17 12-14 11-11 9-20 18-21 21-7 8-14 17-14 19-11 17-10 16-12 22-12 25-12 31-9 29-7 29-5 30-3 26v72l4 33 5 27 7 27 8 25 9 24 11 24 10 20 14 23 8 12 10 14 9 12 11 14 15 16 9 10 8 8 8 7 12 11 11 9 13 10 10 7 15 10 29 17 15 8 27 12 29 11 27 8 26 6 31 5 28 3h62l27-3 30-5 30-7 33-10 28-11 20-9 22-12 14-8 11-7 12-8 16-12 16-13 14-12 8-8 8-7 16-17 13-15 10-13 13-18 10-15 13-22 12-23 11-25 10-28 8-26 8-36 4-28 2-21v-62l-4-37-6-32-9-34-11-31-12-28-8-16-13-23-24-36-14-18-12-14-11-12-22-22-11-9-9-8-13-10-20-14-18-11-26-15-29-14-26-10-27-9-23-6-24-5-31-4-11-1z" fill="#FDFCFC"/>
<path transform="translate(494,49)" d="m0 0 42 1 36 4 26 5 20 5 25 8 20 7 26 11 22 11 24 14 22 14 18 13 17 14 10 9 8 7 24 24 9 11 11 13 12 16 19 29 12 21 9 17 14 32 11 31 9 34 6 32 4 37v62l-4 37-7 36-8 29-10 29-10 24-12 25-14 24-10 16-13 18-11 14-11 13-9 10-14 15-13 12-11 10-14 11-15 12-15 10-19 12-24 13-16 8-21 9-24 9-34 10-33 7-36 5-11 1h-62l-36-4-32-6-24-6-26-8-28-11-16-7-16-8-26-15-20-13-17-12-11-9-13-11-24-22-7-7-7-8-12-13-10-13-14-19-10-15-11-18-9-16-11-22-13-32-8-24-7-25-5-24-5-35-1-10v-72l4-34 6-31 7-27 11-33 10-24 12-25 11-20 7-11 16-24 12-16 11-13 7-8 9-10 21-21 8-7 13-11 17-13 17-12 19-12 23-13 16-8 17-8 29-11 29-9 29-7 24-4 27-3zm-20 58-30 3-29 5-25 6-21 6-19 8-43 21-20 12-12 8-19 14-13 11-10 9-8 7-16 16-9 11-11 13-14 19-11 17-8 12-6 10-14 30-12 32-8 28-5 24-4 29-1 10v61l4 34 7 34 8 27 9 24 11 25 10 19 7 10 10 16 10 14 11 14 11 13 11 12 21 21 11 9 18 14 13 9 19 12 22 12 25 12 17 8 22 7 28 7 28 5 25 3 14 1h35l25-2 33-5 30-7 21-6 17-7 12-6 20-9 22-12 19-12 17-12 14-11 14-12 13-12 16-17 13-15 12-16 11-16 14-22 5-7 15-33 10-26 7-23 7-30 3-19 3-28v-53l-4-35-5-26-8-30-9-26-10-23-12-25-7-10-14-22-13-17-11-14-10-11-7-8-12-12-8-7-15-13-20-15-18-12-26-15-25-12-24-11-18-6-28-7-34-6-29-3z" fill="#2E2E8C"/>
<path transform="translate(474,107)" d="m0 0h45l29 3 34 6 35 9 20 8 21 10 23 11 27 16 17 12 13 10 13 11 20 18 11 11 7 8 14 17 13 18 10 15 9 14 6 10 12 25 11 28 8 25 6 24 5 30 3 27v53l-4 36-6 29-7 26-9 25-13 30-8 16-10 15-9 14-12 17-11 14-13 15-7 7-7 8-8 8-8 7-13 11-20 15-20 13-19 11-16 8-19 9-17 8-21 7-33 8-24 4-24 3-15 1h-35l-31-3-26-4-22-5-26-7-17-6-16-8-31-15-17-10-17-11-19-14-16-13-12-11-21-21-9-11-11-13-13-18-14-22-9-14-13-27-9-23-9-27-6-24-4-21-4-34v-61l4-33 5-25 6-23 8-24 9-22 15-32 10-14 10-16 14-19 13-16 12-14 19-19 8-7 13-11 20-15 15-10 24-14 22-11 28-13 21-7 28-7 27-5 24-3zm10 26-34 4-29 5-28 7-30 10-23 10-20 10-20 12-16 11-13 10-13 11-8 7-13 12-15 16-8 10-11 14-10 14-9 15-12 23-17 36-7 19-7 25-5 26-3 24-1 10v52l4 34 5 24 7 25 7 19 25 51 9 16 13 19 14 18 10 11 7 8 20 20 8 7 11 9 15 11 20 13 21 12 21 10 26 10 27 8 26 6 32 5 16 2h36l35-4 27-5 27-7 30-10 29-13 22-12 15-10 16-11 14-11 12-11 8-7 18-18 9-11 11-13 10-14 10-16 15-28 13-28 7-16 7-21 7-30 4-26 2-22v-43l-3-29-5-29-10-36-8-18-13-28-14-27-12-19-16-21-9-11-15-16-15-15-8-7-16-13-20-14-23-14-25-13-19-8-30-10-24-6-34-6-31-4z" fill="#FDFCF9"/>
<path transform="translate(430,293)" d="m0 0h3l-2 12-7 37-7 32-6 28-18 87v8l6-4 18-22 8-11 10-13 14-18 13-18h3l5 13 12 29 12 30v3l-22 10-15 9-23 11-40 20-23 10-21 10-17 9-23 11-10 5h-3l-5-13-6-21-3-18-1-11v-38l3-22 4-18 9-25 9-19 11-18 9-12 12-14 15-15 10-8 16-12 6-4 11-6 17-8z" fill="#2E2E8D"/>
<path transform="translate(498,491)" d="m0 0 6 5 7 9 9 10 10 11 7 8 12 12 7 8 9 9 7 8 11 12 9 10 34 34 7 8 12 12 3 5-13 11-12 9-17 12-16 9-18 8-18 6-23 5-13 2-14 1h-14l-22-2-22-4-15-4-19-7-22-11-11-7-12-9 1-3 20-11 23-15 13-8 26-17 22-14 26-17 14-10v-4l-47-3-24-1-3-1 2-5 10-11 9-11 12-14 13-16 13-17z" fill="#2E2E8D"/>
<path transform="translate(553,291)" d="m0 0 18 6 23 10 14 8 14 10 14 11 12 11 8 8 11 14 7 10 7 11 11 21 7 19 6 20 4 25 1 9v29l-3 26-3 17-4-2-16-15-10-10-8-7-16-15-34-34-11-9-14-12-8-8-4-3v-2l-4-2-3-1-1 4 17 57 2 10-2 1-28-8-24-7-31-8-2-1 4-17 11-43 26-100 8-32z" fill="#2E2E8D"/>
<path transform="translate(484,133)" d="m0 0h26l38 5 36 7 28 8 22 8 24 11 19 10 23 15 17 12 11 9 10 9 8 7 18 18 7 8 10 12 14 19 13 21 18 35 9 20 8 19 9 33 6 36 2 22v43l-3 29-4 24-7 28-7 21-24 51-12 22-8 12-12 16-9 11-12 14-21 21-11 9-10 9-18 13-11 7-13 8-22 12-25 11-33 11-28 7-30 5-28 3h-36l-43-6-27-6-28-8-24-9-24-11-20-11-30-20-10-8-11-9-15-14-17-17-9-11-7-8-12-16-13-20-12-23-20-41-10-30-6-25-4-26-2-19v-52l3-27 4-24 7-27 7-21 14-30 11-23 10-18 12-18 14-18 12-14 14-15 16-15 11-9 14-11 24-16 21-12 27-13 24-9 27-8 28-6 33-5zm-10 15-35 4-29 6-28 8-22 8-18 8-25 13-20 13-19 14-13 11-13 12-18 18-9 11-10 12-11 16-9 15-13 24-13 29-10 28-7 24-5 25-2 18-1 16v35l2 26 3 22 6 23 12 34 9 22 12 25 11 20 12 18 10 13 11 13 9 10 18 18 8 7 16 13 17 12 19 12 14 8 28 13 19 7 32 9 24 5 20 3 28 2h22l28-2 36-6 27-7 23-7 20-8 16-8 15-8 21-13 18-13 17-14 7-7 8-7 7-7 7-8 13-15 9-12 7-10 12-19 8-15 8-16 8-18 9-25 9-27 4-17 3-19 2-24v-32l-3-36-4-23-5-19-13-38-9-21-15-30-9-15-10-14-12-16-9-10-1-2h-2l-2-4-28-28-17-13-16-12-21-13-19-10-28-12-27-9-22-6-27-5-28-3z" fill="#312755"/>
<path transform="translate(567,204)" d="m0 0h2l-4 16-16 63-6 23-14 56-13 49-16 61-1 3h-2l-12-29-10-25-8-16-1-7h-2l-2 5-12 16-10 13-22 28-14 18-2 2 1-13 5-25 7-32 15-73 11-55 13-64 2-8 3 1 5 16 14 41 10 31 6 19 1 8h2l3-9 15-26 27-45 10-17 14-24z" fill="#E51F1E"/>
<path transform="translate(486,496)" d="m0 0 2 1-10 13-11 13-9 11-10 11-9 11-11 13-1 2 15 2 54 3 3 1-2 4-19 12-17 11-23 15-34 22-21 13-14 8-25 17-17 12-19 12-13 8-6 4h-2l2-4 12-15 12-17 12-16 14-18 12-14 13-17 6-10-24 3-47 7-45 6-18 3h-8l3-3 48-24 28-13 31-15 23-11 34-16 28-13 48-24z" fill="#E51F1E"/>
<path transform="translate(579,449)" d="m0 0 4 2 13 13 8 7 11 9 13 12 10 10 6 7 2 1v2l4 2 13 13 8 7 9 9 8 7 15 15 2 1v2l4 2 17 17 8 7 8 8 8 6v1l-7-1-17-8-29-13-30-13-17-6 6 16 13 30 13 32 7 16 11 27 6 14v2l-4-2-8-8-7-8-9-11-13-15-12-12-7-8-10-10-7-8-8-8-7-8-28-28-7-8-9-10-7-7v-2h-2l-7-8-11-12-2-4-3-1-7-8-14-15-6-7v-3h7l24 7 28 8 27 6-1-8-9-31-8-25z" fill="#E51F1E"/>
<path transform="translate(238,243)" d="m0 0 3 4v2l-4 4h-2v7l-4 8-12 14-12 17-11 18-13 24-13 29-10 28-7 24-5 25-2 18-1 16v35l2 26 3 22 6 23 12 34 9 22 12 25 11 20 12 18 10 13 11 13 9 10 17 17 8 7 16 13 17 12 19 12 14 8 28 13 19 7 32 9 24 5 20 3 28 2h46v1l-5 1-15 1h-29l-31-1-6 1-3-1v-3l-22-1-2-2-13-2-7-3h-5l-8-4-9-1v-2l-10-1-6-4-10-3-4-2-1-3-18-8-2-2-7-3-4-1 4 4 27 14 24 10 32 10 32 8 10 2v1h-7l1 2-13-2-32-8-27-9-26-11-23-12-19-12-16-11-10-8-11-9-15-14-17-17-9-11-7-8-12-16-13-20-12-23-20-41-10-30-6-25-4-26-2-19v-52l3-27 4-24 7-27 7-21 14-30 11-23 10-18 12-18 14-18 12-14z" fill="#322753"/>
<path transform="translate(546,290)" d="m0 0 5 2v8l-18 71-10 37-10 40-9 34-1 2 18 4 36 10 27 8 5 1-4-17-15-50 2-5 7 4 15 15 11 9 15 13 39 39 8 7v4l3 1v3l4 2v2l4 1 1 3 3 1-1 3-4-1-12-12-8-7-9-9-2-1v-2l-4-2-14-15-8-8-11-9-11-10-8-7-9-9-2-1 10 30 8 28 1 9-15-3-27-7-34-10-11-2 3 5 9 10 14 15 9 10 15 16v2h2l7 8 8 8 7 8 9 10 27 27 7 8 8 8 7 8-1 4-5-1-11-11-7-8-35-35-7-8-12-13-7-8-9-9-7-8-12-12-7-8-9-10-15-18-13 16-10 13-13 15-11 13-9 11-4 5-1 2 43 2 31 2 1 5-10 8-16 10-26 17-22 14-15 10-16 10-22 14-18 10h-2l1-5 5-5 18-10 23-15 36-23 15-10 14-9 20-13 1-2-57-3-15-2v-3l8-9 9-11 26-30 8-10 9-12-72 36-33 15-31 15-23 11-36 17-3-1 8-5 4-2-1-3 30-15 19-9 16-8 19-9 18-8 28-14 19-9 22-12 20-10h3l-22-55-6-14-1-6-3 1-10 14-13 17-14 18-14 19-14 16-4 1-1-2v-6l1-2 7-1 2-5 4-7 13-16 10-13 11-14 16-21 7-10 1-2h2l4 11 8 17 11 28 8 19v2h2l2-10 8-31 12-45 9-35 12-48z" fill="#FEF97D"/>
<path transform="translate(484,133)" d="m0 0h26l38 5 36 7 28 8 8 3v2l5 2 1 4 6 1 2-1 6 4h4v2l5 1 3 1 3 4 3-1 11 5 11 6 11 7 7 5 7 4 9 7v2h-3l1 2-4 1-2-1v-3l-6-2v-2l-6-2v-2l-6-2-10-6-9-5-1-3-4-1-4 1 2-2-4-2v-2l-3 2-4-1 3-3h-15l-19-8-22-7-22-6-27-5-28-3h-47l-35 4-29 6-28 8-22 8-18 8-25 13-20 13-19 14-13 11-13 12-20 20 1-4 2-9h2l2-4h2l-3-5-5 5-2-1 14-14 8-7 15-13 13-10 24-16 21-12 27-13 24-9 27-8 28-6 33-5z" fill="#332854"/>
<path transform="translate(770,725)" d="m0 0 2 2-9 10-3 3-1 3 9-9v3l-3 3-2 7-22 22-11 9-10 9-18 13-11 7-13 8-22 12-25 11-33 11-28 7-30 5-28 3h-36l-37-5-5-3 3-1-17-4-30-8-24-8-22-9-22-11-10-7 1-2 6 2 26 13v3l4 1h3l2 2 6 1v2l4 1 2 1 7 1 2 1v2l5-1 11 4 2 1 7 1 4 2 13 2 5 2 15 1 4 1v3l12-1 28 1h29l15-1-3-2 19-2 29-5 27-7 23-7 20-8 16-8 15-8 21-13 18-13 17-14 7-7 8-7 3-3h4l5-6 8-7 2-4 5-3z" fill="#231E52"/>
<path transform="translate(613,720)" d="m0 0h7l8 4 9 10 8 14 6 14 2 7v9l-5 8-9 7-8 4-4-1-10-20-14-24-8-16v-2l-2 1-1 3-5 2h-4l12 37 10 28-1 2-9 1-5-12-16-47-1-4-5 1-2 1h-6l-1-7 8-3 23-8 19-8z" fill="#34243B"/>
<path transform="translate(178,672)" d="m0 0 4 4h2l3 6v3l4 2 2 2 2 6 3 5v2l3 1-1 2 5 5 7 9v3l4 2 8 10 9 10 17 17 2 1v2l4 2 9 9 3 1 3 3v2h5l-9-8-8-7-10-10v-2l-4-2-8-8-2-5-2-4-4-2 2-1 3 1 7 8 18 18 8 7 16 13 17 12 19 12 14 8 28 13 19 7 32 9 24 5 20 3 28 2h46v1l-5 1-15 1h-29l-31-1-6 1-3-1v-3l-22-1-2-2-13-2-7-3h-5l-8-4-9-1v-2l-10-1-6-4-10-3-4-2-1-3-18-8-2-2-7-3-4-1 4 4 27 14 24 10 32 10 32 8 10 2v1h-7l1 2-13-2-32-8-27-9-26-11-23-12-19-12-16-11-10-8-11-9-15-14-17-17-9-11-7-8-12-16-13-20-8-15z" fill="#251D4F"/>
<path transform="translate(697,249)" d="m0 0 8 1 7 4 4 7v11l-6 12-12 14-13 13-13 8-6-1-10-8-3-4-1-6 2-8 5-10 11-14 10-10 11-7z" fill="#2C2238"/>
<path transform="translate(546,290)" d="m0 0 5 2v8l-18 71-10 37-10 40-9 34-1 2 14 3v2l3 1h-7v2h-4l-1 2-6-2-2-3-2 1-2-1-1 3h-2v2h-2l-1-6 1-2h3l-22-55-6-14-1-6-3 1-10 14-13 17-14 18-14 19-14 16-4 1-1-2v-6l1-2 7-1 2-5 4-7 13-16 10-13 11-14 16-21 7-10 1-2h2l4 11 8 17 11 28 8 19v2h2l2-10 8-31 12-45 9-35 12-48z" fill="#FCEF24"/>
<path transform="translate(553,291)" d="m0 0 18 6 23 10 14 8 14 10 14 11 12 11 8 8 11 14 7 10 7 11 11 21 7 19 6 20 4 25 1 9v29l-3 26-3 17-4-2-16-15-10-10-8-7-16-15-34-34-11-9-14-12-8-8-4-3v-2l-4-2-3-1-3 4v-7l4-2 9 5 11 10 7 8 9 8 8 7 4 6 9 5 5 4 9 6 3 4v2l3 1 7 8 8 10 22 22 8 7 6 1 3-2 2-14 1-14v-31l-4-29-4-15-4-13-5-12-3-6v-2h-2l-2-6-2-1-1-7-3-1-8-14-2-2-1-4-4-1-7-8-2-4-4-2-5-4-7-4-5-6-10-7v-2l-4-2v-2l-4-1 1-4-4-2-2-2-8-5-24-12-10-4-9-2-4 1-2 12-3 13-3 9-4 14-3 14-3 12-2 6-2 9-5 25-2 8-4 13-3 4-2 9-3 6-1 8-3 2 1-8 9-35 17-65 16-63z" fill="#241C4E"/>
<path transform="translate(849,487)" d="m0 0 3 6v34l-4 31-2 17-2 2-2 12h-2l-3 12-6 18-6 16v3l5-11 1-3 6-16h3l2-9 2-3 2-9 1 2 2 1-7 24-8 19-13 27-8 16-10 19-8 12-12 16-18 22h-1v-5l3-4-3 1-2 5-3 1 1-4h2l2-4 7-8-4 2-2 2-4 5-5 5h-2l-2 4h-2l-1 3-3-1 6-8 11-12 11-14 10-14 12-19 8-15 8-16 8-18 9-25 9-27 4-17 3-19 2-18 1-4z" fill="#2B2148"/>
<path transform="translate(746,295)" d="m0 0h5l3 6-5 6h-2l-1 3-5 5-3 4h-2l-2 4-20 20 12-6 38-16 4 2 2 5-8 7-14 11-12 10-17 13-8 7-4-4-2-5 17-12 18-13 4-4-24 10-20 9-4-1-1-6 5-5 14-13h2v-2l8-7 6-7h-2l-10 7-16 9-14 8-6-5 1-4 15-8 12-8 13-8 22-11z" fill="#251827"/>
<path transform="translate(808,461)" d="m0 0h7l1 1v9l-11 4-23 9-19 6h7l16-2 31-2 1 2-1 9-68 6h-6l-2-7 1-5 8-3 31-11 12-5-14 1-16 2-21 1-2-1-1-8 3-2z" fill="#2C233B"/>
<path transform="translate(460,745)" d="m0 0h7l2 2 7 33 3 20 1 3 3-41 2-14 4-1 6 2-3 31-5 39-1 5h-9l-2-4-9-53-5 49-1 6h-7l-2-1v-9l8-66z" fill="#201223"/>
<path transform="translate(828,368)" d="m0 0 1 3h2l1-2 4 8 3 9 3 8 1 4 2 1 2 9 3 9v9h3l3 15 3 23 1 13v43l-3 29-4 24-4 16h-2l-1 6-3 4-3 9h-3l-3 11-2 7-1 2-7 13-1-4 5-12 3-11 3-7 6-18 2-5 1-7 2-2 2-17 4-31v-69l-2-9-4-23-1-8-1-4-3-1 1-5-2-1-2-9-9-26z" fill="#2E2E8B"/>
<path transform="translate(390,726)" d="m0 0h8l2 1-1 5-7 18-3 7 9 2 4 3 5-10 6-15 4-2 6 2-1 7-12 29-13 30-2 5-7-1-3-2 3-9 10-24 1-4-5-1-8-3-5 8-10 22-2 5-9-4 6-16 13-30 6-12 4-9z" fill="#302239"/>
<path transform="translate(220,335)" d="m0 0h8l10 4 8 7 3 6v5l18 2 19 3 2 1-2 5-3 3-16-2-20-4v2l6 2 21 12 3 1-2 6-4 2-22-12-26-14-16-9-1-4 5-8 6-7z" fill="#2E233B"/>
<path transform="translate(550,142)" d="m0 0h7l3 2 2-2h8l25 6 23 7 2 1v2l5 2 1 4 6 1 2-1 6 4h4v2l5 1 3 1 3 4 3-1 11 5 11 6 11 7 7 5 7 4 9 7v2h-3l1 2-4 1-2-1v-3l-6-2v-2l-6-2v-2l-6-2-10-6-9-5-1-3-4-1-4 1 2-2-4-2v-2l-3 2-4-1 3-3h-15l-19-8-22-7-22-6-13-3-4-2-17-2v-4h2v-2l6-1z" fill="#302654"/>
<path transform="translate(486,496)" d="m0 0 2 1-10 13-11 13-5 6h-4l-2-7-7 1-5-1h-1l-4 1-16 8-23 11-14 7-14 5-4 3-5 2-5 3-11 5-8 4-11 6-7 3-22 9-4 2-2 6-6 8h-2l1 3 9 1 2 1v2h8v1l-57 8-12 2h-8l3-3 48-24 28-13 31-15 23-11 34-16 28-13 48-24z" fill="#D02611"/>
<path transform="translate(787,414)" d="m0 0h19l3 1 1 4-6 5-21 11-23 11-18 10-4-2-1-7 8-5 4-2-1-9-3-5h-13l-3-7v-2l2-1z" fill="#2A1B2B"/>
<path transform="translate(358,711)" d="m0 0h8l9 4 6 7v12l-2 2-8-1-1-5-2-7-2-2h-5l-10 11-8 14-7 15-1 3v8l5 3 4-1 7-8 5-10-6-2 1-6 2-1 16 8-3 9-10 13-8 7-8 1-8-3-5-4-4-8 1-9 5-13 9-17 10-13 8-6z" fill="#261A2A"/>
<path transform="translate(785,356)" d="m0 0 3 2 5 14 1 9-5 7-11 7-4 1h-12l-6-4-6-9-13 5-15 7h-3l-3-6v-3l24-11 30-13z" fill="#2F233A"/>
<path transform="translate(509,747)" d="m0 0 5 1 3 8 13 48 4 14v4l-2 1h-8l-3-13-15-1-2 15-1 1h-8l1-14 9-57 2-6z" fill="#231929"/>
<path transform="translate(440,741)" d="m0 0 5 2 1 5-4 73-8-1-2-4 1-13-15-3-4 10-1 3-9-1-1-2 10-21 10-19 12-23 3-5z" fill="#251A2C"/>
<path transform="translate(567,204)" d="m0 0h2l-4 16-16 63-6 23-14 56-13 49-2 4 1-9 5-21 6-21 12-48 5-21h-2l-1-7v-11h2v-3l-4-1-9 9-4 2-2 6-5 5-6 10-1 4h-2l-2 5-5 4-3 7-2-1 8-16 15-25 14-24 8-13 10-17 14-24z" fill="#D02611"/>
<path transform="translate(613,720)" d="m0 0h7l8 4 9 10 8 14 6 14 2 7v9l-5 8-9 7-8 4-4-1-10-20-14-24-8-16-1-5 2-2 3 1 1-3 5-2v3l-5 3h-4l2 5v3l3 1 7 13 4 8 2 5 3 4-2-6 1-3-2-9-5-5-2-5-2-7 5 5 8 14 9 19 6 11 4-1 5-6-1-9-7-16-9-15-7-6-13-1 2-2v-5l2-2z" fill="#2D2138"/>
<path transform="translate(361,720)" d="m0 0h5l4 4 1 10 8 1 1-1v-14l2 1 2 9 5-2-1 6-6 10-11 26-4 1-6 2-2-1 7-10 2-7-15-7-2 2v4l5 2-1 5-7 10-5 5-5-1-4-3v-8l7-16 6-11 8-11z" fill="#FCEF29"/>
<path transform="translate(452,568)" d="m0 0h13l47 3 1 5-10 8-16 10-26 17-22 14-15 10-16 10-22 14-18 10h-2l1-5 5-5 18-10 23-15 36-23 15-10 14-9 20-13 1-2-37-2-11-2z" fill="#FEF982"/>
<path transform="translate(498,491)" d="m0 0 6 5 7 9 9 10 10 11 7 8 12 12 7 8 9 9 7 8 11 12 9 10 34 34 7 8 12 12 3 5-13 11-12 9-17 12-16 9-11 5-2-1 7-4 8-4h2l1-3 9-5 7-2 2-4 5-3v-3l4-1 1-3 9-4 9-6-2-9-4-4v-2l-4-2-8-8-7-8-9-9v-2l-4-2-1-3-3-1v-2l-4-2-16-16-7-8-11-12v-2h-2l-7-8-6-6v-2h-2l-7-8-2-4-4-2-7-8-12-13-7-7-3-4-4 1-5 5-9 12-7 7-7 8-7 6h-2l-2 4-4 5h-2l-2 4-7 8 1 5 63 3 5 1-1 2-47-3-24-1-3-1 2-5 10-11 9-11 12-14 13-16 13-17z" fill="#4D2534"/>
<path transform="translate(572,435)" d="m0 0 7 4 15 15 11 9 15 13 39 39 8 7v4l3 1v3l4 2v2l4 1 1 3 3 1-1 3-4-1-12-12-8-7-9-9-2-1v-2l-4-2-14-15-8-8-11-9-11-10-8-7-9-9-2-1 10 30 5 17v6h-2l-2 2-3-7-17-57z" fill="#FEF981"/>
<path transform="translate(546,290)" d="m0 0 5 2v8l-18 71-10 37-10 40-8 29-4-2-1-6 9-35 12-45 9-35 12-48z" fill="#FEF771"/>
<path transform="translate(710,784)" d="m0 0h2l1 3-20 14-5 3-6 4 1 2-1 3-26 14-25 11-33 11-8 2h-6l-2-2h2v-2l-11 2 4-4 10-2h2v-3l13-3 4-2h9l2-4 7-1 1-2 10-3 5-2h4v-3l11-1v-2l12-6 1-4 6-1 2 1 2-4 6-2 8-4 5-5 6-3h2v-2z" fill="#2D2D85"/>
<path transform="translate(312,806)" d="m0 0 5 1 28 14v3l4 1h3l2 2 6 1v2l4 1 2 1 7 1 2 1v2l5-1 11 4 2 1 7 1 4 2 13 2 5 2 15 1 4 1v3l12-1 21 3 8 1 2-1 35-1 4 1-1 2-6 2h-4l-1 4-26 1h-17l-29-4-5-3 3-1-17-4-30-8-24-8-22-9-22-11-10-7z" fill="#2E2E8C"/>
<path transform="translate(746,295)" d="m0 0h5l3 6-5 6h-2l-1 3-5 5-3 4h-2l-2 4-16 16-6 5v2l-6 4h-2l1-3 3-3-2-1 2-5 6-6h2v-2l8-7 6-7h-2l-10 7-16 9-14 8-6-5 1-4 15-8 12-8 13-8 22-11z" fill="#392640"/>
<path transform="translate(654,220)" d="m0 0h11l8 5 3 3-1 5-2 2-5-1-4-4-7 1-8 7-7 8-7 12-4 12v7l3 5 8 4 1 2-5 5-6-1-8-6-5-9 1-11 5-13 8-15 11-12 7-5z" fill="#2E1A27"/>
<path transform="translate(688,405)" d="m0 0 3 4 6 15 8 26 4 25 1 9v29l-3 26-3 17-4-2-16-15-10-10-8-7-16-15-34-34-11-9-14-12-8-8-4-3v-2l-4-2-3-1-3 4v-7l4-2 9 5 11 10 7 8 9 8 8 7 4 6 9 5 5 4 9 6 3 4v2l3 1 7 8 8 10 22 22 8 7 6 1 3-2 2-14 1-14v-31l-4-29-4-15-4-13-4-10-3-9z" fill="#3D1E37"/>
<path transform="translate(247,535)" d="m0 0 6 1 5 21v4l-66 9h-8l-4-20v-5l4-1 4 2 2 13 15-1 9-1-3-14 1-1h7l1 1 2 12 25-3-2-16z" fill="#251A2C"/>
<path transform="translate(813,522)" d="m0 0 3 1v7l-2 3-31 3-3 1 12 5 14 6 5 2 1 5-1 6-5-2-16-8-19-8-11-3-22-3-1-1v-7l2-3 25 4h10l36-7z" fill="#2F233E"/>
<path transform="translate(176,456)" d="m0 0h8l-2 16 26 3v-14l8 1-1 13 12 2 15 2v-15h7l1 1-1 25-45-6-28-4-2-1 1-22z" fill="#30233A"/>
<path transform="translate(367,202)" d="m0 0h3l4 17 4 16 2 9 6 8 9 15 2 5-5 3-4-1-9-12-10-15-7-7-8-7-4-3v-2l-4-2-10-8 3-3 7-2 5 6 3 2v2l4 2 2 4 4 2 4 5h2l-9-27v-4z" fill="#271927"/>
<path transform="translate(266,268)" d="m0 0 6 1 2 1v3l-6 4-1 7 5 9 9 10 14 10 9 5h7l3-1 2-5 4-2 3 3 1 6-7 8-6 3-10-1-14-7-5-4v-2l-4-2-9-8-8-10-4-7v-12l4-6z" fill="#3E263F"/>
<path transform="translate(698,259)" d="m0 0h7l2 2-1 9-6 9-9 11-9 10-11 8h-5l-4-5 1-7 7-11 9-10 6-7 11-8z" fill="#FCEF25"/>
<path transform="translate(579,449)" d="m0 0 4 2 13 13 6 5-2 1 2 5v3l-3 1-2-1 1 8-2 9 4 20-1 2-9-1-10-1-7-3-8-2-18-5-12-1-3 1-1 8 2 4 5 5 1 3h2v2h2v2h2v2h2v2h2v2h2l6 8 6 6v2h2v2h2l4 5v2h2v2h2l3 4-1 2-14-14v-2h-2l-7-8-11-12-2-4-3-1-7-8-14-15-6-7v-3h7l24 7 28 8 27 6-1-8-9-31-8-25z" fill="#D02711"/>
<path transform="translate(580,841)" d="m0 0 3 1-9 6 10-1v3l2 2-21 5-33 5-20 2h-36v-1l11-1h24l1-4 7-2 4-2-39 1-7 1-7-2-9-1v-1h49l15-1-3-2 19-2 29-5z" fill="#332754"/>
<path transform="translate(456,210)" d="m0 0 3 1 5 16 3 9-1 3-2-4v8l2 3-1 4h-3l-3-3-2-1-4 17-2 6-4 15-3 8-2 5h-2l-1 10-9 43-9 47-7 28-2 9h-1l1-10 10-48 13-64 13-65z" fill="#D02611"/>
<path transform="translate(554,740)" d="m0 0 2 1 6 29 8 36 16-2 2 3-1 5-23 6h-3l-6-28-9-44v-4z" fill="#30233A"/>
<path transform="translate(184,411)" d="m0 0h7l2 1-1 4-1 1v7l4 5 10 5 13 4 9 2h13l7-3 2-9 4-1 4 2v9l-4 7-5 4-9 2-15-1-21-6-12-6-5-4-4-7-1-9z" fill="#332339"/>
<path transform="translate(278,783)" d="m0 0 5 2 10 7 6 3h3l2 2-2 1 7 4h4v2l2 2-2 2 13 8 22 11 20 8 32 10 32 8 10 2v1h-7l1 2-13-2-32-8-27-9-26-11-23-12-19-12-11-8-1-4-4-4-4-2z" fill="#241C4F"/>
<path transform="translate(608,730)" d="m0 0h10l8 7 9 15 7 16 1 9-7 8-4-1-16-32-9-15-2-3v-3z" fill="#FCF02C"/>
<path transform="translate(325,223)" d="m0 0 4 1 2 2-1 4-5 3 1 4 7 10 10 13 14 19 6 7-1 3-7 3-9-11-9-12-10-13-11-14-5-1-4 4-4-1-2-5 5-4 15-10z" fill="#3A2641"/>
<path transform="translate(199,369)" d="m0 0 5 1 2 4-3 5 1 3 33 13 25 10 3 1 1 3-4 6-4-1-28-11-24-10-8-3-1 8-1 1h-6l-2-2 1-5 8-21z" fill="#372336"/>
<path transform="translate(220,345)" d="m0 0 9 1 10 5 2 5v8l4 3 6 1 23 13 3 1-2 6-4 2-22-12-26-14-11-6 1-6 1-2 3-3z" fill="#3C2640"/>
<path transform="translate(430,564)" d="m0 0v3l-3 4 15 2 54 3 3 1-2 4-19 12-17 11-23 15-34 22-21 13-14 8-9 6v-3l7-5 3-3 12-6 5-3 11-8 8-5 10-5 8-6 3-3 9-5 8-5 6-4h3v-2h2v-2l5-2 2-4 4-1 1-3 5-5v-4l3-6h-7l-4-1-22-1-13-1-5-3 3-5z" fill="#D02611"/>
<path transform="translate(430,293)" d="m0 0h3l-2 12-7 37-7 32-6 28-18 87v8l6-4 18-22 8-11 4-4-2 6-3 7-7 9-3 1-1 3h-2l-2 4-5 7-4 1v2l-3 2h-7v-8l2-12h2v-9l4-18 5-26 3-20 4-10 4-19v-9h2v-9h1l1-13 2-6 2-3v-20l1-5 2-8-3-4-8 3-4-1z" fill="#352852"/>
<path transform="translate(241,498)" d="m0 0h7l1 1 2 25-1 1h-73l-2-1v-8h67l-2-17z" fill="#2E1C2B"/>
<path transform="translate(697,249)" d="m0 0 8 1 7 4 4 7v11l-5 10-3-4 2-5v-5l-2-2-3-6h-7l-9 6-8 7-7 8-3 3-1-2-5 1-3 4 1 3-4-1h-3l2-5 8-11 9-10 9-8 9-5z" fill="#291C2C"/>
<path transform="translate(792,420)" d="m0 0 2 1-18 9-1 3 2 1-11 8-4 3-20 11-4-2-1-7 8-5 4-2-1-9-1-4h3 2l1-4 31-2z" fill="#2B2139"/>
<path transform="translate(814,486)" d="m0 0h3l1 2-1 9-46 4-10 1h-11v-2l-2-1-1-6 5-2 7-2 4 1h7l16-2z" fill="#29223A"/>
<path transform="translate(849,487)" d="m0 0 3 6v34l-4 31-2 17-2 2-2 12h-2l-3 12-6 18-6 16-2 6h-2l-1 4-1-2-2 5-4 1 2-6 9-22 10-29 7-25 4-24 2-18 1-4z" fill="#261D4D"/>
<path transform="translate(236,302)" d="m0 0 5 2 16 13 13 10 12 9 13 9 3 2-1 5-2 3-4-1-17-12-12-9-19-14-10-9 1-5z" fill="#592527"/>
<path transform="translate(340,815)" d="m0 0 10 4 19 8 24 8 32 8 31 5 28 2h46v1l-5 1-15 1h-29l-31-1-6 1-3-1v-3l-22-1-2-2-13-2-7-3h-5l-8-4-9-1v-2l-10-1-6-4-10-3-4-2-1-3-7-3z" fill="#231C4F"/>
<path transform="translate(390,726)" d="m0 0h8l2 1-1 5-7 18-3 7 2 1h-5l2-6 1-5-3 1-1 2 1 1-1 3-2 1-3 9-1 1 1 5 1 2-10 22-2 5-9-4 6-16 13-30 6-12 4-9z" fill="#2E223A"/>
<path transform="translate(437,756)" d="m0 0h1v27l-1 8 1 10-1 2-11-1-8-2-4 10-1 3-9-1-1-2 10-21 4-7 1 4 1 2-1 2 5-2 5-11z" fill="#291B2B"/>
<path transform="translate(287,249)" d="m0 0 4 2 12 13 11 12 14 15 7 8 5 4v2l-5 4-4-1-12-12-7-8-6-6v-2h-2l-7-8-6-6v-2h-2l-7-8 1-4z" fill="#552427"/>
<path transform="translate(462,407)" d="m0 0 2 1v2h-2l-2 5-14 19-11 14-13 17-12 16-6 7-7 8-4 1-1-2v-6l1-2 7-1 2-5 4-7 13-16 10-13 11-14 16-21 5-2z" fill="#FEF97E"/>
<path transform="translate(807,671)" d="m0 0 1 4-4 7h-2l-1 6-3 3h-4l-2 1 3 1 1-2v2l2 1-3 3-1 4-10 12-5 8-1 3 2 3-12 14-4 4v-5l3-4-3 1-2 5-3 1 1-4h2l2-4 7-8-4 2-2 2-4 5-5 5h-2l-2 4h-2l-1 3-3-1 6-8 11-12 11-14 10-14 11-17 5 1 6-11z" fill="#2A2041"/>
<path transform="translate(700,568)" d="m0 0h7l19 19 8 7 8 8 8 6v1l-7-1-17-8-29-13-17-7v-3h6l5 2v2h5l8 2v2l4-3-2-7-3 1-2-4-2-1z" fill="#D12612"/>
<path transform="translate(359,610)" d="m0 0v3l-22 28h-3l-12-15-6-8v-2l15-2z" fill="#332856"/>
<path transform="translate(149,565)" d="m0 0 2 3 5 19 12 34 9 22 12 25 11 20 12 18 10 13 7 9-2 4h-2v-2h2v-2l-4 1-1-3h-2l-3-5-11-14-15-25-5-9-8-16-8-18v-3l-2-1v-3l-1-4-3-3-3-13-1-6-2-3-1-5h-2l-2-12-2-5-2-11z" fill="#261726"/>
<path transform="translate(487,747)" d="m0 0 7 1 1 4-4 34-4 33-3 3-4-4 1-4 1 4 1-1-2-15v-14l2-26 2-14z" fill="#2D223A"/>
<path transform="translate(633,164)" d="m0 0 7 4h4v2l5 1 3 1 3 4 3-1 11 5 11 6 11 7 7 5 7 4 9 7v2h-3l1 2-4 1-2-1v-3l-6-2v-2l-6-2v-2l-6-2-10-6-9-5-1-3-4-1-4 1 2-2-4-2v-2l-3 2-4-1 3-3h-12l-2-4h-6l-2-5-8 1 3-5h5z" fill="#2D2E8C"/>
<path transform="translate(550,300)" d="m0 0 2 3 1 5-4 16-3 9-4 14-3 14-3 12-2 6-2 9-5 25-2 8-4 13-3 4-2 9-3 6-1 8-3 2 1-8 9-35 17-65z" fill="#3E274A"/>
<path transform="translate(182,671)" d="m0 0h4l4 8 12 20 8 12 9 11 5 6h3v2h-2v2l3-3 4 2 1 2h-3l5 5 2 4 7 8 5 4 7 8 9 9 10 8 2 3-6-1v-2l-3-1v-2l-4-1-10-10-2-1v-2l-4-2-23-23-11-14-2-1-4-7-6-8-3-3 1-1-3-3-4-6-1-5-3-2-3-5-2-6-3 1-2-5z" fill="#332854"/>
<path transform="translate(659,576)" d="m0 0 6 2 13 6 11 5 1 3-12 22-3 2-3-5-13-32z" fill="#3A2643"/>
<path transform="translate(352,747)" d="m0 0 10 4 7 4-3 9-10 13-8 7-8 1-8-3-5-4-1-3h3l3 2 2-1 1-2 8 1 8-9 5-10-6-2 1-6z" fill="#2F233A"/>
<path transform="translate(360,604)" d="m0 0h10l-2 5-9 13-11 13-8 10h-4l2-6 9-12 8-10 4-6-28 4-16 1-1-4 5-2z" fill="#FEF87A"/>
<path transform="translate(460,745)" d="m0 0 4 1-3 3 1 6-1 11 1 5-1 2h2l1 15-4 34h-7l-2-1v-9l8-66z" fill="#2D223A"/>
<path transform="translate(828,368)" d="m0 0 1 3h2l1-2 4 8 3 9 3 8 1 4 2 1 2 9 3 9v9h3l3 15 1 10-2-2-1 11-4-4-5-30-1-8-1-4-3-1 1-5-2-1-2-9-9-26z" fill="#2D2E8B"/>
<path transform="translate(785,356)" d="m0 0 3 2 5 14v6l-4 4-1-6-4 2-1-8-6 1-17 7-2 3-4-3 1-3-3 1-1-5 12-6z" fill="#2F2239"/>
<path transform="translate(513,572)" d="m0 0h1v6h-2l-1 4-3 1v2l-38 25-14 9-6 2v2l-12 7-15 10-7 4-7 3-4 2-3-1 14-9 16-10 18-12 22-14 26-17 14-10z" fill="#341B29"/>
<path transform="translate(312,388)" d="m0 0 1 2-4 9-5 15-6 13-7 28-2 6-3 18h-1v35l1 3v17l-2 1-2-17v-38l3-22 4-18 9-25 9-19z" fill="#342751"/>
<path transform="translate(336,649)" d="m0 0v3l-2 4-3 3v2l-4 4-4 7-3 2-1 10 2 7h2l2 1-17 11-13 8-6 4h-2l2-4 12-15 12-17 12-16z" fill="#D02611"/>
<path transform="translate(650,568)" d="m0 0 6 1 13 5 18 8v2l3 1 1 5-6-2-18-8-8-4 10 25 5 13 1 3-2 2-5-8v-2h-2l-12-27-4-11z" fill="#FEF877"/>
<path transform="translate(176,456)" d="m0 0h8l-2 16 20 2v4l3-1 6 1v3h5 4l1 2 4 1v2l-13-1-31-4-7-2 1-22z" fill="#2F223B"/>
<path transform="translate(756,259)" d="m0 0 2 1 17 17 3 6 5 7 4 4v2h2l2 3v4l4 2 4 8 7 12 12 24v5h2l2 3 1 8-3 1-12-27-10-19-9-15-10-14-12-16-9-10v-2h-2l-1-3z" fill="#2B203E"/>
<path transform="translate(648,177)" d="m0 0 6 1-1 3 5-1 5 4h2l5 5 6 3 14 8 4 2v2l6 2v2l6 2 5 7 10 5 8 8v2h2v2h2v2l4 2 4 4v2l3 1 5 5 4 3-1 2h2v2l2 1-3 1-27-27-17-13-16-12-21-13-19-10-11-5v-1z" fill="#271D45"/>
<path transform="translate(856,539)" d="m0 0 2 1-4 28-5 21h-2l-1 6-3 4-3 9h-3l-3 11-2 7-1 2-7 13-1-4 5-12 3-11 3-7 6-18 2-5 1-7 4-2 1-7 2-3h2l1-5h-2v-7l2-5 1-6z" fill="#221C51"/>
<path transform="translate(344,213)" d="m0 0h2l5 6 3 2v2l4 2 2 4 4 2 4 5 4 1 6 8 5 9v3l-3 1-2-2h-3l-7-10-16-15-2-1v-2l-4-2-10-8 3-3z" fill="#2B1C2D"/>
<path transform="translate(583,753)" d="m0 0 3 2 5 10 9 26 5 15-4 2h-6l-5-12-5-15v-11l2 1 1-1-1-5-5-2 1-6z" fill="#3B263F"/>
<path transform="translate(755,325)" d="m0 0h4v2l-10 6-7 4-3 3-26 11-13 6-4-1-1-6 5-5 6-5h2v4l-1 3-3 3 15-10 33-14z" fill="#221323"/>
<path transform="translate(681,646)" d="m0 0 3 4 14 34 8 19v2l-4-2-8-8-7-8-3-3 1-2v-3l-3-6v-3l-3-1-1-5 1-2h2l2-4 1 3h2l-5-11z" fill="#D02611"/>
<path transform="translate(220,335)" d="m0 0h8l10 4 8 7 2 3v5l-1-3h-2l-1 3h-2l-2 2-2-5-13-5h-5l-6 5v6l-6-1-2-2 1-4 6-10 4-4z" fill="#2E2239"/>
<path transform="translate(547,496)" d="m0 0 7 1 26 8 9 2 1-4 3-3 1-2 3 9 1 9-15-3-27-7-20-6 4-2 6-1z" fill="#FEF879"/>
<path transform="translate(571,431)" d="m0 0 6 2 6 4 10 9 7 8 9 8 8 7 6 8 13 12 15 15 6 5 7 8 6 5v2h2v2h2v2l-4-2-9-9-8-7-37-37-11-9-14-12-8-8-4-3v-2l-4-2-3-1-3 4v-7z" fill="#2E2547"/>
<path transform="translate(562,776)" d="m0 0 2 3 6 27 16-2 2 3-1 5-23 6h-3l-4-19 1-6 4 1 1-8z" fill="#41263C"/>
<path transform="translate(761,415)" d="m0 0 21 1v1l-5 1v2h15v1l-8 1-31 1v5l-7-1-1-1h-13l-3-7v-2l2-1z" fill="#28213B"/>
<path transform="translate(247,535)" d="m0 0 6 1 5 21v4l-30 4-7-1 4-1v-2l3-1-2-1v-2l7-2v-1l14-2-2-16z" fill="#2F2239"/>
<path transform="translate(553,291)" d="m0 0 18 6 23 10 14 8 14 10 14 11 9 8-1 2-5-2-2-4-4-2-8-6v-2h-2v-2l-4-2-3-2h-4l-3-3-8-5-24-12-10-4-9-2-4 1-1 6-2-2v-8z" fill="#231A48"/>
<path transform="translate(333,251)" d="m0 0 1 2h2l2 3 6 5 13 18 6 7-1 3-7 3-9-11-18-24 4-1h3v-2h-2z" fill="#592427"/>
<path transform="translate(483,282)" d="m0 0 4 1 5 10 5 16 4-5 8-14h3l1 6-9 16-7 14h-2l-6-21-6-19z" fill="#FCF02F"/>
<path transform="translate(509,747)" d="m0 0 5 1 3 8 10 37-1 4-5 1-1 3-6-26-2-8-1-11h-1l-1 7h-1l-1-7h-1l1-8z" fill="#201222"/>
<path transform="translate(800,164)" d="m0 0 6 4 28 28 9 11 11 13 12 16 19 29 12 21 9 17-1 3-11-20-6-10-25-40-5-5-9-12-13-15-9-10-7-8-7-7-6-7-7-6z" fill="#2B204D"/>
<path transform="translate(747,303)" d="m0 0 3 1-1 3h-2l-1 3-5 5-3 4h-2l-2 4-16 16-6 5v2l-6 4h-2l1-3 3-3-2-1 2-5 6-6h2v-2l8-7 7-8 3-1v-2l5-2 1-4z" fill="#271C2C"/>
<path transform="translate(488,283)" d="m0 0h23l2 2-11 19-4 6-3-3-5-17-2-4z" fill="#2B1C2C"/>
<path transform="translate(697,249)" d="m0 0 8 1 7 4 4 7v11l-5 10-3-4 2-5v-5l-2-2-3-6h-7l-5 2v-3l-4-1-4 1h-5l4-4 9-5z" fill="#271A28"/>
<path transform="translate(158,593)" d="m0 0 2 2 10 25 3 9 4 10 3 5 3 7 8 16 8 14 12 20 10 13 12 16 5 6 10 10-1 2-13-13-9-11-12-15-12-18-9-16-12-23-10-23-12-33z" fill="#FFFB8E"/>
<path transform="translate(437,766)" d="m0 0 3 4 4 7v10l-2 34-8-1-2-4 2-13h3v-6l-1-6 1-10z" fill="#241929"/>
<path transform="translate(441,428)" d="m0 0v3l-13 16-10 13-14 18-2 2 1-13 5-25 2-8h1l-1 14 1 3 7 2 14-14 2-5z" fill="#D02611"/>
<path transform="translate(813,522)" d="m0 0 3 1v7l-2 3-31 3-5 2-1-2-6-2-2-2 5-2 36-7z" fill="#291A2A"/>
<path transform="translate(462,411)" d="m0 0h3l5 13 12 29 1 6-2-4h-2l-8-19-5-15-2-1-2 4-3 1v2l-4 4h-2v2h-2l-2 4-12 12h-2l-2 5-1 2-3-1 10-13 16-21z" fill="#6A2525"/>
<path transform="translate(620,156)" d="m0 0 16 6 20 9 21 11 23 15 17 12 11 9 5 5-2 1-1-2-6-3v-3l-9-1-5-4 1-2 3 2-5-5-8-6-9-5-8-6-11-6-12-6-5-1h-3l-1-4-5-1-3-1v-2l-5 1v-2l-6-2-3 1-5-2-1-4-4-2z" fill="#34264F"/>
<path transform="translate(764,321)" d="m0 0 4 2 2 5-8 7-14 11-12 10-3 1-1-2h2l1-4h2l1-3 5-3h2v-2l1-1-4-1 2-3-3-1 15-9 3-1v-2l-2-1z" fill="#241A2B"/>
<path transform="translate(453,146)" d="m0 0h67l12 2 1 2-12-1h-47l-35 4-29 6-29 8 1-5 10-2 3-3 7 1 12-3 16-3 2-1 16-2 2-2z" fill="#3B253A"/>
<path transform="translate(775,538)" d="m0 0 7 2 4 1 6 1 14 6 5 2 1 5-1 6-5-2-16-8-16-7z" fill="#2B203F"/>
<path transform="translate(846,587)" d="m0 0 1 2 2 1-7 24-8 19-9 19-4-3 3-9 6-13 1-3 6-16h3l2-9 2-3z" fill="#241D51"/>
<path transform="translate(318,310)" d="m0 0 4 1 2 4-1 6-7 7-5 2-10-1-1-5-4-4-3-1v-2l3-1 1-2 7 4h7l3-1 2-5z" fill="#392644"/>
<path transform="translate(340,734)" d="m0 0 4 2v2h-2l-1 5-3 3v2l-4 2v3l-2 1-1 10-1 2-3 1 4 2 2-7h1l1 10v4l-4 2-4-3h-2l-2-5 1-9 5-13 6-12z" fill="#241A2A"/>
<path transform="translate(510,761)" d="m0 0h2l8 36v4l-14 1 3-34z" fill="#FEFA85"/>
<path transform="translate(266,268)" d="m0 0 6 1 2 1v3l-6 4-1 7 2 5v3l-2 1v4l3 3-1 3-4-2-7-10-1-2v-12l4-6z" fill="#3E263E"/>
<path transform="translate(390,726)" d="m0 0h8l2 1-1 5-7 18-3 7 2 1h-5l2-6 1-5-3 1-1 2 1 1-1 3-6-1-1 2 1-6 6-12 4-9z" fill="#2B2138"/>
<path transform="translate(437,756)" d="m0 0h1v10l-3 29-3 1-11-3 2-5 5-11z" fill="#FEF984"/>
<path transform="translate(622,476)" d="m0 0 5 2 8 6 9 6 3 4v2l3 1 7 8 8 10 22 22 8 7 5 2 2 5-9-5-11-11-5-3-3-3v-3h-2v-2h-2v-2l-4-2-4-4v-2l-4-2-1-3-3-1-26-26-6-5z" fill="#312856"/>
<path transform="translate(849,487)" d="m0 0 3 6v34l-4 31-2 10-3-2v-10l4-31 1-4z" fill="#211B4F"/>
<path transform="translate(492,500)" d="m0 0 1 3-10 13-9 11-9 10-2 3h-2l-2 4-4 5h-2l-2 4-7 8 1 5 63 3 5 1-1 2-47-3-24-1-3-1 2-5 10-11 9-11 12-14 13-16z" fill="#7A2521"/>
<path transform="translate(627,259)" d="m0 0 1 4 3 2v12l3 5 8 4 1 2-5 5-6-1-8-6-3-6 4 1v-6l-3 1 1-12z" fill="#321C2A"/>
<path transform="translate(792,420)" d="m0 0 2 1-14 7-20 8h-4l-2-12z" fill="#FEFA8A"/>
<path transform="translate(402,443)" d="m0 0 2 1 2 4 1 4-3 15-1 14-3 5-5 2-2-1 3-18z" fill="#FCEF26"/>
<path transform="translate(178,672)" d="m0 0 4 4h2l3 6v3l4 2 2 2 2 6 3 5v2l3 1-1 2 5 5 7 9v3l4 2 2 7 2 4-6-5-12-16-16-24-8-15z" fill="#261A34"/>
<path transform="translate(775,479)" d="m0 0 11 1-1 3-19 6-14 3-4 1-1 3 3 1h-2v2l3 1-2 3h-6l-2-7 1-5 8-3z" fill="#231120"/>
<path transform="translate(474,148)" d="m0 0h47v1l-47 2-5 1-28 2-23 5-31 8-26 9-3-1 18-7 23-7 24-6 23-4z" fill="#FEFA8B"/>
<path transform="translate(402,436)" d="m0 0h1l-1 10-7 33-2 10v8l6-4 18-22 8-11 4-4-2 6-3 7-7 9-3 1-1 3h-2l-2 4-5 7-4 1v2l-3 2h-7v-8l2-12h2v-9l4-18 3-12z" fill="#3A2544"/>
<path transform="translate(814,486)" d="m0 0h3l1 2-1 9-13 1h-15l1-4 7-2-4-1v-2h-7v-1z" fill="#332339"/>
<path transform="translate(740,377)" d="m0 0h7l-2 1 1 6-24 11h-3l-3-6v-3l15-7h9z" fill="#312339"/>
<path transform="translate(779,369)" d="m0 0 5 1v6l-3 5-14 6-4-1-4-6 1-3z" fill="#FEFA8C"/>
<path transform="translate(464,745)" d="m0 0 4 1 2 6 2 8v8l-2 6h-2l-2-7-2 15h-1v-9h-2v-5l-1-2 1-12-1-5z" fill="#1F1223"/>
<path transform="translate(208,461)" d="m0 0 8 1-1 13 12 2 7 1v2l-5 1 1 4h-6l-4-2h-4v-2h-5v-3h-9v-2h-6v-1h12z" fill="#32264B"/>
<path transform="translate(732,768)" d="m0 0 2 1-2 1zm-1 2m-1 1m-1 1m-2 1 2 1v5l-9 8-18 13-11 7-9 5-1-4 9-7 7-4 13-9 9-7h2l1-3h2v-2z" fill="#241E56"/>
<path transform="translate(435,513)" d="m0 0 3 1-44 22-23 10-21 10-17 9h-2v-2l17-9 6-3 2-2 7-2 1-2 7-2 1-2 9-3 6-3h2v-2l9-3 15-7 8-4z" fill="#672524"/>
<path transform="translate(526,796)" d="m0 0h2l6 22v4l-2 1h-8l-3-13-2-2 1-6h-12v-1h13v-3z" fill="#2F223B"/>
<path transform="translate(440,741)" d="m0 0 5 2 1 5-1 21-1 8-6-6-1-13-3-1 1-7 3-8z" fill="#211222"/>
<path transform="translate(420,339)" d="m0 0 4 1-4 20-8 39-5 22-3 15h-2l-1 3 1-9 3-16 1-9 4-10 4-19v-9h2v-9h1l1-13z" fill="#3E2640"/>
<path transform="translate(216,727)" d="m0 0 4 2 9 11 21 21 2 1v2l4 2 8 8h-3l-5-4-1 2-8-7-20-20-7-8-2-5-2-2z" fill="#231C4F"/>
<path transform="translate(147,601)" d="m0 0 4 6 2 7 3 6 2 6 2-1 1 6 3 3 1 7 2-1 4 10 7 15v5l-3-1-21-43-7-20z" fill="#261C4A"/>
<path transform="translate(498,491)" d="m0 0 6 5 7 9 4 5 3 5 3 3-1 2-15-15-3-4-4 1-5 5-9 12-7 7-7 8-6 5 2-4 10-11 10-13 6-8 2-6z" fill="#441C24"/>
<path transform="translate(367,712)" d="m0 0 6 2 7 6 1 2v12l-2 2-8-1-1-5-2-7-3-4 1-3h2z" fill="#221A2E"/>
<path transform="translate(785,356)" d="m0 0 3 2 5 14v6l-4 4-1-6-4 2 1-10-1-2-9 3-4-1h-3v-2l5-4h2v-2z" fill="#251928"/>
<path transform="translate(768,734)" d="m0 0v3l-3 3-2 7-22 22-11 9-2-1 1-4 4-4v-3l3-3 3-1 2-2 6-3 9-10 7-8z" fill="#271C48"/>
<path transform="translate(749,241)" d="m0 0 5 1 10 10 7 8 10 12 14 19-1 3-4-2-10-14v-3l-4-1v-2l-2-1 1-1-4-2-2-4v-4l-3 1-4-5-5-4-1-3-4-2-4-5z" fill="#2A1E37"/>
<path transform="translate(513,572)" d="m0 0h1v6h-2l-1 4-3 1v2l-33 22-10 4-4 3h-5l5-4 20-13 17-11 14-10z" fill="#612528"/>
<path transform="translate(341,607)" d="m0 0h15l5 2-2 2-28 4-16 1-1-4 5-2z" fill="#FEF97F"/>
<path transform="translate(175,517)" d="m0 0h57l-2 2v3h-16l-1-1-1 1h-9v-2h-12l-3 2h-12z" fill="#170D1E"/>
<path transform="translate(570,440)" d="m0 0 2 3 16 54 2 10-2 1-28-8-13-4v-1l12 1 2 1v2l8 1 10 2h6l-2-11v-5h-2l-4-16-1-8h-2l-4-15z" fill="#752521"/>
<path transform="translate(649,816)" d="m0 0 2 1-2 3h-5v3l-15 5h-4l-2 4-3-1-4 2-3 3h-7l-7 3-10 1v3l-6 2-3-3h-6v-1l23-6 23-7 20-8z" fill="#2E2148"/>
<path transform="translate(308,278)" d="m0 0 1 2h3v2l4 2 1 3h2l5 5 8 7 3 2 4 1 1 3-5 4-4-1-12-12-7-8-6-7z" fill="#2F1B28"/>
<path transform="translate(182,671)" d="m0 0h4l4 8 12 20 8 12 5 6-1 2-4-1-8-11-3-3 1-1-3-3-4-6-1-5-3-2-3-5-2-6-3 1-2-5z" fill="#35274E"/>
<path transform="translate(229,732)" d="m0 0 5 1 7 8 18 18 8 7 2 6 3 1-1 2-7-4-15-15v-2l-4-2-8-8-2-5-2-4-4-2z" fill="#261E47"/>
<path transform="translate(602,730)" d="m0 0h2l1 5 3 5 1 5 2 5 4 2 2 11v4 4l-3-3-3-5-1-4-3-4-2-6-5-9-2-1-2-4 1-4 5 2z" fill="#362643"/>
<path transform="translate(805,684)" d="m0 0 2 4-12 19-12 16-2 3-5-1 3-5 7-11 8-9 1-4 4-2 2-4 3-5z" fill="#251D48"/>
<path transform="translate(149,565)" d="m0 0 2 3 5 19 12 34 9 22v2l-4 1-3-7v-3l-2-1v-3l-1-4-3-3-3-13-1-6-2-3-1-5h-2l-2-12-2-5-2-11z" fill="#281A2A"/>
<path transform="translate(236,302)" d="m0 0 5 2 11 9 2 7v3l-4 1-9-7-8-7 1-5z" fill="#5F2526"/>
<path transform="translate(749,371)" d="m0 0h2l2 4h2v3l5 2 2 5-1 6 1 2-2 2-5-5-5-7-6-1 1-4-10 2-1-2z" fill="#3B2641"/>
<path transform="translate(700,785)" d="m0 0 2 1-4 4-3 5h-2l-1 3-8 4-7 3-1 2h-6l-2 2-1 3-5 3-7 2v2h-6l3-5 19-10 21-13z" fill="#2C2354"/>
<path transform="translate(654,220)" d="m0 0h11l8 5 3 3-1 5-2 2-5-1-4-4-7 1-5 2v-3h2l2-4-3-3z" fill="#2C1B29"/>
<path transform="translate(587,782)" d="m0 0 2 1 1 4 1-5 6 4 5 15-1 7h-6l-5-12-3-9z" fill="#2D233B"/>
<path transform="translate(641,648)" d="m0 0 4 2-1 5-13 11-19 14-16 10-17 8-2-1 7-4 8-4h2l1-3 9-5 7-2 2-4 5-3v-3l4-1 1-3 9-4 9-6z" fill="#291E4D"/>
<path transform="translate(388,746)" d="m0 0 2 1-1 5-3 6h9l5 3 1 2-2 4-8-1-5-2-4 6-3 1-1-7h2l2-9 4-4-3 1v-2h2l1-3z" fill="#261C49"/>
<path transform="translate(220,345)" d="m0 0 9 1 10 5 2 5v6l-7-2-12-7-4-2 1-5z" fill="#FEFA88"/>
<path transform="translate(593,598)" d="m0 0 4 2 6 4 23 23 7 8 12 12 3 5-3 2-1-4-4-2-5-6v-2l-4-2-8-8-7-8-9-9v-2l-4-2-1-3-3-1v-2l-4-2z" fill="#372543"/>
<path transform="translate(808,461)" d="m0 0h7l1 1v9l-7 1-2-3-1 2-3-2 6-3-9-1h-15l-11 1h-23v-1l5-1z" fill="#281A29"/>
<path transform="translate(517,488)" d="m0 0 8 1 22 6-1 3-6 1h-7l-15-4-9-1v-2h4v-2z" fill="#FEF97E"/>
<path transform="translate(176,456)" d="m0 0h8l-2 16 3 1h-4v2l2 1 1 4 2 1-10-1-2-1 1-22z" fill="#2B121F"/>
<path transform="translate(666,281)" d="m0 0h5l-1 5-6 10-3 6h-2-1l-2 1-1 5-2-2-1-6 2-8 1-3 4-2 1 2h2l-1-3z" fill="#342237"/>
<path transform="translate(268,289)" d="m0 0 5 5 7 8 12 9 1 4-2 1-2-1v-2l-2-1v-2l-4 1-5-4-5 2-5-5 1-5-3-2 1-5z" fill="#562527"/>
<path transform="translate(201,695)" d="m0 0 5 2 9 13 11 14 3 5-2 3h-2v-2h2v-2l-4 1-1-3h-2l-3-5-11-14-5-8z" fill="#221425"/>
<path transform="translate(832,365)" d="m0 0h2l8 18 10 36 1 7-2 1v5l-2-2v-13l-2-5-1-4-1-9-3-1-3-9-3-11-3-4-2-5z" fill="#261C4D"/>
<path transform="translate(256,236)" d="m0 0 2 1-1 4-25 25 1-4 2-9h2l2-4h2l2-4 4-4h2v-2l4 1v-2z" fill="#3A253F"/>
<path transform="translate(583,746)" d="m0 0 3 3 3 9-1 4-4-8v7 2l5 5v5h-2-1v6l-2-1-9-26v-5l4 5 2-2z" fill="#2F2136"/>
<path transform="translate(858,473)" d="m0 0 2 4v43l-2 16h-1v-20l-1 11h-1v-53h1l1 5z" fill="#241E57"/>
<path transform="translate(416,735)" d="m0 0 7 2-1 7-9 22-2 1 3-9v-4l-5-5 3-9 2-4z" fill="#241928"/>
<path transform="translate(285,535)" d="m0 0 3 2 1 8 1 1v9h2l3 4-1 7 5 5v2l9 1 2 2-10 5h-3l-5-13-6-21z" fill="#3F2749"/>
<path transform="translate(756,259)" d="m0 0 2 1 17 17 3 6 5 7 4 4v2h2l2 3v3l-5-1-7-10-12-16-9-10v-2h-2l-1-3z" fill="#2A1F36"/>
<path transform="translate(746,295)" d="m0 0h5l3 6-4 4-3-1-7 3-1 4-4 1v-2h-2l-2-4v-3z" fill="#30233B"/>
<path transform="translate(581,804)" d="m0 0h5l2 3-1 5-23 6h-3v-4l4 1v-2h3l1-5z" fill="#381B25"/>
<path transform="translate(278,783)" d="m0 0 5 2 10 7 6 3h3l2 2-2 1 7 4h4v2l2 2-5 2-7-4-3-1-2-3-5-2-1-2-4-2-2 3-2-5-4-4-4-2z" fill="#2F2656"/>
<path transform="translate(845,575)" d="m0 0h1l-1 9-6 19-3 10-4 11-1 4-7 13-1-4 5-12 3-11 3-7 6-18 2-5 1-7z" fill="#2E2E8D"/>
<path transform="translate(184,411)" d="m0 0h7l2 1-1 4-1 1v11 3l-4 2-1-2h-2l-3-8 1-9z" fill="#2D1B28"/>
<path transform="translate(633,243)" d="m0 0 1 3-3 6v7h2l-1 7h-3v-2l-2-1-1-1-2 2-1 11h2l1 7-6-2-1-9 4-14 4-7h3l2-5z" fill="#24192A"/>
<path transform="translate(682,587)" d="m0 0 6 1 2 4-12 22-3 2-3-5-1-6 9-3 2-2-1-11z" fill="#392132"/>
<path transform="translate(483,459)" d="m0 0 3 4 8 20v3l-22 10-15 9-16 8-3-1 17-9h2v-2l7-3 9-5h3v-2l7-3 4-3h2v-11h-2l-4-9z" fill="#752525"/>
<path transform="translate(550,300)" d="m0 0 2 3 1 5-4 16-3 9-3 10-2 1-2 10-2 5-1-4z" fill="#312751"/>
<path transform="translate(729,314)" d="m0 0 2 2-9 10-4 4h-2v2l-8 7-6 4 2-4 1-3 1-4 2-4 16-10z" fill="#FEFA8A"/>
<path transform="translate(755,325)" d="m0 0h4v2l-10 6-7 4-3 3-2 1h-7v-2h-7l3-2z" fill="#211424"/>
<path transform="translate(483,282)" d="m0 0 4 1 5 10 4 14v8l-5-3-8-26z" fill="#FEF875"/>
<path transform="translate(367,202)" d="m0 0h3l3 13v5l-5 2 1 6-2-1-6-18v-4z" fill="#26111F"/>
<path transform="translate(340,815)" d="m0 0 10 4 19 8 3 2-3 3-4 1-6-4-10-3-4-2-1-3-7-3z" fill="#2C224F"/>
<path transform="translate(436,776)" d="m0 0h1l1 7-1 8 1 10-1 2-11-1-7-2v-2l-2-1h2v-4l9 1 6 1z" fill="#21172A"/>
<path transform="translate(312,388)" d="m0 0 1 2-4 9-5 15-6 13-1 4h-2l-3 9h-1l1-9 7-18 8-17z" fill="#271D4D"/>
<path transform="translate(785,709)" d="m0 0v3l-6 9-1 3 2 3-12 14-4 4v-5l3-4-3 1-2 5-3 1 1-4h2l2-4 13-15 6-9z" fill="#37213E"/>
<path transform="translate(649,568)" d="m0 0 2 3 8 20 12 28 9 22-1 3-8-18-3-7-5-10-4-10-6-12-2-5-3-13z" fill="#D02611"/>
<path transform="translate(776,713)" d="m0 0 1 4-2 3h-2v2h-2l1 4-5 3-2 2-4 5-5 5h-2l-2 4h-2l-1 3-3-1 6-8 11-12 9-11z" fill="#2B223C"/>
<path transform="translate(790,480)" d="m0 0h2l2 6h13v1l-32 3-5 1h-9l2-2z" fill="#FEFA89"/>
<path transform="translate(666,178)" d="m0 0 5 1 14 8 21 14 12 9 10 8 5 5-2 1-1-2-6-3v-3l-9-1-5-4 1-2 3 2-5-5-8-6-9-5-8-6-11-6-6-3z" fill="#312147"/>
<path transform="translate(554,740)" d="m0 0 2 1 1 9-2 9-5 5-4-18v-4z" fill="#291A28"/>
<path transform="translate(842,562)" d="m0 0 2 4 2 2v7l-2 2-2 12h-2l-1 6-7 5 2-8 7-25z" fill="#261F4C"/>
<path transform="translate(795,294)" d="m0 0h2l12 20 9 17v5h-2l-3-6-8-13-5-10-6-9z" fill="#271E4B"/>
<path transform="translate(373,219)" d="m0 0 2 3 5 22 2 4-3 1-10-15-1-9v-3z" fill="#281A2A"/>
<path transform="translate(487,747)" d="m0 0 7 1 1 4-1 9-6 6-3-2-1-3v-9l1-5z" fill="#271A29"/>
<path transform="translate(573,735)" d="m0 0h6l2 1v4h-3v2h-4v2l-8 3h-6l-1-7 8-3z" fill="#2A1B2C"/>
<path transform="translate(685,296)" d="m0 0 2 1-6 6-3 5h-3v2l-5 2-7-1-4 2-4-4v-6l3-4 1 3h2v-5h1l2 8 2 2 7-1 10-8z" fill="#241A29"/>
<path transform="translate(619,762)" d="m0 0h3l9 19 4 5h-2l-1 4-4-1-4 1-5-10 1-3 3 1 2-3-4-8z" fill="#322236"/>
<path transform="translate(688,303)" d="m0 0 2 3-8 7-10 6-6-1-5-4 2-4 7 1 3-1-1-2 3-1 4 1v2l5-3z" fill="#392640"/>
<path transform="translate(478,800)" d="m0 0 2 3 2-1 2 16h-2l-1-3 1 5 2 1 2-3v6h-9l-2-4-1-13 1-3h3z" fill="#301E30"/>
<path transform="translate(370,829)" d="m0 0 7 1 27 8 4 2-7 3-4-2h-5l-8-4-9-1v-2l-6-2-2-2z" fill="#291E45"/>
<path transform="translate(409,475)" d="m0 0 4 2-9 11-7 8-4 1-1-2v-6l1-2 7-1 2-5 3-5z" fill="#FEFA84"/>
<path transform="translate(813,522)" d="m0 0 3 1v7l-1 2-19-1-6-2v-2l20-4z" fill="#23111F"/>
<path transform="translate(617,473)" d="m0 0 4 2 16 15 14 14 6 5 7 8 6 5v2h2v2h2v2l-4-2-9-9-8-7-36-36z" fill="#732521"/>
<path transform="translate(541,343)" d="m0 0 1 4-3 14-3 12-2 6-2 9-1 3-3 3-2 3 1-8 8-30h2l3-15z" fill="#452439"/>
<path transform="translate(744,337)" d="m0 0 2 1-7 6-17 12-5 3 1-4 6-10z" fill="#FEFA88"/>
<path transform="translate(359,610)" d="m0 0v3l-7 8-2-1 4-5 1-2-9 2-9 1-1 1-12 2-2 4h2l2 4-2 2-8-11v-2l15-2z" fill="#341E30"/>
<path transform="translate(615,323)" d="m0 0 8 5v2h2v2l2 1-1 1 11 9 10 10h-3l-7-4-5-6-10-7v-2l-4-2v-2l-4-1z" fill="#302857"/>
<path transform="translate(285,215)" d="m0 0 2 1-14 11-11 10h-3v-2h-2l2-4 3-3h4v-3l4-1 1-3 4-2 2 1 2-4z" fill="#2F233D"/>
<path transform="translate(787,414)" d="m0 0h19l2 1v2h-11v2l-14 2h-6l-2-2v-2l-6-1v-1z" fill="#1E1829"/>
<path transform="translate(344,213)" d="m0 0h2l5 6v4l5 6-1 4-5-3v-2l-4-2-10-8 3-3z" fill="#291B29"/>
<path transform="translate(465,762)" d="m0 0h1l6 33v6l-2-3-5-5-2 1 1-17z" fill="#FEFA88"/>
<path transform="translate(458,849)" d="m0 0 26 1h46v1l-5 1-15 1h-29l-20-1z" fill="#291D47"/>
<path transform="translate(513,415)" d="m0 0 1 4-14 53-1 3h-2l-6-14 1-3 1 4 7-1 3-10z" fill="#D02711"/>
<path transform="translate(731,416)" d="m0 0h33v1l-10 1-1 2v-3l-12 2 1 3v3l-2 1h-8l-3-7v-2z" fill="#281A2B"/>
<path transform="translate(509,288)" d="m0 0 2 1-13 21-3-3-2-10h2v-3l5-2v2l6-2z" fill="#5C2426"/>
<path transform="translate(550,142)" d="m0 0h7l3 2 3 1 1 4-4 1-1 2-17-2v-4h2v-2l6-1z" fill="#2E2F8E"/>
<path transform="translate(256,770)" d="m0 0 4 2 5 3 3 1 3 3v2l7 2-1 3 4 2v2l4 2 1 2-2 2-13-10-13-11-2-2z" fill="#261F48"/>
<path transform="translate(797,546)" d="m0 0 7 1 7 3 1 5-1 6-5-2-12-6 4-3z" fill="#281220"/>
<path transform="translate(648,177)" d="m0 0 6 1-1 3 5-1 5 4h2l5 5 12 6-2 2-5-1-18-10-15-7v-1z" fill="#2D224E"/>
<path transform="translate(247,535)" d="m0 0 6 1 2 9v7l-6 1-1 2-2-2 1-3-2-10v-4z" fill="#26111F"/>
<path transform="translate(627,259)" d="m0 0 1 4v17h2v6l2 4h-3l-5-4-3-6 4 1v-6l-3 1 1-12z" fill="#382641"/>
<path transform="translate(432,151)" d="m0 0h8l-1 2-29 6-29 8 1-5 10-2 3-3 7 1 12-3 16-3z" fill="#3C2640"/>
<path transform="translate(706,340)" d="m0 0h2v4l-1 3-3 3 6-1 3 2-13 6-4-1-1-6 5-5z" fill="#241726"/>
<path transform="translate(462,418)" d="m0 0 3 1-3 5-3 1v2l-4 4h-2v2h-2l-2 4-12 12h-2l-2 5-1 2-3-1 7-9 5-4 4-5 8-11z" fill="#322855"/>
<path transform="translate(808,330)" d="m0 0 3 4 5 11 2 4v5h2l2 3 1 8-3 1-12-27-2-5z" fill="#2C203D"/>
<path transform="translate(734,757)" d="m0 0 3 1-1 3h-2l-2 4h-2v2l-2 1-2 5-5 4h-3v2l-5 2-1-5 14-11z" fill="#281F46"/>
<path transform="translate(182,544)" d="m0 0 6 2 1 14-1 3h-2v-2h-2l1 6h-2l-3-17v-5z" fill="#29121F"/>
<path transform="translate(241,498)" d="m0 0h7l1 1v21h-1v-6l-5 2-2-6-1-11z" fill="#241120"/>
<path transform="translate(245,351)" d="m0 0 4 1v5l12 1-3 2h-7v2h-3l-1 6-4-2-3-3 1-9 3-1z" fill="#322339"/>
<path transform="translate(199,369)" d="m0 0 5 1 2 4-3 5 1 3 4 2v1h-6l-3-1h-6l3-10z" fill="#301A27"/>
<path transform="translate(369,237)" d="m0 0h3l6 8 5 9v3l-3 1-2-2h-3l-3-5-2-5-1-4z" fill="#2C2238"/>
<path transform="translate(481,788)" d="m0 0h1l1 9 3 2 2 4-1 16-3 3-4-4 1-4 1 4 1-1-2-15z" fill="#3A2540"/>
<path transform="translate(428,154)" d="m0 0h5l-1 2-27 6-24 7-20 7-3-1 18-7 23-7 24-6z" fill="#FFFB8E"/>
<path transform="translate(270,112)" d="m0 0 2 1-12 8-20 13-7 6h-2v2l-6 3-5 5-10 7-2-1 17-14 18-13 23-15z" fill="#2E2048"/>
<path transform="translate(283,477)" d="m0 0h1l1 12v25l1 3v17l-2 1-2-17v-38z" fill="#2A204D"/>
<path transform="translate(349,271)" d="m0 0 3 1 9 12 2 4-8 4-5-6v-6l2-2z" fill="#331C28"/>
<path transform="translate(873,251)" d="m0 0h3l12 19 14 25 4 8-1 3-11-20-6-10-10-16z" fill="#281D4D"/>
<path transform="translate(820,649)" d="m0 0 4 2-1 5-7 15-5 1-1-9h3l-1-4 4-1z" fill="#2E1F41"/>
<path transform="translate(229,336)" d="m0 0 5 1 9 6 5 6v5l-1-3h-2l-1 3h-2l-2 2-3-10-1-5h-7z" fill="#302339"/>
<path transform="translate(312,800)" d="m0 0 5 2 16 9 7 4-1 2-6-1-18-9v-2l-3-1 1-2-2-1z" fill="#251C4B"/>
<path transform="translate(808,415)" d="m0 0 2 4-6 5-9 5h-2l1-5-3-1 2-2-1-2h5v-2l6-1 5 1z" fill="#2C1E30"/>
<path transform="translate(195,383)" d="m0 0h5l-1 3-2 1 5 2v2l-4-1-1 8-1 1h-6l-2-2 1-5 3-8z" fill="#341D29"/>
<path transform="translate(708,518)" d="m0 0h1l-1 14-4 24-4-2-16-15-4-5 4 2 10 10 7 4-2-3 5-4 3-22z" fill="#51222F"/>
<path transform="translate(266,268)" d="m0 0 6 1 2 1v3l-6 4-1 2h-2l-1 4v-3l-6-1 1-6z" fill="#34151F"/>
<path transform="translate(344,736)" d="m0 0 1 3-8 16-1 6-2 3h-1l-1 7-3-3-4-1 5-2v-7l2-5h2l1-5h3l-1-3h2l1-3 2-4h2z" fill="#2F2137"/>
<path transform="translate(657,509)" d="m0 0 8 6 22 22 8 7 5 2 2 5-9-5-11-11-5-3-3-3v-3h-2v-2h-2v-2l-4-2-4-4v-2l-4-2z" fill="#33264B"/>
<path transform="translate(455,710)" d="m0 0h8l7 1 23 1h18l20-1v1l-13 2-14 1h-14l-22-2-13-2z" fill="#402746"/>
<path transform="translate(400,649)" d="m0 0h2v2l-5 3-4 4-8 5-6 2v2l-4 3h-2l1 5-4-2-3-2 1-3 20-11z" fill="#3C1F3C"/>
<path transform="translate(739,526)" d="m0 0 20 3 1 2-3 1-7-1-4 2 1 4h-9l-1-1v-7z" fill="#271A29"/>
<path transform="translate(242,464)" d="m0 0h7l1 1-1 14-2 2h-4l-1-2z" fill="#241120"/>
<path transform="translate(651,221)" d="m0 0h2v2l3 1 1 3-7 5h-2v2l-4 3-1 3h-4l1-3 1-1-1-2 3-5 7-6z" fill="#2E233D"/>
<path transform="translate(821,641)" d="m0 0h2l-1 6-6 13h-5l-2 1-2-2 5-10 5-1v-5l3 1z" fill="#29204B"/>
<path transform="translate(747,303)" d="m0 0 3 1-1 3h-2l-1 3-5 5-3 4h-2l-1 3-2-4-2-1 1-3h2v-2l5-2 1-4z" fill="#2C2042"/>
<path transform="translate(499,498)" d="m0 0 3 1-4 3-5 5-9 12-7 7-7 8-6 5 2-4 10-11 10-13 8-10z" fill="#30264E"/>
<path transform="translate(593,498)" d="m0 0 2 1 3 12v5l-15-3v-3h9v-2l-3-1 1-4 3-3z" fill="#FCF02F"/>
<path transform="translate(807,671)" d="m0 0 1 4-4 7h-2l-1 6-3 3h-4l-2 1 3 1 1-2v2l2 1-4 3-1-2-4-2 2-5 4-6 5 1 6-11z" fill="#342342"/>
<path transform="translate(200,383)" d="m0 0 2 1h7l8 3v3h-5l1 3-4 1-7-3v-2l-6-1z" fill="#37253F"/>
<path transform="translate(768,218)" d="m0 0 4 2 12 12 7 8 5 6v2h2l10 13 9 13-1 2-13-17-11-14-10-11-7-8-7-7z" fill="#2E214B"/>
<path transform="translate(475,775)" d="m0 0 2 2h5v11l-1 15-2 2-4-25z" fill="#FFFB8E"/>
<path transform="translate(663,528)" d="m0 0 4 2 13 13 8 7 15 15 2 1v2l-4-2-4-1v-2h-2l-3-5-5-6-3-2v-2l-4-2-9-8v-2l-4-2v-2l-4-2z" fill="#D02711"/>
<path transform="translate(799,470)" d="m0 0 4 1-4 2-1 2 3 1-8 4-7 2v-2h-6l-2-2z" fill="#261D4A"/>
<path transform="translate(369,782)" d="m0 0 2 1 1 9-3 7-9-4 4-11 2 2z" fill="#2E1A27"/>
<path transform="translate(178,672)" d="m0 0 4 4h2l3 6v3l4 2 2 2 2 6 2 4-4-1-5-5-8-14-2-4z" fill="#2C1F3C"/>
<path transform="translate(360,604)" d="m0 0h10l-2 5-9 13-1-2 2-7v-4l-14-2v-1z" fill="#FCEF23"/>
<path transform="translate(787,471)" d="m0 0h9l-2 2-22 8-3-1 2-7z" fill="#FEFA86"/>
<path transform="translate(411,392)" d="m0 0h2l-3 14-6 30h-2l-1 3 1-9 3-16 1-9 4-10z" fill="#3F2743"/>
<path transform="translate(461,748)" d="m0 0 1 3 3 1 1 10-1 15-1 5h-1v-9h-2v-5l-1-2 1-12-1-5z" fill="#2C1E33"/>
<path transform="translate(696,324)" d="m0 0 7 1-4 3h-2v2l-2 2-4 1h-2v6h-3l-4-4 1-4z" fill="#2F1B28"/>
<path transform="translate(318,310)" d="m0 0 4 1 2 4-1 6-4 3-1-2h-3l-5-2 2-3h2l2-5z" fill="#3B2334"/>
<path transform="translate(196,832)" d="m0 0 4 2 11 9 2 1v2l4 2 13 11 12 8 8 6-1 2-14-10-12-9-13-11-11-9z" fill="#312146"/>
<path transform="translate(212,542)" d="m0 0h7l1 1 2 13-4 1-4-2-3-12z" fill="#2A121F"/>
<path transform="translate(133,473)" d="m0 0h1l1 47-1 7-2-1v-52z" fill="#2C204E"/>
<path transform="translate(402,436)" d="m0 0h1l-1 10-7 33-4 19h-1v-8l2-12h2v-9l4-18 3-12z" fill="#45263B"/>
<path transform="translate(763,422)" d="m0 0h10v1l-8 1h-11l2 6v7l3 1-7 2-2-2-3-11h3 2l1-4z" fill="#421F29"/>
<path transform="translate(306,196)" d="m0 0 3 1-2 2-2 5-11 7-5 3 2-5h-2v2l-2-1 4-5 5-2 1-1 5-4 2 1 1-1z" fill="#2C233D"/>
<path transform="translate(529,807)" d="m0 0 2 1 3 10v4l-2 1h-8v-10l5-1z" fill="#2E1B28"/>
<path transform="translate(612,604)" d="m0 0 4 2 10 10 5 6 6 5v2h2v2h2v2l5 2 5 8-1 2-14-14-7-8-8-8-7-8z" fill="#D02611"/>
<path transform="translate(846,587)" d="m0 0 1 2 2 1-7 24-2 5-3 1v-7l1-2-2-1 1-2h3l2-9 2-3z" fill="#241C4D"/>
<path transform="translate(570,440)" d="m0 0 2 3 13 44v5l-2-1v-5h-2l-4-16-1-8h-2l-4-15z" fill="#5C262F"/>
<path transform="translate(266,378)" d="m0 0 5 1 6 3-2 6-4 2-8-5-1-5h4z" fill="#332337"/>
<path transform="translate(374,166)" d="m0 0h6l-1 2-19 7-19 8 1-3 7-5 3 1 1-2 9-3 3-3z" fill="#3B2642"/>
<path transform="translate(510,754)" d="m0 0 2 2v5h-2l-1 22-1 8h-2l-1-19 2-8 1-1z" fill="#2A1727"/>
<path transform="translate(513,572)" d="m0 0h1v6h-2l-1 4-3 1v2l-21 14h-2l1-3h2v-2l8-4 2-4 14-10z" fill="#312646"/>
<path transform="translate(800,164)" d="m0 0 6 4 28 28 3 5-4-1-16-17-6-7-6-5-5-5z" fill="#271E4F"/>
<path transform="translate(158,593)" d="m0 0 2 2 10 25 3 9 4 10 3 5v4h-2l-11-27-9-25z" fill="#FEFA88"/>
<path transform="translate(775,479)" d="m0 0 11 1-1 3-16 5h-3l-1-3 2-3z" fill="#211326"/>
<path transform="translate(327,774)" d="m0 0 5 3 2-1 1-2 5 1-1 5 4 1 4 3-7 1-8-3-5-4-1-3z" fill="#342339"/>
<path transform="translate(166,644)" d="m0 0h2l8 16 2 5v5l-3-1-10-20z" fill="#281E3F"/>
<path transform="translate(712,258)" d="m0 0h3l1 3v11l-5 10-3-4 2-5 2-10h-2z" fill="#241524"/>
<path transform="translate(689,257)" d="m0 0 4 2v4l-7 5h-5l-3-8 7-2z" fill="#2C2239"/>
<path transform="translate(758,740)" d="m0 0 2 4-10 10-4 5-6 3-2 2-2-2 3-1 2-4h2v-2h2l2-4 5-5z" fill="#2E2B73"/>
<path transform="translate(179,648)" d="m0 0h2l6 11 4 8 8 14 2 5v2h-2l-14-26-6-12z" fill="#FEFB92"/>
<path transform="translate(593,598)" d="m0 0 4 2 6 4 17 17 3 5 1 4-17-17v-2l-4-2-1-3-3-1v-2l-4-2z" fill="#45263F"/>
<path transform="translate(208,461)" d="m0 0 8 1-1 13-4 1-2-1-1-3z" fill="#211120"/>
<path transform="translate(728,328)" d="m0 0 1 2 7 2-3 3-16 7-4 3-2-1 16-15z" fill="#FDF88D"/>
<path transform="translate(388,746)" d="m0 0 2 1-1 5-4 9-1 5-2 4-3 1-1-7h2l2-9 4-4-3 1v-2h2l1-3z" fill="#332751"/>
<path transform="translate(849,575)" d="m0 0v3l-1 7-1 1-1 9-3 4-3 9h-2l1-8 6-20z" fill="#2F2756"/>
<path transform="translate(814,486)" d="m0 0h3l1 2v6l-5 1h-7l-3-2v-3l5-1-2-2z" fill="#2C1927"/>
<path transform="translate(669,762)" d="m0 0h6l2 2-1 7-4 2-4-1-2-2v-5z" fill="#321520"/>
<path transform="translate(433,760)" d="m0 0h1l-1 8-6 13-3 3h-2l-1-5 3-2 5-12z" fill="#1E1020"/>
<path transform="translate(792,707)" d="m0 0 2 1-10 14-3 4-5-1 3-5 7-11 3-1v3z" fill="#251D4C"/>
<path transform="translate(522,778)" d="m0 0 2 3 3 12-1 4-5 1-1 3-1-7v-8l2-3z" fill="#271B2A"/>
<path transform="translate(284,344)" d="m0 0 13 2 1 4-3 5-4-1-7-5-2-4z" fill="#381F2D"/>
<path transform="translate(617,322)" d="m0 0 5 3 14 11 9 8-1 2-5-2-2-4-4-2-8-6v-2h-2v-2l-4-2-3-3z" fill="#2A1E3D"/>
<path transform="translate(496,811)" d="m0 0h4l2 4h1l1 9-1 1h-8z" fill="#291A29"/>
<path transform="translate(515,511)" d="m0 0 7 6 7 8 9 10 11 11-1 2-12-12-5-3-7-8-3-3-2-5-4-4z" fill="#60262F"/>
<path transform="translate(352,755)" d="m0 0 4 1-1 5-7 10-5 5-5-1-4-3v-8h2v5h2v2h7l6-8z" fill="#FEF983"/>
<path transform="translate(788,496)" d="m0 0 3 1 1 2-31 3h-8l1-3 11-2h19z" fill="#44263D"/>
<path transform="translate(250,427)" d="m0 0 5 1 2 1v9l-3 5-1-3-3-1-1-3v-8z" fill="#2F1925"/>
<path transform="translate(229,732)" d="m0 0 5 1 7 8 21 21-2 1-3-1-3-5-10-9-4-4-4-2-2-4-1-3-4-2z" fill="#291726"/>
<path transform="translate(688,405)" d="m0 0 3 4 6 15 6 19v8h-1l-5-18-6-16-3-9z" fill="#331A30"/>
<path transform="translate(439,847)" d="m0 0h10l9 2 9 1v1l-6 1h-11l-6 1-3-1v-3l-4-1z" fill="#221B4E"/>
<path transform="translate(492,500)" d="m0 0 1 3-10 13-9 11-6 5v-3l9-10 10-13z" fill="#6E2522"/>
<path transform="translate(741,444)" d="m0 0 5 1v4l4 2-8 5-4-2-1-7z" fill="#2D1A28"/>
<path transform="translate(217,388)" d="m0 0 5 1 3 1v2l-3 1 2 1-1 5-12-4 1-5h5z" fill="#362337"/>
<path transform="translate(818,336)" d="m0 0 3 1 9 19 2 5-1 3-2-2v-3l-3-1-1-4-4-6-3-7-1-4z" fill="#291F4E"/>
<path transform="translate(405,760)" d="m0 0 2 2-4 10-7 13-1-4 3-9 1-4-3-1 3-1 2-3h2z" fill="#3A233B"/>
<path transform="translate(604,725)" d="m0 0 2 2-6 4h-4l2 5v3l3 1 6 11-2 4-8-14-3-10 2-2 3 1 1-3z" fill="#2A1F3D"/>
<path transform="translate(390,726)" d="m0 0h8l2 1-1 5-2 6-1-3-4 1v-2h-4l1-6z" fill="#27192A"/>
<path transform="translate(370,724)" d="m0 0 6 2 3 3 2-3v8l-2 2-8-1-1-5z" fill="#271A28"/>
<path transform="translate(723,383)" d="m0 0 5 2-1 2h-2v3h5l-4 3-4 2h-3l-3-6v-3z" fill="#2C1A28"/>
<path transform="translate(430,293)" d="m0 0h3l-2 12-1 5h-1v-8l-2 1-2-2-3-2-8 3-4-1z" fill="#331E42"/>
<path transform="translate(461,852)" d="m0 0h58v1l-7 1-28 1-7 1-7-2-9-1z" fill="#312958"/>
<path transform="translate(146,550)" d="m0 0 2 1 2 14 1 10 1 6-2 1v-3l-2-1-3-13v-11z" fill="#221A4B"/>
<path transform="translate(463,397)" d="m0 0 1 3-8 11-13 17v-3l4-8 7-10h2l2-5z" fill="#D02611"/>
<path transform="translate(352,747)" d="m0 0 10 4v3h-2v2h-2l-1 5-3 3 1-5 1-3-6-2 1-6z" fill="#311521"/>
<path transform="translate(759,489)" d="m0 0 4 1 2 2 4 2-7 1-1 2-6-1h-3-5l1-4z" fill="#40263B"/>
<path transform="translate(225,340)" d="m0 0h11l2 6v4l-9-3-5-2 2-1z" fill="#3F253C"/>
<path transform="translate(350,613)" d="m0 0h5l-2 5-2 2v3l-5 5v-8l-1-3-8-1v-1z" fill="#29223B"/>
<path transform="translate(285,535)" d="m0 0 3 2 1 8 1 1v9h2l3 4-1 6-2 3-6-21z" fill="#30224B"/>
<path transform="translate(746,295)" d="m0 0h5l3 6-2 1-5-2h-2v2l-4 3h-2v-2l-2 1v3l-3-1 1-5z" fill="#241A2B"/>
<path transform="translate(574,806)" d="m0 0h6l-1 4-3 3-7 2-1 2-7 1v-4l4 1v-2h3l1-5z" fill="#281927"/>
<path transform="translate(201,695)" d="m0 0 5 2 8 12-2 5-4-4-7-11z" fill="#26192A"/>
<path transform="translate(149,565)" d="m0 0 2 3 5 19 7 20v2h-2l-3-6-1-5h-2l-2-12-2-5-2-11z" fill="#311927"/>
<path transform="translate(616,166)" d="m0 0 6 1 4 1 2 1 4-1 3 5h6l2 4-4 1-19-8-6-2z" fill="#34254A"/>
<path transform="translate(356,223)" d="m0 0h9l2 1 4 12-1 2-6-5-7-8z" fill="#FEFA8A"/>
<path transform="translate(483,459)" d="m0 0 3 4 8 20v3l-5 2h-5l3-3h2v-11h-2l-4-9z" fill="#4F233A"/>
<path transform="translate(367,602)" d="m0 0h5l1 5-3 2-3 6-3 3-1 3h-3l2-4 8-13-20 2-1-2 4-1z" fill="#D02711"/>
<path transform="translate(856,539)" d="m0 0 2 1-3 23-2 4v-7h-2v-7l2-5 1-6z" fill="#271E54"/>
<path transform="translate(579,439)" d="m0 0 4 2 10 9 10 10 10 8 2 4-8-6-11-10-8-7-9-8z" fill="#752521"/>
<path transform="translate(437,756)" d="m0 0h1v10l-1 10-4 1-2-7z" fill="#FEFA8B"/>
<path transform="translate(287,791)" d="m0 0 2 3 4 2v2l6 2 5 3 1 4h-4l-14-9z" fill="#271E41"/>
<path transform="translate(711,777)" d="m0 0 2 1 1 4-7 5h-2v2l-6 3h-2l2-4 4-5z" fill="#231C4F"/>
<path transform="translate(743,490)" d="m0 0 5 2-1 4 3 1h-2v2l3 1-2 3h-6l-2-7 1-5z" fill="#321B27"/>
<path transform="translate(416,464)" d="m0 0 2 3-1 5-3 4h-5-3l2-4 5-7z" fill="#FCEF26"/>
<path transform="translate(194,316)" d="m0 0 2 1-13 24-2 3 1-6 2-8 5-10h2l1-2z" fill="#382136"/>
<path transform="translate(733,236)" d="m0 0 4 2 4 4v2l3 1 5 5 4 3-1 2h2v2l2 1-3 1-20-20z" fill="#2A1E35"/>
<path transform="translate(727,767)" d="m0 0 5 1-2 4-3 1-1 3h-2v2l-10 8h-2l-1-3 3-1 1-3h3v-2l5-3 4-4z" fill="#37254C"/>
<path transform="translate(429,631)" d="m0 0 1 2-5 2-2 5-7 4-7 3-4 2-3-1 14-9z" fill="#392035"/>
<path transform="translate(177,470)" d="m0 0h5v2l3 1h-4v2l2 1 1 4 2 1-10-1-2-1v-8l2 2z" fill="#351C28"/>
<path transform="translate(712,212)" d="m0 0 3 2h6l3 2-1 3v4l-5-2-8-4-1-3z" fill="#312960"/>
<path transform="translate(578,740)" d="m0 0h3l2 4v5l-2 3-2 2-3-5h-2l-1-5 1-2h4z" fill="#372644"/>
<path transform="translate(358,711)" d="m0 0h8l2 5-2 1v3l-8 1v-2h-3l2-5 4-1v2h2v-3h-5z" fill="#241828"/>
<path transform="translate(329,631)" d="m0 0 13 2-2 4-5 5-7-8z" fill="#41263E"/>
<path transform="translate(775,538)" d="m0 0 7 2 6 2 1 3-3 3-10-3-2-1z" fill="#221B50"/>
<path transform="translate(594,836)" d="m0 0h10l-2 2-8 2h-5v3l-6 2-3-3h-6v-1z" fill="#2D224E"/>
<path transform="translate(425,771)" d="m0 0 1 3-2 4-2 1 2 4 1 3-3 3-4 1-1-4 2-8 3-6 3 1z" fill="#24192A"/>
<path transform="translate(722,314)" d="m0 0 5 1v2l-14 9h-6v-2h3v-2l8-5 4-1z" fill="#251B2B"/>
<path transform="translate(666,281)" d="m0 0h5l-1 5-6 10-1-3-3-1 2-3-1-3z" fill="#2D2137"/>
<path transform="translate(306,235)" d="m0 0 7 1-2 5-4 4-4-1-2-5z" fill="#2F1A26"/>
<path transform="translate(745,747)" d="m0 0 2 1-2 4v3h-2v2l-6 5-5 6-3-1 5-6 2-1 1-5z" fill="#201C51"/>
<path transform="translate(682,587)" d="m0 0 6 1 2 4-4 8-3-1-2-5z" fill="#342134"/>
<path transform="translate(445,568)" d="m0 0h7l-1 5h8v1h-17l-15-2 2-2 14 2z" fill="#FCEF21"/>
<path transform="translate(469,427)" d="m0 0 2 4h2l10 25-1 3-1-4h-2l-8-19z" fill="#4E263A"/>
<path transform="translate(247,314)" d="m0 0h5l3 9-5 1-7-5 1-4z" fill="#392641"/>
<path transform="translate(593,449)" d="m0 0 4 2 8 8 9 7 5 5v2l-4-1-5-6-10-8-7-7z" fill="#2B2443"/>
<path transform="translate(751,436)" d="m0 0 1 4 8-1 1 3h-5l2 2h-3v3l-5 2-4-5z" fill="#312857"/>
<path transform="translate(497,285)" d="m0 0 10 5-1 3-6 1h-3-2v3h-3v-4h3l1-7z" fill="#3B2643"/>
<path transform="translate(325,223)" d="m0 0 4 1 2 2-1 4-3 2h-3l-1-2h-6l2-4z" fill="#281625"/>
<path transform="translate(680,196)" d="m0 0 5 1 9 5v2h2l1 4 3 1v2l-4-2-11-7-6-4z" fill="#2C1F42"/>
<path transform="translate(700,785)" d="m0 0 2 1-4 4-3 5h-2l-1 3-8 1-3-1 11-7z" fill="#2B204B"/>
<path transform="translate(622,476)" d="m0 0 5 2 6 5 7 8 10 9v2l4 2-1 2-8-7-17-17-6-5z" fill="#332646"/>
<path transform="translate(384,314)" d="m0 0 2 1-1 3-5 2-2 3-4 2-1 2-3 2-6 5-6 1 5-5 17-13z" fill="#382344"/>
<path transform="translate(705,284)" d="m0 0 2 1-1 4-12 13-3 3-2-1 6-7h2l-1-4 3-1 2-4z" fill="#2C1B29"/>
<path transform="translate(644,751)" d="m0 0 3 1 5 14 1 3v9l-2-4-5-12-1-5-2-5z" fill="#331C27"/>
<path transform="translate(206,714)" d="m0 0 3 1 3 4v3l4 2 2 7 2 4-6-5-9-12z" fill="#241939"/>
<path transform="translate(577,578)" d="m0 0 7 6 7 8 9 9h-3l-8-6-9-9v-3l-3-3z" fill="#482536"/>
<path transform="translate(544,324)" d="m0 0h1v6l1 3-3 10-2 1-2 10-2 5-1-4z" fill="#56222C"/>
<path transform="translate(358,824)" d="m0 0 6 1 8 3-3 4-4 1-6-4-6-2v-2l5 1z" fill="#2B2251"/>
<path transform="translate(603,681)" d="m0 0 2 1-2 4-21 11-5 1 4-4 11-5h2l1-3z" fill="#271C4B"/>
<path transform="translate(807,678)" d="m0 0 3 1-1 5-1 2h-4l-5 8-8-1 3-3 6-2 2-6h2l1-3z" fill="#2A1F3F"/>
<path transform="translate(760,325)" d="m0 0h2v5l-8 4-3 2h-3v2h-7l3-3 12-7z" fill="#422538"/>
<path transform="translate(837,595)" d="m0 0 1 4-4 10h-2l-1 3h-3l2-9z" fill="#251D4A"/>
<path transform="translate(508,463)" d="m0 0h1l-1 11-1 6 1 4h5l8 3-4 1-12-3-2-1 4-17z" fill="#492741"/>
<path transform="translate(664,184)" d="m0 0 4 2 2 3 12 6-2 2-5-1-15-9z" fill="#2E2148"/>
<path transform="translate(436,776)" d="m0 0h1l1 7-1 8 1 10-1 2-11-1v-1h7l-1-4 2-2z" fill="#33233A"/>
<path transform="translate(605,735)" d="m0 0 5 5 8 14 2 6-4-2-3-7-4-4-2-5z" fill="#2B1927"/>
<path transform="translate(622,260)" d="m0 0 2 4-1 11h2l1 7-6-2-1-9z" fill="#341C29"/>
<path transform="translate(210,766)" d="m0 0 7 6 18 18-2 1-2-1v-2l-4-2-8-8v-2l-4-1v-3l-4-2z" fill="#2D1E49"/>
<path transform="translate(367,760)" d="m0 0h2l1 5 2 2-1 3-4 1-6 2-2-1 7-10z" fill="#FEF980"/>
<path transform="translate(788,693)" d="m0 0 6 2-2 5-2 2-4 3v-3h-2l-1 2v-3z" fill="#28204C"/>
<path transform="translate(344,213)" d="m0 0h2l3 4-1 2-5 2 3 2-1 2-9-7 3-3z" fill="#411A22"/>
<path transform="translate(478,812)" d="m0 0 2 1 2 7 2 1 2-3v6h-9l-1-1v-9h2z" fill="#2E1A27"/>
<path transform="translate(808,317)" d="m0 0 3 1 7 13v5h-2l-3-6-6-10z" fill="#241D51"/>
<path transform="translate(636,241)" d="m0 0 1 2-1 13-2 5-1-2h-2l-1-7 5-10z" fill="#2E2238"/>
<path transform="translate(787,414)" d="m0 0h19l2 1v2l-39-1v-1z" fill="#241527"/>
<path transform="translate(700,326)" d="m0 0h2l-1 5h-2v3l-10 5-1-4 3-3 6-2v-2z" fill="#2C2137"/>
<path transform="translate(432,151)" d="m0 0h8l-1 2-29 6-8 2 1-3 11-3 16-3z" fill="#40263D"/>
<path transform="translate(377,753)" d="m0 0h5l1 2-3 9h-2v-5l-1 3h-2v5l-3 2 1-6z" fill="#2A213E"/>
<path transform="translate(356,712)" d="m0 0h7v3h-2v-2l-3 1-5 5-3 2v2l-6 3-2-1 7-8z" fill="#2B1E3B"/>
<path transform="translate(583,574)" d="m0 0 4 2v2h2l6 7 4 2v3h2l7 8 4 4-1 2-25-25z" fill="#D02711"/>
<path transform="translate(308,278)" d="m0 0 1 2h3v2l4 2-1 3 5 5-1 4-7-8-6-7z" fill="#2E2136"/>
<path transform="translate(416,735)" d="m0 0 7 2v5h-4l-1 3-5-5 1-4z" fill="#24101F"/>
<path transform="translate(773,463)" d="m0 0h11l1 2-11 1h-23v-1l5-1z" fill="#361C27"/>
<path transform="translate(680,390)" d="m0 0 4 5 4 8 3 9-1 3-3-6v-2h-2l-2-6-2-1-2-9z" fill="#271D45"/>
<path transform="translate(701,321)" d="m0 0 5 1-1 3h5v3l-11 5v-2l2-1 1-4-4-2z" fill="#2D2239"/>
<path transform="translate(236,302)" d="m0 0 4 2 2 8-2 2-6-3-1-4z" fill="#361E2B"/>
<path transform="translate(776,285)" d="m0 0h2l4 5 3 1 2 5h2l2 3v3l-5-1-7-10-3-4z" fill="#2E2034"/>
<path transform="translate(509,290)" d="m0 0h3l1 6-8 8-2-1 2-6z" fill="#FEFA85"/>
<path transform="translate(275,782)" d="m0 0 3 1-1 3 4 2v2l4 2 1 2-2 2-13-10v-2z" fill="#2D1F37"/>
<path transform="translate(801,668)" d="m0 0 1 2-9 17-10 15-2 1 2-5 7-11z" fill="#FEFA88"/>
<path transform="translate(663,582)" d="m0 0h5l3 6-1 4-4 1-2-1z" fill="#2E233A"/>
<path transform="translate(846,400)" d="m0 0 2 4 5 20-1 2-1 1v5l-2-2v-13l-2-5-1-4z" fill="#291E50"/>
<path transform="translate(296,314)" d="m0 0 10 5-1 2-3 1h2v5l-3-1-5-6-3-1v-2l3-1z" fill="#552528"/>
<path transform="translate(417,842)" d="m0 0 8 1 17 3-3 2h-11l-9-3z" fill="#291D44"/>
<path transform="translate(620,156)" d="m0 0 14 5 2 4-6 1-5-2-1-4-4-2z" fill="#312550"/>
<path transform="translate(155,692)" d="m0 0 5 5 11 18 5 7-1 2-4-5-10-15-6-10z" fill="#2E204C"/>
<path transform="translate(192,678)" d="m0 0 3 1 9 15-1 2-2-1-1 2-5-8v-5z" fill="#221424"/>
<path transform="translate(811,659)" d="m0 0 3 3-1 5-1-2 1-2h-3l-1 4-3 4-1-2-2 1 1-5 3-5z" fill="#271F4D"/>
<path transform="translate(659,576)" d="m0 0 6 2 10 5v1l-9-1-3-1 1 7-2-2-3-8z" fill="#5F2425"/>
<path transform="translate(797,547)" d="m0 0 5 1 3 3h-2v3l5 2-1 3-13-6 4-3z" fill="#271A29"/>
<path transform="translate(786,466)" d="m0 0h7l2 1 6-1h6v1l-23 4-1-2-4-2z" fill="#1E1727"/>
<path transform="translate(249,402)" d="m0 0 7 1 9 3 1 3-3 1v2h-5v-4l-2-1 1-2-7-1z" fill="#291B2A"/>
<path transform="translate(247,365)" d="m0 0 9 1 5 1v6h2l-1 2-15-8z" fill="#FFFB8E"/>
<path transform="translate(649,816)" d="m0 0 2 1-2 3h-5v3l-11 4-4-1 6-4z" fill="#2F2044"/>
<path transform="translate(554,740)" d="m0 0 2 1v6l-5 1-5-2v-4z" fill="#241323"/>
<path transform="translate(455,548)" d="m0 0v3l-8 10 1 4 7 1v1h-10l-2-2 1-5 8-9z" fill="#342851"/>
<path transform="translate(583,491)" d="m0 0 2 3 1 8-1 1-13-1-11-3v-1h7l7 2h6l1-1z" fill="#342851"/>
<path transform="translate(847,478)" d="m0 0 2 3 1 6-1 34-2 4z" fill="#39253D"/>
<path transform="translate(761,415)" d="m0 0 21 1v1h-10l1 3-5 1-5-1v-3z" fill="#281E46"/>
<path transform="translate(541,343)" d="m0 0 1 4-3 14-3 12h-2l2-14 3-8 1-7z" fill="#312856"/>
<path transform="translate(212,285)" d="m0 0 3 1-2 4-8 12-2-3 6-11h2z" fill="#35243A"/>
<path transform="translate(819,634)" d="m0 0h3v5l-2 6-1-2-2 5-4 1 2-6z" fill="#2B2141"/>
<path transform="translate(484,514)" d="m0 0v3l-3 5-14 15-3 2 2-4 10-11z" fill="#34274E"/>
<path transform="translate(742,465)" d="m0 0h7l-4 1 1 3-2 4 3 1h-3v2l-4-1-1-8z" fill="#361D2B"/>
<path transform="translate(626,278)" d="m0 0 4 2v6l2 4h-3l-5-4-3-6 4 1z" fill="#352236"/>
<path transform="translate(666,178)" d="m0 0 5 1 14 8 10 7-1 2-10-7-11-6-6-3z" fill="#2D204C"/>
<path transform="translate(370,829)" d="m0 0 7 1 7 2-3 2h-2v2h-4v-2l-6-2-2-2z" fill="#291F4C"/>
<path transform="translate(472,765)" d="m0 0h1l2 13h-3l-2 6h-1l-1-10h2v-5z" fill="#2B1C2C"/>
<path transform="translate(261,760)" d="m0 0 4 2 10 9 13 10 1 2-4-2-13-10-10-9z" fill="#FFFB8E"/>
<path transform="translate(366,716)" d="m0 0h2l7 8 2 1v2h3l-1 3-7-3v-3l-4-1-3-4z" fill="#2D233B"/>
<path transform="translate(842,562)" d="m0 0 2 4 2 2v7l-7 3 2-11z" fill="#2E2244"/>
<path transform="translate(535,535)" d="m0 0 7 6 7 7 7 8 4 4-1 3-7-8-6-6v-2h-2l-7-8z" fill="#34274E"/>
<path transform="translate(223,440)" d="m0 0 16 1v4h-2v-2l-5 2h-5v-2l-3 1-4-3z" fill="#3C2641"/>
<path transform="translate(496,284)" d="m0 0h13v3l2 1-3 2-6-1-3-3-4-1z" fill="#281F35"/>
<path transform="translate(351,220)" d="m0 0 3 1v2l4 2 2 4 4 2 1 3h-3l-1-3-4-1-8-8z" fill="#38253C"/>
<path transform="translate(760,730)" d="m0 0h2l-2 4-5 6-3 5h-2l-1 3-3-1 6-8z" fill="#291D3F"/>
<path transform="translate(743,345)" d="m0 0h4l-2 4-11 8-2-2h2l1-4h2l1-3z" fill="#2C1F33"/>
<path transform="translate(258,279)" d="m0 0 6 1 2-1 1 9-3-2-3 1-1-1-2 1z" fill="#2E2238"/>
<path transform="translate(222,853)" d="m0 0 6 4 22 16-1 2-14-10-12-9z" fill="#31224B"/>
<path transform="translate(460,745)" d="m0 0 4 1-3 3 1 6-2 4-1 11-2 1 1-16 1-9z" fill="#392339"/>
<path transform="translate(584,731)" d="m0 0 3 1-1 2h-2v2l2 1v3h-3l1 6-3-4v-6l-5-1 3-2z" fill="#412439"/>
<path transform="translate(602,730)" d="m0 0h2l1 9-5 1-2-1-2-4 1-4 5 2z" fill="#302757"/>
<path transform="translate(780,703)" d="m0 0v3l-9 12-11 13-2 1 2-4 11-13 7-10z" fill="#FEFA87"/>
<path transform="translate(147,601)" d="m0 0 4 6 2 7 3 6-1 3h-2l-6-17z" fill="#271D4D"/>
<path transform="translate(250,359)" d="m0 0h8v1h-7v2h-3l-1 6-4-2-3-3 4-3h5z" fill="#2F2554"/>
<path transform="translate(776,713)" d="m0 0 1 4-2 3h-2v2h-2l1 4h-3l-2-1v-3l6-7z" fill="#23192D"/>
<path transform="translate(450,433)" d="m0 0v3l-13 13h-2l-2 5-1 2-3-1 7-9 5-4 5-5z" fill="#3F274B"/>
<path transform="translate(464,398)" d="m0 0h2l1 7h-1l-1 5-3-2-3 2v-4zm-2 12 2 1z" fill="#FCEF21"/>
<path transform="translate(772,372)" d="m0 0h2v6l-2 1h-10l-2-2z" fill="#FCEF27"/>
<path transform="translate(333,359)" d="m0 0 3 1-2 2-4 6h-2v2l-10 10 2-5 11-14z" fill="#362247"/>
<path transform="translate(650,223)" d="m0 0m-1 1 3 1v2l-5 4-5 5h-2l2-6z" fill="#261F35"/>
<path transform="translate(666,809)" d="m0 0h2l-1 3-5 3-7 2v2h-6l4-4 9-4z" fill="#2C265D"/>
<path transform="translate(187,671)" d="m0 0 5 2 2 5v3l2 3v3l-3-1-6-10z" fill="#211829"/>
<path transform="translate(502,500)" d="m0 0h3l6 7 4 3 3 5 3 3-1 2-15-15z" fill="#322546"/>
<path transform="translate(133,501)" d="m0 0h1l1 19-1 7-2-1v-24z" fill="#261E4F"/>
<path transform="translate(312,388)" d="m0 0 1 2-4 9-3 10-4-1 2-6z" fill="#361F47"/>
<path transform="translate(747,303)" d="m0 0 3 1-1 3h-2l-1 3-3 1v-2h-2l-2 4v-6l4-3z" fill="#241A2A"/>
<path transform="translate(343,775)" d="m0 0h5v2h2v2l-7 3-4-2v-4z" fill="#211929"/>
<path transform="translate(185,685)" d="m0 0 5 4 3 2 4 8-4-1-5-5-3-5z" fill="#251C43"/>
<path transform="translate(183,659)" d="m0 0 3 3 5 10-1 3-2-3-2 1-4-8z" fill="#231523"/>
<path transform="translate(255,550)" d="m0 0 2 3 1 8h-12v-1l6-1v-5l2-1z" fill="#371C27"/>
<path transform="translate(820,649)" d="m0 0 4 2-1 5-3 5-2-2-2 1 3-9z" fill="#221B42"/>
<path transform="translate(547,495)" d="m0 0 12 1 2 1v2l8 1 7 2v2l-16-4-13-4z" fill="#712628"/>
<path transform="translate(216,717)" d="m0 0h2l3 5 5 2 3 5-2 3h-2v-2h2v-2l-4 1-1-3h-2l-4-8z" fill="#251B30"/>
<path transform="translate(800,672)" d="m0 0h2l2 6-4 6-4-2 2-6z" fill="#271E4B"/>
<path transform="translate(846,587)" d="m0 0 1 2 2 1-5 18-2-3v-6l2-3z" fill="#2A1E45"/>
<path transform="translate(555,293)" d="m0 0 7 3-1 2-7 1-1 6-2-2 1-6z" fill="#272051"/>
<path transform="translate(893,280)" d="m0 0 3 4 10 19-1 3-11-20-2-4z" fill="#2F1F49"/>
<path transform="translate(374,166)" d="m0 0h6l-1 2-14 5-3-1 6-5z" fill="#3F263E"/>
<path transform="translate(459,810)" d="m0 0h1v12h-7l-1-2h3l-1-3 2-2 2 1z" fill="#281A2A"/>
<path transform="translate(805,684)" d="m0 0 2 4-6 10-1-2h-2l2-5 4-6z" fill="#2A1F3E"/>
<path transform="translate(402,443)" d="m0 0 2 1-2 13-4 12h-1l1-9z" fill="#FEF97D"/>
<path transform="translate(404,417)" d="m0 0 3 1-2 13-1 5h-2l-1 3 1-9z" fill="#3B2746"/>
<path transform="translate(267,363)" d="m0 0h2l1 5h8l1 2-12-1-11-2v-1l11-1z" fill="#472638"/>
<path transform="translate(801,322)" d="m0 0 4 1 3 5-1 6h-2l-4-8z" fill="#281D44"/>
<path transform="translate(550,300)" d="m0 0 2 3-1 7-3 9-2 5-1-4z" fill="#4D1F27"/>
<path transform="translate(662,278)" d="m0 0 2 1 1 4-3 4 1 3-4-1h-3l2-5z" fill="#2D1B28"/>
<path transform="translate(740,331)" d="m0 0h2l1 3-4 2-6 1-3 2h-7l3-2z" fill="#2B1C33"/>
<path transform="translate(513,572)" d="m0 0h1v6h-2l-1 4-7 3-4 3h-2v-2l14-10z" fill="#362031"/>
<path transform="translate(435,513)" d="m0 0 3 1-16 8-7 3 2-4z" fill="#772521"/>
<path transform="translate(759,498)" d="m0 0 14 1-2 2-18 1 1-3z" fill="#38243C"/>
<path transform="translate(696,428)" d="m0 0 3 2 4 13v8h-1l-5-18z" fill="#341C39"/>
<path transform="translate(186,412)" d="m0 0h7l-1 4-3 1v5l-4-4z" fill="#20101F"/>
<path transform="translate(532,381)" d="m0 0h1l-1 7-1 3-3 3-2 3 1-8 2-7z" fill="#462641"/>
<path transform="translate(414,367)" d="m0 0h2l1 7-4 18-2-1 3-17z" fill="#3B2748"/>
<path transform="translate(256,236)" d="m0 0 2 1-1 4-4 4-6 1v-2h2l1-5 3 1v-2z" fill="#2D233B"/>
<path transform="translate(527,140)" d="m0 0h7v3l2 1h-2l-1 2-8-1v-2l-2-1z" fill="#2E2E8C"/>
<path transform="translate(756,733)" d="m0 0v3l-16 17h-3l16-17z" fill="#FFFB8E"/>
<path transform="translate(573,735)" d="m0 0h6l2 1v4h-3v2h-3l-1-5-3 1v-2z" fill="#271E35"/>
<path transform="translate(284,514)" d="m0 0 2 3v17l-2 1-1-6v-9z" fill="#322551"/>
<path transform="translate(514,440)" d="m0 0 2 4-1 4-4 14-2 1 1-8z" fill="#432744"/>
<path transform="translate(200,383)" d="m0 0 7 2v5l-5 1v-2l-6-1z" fill="#322857"/>
<path transform="translate(199,369)" d="m0 0 5 1v4h-2l-2 4-2-1-1-1v-5z" fill="#24111F"/>
<path transform="translate(749,242)" d="m0 0 4 1 6 6v2l3 1-1 3-5-4v-2l-4-2-3-3z" fill="#292245"/>
<path transform="translate(555,740)" d="m0 0h4l2 8-1 7h-2z" fill="#FEFA8E"/>
<path transform="translate(228,729)" d="m0 0 4 2 1 2h-3l5 5 2 4-2 1-7-8-2-3z" fill="#251F50"/>
<path transform="translate(162,609)" d="m0 0 2 1 3 8v4l-3 1-3-9z" fill="#271A2A"/>
<path transform="translate(547,496)" d="m0 0 7 1-1 2h-5l-1 4-11-3 4-2 6-1z" fill="#FCEF23"/>
<path transform="translate(270,379)" d="m0 0 7 3-2 6-4 2-1-9z" fill="#4A1F25"/>
<path transform="translate(282,362)" d="m0 0 6 1-2 5-3 3-3-1 2-4-2-1v-2z" fill="#3C2335"/>
<path transform="translate(369,237)" d="m0 0h3l4 5-1 3h-2v2l-4-2z" fill="#3B2640"/>
<path transform="translate(597,801)" d="m0 0h5l-1 7h-6l-1-5 3 1z" fill="#2C1B29"/>
<path transform="translate(358,750)" d="m0 0 4 1v3h-2v2h-2l-1 5-3 3 1-5 1-3-2-1 2-1z" fill="#261B2B"/>
<path transform="translate(388,746)" d="m0 0 2 1-1 5-3 5-3-1-1 2 1-4 3-3-3 1v-2h2l1-3z" fill="#372746"/>
<path transform="translate(248,483)" d="m0 0h1v7l-9-2 2-4z" fill="#2D1C2B"/>
<path transform="translate(802,469)" d="m0 0 4 1h3v3l-6 3-5-1 1-3 3-1z" fill="#2B213B"/>
<path transform="translate(772,417)" d="m0 0 5 1v2h15v1l-8 1h-18v-1l6-1z" fill="#3B2438"/>
<path transform="translate(822,349)" d="m0 0 5 1 5 11-1 3-2-2v-3l-3-1-1-4z" fill="#261D4F"/>
<path transform="translate(785,283)" d="m0 0 4 2 5 5v4l-4-2-5-7z" fill="#2B2240"/>
<path transform="translate(772,276)" d="m0 0 3 1 3 6 4 6-1 2-3-4v-2l-4-1-3-5z" fill="#2B213B"/>
<path transform="translate(430,772)" d="m0 0h2l2 4 2 1-1 4h-6l-1-4z" fill="#FCEF26"/>
<path transform="translate(461,762)" d="m0 0h3v20h-1v-9h-2v-5l-1-2z" fill="#1B1424"/>
<path transform="translate(586,731)" d="m0 0 5 1v6l-5 2-2-2v-4l2-2z" fill="#221A2F"/>
<path transform="translate(173,658)" d="m0 0h2l3 7v5l-3-1-4-8v-2z" fill="#221C49"/>
<path transform="translate(471,607)" d="m0 0 2 1-12 8-8 4v-2l3-3 8-4z" fill="#302544"/>
<path transform="translate(302,579)" d="m0 0m-2 1 4 2-2 1-2-1zm1 3h6l-2 2-13 6-3-1 8-5z" fill="#FDF668"/>
<path transform="translate(797,468)" d="m0 0h7l-2 2-6 2h-15v-1z" fill="#492532"/>
<path transform="translate(428,456)" d="m0 0 1 2-3 6v2l-7 6-2-1 8-11z" fill="#4F2637"/>
<path transform="translate(853,434)" d="m0 0 2 1 2 16-2-2-1 11h-1z" fill="#2A1E4B"/>
<path transform="translate(765,433)" d="m0 0 4 2-9 5h-6l2-4z" fill="#38233A"/>
<path transform="translate(677,301)" d="m0 0v3l-6 4h-5l-3-3 1-2 8 1z" fill="#FEFA86"/>
<path transform="translate(437,857)" d="m0 0h11l9 2-1 2-17-2z" fill="#281E4F"/>
<path transform="translate(606,753)" d="m0 0h2l4 8 2 5 2 6-3-3-8-14z" fill="#352031"/>
<path transform="translate(821,641)" d="m0 0h2l-1 6-5 10-2-4 2-1 1-5z" fill="#312A68"/>
<path transform="translate(224,478)" d="m0 0h10v2l-5 1 1 4h-6l-2-4z" fill="#2C2452"/>
<path transform="translate(483,459)" d="m0 0 3 4 5 12v2h-2v-3h-2l-4-9z" fill="#572533"/>
<path transform="translate(822,369)" d="m0 0h3l3 7 1 7h-3l-4-12z" fill="#291E49"/>
<path transform="translate(217,336)" d="m0 0 3 1-6 5-1 5-6 7-1-3 5-8z" fill="#512532"/>
<path transform="translate(663,310)" d="m0 0 4 1 2 1v2l4-1-1 3-10-1v-4z" fill="#2A233C"/>
<path transform="translate(729,304)" d="m0 0h3l1 6h2l-1 4-4 1v-2h2v-3l-5 1v-3l2-1-2-2z" fill="#3E2333"/>
<path transform="translate(238,243)" d="m0 0 2 3-10 10v-3l1-4z" fill="#241E53"/>
<path transform="translate(738,228)" d="m0 0 4 2 7 7v2l-4-2-5-2z" fill="#2C1F3B"/>
<path transform="translate(672,803)" d="m0 0 2 1-11 8-12 4 3-3 17-9z" fill="#322143"/>
<path transform="translate(596,783)" d="m0 0 2 2 7 21-4 1-1-9-4-12z" fill="#6F2522"/>
<path transform="translate(734,757)" d="m0 0 3 1-1 3h-2l-2 4h-2v2h-2l-1-3z" fill="#2C2042"/>
<path transform="translate(505,754)" d="m0 0 3 1v9l-3 3-1-1v-7z" fill="#261B2D"/>
<path transform="translate(594,727)" d="m0 0h2l-1 7-2 1-2 3-1-4 1-2-4-1 3-2z" fill="#432639"/>
<path transform="translate(439,626)" d="m0 0 4 1-14 9-5 2 1-3 10-6z" fill="#302647"/>
<path transform="translate(359,610)" d="m0 0v3l-7 8-2-1 4-5 1-2h-8v-1z" fill="#652524"/>
<path transform="translate(687,538)" d="m0 0 4 2 4 4 5 2 2 5-9-5-6-6z" fill="#332854"/>
<path transform="translate(765,423)" d="m0 0 4 1-5 2-7 1-1 2-2-2v-3z" fill="#FCEF29"/>
<path transform="translate(583,839)" d="m0 0 6 1v3l-6 2-3-3h-6v-1z" fill="#33254C"/>
<path transform="translate(808,330)" d="m0 0 3 4 4 11-3-1-3-7-3-1z" fill="#2C223C"/>
<path transform="translate(758,740)" d="m0 0 2 4-7 7-2-1 2-5z" fill="#33295B"/>
<path transform="translate(345,618)" d="m0 0h7v3l-5 7h-1v-8z" fill="#3D2640"/>
<path transform="translate(836,585)" d="m0 0h1l1 10-6 5 2-8z" fill="#2D1F3D"/>
<path transform="translate(253,552)" d="m0 0 2 1-3 1 1 6-5-1-5-2v-1h6v-3z" fill="#251E34"/>
<path transform="translate(420,339)" d="m0 0 2 1-1 9-2 9h-1v-13z" fill="#322958"/>
<path transform="translate(229,336)" d="m0 0 5 1 7 4-1 2-4-2h-7z" fill="#322032"/>
<path transform="translate(236,792)" d="m0 0 4 2 12 10 3 3-5-2-10-8-4-3z" fill="#312148"/>
<path transform="translate(627,788)" d="m0 0 5 1-1 3 1 3-5 1-2-4 1-3z" fill="#231A2A"/>
<path transform="translate(417,638)" d="m0 0 2 1-5 5-7 4-5 1 5-4z" fill="#531E23"/>
<path transform="translate(156,596)" d="m0 0 2 2 2 6 2 5-1 5-4-8-2-8z" fill="#1E1A50"/>
<path transform="translate(544,324)" d="m0 0h1v6l1 3-2 8h-2v-9z" fill="#472640"/>
<path transform="translate(685,296)" d="m0 0 2 1-6 6-3 5h-3l-1-3 9-7z" fill="#2B1D2D"/>
<path transform="translate(795,294)" d="m0 0h2l4 6-1 4h-2l-4-6z" fill="#2A2040"/>
<path transform="translate(746,295)" d="m0 0h5l3 6-2 1-8-4z" fill="#381721"/>
<path transform="translate(261,273)" d="m0 0 2 1-1 2 3 1v6l-1-3-6-1v-4z" fill="#221929"/>
<path transform="translate(863,233)" d="m0 0 4 5 8 12h-3l-9-14z" fill="#2C1E47"/>
<path transform="translate(696,205)" d="m0 0 4 1v2l6 2v4l-5-1-2-4-3-3z" fill="#241C4A"/>
<path transform="translate(301,201)" d="m0 0 5 1-4 4-8 4 1-4 5-3z" fill="#372748"/>
<path transform="translate(621,771)" d="m0 0h3l2 4-1 3-3 2-2-2-2-1z" fill="#362642"/>
<path transform="translate(372,666)" d="m0 0h2v9l-4-2-3-2 1-3z" fill="#331F3C"/>
<path transform="translate(291,555)" d="m0 0 4 4-1 6-2 3-2-7z" fill="#332752"/>
<path transform="translate(804,488)" d="m0 0 5 1v1h-6l1 3-6 2h-2v-2h2v-2z" fill="#261F35"/>
<path transform="translate(318,310)" d="m0 0 4 1v5l-3 3-3-4 1-4z" fill="#261927"/>
<path transform="translate(380,248)" d="m0 0 4 1 5 8v2l-3-1v-2h-2l-1-3-3-2z" fill="#29121F"/>
<path transform="translate(348,820)" d="m0 0 6 1 5 2-1 3-6-1-4-3z" fill="#251C4D"/>
<path transform="translate(508,801)" d="m0 0h13l2 6v5l-4-4 1-6h-12z" fill="#452639"/>
<path transform="translate(256,770)" d="m0 0 4 2 5 3 2 2-5 2-6-6z" fill="#2A1F40"/>
<path transform="translate(229,732)" d="m0 0 5 1 7 8-1 2-4-1-2-4-1-3-4-2z" fill="#2A1D30"/>
<path transform="translate(800,487)" d="m0 0h6l-2 2-11 2v-2h-7v-1z" fill="#40253B"/>
<path transform="translate(747,441)" d="m0 0 2 1-2 2 4 4 3 1-4 2-5-1-1-5-1-2z" fill="#302238"/>
<path transform="translate(673,306)" d="m0 0 2 1v3l-5 2-6-1 1-3z" fill="#2A1A27"/>
<path transform="translate(553,291)" d="m0 0 15 5-4 1-9-3-4 5 1-7z" fill="#401821"/>
<path transform="translate(707,212)" d="m0 0 4 5 4 3 1 3-4-2-8-6z" fill="#321F37"/>
<path transform="translate(239,202)" d="m0 0 3 1-16 14v-3l7-7z" fill="#34254D"/>
<path transform="translate(266,774)" d="m0 0 4 1 7 6-4 1-2-1v-2l-3-1z" fill="#3D2644"/>
<path transform="translate(385,738)" d="m0 0 1 2-4 10v3h-3l-1 2 1-6 5-10z" fill="#231628"/>
<path transform="translate(802,684)" d="m0 0 2 1-3 6-3 3-7-1 3-3 6-2z" fill="#26225E"/>
<path transform="translate(674,528)" d="m0 0 5 1 8 8-1 2-4-4-5-3z" fill="#3D2743"/>
<path transform="translate(416,521)" d="m0 0m-1 1m-2 1h2l-1 3-11 5 2-4z" fill="#6D2523"/>
<path transform="translate(608,462)" d="m0 0 5 3 6 6v2l-4-1-5-6-2-1z" fill="#302549"/>
<path transform="translate(754,430)" d="m0 0h2v7l3 1-7 2 1-7z" fill="#221423"/>
<path transform="translate(571,431)" d="m0 0h2v3l4 2 2 3-4-2-3-1-3 4v-7z" fill="#4B2331"/>
<path transform="translate(245,351)" d="m0 0 4 1 1 6-6-1-3-3 3-1z" fill="#35274C"/>
<path transform="translate(636,338)" d="m0 0 5 2 4 5-3 1-5-4v-2l-2-1z" fill="#2C2045"/>
<path transform="translate(636,241)" d="m0 0 1 2-1 8-5 2 1-6z" fill="#372642"/>
<path transform="translate(248,235)" d="m0 0v3l-7 7h-2l1-4 3-3h2v-2z" fill="#2B244D"/>
<path transform="translate(793,697)" d="m0 0 2 3-8 9-1-4 5-5z" fill="#3F2643"/>
<path transform="translate(589,690)" d="m0 0h5l-4 3-11 5-2-1 7-4z" fill="#35264B"/>
<path transform="translate(745,373)" d="m0 0 2 1-4 4-5 2-4-1 4-3z" fill="#432537"/>
<path transform="translate(764,321)" d="m0 0 4 2 2 5-2 1-3-4-6 1-2-2z" fill="#421921"/>
<path transform="translate(620,274)" d="m0 0 5 1 1 7-6-2z" fill="#21192A"/>
<path transform="translate(746,249)" d="m0 0 4 2 3 2-1 2h2v2l2 1-3 1-6-6z" fill="#30213D"/>
<path transform="translate(719,212)" d="m0 0 4 2 10 8-2 2-1-2-6-3v-3l-5-2z" fill="#2F2043"/>
<path transform="translate(635,162)" d="m0 0 10 4v2l-6 1v-2l-3-1z" fill="#33254A"/>
<path transform="translate(786,152)" d="m0 0 5 3 9 8-2 1-7-5-5-5z" fill="#31234C"/>
<path transform="translate(381,833)" d="m0 0 9 1-1 3-9-1-1-2z" fill="#231A47"/>
<path transform="translate(619,762)" d="m0 0h3l5 11-1 3-5-9z" fill="#361C28"/>
<path transform="translate(405,760)" d="m0 0 2 2-3 8-3-1v-2l-1-4h3z" fill="#342649"/>
<path transform="translate(821,630)" d="m0 0 2 1 3-1-3 11-3-1 2-6h-2z" fill="#221C4F"/>
<path transform="translate(612,617)" d="m0 0 6 2 6 8-1 3-7-8z" fill="#372648"/>
<path transform="translate(455,614)" d="m0 0 4 1h-3l-1 3h-2l-1 3-3 1v-2l-2-1z" fill="#3C1C26"/>
<path transform="translate(573,432)" d="m0 0 6 2 5 5-3 1-8-6z" fill="#35274D"/>
<path transform="translate(459,420)" d="m0 0h2l-1 3-5 5-7 6 2-4z" fill="#392745"/>
<path transform="translate(846,400)" d="m0 0 2 4 3 13h-2l-2-5-1-4z" fill="#2E1F48"/>
<path transform="translate(416,374)" d="m0 0h1v9l-1 7-3 4 1-10z" fill="#FFFB8E"/>
<path transform="translate(746,341)" d="m0 0 1 2h-2v2l-5 3h-2l1-5z" fill="#1B0F1F"/>
<path transform="translate(315,325)" d="m0 0h2l-1 3-5 2-9-1v-1l11-2z" fill="#55252C"/>
<path transform="translate(738,311)" d="m0 0 1 2-1 2h-2v3l-3 1-2-2 1-3h2v-2z" fill="#1F1A4F"/>
<path transform="translate(261,293)" d="m0 0 9 6-1 4-4-2-4-5z" fill="#392438"/>
<path transform="translate(624,263)" d="m0 0h2v7l-1 2v3l-3 1 1-12z" fill="#2A223B"/>
<path transform="translate(689,202)" d="m0 0 7 2 1 4 3 1v2l-4-2-6-4z" fill="#302034"/>
<path transform="translate(572,149)" d="m0 0h4v2h2v2l-2 1h-7z" fill="#2E2E8C"/>
<path transform="translate(626,779)" d="m0 0 4 3 1 6h2l-1 2h-3l-4-8z" fill="#362643"/>
<path transform="translate(330,758)" d="m0 0h2l1 6-1 7-3-3-4-1 5-2z" fill="#2D233D"/>
<path transform="translate(237,743)" d="m0 0 4 1 7 7-1 3-10-10z" fill="#231D4E"/>
<path transform="translate(605,735)" d="m0 0 5 5 2 5v3l-3-1-2-5z" fill="#291D30"/>
<path transform="translate(200,708)" d="m0 0 5 2 2 4-1 3h-2l-4-6z" fill="#20142A"/>
<path transform="translate(783,535)" d="m0 0h7l-2 1v2l-4 2-5-2 1-2z" fill="#FEF874"/>
<path transform="translate(752,491)" d="m0 0 4 1-4 4h-5l1-4z" fill="#352544"/>
<path transform="translate(775,489)" d="m0 0h10l-4 3h-8l-3-2z" fill="#41263D"/>
<path transform="translate(248,479)" d="m0 0 1 4-3 1-10-2v-2h11z" fill="#332852"/>
<path transform="translate(195,383)" d="m0 0h5l-1 3-5 2v2h-2v-6z" fill="#2A223D"/>
<path transform="translate(760,325)" d="m0 0h2v5l-7 2-2-2z" fill="#312442"/>
<path transform="translate(220,146)" d="m0 0 2 1-5 5-7 5-2-1z" fill="#2F1F44"/>
<path transform="translate(422,793)" d="m0 0 6 1 3 3-6-1v2l-4-1-1-3z" fill="#271C4A"/>
<path transform="translate(403,776)" d="m0 0 4 2-2 6-4-1 1-5z" fill="#38253E"/>
<path transform="translate(344,736)" d="m0 0 1 3-5 9h-2l-1-3h2l1-3 2-4h2z" fill="#2B233C"/>
<path transform="translate(814,325)" d="m0 0 3 4 1 7h-2l-4-8h2z" fill="#281E4E"/>
<path transform="translate(708,325)" d="m0 0 3 1-3 3-9 4v-2l3-3z" fill="#51242A"/>
<path transform="translate(724,323)" d="m0 0 2 1-2 6h-2l-1 2v-2l-5 1 5-5z" fill="#211B47"/>
<path transform="translate(688,303)" d="m0 0 2 3-7 6h-2l2-4z" fill="#36253F"/>
<path transform="translate(696,293)" d="m0 0 4 1-2 4-7 7-2-1 6-7h2z" fill="#271826"/>
<path transform="translate(589,845)" d="m0 0h3v2l-4 1h5l1 2-7 1-2-2v-3z" fill="#342754"/>
<path transform="translate(727,767)" d="m0 0 5 1-2 4-3 1-1 3-3-2 4-4z" fill="#38295A"/>
<path transform="translate(582,767)" d="m0 0 3 2 1 7-1 3-4-9z" fill="#331F2F"/>
<path transform="translate(767,732)" d="m0 0 1 3-4 2-2 5-3 1 1-4h2l2-4z" fill="#4E252F"/>
<path transform="translate(781,716)" d="m0 0h2l-2 10-5-1 3-5z" fill="#20183E"/>
<path transform="translate(777,716)" d="m0 0h2l-1 4-5 6-2-4h2v-2h2z" fill="#292251"/>
<path transform="translate(614,674)" d="m0 0h2l-1 4-9 6v-3l5-2 2-4z" fill="#2B1D48"/>
<path transform="translate(505,583)" d="m0 0h3v2l-9 6-3-1 1-2 7-4z" fill="#2D2444"/>
<path transform="translate(851,575)" d="m0 0 1 3-3 11h-2l-1-3 4-9z" fill="#271D4E"/>
<path transform="translate(800,464)" d="m0 0 9 1 1 2-6 2-5-3z" fill="#322542"/>
<path transform="translate(196,430)" d="m0 0 7 3-2 1-1 3-6-4v-2z" fill="#3C263F"/>
<path transform="translate(727,357)" d="m0 0 5 1-5 5-2 1-2-2 2-3h2z" fill="#332135"/>
<path transform="translate(493,283)" d="m0 0h18l2 2-1 2h-3v-3h-16z" fill="#5A232D"/>
<path transform="translate(376,244)" d="m0 0 2 1 4 7-1 2-3-2-2 1-1-7z" fill="#332541"/>
<path transform="translate(710,209)" d="m0 0 9 2v4l-5-1-4-3z" fill="#262054"/>
<path transform="translate(635,822)" d="m0 0h5v2l-7 3-4-1z" fill="#271F4D"/>
<path transform="translate(417,782)" d="m0 0 1 4v3l-1 2-5 2 2-5z" fill="#2D213E"/>
<path transform="translate(640,644)" d="m0 0 4 2 4 6-3 2-1-4-4-2z" fill="#3B2234"/>
<path transform="translate(620,622)" d="m0 0 6 5 3 5-2 2-3-3-2-5z" fill="#5F2633"/>
<path transform="translate(853,555)" d="m0 0 2 1v7l-2 4v-7h-2v-4z" fill="#26205E"/>
<path transform="translate(484,514)" d="m0 0v3l-3 5-4 4-2-1z" fill="#332648"/>
<path transform="translate(529,490)" d="m0 0 8 1 9 2v2l-10-2-7-2z" fill="#6B262E"/>
<path transform="translate(808,336)" d="m0 0 3 3 2 5 2 2v4h-2l-5-11z" fill="#2E1F48"/>
<path transform="translate(311,285)" d="m0 0 4 2 5 5-1 4-7-8z" fill="#3E2332"/>
<path transform="translate(885,270)" d="m0 0h3l5 9-1 3-5-7z" fill="#251C4E"/>
<path transform="translate(390,835)" d="m0 0 4 1 1 4-3 1-5-4z" fill="#261F51"/>
<path transform="translate(628,825)" d="m0 0 2 1-1 2h-4l-2 4-3-2v-2z" fill="#342042"/>
<path transform="translate(478,812)" d="m0 0 2 1v7h-4v-6h2z" fill="#170D1E"/>
<path transform="translate(574,806)" d="m0 0h6l-1 4-6 1z" fill="#1E0F1F"/>
<path transform="translate(650,778)" d="m0 0h2l-2 6-4 3v-5z" fill="#43263A"/>
<path transform="translate(262,766)" d="m0 0h5l2 6 3 1-1 2-3-1-1-3z" fill="#2C244C"/>
<path transform="translate(600,744)" d="m0 0 6 5 1 4-2 2-5-8z" fill="#291B2B"/>
<path transform="translate(388,728)" d="m0 0 1 3-4 8-1-3v-3l1-4z" fill="#FEFA85"/>
<path transform="translate(765,724)" d="m0 0 3 1 1-1 1 3-5 4-3-3z" fill="#281F3F"/>
<path transform="translate(602,724)" d="m0 0 4 1-6 3-1 2h-3v-4z" fill="#322548"/>
<path transform="translate(202,699)" d="m0 0 4 1 2 4v2l2 2-1 3-7-10z" fill="#1C1425"/>
<path transform="translate(178,655)" d="m0 0 6 3v6l-3-1-3-6z" fill="#1F1729"/>
<path transform="translate(167,621)" d="m0 0 2 2 1 5h-3l-3-3 1-3z" fill="#2D1D2D"/>
<path transform="translate(410,482)" d="m0 0v3l-6 8h-2l1-5z" fill="#2E234E"/>
<path transform="translate(782,365)" d="m0 0 3 1 1 4v5h-2l-1-5-3-1z" fill="#36243A"/>
<path transform="translate(407,302)" d="m0 0 3 1-11 6-5 1 5-4z" fill="#332042"/>
<path transform="translate(711,273)" d="m0 0 3 3-3 6-3-4z" fill="#321B26"/>
<path transform="translate(320,229)" d="m0 0 4 1 1 3-2 3-1-4-3 1-3-3z" fill="#31223A"/>
<path transform="translate(682,186)" d="m0 0 11 6 2 4-9-5-5-4z" fill="#30224B"/>
</svg>
