<?xml version="1.0" encoding="UTF-8"?>
<svg version="1.1" viewBox="0 0 1000 1000" width="1280" height="1280" xmlns="http://www.w3.org/2000/svg">
<path transform="translate(0)" d="m0 0h1e3v1e3h-1e3z" fill="#EF5B25"/>
<path transform="translate(0)" d="m0 0h1e3v1e3h-1e3zm462 50-36 4-34 7-28 8-28 10-24 10-24 12-19 11-19 12-20 14-10 8-11 9-13 11-8 8-8 7-12 12-9 11-12 14-12 16-12 18-12 19-10 18-9 17-12 28-13 38-6 23-6 28-4 28-1 10-1 22v15l1 32 3 32 6 35 6 24 10 31 10 25 11 24 10 19 13 22 11 16 14 19 7 7h15l13-4 6-5 6-12-1-10-6-7-30-11-19-7-12-7-6-8-3-8v-11l3-12 5-9 5-5 8-5 14-4h25l14 4 12 6 5 4v4l-4 2-5 6-1 2-6-2-10-5-11-3h-16l-10 5-6 7-2 5 1 9 5 6 13 6 33 11 13 7 8 9 3 8v16l-4 13-6 10-10 7-11 5-11 2 2 4 11 12 13 13 8 7 14 12 16 12 15 11 18 11 21 12 23 12 20 9 20 7 18 6 26 7 24 5 23 4 27 3h65l30-3 32-6 32-8 36-12 26-11 32-16 25-15 16-11 12-9 14-11 11-10 8-7 10-9 11-11 7-9v-3l-8-4-1-4 11-11 4 1 5 5 4-1 14-17 3-4v-2l-19-3-10-5-5-6-3-10v-8l3-10 4-6 7-6 10-4 4-1h23l17 4 4-1 8-16 11-25 7-19 10-35 7-32 3-20 2-19 1-20v-50l-4-39-6-32-12-42-12-32-14-29-9-17-10-17-16-24-16-21-9-11-9-10-7-8-19-19-8-7-14-12-17-13-14-10-19-12-19-11-23-12-32-14-36-12-22-6-29-6-27-3-12-1z" fill="#FDFCFC"/>
<path transform="translate(454,160)" d="m0 0h97l10 3 9 6 10 9 26 26 8 7 28 28 8 7 42 42 6 11 3 8v98l-5 13-9 11-11 11-7 8-6 6h-2l-2 4-12 12-6 5-6 7h-2l-2 4-38 38-1 2h-2l-2 4-10 9-8 7-13 7-14 1h-30l-60-1-10-5-10-8-17-16-36-36-8-7-29-29-8-7-17-17-8-12-3-9v-93l3-12 7-12 10-10 7-8 29-29 7-8 53-53 7-8 12-9 8-4z" fill="#F3882F"/>
<path transform="translate(454,160)" d="m0 0h97l10 3 9 6 10 9 26 26 8 7 28 28 8 7 42 42 6 11 3 8v98l-5 13-9 11-11 11-7 8-6 6h-2l-2 4-12 12-6 5-6 7h-2l-2 4-38 38-1 2h-2l-2 4-10 9-8 7-13 7-14 1h-30l-60-1-10-5-10-8-17-16-36-36-8-7-29-29-8-7-17-17-8-12-3-9v-93l3-12 7-12 10-10 7-8 29-29 7-8 53-53 7-8 12-9 8-4zm4 19-10 5-8 7v2h-2l-7 8-25 25-7 8-26 26v2l-3 1-7 8-25 25-9 11-2 8v89l3 6 11 13 13 13 6 5 5 6 8 7 29 29 8 7 40 40 5 3 4 1h73l3-1v-3l8 4 7 1 9-5 10-9 15-15 7-8 32-32 7-8 24-24v-2l4-2 7-8 10-10 6-9 1-5v-44l-1-46-8-11-17-17-7-8-12-11-16-16-8-7-28-28-8-7-17-17-10-6-38-1h-34l-9 1-4-1z" fill="#FDFCFC"/>
<path transform="translate(680,319)" d="m0 0h1l1 35v44l-3 9-12 13-8 8-3 4h-2l-2 4-25 25-7 8-35 35-7 8-16 16-9 6-4 1-9-2-9-6-8-16-6-15-6-16-7-18-1-5 6-14 13-36 8-16 10-9 16-8 31-11 15-5 4-3 15-5 19-7 18-7 13-7 8-8z" fill="#0872B8"/>
<path transform="translate(458,179)" d="m0 0h7l7 3 8 7 6 12 15 40 3 10 1 1-1 7-6 15-10 30-8 16-7 8-9 6-20 8-37 13h-3v2l-33 11-20 8-14 7-8 7-2 4v-79l3-9 9-11 30-30 2-3h2l2-4 30-30 7-8 25-25 1-2h2l2-4 11-8z" fill="#0872B8"/>
<path transform="translate(401,357)" d="m0 0 6 1 19 6 20 7 20 9 9 7 7 10 7 15 11 35 2 8v5h2l6 14 6 17 4 10 8 19 4 7 2 2 1 4-3 1h-73l-7-3-8-7-40-40-8-7-29-29-6-5-5-6-8-7-11-11-9-12-1-3v-10l2-5 8-7 16-8 27-10z" fill="#F3882F"/>
<path transform="translate(505,255)" d="m0 0 2 2 4 17 13 36 6 12 4 5 10 7 25 10 33 11 2 2-4 3-36 12-19 8-11 8-6 8-7 16-14 39-4 9h-1l-6-23-10-30-8-15-6-7-14-8-23-9-30-10-1-3 46-16 15-7 9-6 8-11 6-14 12-35z" fill="#FDFCFC"/>
<path transform="translate(478,179)" d="m0 0h34l38 1 10 6 23 23 8 7 17 17h-3l-2-1-2 2-11 1-1 6h-2l-2 6-4 2-1 3h-2l-2 4-3 2-3 8-3 3-1 3h-2l-2 6-4 6-3 3-4 10-1 15 2 17h2v2l4 2 5 6 2 2-4 1-17-7-11-8-7-10-6-16-10-27-4-17-5-12-8-23-10-25-4-8-7-6-2-2z" fill="#F8A838"/>
<path transform="translate(450,374)" d="m0 0 5 1 14 7 7 6 7 11 7 16 10 32 2 8v5h2l6 14 6 17 4 10 8 19 4 7 2 2 1 4-3 1h-73l-7-3-8-7-40-40-2-5-4-2-4-5 2-1 7 2 8 4 1 1 7 1v-5h2l2-5 3-5 5-6h5l2-6 4-6 4-7 3-6h2v-3h2l6-15 2-9-1-4 2-11-1-2 1-2-7-1-2-6 1-2h-3z" fill="#F8A939"/>
<path transform="translate(602,700)" d="m0 0h11l12 4 8 6 21-7 14-3h9l13 4 7 5 6 10 2 5 1 7v74h-20l-1-1-1-72-4-8-8-3h-10l-12 2-6 2-1 80-1 1h-13l-7-2-1-68-4-10-5-4-2-1h-19l-11 1 1 81-2 2h-20l-1-10 1-87 6-2 19-4z" fill="#FDFCFC"/>
<path transform="translate(538,384)" d="m0 0 3 1-4 5-3 6-3 7v28l4 6v2h6l6 4 17 8 3 1v2l12 3 15 9 11-1 11-5 2-2 6-2v-2l8-6 8-3 6-5-2 4-17 17-7 8-35 35-7 8-16 16-9 6-4 1-9-2-9-6-8-16-6-15-6-16-7-18-1-5 6-14 13-36 8-16z" fill="#0560A9"/>
<path transform="translate(458,179)" d="m0 0h7l7 3 8 7 6 12 15 40 3 10 1 1-1 7-6 15-10 30-5 11h-2l-1-5v-19l-2-5-3-2v-2h-3v-2l-6-2-1-4-6-1-8-5-8-4-4-5-4-3v-2l-5-2v-2l-5-2-3-3-8-3h-7l-11 4-5 4-8 6h-2l-1 3-4 1v2h-3l2-4 30-30 7-8 25-25 1-2h2l2-4 11-8z" fill="#0561AA"/>
<path transform="translate(322,699)" d="m0 0h18l16 4 9 6 4 5 4 7 1 4v71l-2 2-24 5-9 1h-25l-11-4-7-6-5-10-2-11 2-10 4-8 8-8 10-4 5-1h35l-2-16-4-5-5-2-16-1-9 2-6 4-2 2-5-1-1-5-5-2-2-2v-5l7-6 9-4z" fill="#FDFCFC"/>
<path transform="translate(768,701)" d="m0 0h13l11 2 10 6 7 8 2 5 1 6v9l-2 9-6 8-6 5-11 4-37 1-1 4 2 12 4 5 5 2 7 1h10l10-3 3-4 4-1 5 3 8 8-2 5-9 6-6 3-11 2h-18l-13-3-10-6-7-8-2-7-1-8v-45l2-9 6-8 8-6 10-4z" fill="#FDFCFC"/>
<path transform="translate(680,319)" d="m0 0h1l1 35v44l-1 5-4 1-3 3-3 5-6 2v2l-4 2-11 1-7-4-5-5-9-4-18-5-7-3-7-4-15-5v-2l-5-1-5-6 1-4h2v-2l6-4h5v-2l10-4 3-2-2-2 6-3 7-3 21-8 23-8 17-9 8-8z" fill="#2298D4"/>
<path transform="translate(362,287)" d="m0 0 5 1 5 5 1 6 7 2 5 4 3 4v2h3v2l4 1 10 6 1 5 4 1 5 3 9 2 1 3 5 1-1 4-2 5-14 6h-5l-1 3-9 3h-3l1 1 8-2v2l-33 11-20 8-14 7-8 7-2 4v-79l1-5 1 2 5-5 3-1 2-4 11-11 5-3z" fill="#2197D3"/>
<path transform="translate(418,660)" d="m0 0h96l19 1 1 1v18l-4 1h-43v123h-22l-1-1v-57l1-65h-16l-30-1-2-6v-13z" fill="#FCFCFC"/>
<path transform="translate(401,357)" d="m0 0 6 1 12 4 1 9-5 6-3 10-2 3-2 7-3 1-1 8-1 4h-3v7l-4 5-1 5-6 4-4 4-5 3h-2v2l-3 1-4 9-4-2-6-5-5-6-8-7-11-11-9-12-1-3v-10l2-5 8-7 16-8 27-10z" fill="#EF5B25"/>
<path transform="translate(633,259)" d="m0 0 4 2 8 8 8 7 11 12 11 11 6 9v11l-7 8-6 5-17 8-20 7-21 8-8 1-14-5 4-1 2-1v-4l1-4-3-6 1-4-2-1 4-14 4-6 3-4 2-4 2-1 3-6 2-3h2l1-5 2-4 9-2 5-5h6 4l2-8-4-2-5-5z" fill="#EF5B25"/>
<path transform="translate(450,374)" d="m0 0 5 1 14 7 5 8v2l3 1 3 10 1 1v6l2 5 1 11-4 17-5 15-5 7-1 5-3 9-5 1-2 9-5 3-2 4-3 1v-2l-5 3-3 3-5 1-7-2-2 1-3-1 5 7-4-2-21-21-2-5-4-2-4-5 2-1 7 2 8 4 1 1 7 1v-5h2l2-5 3-5 5-6h5l2-6 4-6 4-7 3-6h2v-3h2l6-15 2-9-1-4 2-11-1-2 1-2-7-1-2-6 1-2h-3z" fill="#F79833"/>
<path transform="translate(578,207)" d="m0 0 8 4 22 22h-3l-2-1-2 2-11 1-1 6h-2l-2 6-4 2-1 3h-2l-2 4-3 2-3 8-3 3-1 3h-2l-2 6-4 6-3 3-4 10-1 15 2 17h2v2l4 2 5 6 2 2-4 1v-2l-6-2v-3l-5-2-11-7-4-4-5-12v-8l-2-12 1-3-1-6 1-12 2-4 3-2-1-2 8-15 3-6 3-2 1-7h3v-2h2l2-5 3-3h2l7-5 5-2 4-4h2z" fill="#F79833"/>
<path transform="translate(373,267)" d="m0 0 13 1 4 2v2h3v3l5 2 7 5v2l5 2 4 4 4 2v2l5 2 4 4 3 1v2l9 3 3 2v2l4 1 4 3 7 2 7 4 1 8-9 4h-3v2l-12 6-11 3v4l-23 8-12 3v-2l12-4 1-2 10-3 9-4 2-5v-3l-4-1-3-3-9-2-7-4-2-5-9-5-4-2v-2h-3l-4-6-6-4-5-1-2-7-4-3v-2l-12 1-8 6-9 9-7 8h-2v-5l12-14 11-11 3 1 7-8 8-6h3z" fill="#1283C5"/>
<path transform="translate(594,361)" d="m0 0h6l-4 4-7 3h-3v2l-6 2-2 2h-3v2h-2v5l6 5 3 1v2l6 1 13 5 6 4 12 3 10 3 9 4 5 4v2l5 2 6 1 11-2v-2l6-3 4-7 5-2-1 5-6 7-5 2-6 5-5 6-9 5-4 3-7 3-5 2-6-1-6-2-5-5-13-4-5-3-11-3-12-7-7-5-7-2-2-2-7-2-3-5-4-5 2-7 3-5 4-2 7-4h2l-1-4z" fill="#1284C6"/>
<path transform="translate(251,671)" d="m0 0h3v31h18l1 1v15h-19v56l2 9 9 3 8-2 2 4-2 13-5 3-9 1-12-3-6-4-7-8-2-8v-97l2-6 11-5z" fill="#FDFCFC"/>
<path transform="translate(428,700)" d="m0 0h17l1 1v18l-26 3-1 4-1 77-1 1h-20l-1-2v-23l1-71 2-2 21-5z" fill="#FDFCFC"/>
<path transform="translate(513,431)" d="m0 0h2l1 6-2 4-1 18 4 9v2h2l3 6 10 11 11 4v2l7 2 15 8 6-1 4-2 1-2 8-2v-2l5-2 1-3 10-5 5-4 5-6 8-7 1 3-34 34-7 8-16 16-9 6-4 1-9-2-9-6-8-16-6-15-6-16-7-18-1-5 6-14z" fill="#044B88"/>
<path transform="translate(458,179)" d="m0 0h7l7 3 8 7 6 12 15 40 3 10 1 1-1 7-4 10-3-2-6-18-2-7h-2l-3-3-3-6-6-7-2-1v-2l-20-10-7-3v-2h-12l-9 6-8 6-3 3v-3l7-7 3-5 13-13 1-2h2l2-4 11-8z" fill="#034987"/>
<path transform="translate(514,701)" d="m0 0h19l1 1v102l-6 1h-15l-1-1v-87l1-15z" fill="#FEFDFD"/>
<path transform="translate(419,362)" d="m0 0 10 3 2 10 6 2v3 5l-4 4-2 7h-2v5l-5 4-1 9-3 2-4 9-6 8-5 8-5 1-4 5-6 5-1 2h-2l-1 5-2 2 4 6-4-2-14-14 4-10 4-1v-2l5-3h2l1-2 7-6 3-8h2l2-9h3l1-8 1-4 3-3 5-15 3-6 3-3z" fill="#ED7430"/>
<path transform="translate(622,249)" d="m0 0 4 1 8 8 1 5 7 5v8l-5 2-1-1h-6l-3 1-2 4-9 1-3 9h-2l-5 10-3 2v3h-2l-2 4-3 5-4 14 2 7 2 6-2 5v3h-7l-2-2v-2l-5-5-3-5v-4h-2l-1-6 3-10 2-8 3-1 4-9h3l2-7v-2l2-1 4-9 1-2h2v-2l9-7 5-2v-3h2v-2l4-1 2 2 3-1-1-10-2-1z" fill="#ED7431"/>
<path transform="translate(321,759)" d="m0 0h31l1 1v13l-1 12-15 2h-13l-10-5-3-5v-9l4-6z" fill="#EF5C25"/>
<path transform="translate(762,720)" d="m0 0h18l6 3 4 5 1 8-3 6-3 3-8 2h-25l-3-1v-17l4-5z" fill="#EF5D25"/>
<path transform="translate(863,719)" d="m0 0 15 1 11 3 1 3-8 15-4 4h-9l-12-2-5-3-4-6 1-6 8-7z" fill="#EF5F26"/>
<path transform="translate(851,726)" d="m0 0 6 5 4 1 3 2 4-2 2 5h-2v2l-8 3-3 1-5-3-4-6 1-6z" fill="#ED7530"/>
<path transform="translate(474,322)" d="m0 0m-1 1m-1 1 2 1-1 3-9 6-20 8-11 4-4-1 3-3 13-5 6-3h2v-2l18-7z" fill="#086AB1"/>
<path transform="translate(427,345)" d="m0 0v3l-20 7-12 3v-2l12-4 1-2z" fill="#0E78BC"/>
<path transform="translate(671,413)" d="m0 0v3l-12 12-3 4h-2l-2 4-2-2 6-6 2-4 5-5 5-4z" fill="#0766AC"/>
<path transform="translate(575,367)" d="m0 0h5l1 2-14 5-4 1 4-5z" fill="#0D7ABE"/>
<path transform="translate(436,340)" d="m0 0h5v3l-8 3-4-1 3-3z" fill="#096CB2"/>
<path transform="translate(848,731)" d="m0 0 4 1v3l2 1 2 4 2 2-5-1-5-7z" fill="#F06C2A"/>
<path transform="translate(559,373)" d="m0 0 4 1-3 3-10 2 1-3z" fill="#096CB3"/>
<path transform="translate(449,335)" d="m0 0 3 1-5 5-7 1 1-3z" fill="#0769AF"/>
<path transform="translate(474,322)" d="m0 0m-1 1m-1 1 2 1-1 3-6 4-3-1 5-5z" fill="#0863A6"/>
<path transform="translate(633,259)" d="m0 0 4 2 6 7-4-1-5-4z" fill="#EE6128"/>
</svg>
