<?xml version="1.0" encoding="UTF-8"?>
<svg version="1.1" viewBox="0 0 1000 1000" width="1280" height="1280" xmlns="http://www.w3.org/2000/svg">
<path transform="translate(0)" d="m0 0h1e3v1e3h-1e3z" fill="#FCFDFD"/>
<path transform="translate(471,49)" d="m0 0h54l31 3 32 5 26 6 26 8 27 10 23 10 26 13 25 15 21 14 16 12 17 14 20 18 15 15 7 8 12 14 11 14 13 18 20 32 15 29 13 30 12 36 6 22 7 36 4 36v52l-4 7-10 13-21 27h-3l-9-11-13-19-8-11-13-18-14-20-13-18-11-16-5-2h-149l-7-1-2-3-1-37-2-9-2-1h-251l-19 2-17 4-12 5-10 6-8 7-6 10-2 8v8l4 11 7 10 2 1v2l4 2 9 7 15 9 27 13 28 13 16 8 12 7 8 7 2 4v8l-4 6-5 4-11 4-6 1-47 1h-66l-50-1-2-1 1-4 16-12 4-2v-2h2l2-4 8-11 7-14 4-18v-12l-3-15-8-16-6-9-8-9-14-10-15-8-18-7-23-6-15-3-24-3-16-1-114-1 1-9 12-38 9-24 11-24 8-16 11-20 13-20 12-17 9-12 12-14 9-11 26-26 11-9 10-9 14-11 16-11 17-11 22-13 23-12 20-9 18-7 31-10 32-8 27-5z" fill="#017FBE"/>
<path transform="translate(460,420)" d="m0 0h122l1 1 1 132 2 8 6 12 9 8 10 4 12 2h303l7-3 11-16h1l-1 12-6 28-7 25-10 29-10 24-12 25-14 24-11 17-13 18-11 14-12 14-11 12-25 25-11 9-9 8-13 10-14 10-17 11-35 20-31 14-30 11-35 10-29 6-35 5-24 2h-43l-36-4-34-6-36-9-35-12-25-11-21-10-27-16-14-9-16-11-14-11-14-12-12-11-15-14-14-15-9-10-10-13-13-18-16-24-11-19-12-23-10-23-11-30-10-35-4-17 425-1 24-2 17-4 16-7 10-7 7-8 4-8 1-5v-11l-4-9-8-11-10-8-11-7-16-9-20-9-14-7-22-10-18-10-9-8-2-4v-6l5-8 10-6 8-2z" fill="#01477D"/>
<path transform="translate(651,76)" d="m0 0 6 1 29 12 30 15 25 15 21 14 16 12 17 14 20 18 15 15 7 8 12 14 11 14 13 18 20 32 15 29 13 30 12 36 6 22 7 36 4 36v52l-4 7-10 13-21 27h-3l-9-11-13-19-8-11-13-18-14-20-13-18-11-16-5-2h-149l-7-1-2-3-1-37-2-9-2-1h-251l-19 2-17 4-12 5-10 6-8 7-6 10-2 8v8l4 11 7 10 2 1v2l4 2 9 7 15 9 27 13 28 13 16 8 12 7 8 7 2 4v8l-4 6-5 4-11 4-6 1-47 1h-66l-50-1-2-1 1-4 16-12 4-2v-2h2l2-4 8-11 7-14 4-18v-12l-3-15-8-16-6-9-8-9-14-10-15-8-18-7-23-6-15-3-24-3-16-1-114-1 1-9 12-38 9-24 11-24 8-16 11-20 4-5h2l-1 5-10 16-7 14-9 20-7 15-3 9-7 20-4 16-1 9 2 4 24 1 43-1h28l31 1 22 3 10 2 7 1 9 2 9 1 9 2 15 6 5 1 5 3 9 1 6 2h11l1-1 10-1 10-4 12-5 7-4 16-6 11-3 7-2 12-3 45-5 2-1 18-2 16-4 16-1 6-1 4 2 5-1 15-5 1-1 9-1 13-5 1-1 10-1 4-2 8 1 8-1 3-3 10-1 21-7 18-2 4-3 9-1 3-1 6 1 7-1 2 1 2-4h9l5-1 5 1 13-5 9-5 4-5 12-3 1-2 11-2 2 2 5-1 11-4 7-3 4-2 2-3 3-1 2-4 9-4 8-3 5-6 5-2 7-1 3-1 2-3 9-1h3l1 3 5-1 4-2 5 2 4-4 7-1h8l10 1 2-1 2-7v-6l-4-7-4-11-4-5v-2h-2l-1-4h-2l-5-9-4-7-8-8v-2h-2l-6-8v-2h-2l-3-4-6-5v-3l-4-2v-2l-4-2v-2l-4-1-14-14-10-8-6-5-12-9v-2l-6-2-9-7-7-4-9-6-15-9v-2l-6-1-7-5v-2l-8-2v-2l-7-1-11-5-13-5-9-4-6-4z" fill="#0166A2"/>
<path transform="translate(92,419)" d="m0 0h50l26 3 19 5 16 7 12 7 10 8 9 11 6 12 3 12v18l-4 15-6 11-9 11-12 9-15 8-18 6-20 4-17 2h-50l-1-1v-147z" fill="#01477D"/>
<path transform="translate(917,332)" d="m0 0h2l10 28 9 31 7 34 3 22 2 20v52l-4 7-10 13-21 27h-3l-9-11-13-19-8-11-13-18-14-20-13-18-11-16-5-2h-149l-7-1-2-3-1-37-2-9-4-2-103-1v-1l7-1v-1l40-2h37l15 1 11 4 5 5v2l4 2 4 5 3 3v2l4 2v2l3 1 5 5 6 7 8 5 8 1 25 1h11l17-1 23-1h28l18 2 5-1h7l11 3h8l6 2h7l3-1 2 1h7l8-5 7-10h5l7 6 7 14 3 2v2h2l2-20-1-5-1-12-1-9-3-17-1-12-1-1-1-12-3-5-1-7-3-4-2-9-3-6z" fill="#01477E"/>
<path transform="translate(675,469)" d="m0 0h78l6 5 8 11 14 18 15 20 14 18 9 12 10 14-1 2h-143l-8-2-6-4-3-6-1-9v-38l1-40z" fill="#01487E"/>
<path transform="translate(270,418)" d="m0 0 6 2 13 7 12 8v2l4 2 7 6 9 5 5 3 3-1 6-8h1v6h2l4 11 7 10 2 1v2l4 2 9 7 15 9 27 13 28 13 16 8 12 7 8 7 2 4v8l-4 6-5 4-11 4-6 1-47 1h-66l-50-1-2-1 1-4 16-12 4-2v-2h2l2-4 8-11 7-14 4-18v-12l-3-15-8-16-6-9-8-9-14-10-16-9z" fill="#01477D"/>
<path transform="translate(139,647)" d="m0 0 4 1v2h6v-2h4l3 5 7 7 3 9h2l1 3-5 3h-2l-1 6-7 1-5-3v-4h-6l2 5-3 1-4-6-7-2 2-4-1-7h-2l1-5 1-3-3-1 1-4z" fill="#0165A1"/>
<path transform="translate(87,650)" d="m0 0 7 1 4 4 7 9 5 5 1 2 1 6h3l-1 5h-2l1 6 2 4v8l1 3-2 4h-2l-1 2-4-7v-2l-4-2-3-10-4-6-2-5-1-1v-5h-2l-5-16z" fill="#0165A1"/>
<path transform="translate(430,54)" d="m0 0h8l-4 2-10 3-11 2-6 2-18 4-22 6-16 5-19 7-17 6h-2l-1 2-19 10-17 10-10 6-5 1v2l-9 6h-3v2l-7 5-5 1-4 4h-2v2l-5 1 4-5 12-8 20-13 22-13 23-12 20-9 18-7 31-10 32-8z" fill="#0166A2"/>
<path transform="translate(471,49)" d="m0 0h54l31 3 15 2 3 2h-11l-24-3h-29l-14 1h-34l-3-3z" fill="#016BA8"/>
<path transform="translate(430,54)" d="m0 0h8l-4 2-10 3-11 2-6 2-18 4-22 6-6 2-4-1 3-3 31-9 27-6z" fill="#016AA6"/>
<path transform="translate(117,263)" d="m0 0h2l-1 5-10 16-7 14-9 20-7 15-3-1 5-13 11-24 12-22z" fill="#0168A4"/>
<path transform="translate(286,103)" d="m0 0 2 1-5 5-14 8-6 3h-2v2l-9 6h-3v2l-7 5-5 1-4 4h-2v2l-5 1 4-5 12-8 20-13 22-13z" fill="#0168A4"/>
<path transform="translate(651,76)" d="m0 0 6 1 29 12 20 10-4 1-5-2v-2l-7-1-11-5-13-5-9-4-6-4z" fill="#016AA6"/>
<path transform="translate(917,332)" d="m0 0h2l10 28 1 6-4-2-2-9-3-5-2-9-3-6z" fill="#015189"/>
<path transform="translate(322,85)" d="m0 0 2 1-3 3-8 2-1 2-19 10-5 3-2-1 1-3 26-13z" fill="#0167A3"/>
<path transform="translate(587,58)" d="m0 0 10 1 24 6 16 5 1 2-6-1-8-1-3-1v-2l-9-1-8-3-16-3z" fill="#016EAB"/>
<path transform="translate(873,249)" d="m0 0 5 5 10 16 8 14-1 3-5-7v-2h-2l-8-16-3-4v-3h-2z" fill="#015189"/>
<path transform="translate(139,230)" d="m0 0 2 2-16 24-4 2 2-6 10-14z" fill="#0169A5"/>
<path transform="translate(286,103)" d="m0 0 2 1-5 5-14 8-3 2h-4v-2l22-13z" fill="#015B95"/>
<path transform="translate(541,51)" d="m0 0 15 1 15 2 3 2h-11l-22-3z" fill="#016DAA"/>
<path transform="translate(139,230)" d="m0 0 2 2-8 12-3-1 7-11z" fill="#016AA7"/>
<path transform="translate(301,95)" d="m0 0m-2 1 2 1-6 5-7 4-2-1 1-3z" fill="#0166A2"/>
<path transform="translate(151,214)" d="m0 0h3l-2 4-7 9-1-2 2-5z" fill="#016CA9"/>
<path transform="translate(619,66)" d="m0 0 8 1 10 3 1 2-6-1-8-1-3-1v-2z" fill="#016DA9"/>
<path transform="translate(925,355)" d="m0 0 3 2 2 9-4-2-2-8z" fill="#014F87"/>
<path transform="translate(260,118)" d="m0 0 3 1-2 1v2l-6 4h-4v-2z" fill="#0165A1"/>
<path transform="translate(332,81)" d="m0 0 4 1-6 4-7 1 4-4z" fill="#0164A0"/>
<path transform="translate(238,133)" d="m0 0m-2 1 2 1-5 5h-2v2l-5 1 4-5z" fill="#016AA6"/>
<path transform="translate(322,85)" d="m0 0 2 1-3 3-8 2-1 2-1-3z" fill="#016AA7"/>
</svg>
