<?xml version="1.0" encoding="UTF-8"?>
<svg version="1.1" viewBox="0 0 1000 1000" width="1280" height="1280" xmlns="http://www.w3.org/2000/svg">
<path transform="translate(0)" d="m0 0h1e3v1e3h-1e3z" fill="#009442"/>
<path transform="translate(0)" d="m0 0h1e3v1e3h-1e3zm470 49-36 4-32 6-24 6-37 12-24 10-25 12-23 13-16 10-19 13-13 10-13 11-11 9-13 13-4 3v2l-3 1-7 8-8 8-18 22-14 19-13 20-9 15-7 12-11 23-10 23-10 28-7 24-7 31-4 26-2 21v70l4 35 7 36 8 29 10 29 12 28 12 24 15 25 11 16 12 17 11 14 12 14 15 16 8 8 8 7 13 12 14 11 18 14 22 14 26 15 16 8 21 10 27 10 29 9 29 7 29 5 30 3h61l30-3 29-5 29-7 27-8 19-7 24-10 28-14 25-15 21-14 12-9 14-11 11-10 8-7 7-6 5-5 5-6 13-13 9-11 10-12 13-18 18-27 15-27 10-21 12-29 9-28 9-36 5-31 3-29v-64l-4-35-5-28-8-32-12-35-9-21-14-29-9-16-14-22-13-19-9-11-13-16-15-16-21-21-11-9-13-11-16-12-20-13-21-13-18-10-23-11-33-13-31-10-24-6-29-5-26-3-15-1z" fill="#FEFEFE"/>
<path transform="translate(435,330)" d="m0 0h8v5l-6 5-6 3-25 16-16 12-16 13-14 11-14 12-16 15-8 8-1 2h-2l-2 4-9 10-13 18-8 13-8 15-5 14-1 5v12l2 12 6 11 4 5 8 5 24 8 11 1h33l20-2 26-5 35-10 22-7h6l1 3-3 5-9 6-10 5-14 6-13 6-15 6-13 6-19 8-33 12-35 11-32 8-19 4-18 2h-37l-12-2-11-4-9-7-7-8-4-10v-16l4-15 12-23 10-14 12-16 11-12 7-8 18-18 8-7 14-12 8-7 11-9 14-11 13-10 19-14 13-10 75-50 18-11z" fill="#D5141D"/>
<path transform="translate(593,344)" d="m0 0h13l25 3 17 4 15 6 15 8 3 3-1 4-8 19-5 11-3 7-5-2-17-9-20-7-11-2h-17l-12 3-9 5-4 7-1 3v8l3 5 8 5 16 5 42 11 18 7 14 9 10 10 7 14 2 11v14l-3 16-7 14-9 10-9 7-14 7-17 5-18 3h-38l-25-5-17-5-16-7-8-5v-6l7-16 7-15 3-5 19 9 17 6 17 4h31l13-4 9-8 1-7-4-9-10-6-24-7-26-6-21-7-14-8-10-9-6-9-5-15-1-7v-9l3-16 7-16 8-10 8-7 11-7 11-5 9-3z" fill="#FEFEFE"/>
<path transform="translate(744,214)" d="m0 0h22l15 2 16 6 8 5 6 7 5 14v11l-6 18-12 23-8 11-12 17-16 17-15 15-8 7-10 9-8 7-2 1h-6l-1-3 3-5 7-8 10-15 8-14 8-20 2-10v-9l-2-12-5-8-6-7-7-4-11-5-22-5-6-1h-30l-29 4-29 7-28 8-25 9-28 11-12 5-16 8-7 2h-7l-1-4 5-4 16-9 15-8 28-13 26-11 19-8 26-10 36-12 38-11 16-3 21-3z" fill="#D6141D"/>
<path transform="translate(441,326)" d="m0 0 5 1 2 2v6l-6 7-11 7-10 5-3 1v2l-9 5-14 10-5 4-3 3h-2v2l-9 6-5 3-10 8-6 5-5 5-6 7h-2l-1 3-11 8-3 1-2 4-10 10-3 5h-2l-2 4-7 10-6 10-3 6h-2l-1 6h-2l-1 6-4 6-1 6-1 5-1 15-1 9v3h2l4 7v2l4 2 9 6 26 7 10 1 3 1h21l13-2h26l5-3 18-3 3-1h7l1-3 5-2h8l2-1v-2l7 1 9-3 11-2 4 2-1 9-6 5-8 4-1 2h-3v2h-2v2l-19 9-5 3h-9v2h-8l-1 4-5 1-3-1v2h-2v2l-7 2v2l-14 5-3 1-8 4-4-1-4 4-7 1-1 2-4 3-9 3-9 4-13 3-7 3-7 1-5 2-9 1-8 2-7 1-4 1h-3l-1 2-19 3-16 1h-24l-16-1-2-3-11-2-9-5v-2h-2v-2h-2l-7-8-4-5-4-11 2-9 1-15 3-4 3-8 8-14 5-9 2-3h2l5-10 5-5 8-10 5-5 7-8 5-6h2v-2h2v-2h2v-2h2v-2l8-7 11-10 11-9 10-9 13-10 14-11 15-11 20-15 17-13 11-7 11-8 13-9 10-7h2v-2l16-9 16-10 12-6zm-6 4-14 7-11 7-75 50-44 33-16 13-12 9-7 7-10 8-12 11-8 7-18 18-9 11-7 8-14 19-9 15-8 17-3 12v16l4 10 9 10 9 6 13 4 8 1h37l18-2 40-9 27-8 33-11 24-9 17-7 12-6 16-6 12-6 15-6 15-9 3-3 1-5-1-1-10 1-28 9-30 8-21 4-20 2h-33l-15-2-22-8-8-6-6-10-3-8-1-8v-12l4-14 8-17 10-16 11-15 9-11 4-4v-2h2l7-8 11-11 8-7 10-9 14-11 15-12 13-10 18-12 14-9 8-5 4-3v-5z" fill="#03873E"/>
<path transform="translate(760,204)" d="m0 0 13 1 21 5 10 5 5 5 6 7 5 11 3 11v16l-3 9-6 12-3 4-5 10-6 7-2 1-1 3h-2l-2 5-3 3-1 2h-2l-2 5-8 11-9 11-7 8-3 1-3 4h-2l-2 4-4 5-11 9-8 5-11 4-7-1-2-2 1-7 6-7 8-12 7-11h2l1-5 4-8 7-23v-13l-3-11-5-8v-2l-5-2-9-6v-2l-11-3-6-2-15-2h-19l-13 2-10 3-23 4-9 1-17 5-6 2h-12l-4 1v2l-7 1-2 3-10 1-5 3-9 3-8 3-9 3-15 7-6 4-7 3-11 4-9 1-4-2-1-5 4-6 8-5 23-12 49-22 6-4 6-2 11-5 10-3 5-3 4-1v-2l9-2 4-3 14-5 11-4 21-7 10-3 1-1 11-2 7-3 8-1 1-1 18-3 9-3 32-2zm-16 10-29 3-19 3-36 10-38 12-24 9-27 11-23 10-26 12-19 9-14 8-9 6-1 4 1 1h7l11-4 17-8 29-12 17-6 24-8 34-9 20-4 22-3h30l21 4 14 5 8 4 7 6 6 9 2 5 1 9v9l-3 12-8 20-7 12-8 12-8 10-3 3-1 5 1 1h6l9-7 7-6 5-5 16-15 15-15 7-8 8-11 11-16 12-22 6-16 1-4v-11l-5-14-8-9-10-5-12-4-15-2z" fill="#04873E"/>
<path transform="translate(729,703)" d="m0 0h14l6 3 4 4v2l5-2 6-5 5-2h12l7 3 6 7 2 6 1 16v30l-1 1-17 1-4-1-2-43-3-3-7 1-3 1-1 3-1 39-1 2h-21l-1-1-1-42-1-2h-8l-4 1-1 3-1 39-2 2h-19l-1-1-1-22v-39h17l3 1 2 4 4-1 5-4z" fill="#FEFEFE"/>
<path transform="translate(147,219)" d="m0 0 1 3-7 10-2 4h-2l-1 4-3 7h-2v2h-2l-2 7h-3l-1 7h-3l-1 6h-2l-2 7-3 3-1 2h-2l-2 6-3 5-1 3-2 1-4 14h-2l-1 4 1 2-3 3-6 14-3 10-2 4-2 6h-2l-1 10-6 18-1 10-3 7-1 13-3 7-2 19-2 4-1 14v78l-1 6 1 7 3 24 2 12 2 13 5 18 3 12 3 9 2 7 3 10 3 7 5 13 4 10 5 10 3 10 1 5h2v2h2l3 6 3 5v2h2l6 11 5 6 5 8v2h2l5 9 4 5 2 5 3 6 6 7 3 4v2h2l4 6 9 10 2 4h2l6 7 2 1v2h2v2l4 2v2h3l6 7 2 1v2l4 2 3 2v2l5 2v2l4 2 3 2v2l6 2 5 5 2 1v2l5 2v2l6 1 1 3h2v2l4 2 15 9 3 1v2l5 2 8 4 12 7 23 11 10 5 10 3 9 3 10 4 23 7 12 4 18 4 21 5 8 1 10 2 8 1 20 1 5 1 29 1h26l-3 2h-61l-36-4-32-6-27-7-36-12-24-10-17-8-18-10-22-13-18-12-17-13-11-9-14-12-8-8-8-7-11-11-7-8-9-10-13-17-12-17-14-21-14-24-12-24-13-32-10-31-7-28-6-33-3-29v-70l4-36 7-34 7-26 10-29 11-26 10-21 13-23 12-19 14-20 8-10z" fill="#03883E"/>
<path transform="translate(289,703)" d="m0 0h11l5 2 7 5 4-6h18l1 1v60l-1 1h-20l-1-6-11 7h-14l-10-5-7-8-4-10v-17l5-12 6-7 7-4z" fill="#FEFEFE"/>
<path transform="translate(215,679)" d="m0 0h18l12 3 10 5-1 6-4 9-4 1-11-5-4-1h-14l-6 5-1 4 5 4 24 7 12 6 5 6 2 4v14l-4 8-7 6-8 4-6 2h-22l-16-4-8-5 1-6 4-9 6 1 11 4 6 1h13l6-3 1-1v-7l-9-3-19-5-12-6-5-6-2-6v-9l3-10 5-6 10-6z" fill="#FEFEFE"/>
<path transform="translate(411,703)" d="m0 0h13l5 3 4 4h3l2-5 6-1h12l2 1v60l-1 1-16 1-3-1-2-5-5 1-6 4-3 1h-9l-8-3-10-9-4-9-1-4v-13l4-12 9-10z" fill="#FEFEFE"/>
<path transform="translate(645,703)" d="m0 0h16l9 3 9 7 5 7 2 6 1 13-3 11-7 9-10 6-6 2h-16l-10-3-8-6-6-9-2-5-1-10 2-11 4-8 9-8 7-3z" fill="#FEFEFE"/>
<path transform="translate(744,214)" d="m0 0h22l15 2 16 6 8 5 6 7 5 14v11l-6 18-12 23-8 11-12 17-16 17-15 15-8 7-10 9-8 7-2 1h-6l-1-3 3-5 7-8 10-15 8-14 8-20 2-10v-9l-2-12-2-6 3 3 3 10v19l-5 15-9 23-5 10 1 1 7-3 10-9 3-1v-2l5-5 5-4 6-8h2l1-3 5-5 14-19 12-21 5-12 3-10v-15l-4-12-5-5-5-3-8-4-9-3-22-2h-12l-24 2-25 4-23 6-15 5-25 7-8 3-14 5-14 7-13 6-5 2-6 4h-2v3l7-1h7l11-3 10-2 16-4 11-2 19-3h40l13 3-4 1-12-2h-30l-29 4-29 7-28 8-25 9-28 11-12 5-16 8-7 2h-7l-1-4 5-4 16-9 15-8 28-13 26-11 19-8 26-10 36-12 38-11 16-3 21-3z" fill="#A6282A"/>
<path transform="translate(369,676)" d="m0 0h11l6 2 1 2-1 13-12 3-2 8h8l3 1v14l-1 1h-10v45l-1 1h-21l-1-2v-66l3-10 7-8z" fill="#FEFEFE"/>
<path transform="translate(584,703)" d="m0 0h14l8 2 6 4 1 1-1 9-3 5-6-1-7-3h-7l-6 3-3 5-1 10 3 9 5 2 2 1 10-1 6-3 5 1 3 7v6l-8 5-7 2h-18l-10-4-8-7-5-10-1-3v-16l4-10 7-7 12-6z" fill="#FEFEFE"/>
<path transform="translate(651,76)" d="m0 0 9 2 26 11 27 13 25 15 30 20 18 14 14 12 12 11 22 22 7 8 14 17 14 19 13 20 11 18 14 27 10 22 9 24 9 28 6 25 2 10v10h-2l-1-6-1-4-3-8-2-12-2-6-1-9-3-5-2-10-2-5-2-7-2-3-1-7-4-5-5-14-7-14v-4h-2l-4-9-5-10-5-8v-3h-2l-8-14v-2h-2l-5-9-4-5-4-7-3-3-10-13-2-1-3-5-10-11-8-11-4-2-4-5v-2l-4-2v-2l-4-1-1-3-4-2-14-14-9-6-5-5-3-2v-2l-5-2-7-5v-2l-6-2-16-11-10-7-6-3-7-5-7-4-15-8-13-6-17-7-11-4-4-3z" fill="#03893E"/>
<path transform="translate(506,703)" d="m0 0h7l3 2 1 16-1 2-13-1-7 5-1 2-1 27v8l-2 2h-20l-1-2v-59l4-1 14 1 3 6 4-1 6-6z" fill="#FEFEFE"/>
<path transform="translate(524,705)" d="m0 0h21l1 2v57l-1 2-18 1-3-1z" fill="#FEFEFE"/>
<path transform="translate(435,330)" d="m0 0h8v5l-6 5-6 3-25 16-16 12-16 13-14 11-14 12-16 15-8 8-1 2h-2l2-4 23-23 8-7 4-5 5-2 2-4 5-4h2l1-3 5-2v-2l4-4v-3l-12 6-12 8-17 11-10 7-2-1 15-11 26-17 39-26 18-11z" fill="#A6282A"/>
<path transform="translate(470,49)" d="m0 0h54l9 2v2l-2 1-18 1h-56l-5 2h-18v1l-10 2v1l-7 1-7 2-7-1-5 2h-5v2l-4 2-8 1-8 3h-7l-6 2-7 2h-6v2l-8 3-9 4-9 2-10 5h-3v-2l23-10 25-9 29-9 26-6 30-5z" fill="#03893E"/>
<path transform="translate(464,541)" d="m0 0h6l1 3-3 5-9 6-10 5-14 6-13 6-15 6-4 2-3-1 27-13 2-6-5-1h-9l-17 4-16 3-17 2h-40l-19-4-17-7-4-5 4 2 18 7 10 3 11 1h33l20-2 26-5 35-10z" fill="#A6282A"/>
<path transform="translate(650,719)" d="m0 0 8 1 5 5 1 3v14l-4 6-6 3-7-1-5-5-2-7 1-11 4-6z" fill="#009442"/>
<path transform="translate(298,719)" d="m0 0 8 1 6 7 1 3v12l-4 6-6 3-7-1-5-4-2-5v-12l3-6 3-3z" fill="#009342"/>
<path transform="translate(421,719)" d="m0 0h6l6 5 3 6v11l-3 5-5 4-7 1-5-3-3-4-1-3v-11l4-8z" fill="#009442"/>
<path transform="translate(896,711)" d="m0 0 1 3-13 23-15 22-14 19-9 11-12 14-7 7-7 8-5 4-14 14-5 2 1-3h2l1-4h2v-2l7-6 3-4h2l1-4 5-4h2v-3l6-5 5-5 5-4 8-11 3-4h2l2-5 4-5h2l2-5 7-11h2v-2h2l2-5 4-7 12-20z" fill="#03893E"/>
<path transform="translate(524,674)" d="m0 0h20l2 1v17l-1 1h-22v-18z" fill="#FEFEFE"/>
<path transform="translate(546,713)" d="m0 0h1l1 8h3l2 2 3-2 1 1v21l4 10v3l-6-3-4 1-3 9-2 1z" fill="#03883E"/>
<path transform="translate(265,723)" d="m0 0 3 1v20l4 10 3 5-4-2v-2l-4-2-9-2-1-4v-14l-1-6 5 1 3-3z" fill="#03893E"/>
<path transform="translate(536,560)" d="m0 0 8 1 22 5 7 1 39 1 2 2-5 1-14 1-2 1h-14l-27-5-5-2v-2l-9-1z" fill="#028B3F"/>
<path transform="translate(438,944)" d="m0 0 15 1 20 1 5 1 29 1h26l-3 2h-61l-30-3z" fill="#028A3F"/>
<path transform="translate(688,489)" d="m0 0h1l1 7h1v20l-2 10-4 7-2 3h-2l-2 4-5 4v-4l7-11 4-11 2-12z" fill="#03883E"/>
<path transform="translate(459,707)" d="m0 0 2 3 2 10v38l-4 8-1-2z" fill="#04873E"/>
<path transform="translate(681,367)" d="m0 0 2 4 1 4-3 8-2 5h-2l-1 4-3 7h-2l-1 4-4 4 1-7 9-21 4-8z" fill="#03883E"/>
<path transform="translate(771,857)" d="m0 0h2l-1 3-20 14-21 13-21 12-4 2-3-1 12-7 11-6 5-3 8-5 1-2 7-4 5-4 11-6 2-2z" fill="#038A3F"/>
<path transform="translate(545,52)" d="m0 0h12l32 5 5 3-3 2-12-3h-18v-2l-11-2-9-1z" fill="#03893F"/>
<path transform="translate(588,389)" d="m0 0h14l-3 2-9 2-2 2-7 3-1 2-8 4-2 4-2-1 1-6 5-6 10-5z" fill="#03883E"/>
<path transform="translate(686,724)" d="m0 0 3 1v2h2v21l-5 5-5 3v-3l4-9 1-11z" fill="#03883E"/>
<path transform="translate(598,60)" d="m0 0 9 1 27 8 4 2-1 2h-9l-6-4-17-4-10-3z" fill="#03893F"/>
<path transform="translate(242,467)" d="m0 0 2 1-39 39-7 8-5 6v-3l7-8 12-14 20-20 8-7z" fill="#B12327"/>
<path transform="translate(797,726)" d="m0 0 3 4 1 5v24l-1 3h-3z" fill="#04873E"/>
<path transform="translate(293,464)" d="m0 0v3l-10 17-7 15-3 12v12l2 14-2-1-3-15v-11l7-19 10-19z" fill="#A6282A"/>
<path transform="translate(336,714)" d="m0 0 2 2 1 15v22l-2 9h-1z" fill="#04873E"/>
<path transform="translate(759,726)" d="m0 0h3v31l-3 7h-1v-21z" fill="#04873E"/>
<path transform="translate(636,396)" d="m0 0 6 1 17 9 3 2v2h-3v-2h-6l-13-8-5-2z" fill="#03893E"/>
<path transform="translate(288,101)" d="m0 0h2v2l-3 2h-3v2l-7 2-1 3h-2v2l-5 2-16 8v-2l25-15z" fill="#028A3F"/>
<path transform="translate(372,721)" d="m0 0h1l1 25 2 9-2 6-2-2z" fill="#04873E"/>
<path transform="translate(792,840)" d="m0 0h2l-2 4-14 11-4 1 2-4 6-5h2v-2l6-3z" fill="#03893F"/>
<path transform="translate(629,508)" d="m0 0 2 1-2 4-8 7-4-1 7-8z" fill="#03883E"/>
<path transform="translate(672,459)" d="m0 0 4 2 9 9 1 8h-2l-6-11-6-6z" fill="#028B3F"/>
<path transform="translate(513,437)" d="m0 0 3 3 4 8 8 9 2 1-1 2-5-2-8-11-3-7z" fill="#028A3F"/>
<path transform="translate(494,739)" d="m0 0h1l2 18-2 8h-1l-1-14z" fill="#03883E"/>
<path transform="translate(581,724)" d="m0 0h2l-1 9v11h-2l-2-6 1-10z" fill="#038A3F"/>
<path transform="translate(501,703)" d="m0 0 2 1-8 8-4-1 1-5 5-2z" fill="#03883E"/>
<path transform="translate(594,429)" d="m0 0h11l6 3 1 2-9-1-9-3z" fill="#028A3F"/>
<path transform="translate(656,353)" d="m0 0 6 1 11 6 5 5-5-2-17-8z" fill="#028C3F"/>
<path transform="translate(313,759)" d="m0 0 1 3-2 4-9 1 5-5z" fill="#03893E"/>
<path transform="translate(568,413)" d="m0 0 5 2 3 6 2 1v2l-4-1-5-5z" fill="#03893E"/>
<path transform="translate(157,208)" d="m0 0 2 1-2 5-2 2h-3l-2 4-2-1 2-4 6-5z" fill="#03883E"/>
<path transform="translate(771,857)" d="m0 0h2l-1 3-13 9v-3l6-5z" fill="#028B3F"/>
<path transform="translate(433,760)" d="m0 0 4 1 1 5-7-3-1 3-4-1z" fill="#038A3F"/>
<path transform="translate(428,746)" d="m0 0 4 1-6 4-8-1-2-3 9 1z" fill="#038A3F"/>
<path transform="translate(321,85)" d="m0 0 3 1-7 4-6 3h-3v-2z" fill="#028C3F"/>
<path transform="translate(936,608)" d="m0 0 1 4-3 9h-1v-10z" fill="#03893E"/>
<path transform="translate(147,219)" d="m0 0 1 3-5 5-3 4-2-1 8-10z" fill="#028D40"/>
<path transform="translate(182,179)" d="m0 0h2v3l-8 7-3 2 2-4 3-4h2z" fill="#028D40"/>
<path transform="translate(585,57)" d="m0 0 5 1 4 2-3 2-7-2z" fill="#03893E"/>
<path transform="translate(573,55)" d="m0 0 10 1 2 2-1 1-8-1z" fill="#028D40"/>
</svg>
