<?xml version="1.0" encoding="UTF-8"?>
<svg version="1.1" viewBox="0 0 1000 1000" width="1280" height="1280" xmlns="http://www.w3.org/2000/svg">
<path transform="translate(0)" d="m0 0h1e3v1e3h-1e3z" fill="#FCFCFC"/>
<path transform="translate(462,316)" d="m0 0h127l10 4 8 6 9 14 5 15v115l-4 13-6 12-9 10-8 4-3 1h-128l-2-1v-187z" fill="#03045F"/>
<path transform="translate(352,316)" d="m0 0h96l-1 5-14 24-9 15-2 1-76 1-6 8-1 4-1 18h87v42h-84l-3-1 1 18 3 8 3 4 3 1h77l12 23 11 21v2h-118l-13-9-7-9-6-14-2-11v-106l4-18 6-11 4-5 10-8 5-2z" fill="#04045F"/>
<path transform="translate(195,310)" d="m0 0 9 1 9 7 8 11 12 25 13 28 15 32 12 26 12 25 17 36 3 9h-43l-4-7-13-26-6-14-5-8h-65l1-5 17-35 4-5 20 1 3 1-8-16-6-13-3-6-2 2-4 10-8 16-11 23-11 24-8 17-8 15-6 14-6 11-4 2-40-1 3-9 19-39 14-29 13-28 11-22 13-28 8-17 9-15 7-8z" fill="#02035F"/>
<path transform="translate(683,316)" d="m0 0h96v46l-5 1h-94l-5 3-3 5-2 5v72l3 10 3 4 3 1 100 1v46h-117l-5-2-8-5-7-8-7-13-2-8-1-9v-105l3-15 7-14 6-7 11-7z" fill="#03045F"/>
<path transform="translate(498,362)" d="m0 0h68l9 1 6 5 3 5v78l-3 7-5 5-3 1h-74l-1-5z" fill="#FCFCFC"/>
<path transform="translate(528,560)" d="m0 0h17l23 3 7 3 8 7 5 2 3 5-1 5-3 12-4 3-18 1-8 1h-25l-4 1v-2l-5 1h-28l-2 1h-7l-7-2h-3v-3l-2 2h-7l-1-4h-2l-1-3-3 1-1-2-1 5h-2l-1 2h-46l-44-1v-1h-15l-2-1-1-17 4-2 21-1h15l17-1 4-1 1 1 3-2-10-1 4-2-10-2v-1l17-2 16-1h12l10 2 4 2 16-3 40-4z" fill="#FBF2E3"/>
<path transform="translate(818,237)" d="m0 0 10 1 8 4 7 7 7 14 2 8v22l-5 14-7 10-8 7-5 2h-12l-8-4-5-5-4-5-5-10-3-10v-20l4-14 6-10 7-7z" fill="#04055E"/>
<path transform="translate(500,577)" d="m0 0h35l47 1 5 2-1 11-2 5-8 1-55 1-32-1-9-2-1-1v-13l4-3z" fill="#EBD27E"/>
<path transform="translate(349,579)" d="m0 0h106l1 1v15l-17 1h-60l-29-1-1-1z" fill="#EFE1AA"/>
<path transform="translate(835,579)" d="m0 0h15l3 2v12l-1 2-21 1h-37l-46-1-2-2 1-12 2-1z" fill="#C27B64"/>
<path transform="translate(251,579)" d="m0 0h37l38 1v14l-1 1h-104l-1-1 1-14z" fill="#1A9DA5"/>
<path transform="translate(661,579)" d="m0 0h56l2 1v15h-105v-15z" fill="#040E5F"/>
<path transform="translate(125,580)" d="m0 0h42l25 1 2 1v13h-89l-15-1v-12l1-1z" fill="#C27964"/>
<path transform="translate(96,577)" d="m0 0h62l35 1 1 4-27-1h-42l-34 1-1 12 98 1v1l6 1v1l-10 1h-18l-50 2h-23l-4-4v-18z" fill="#FBF3E6"/>
<path transform="translate(509,682)" d="m0 0h57l2 4v5l-3 3 1 5 6 6v2h-6l-8-10-2-1 1 11-4 1-2-1v-23l-6 2-4-1-1 1v21h-7l1-22-6 1-7-2 1 2v6l-4-5-1-3h-6l2 5 9 6 1 2v6l-3 4h-11l-2-1-1-7 4 2 3 3 5 1-1-5-9-7-2-6 1-4z" fill="#271D2B"/>
<path transform="translate(143,566)" d="m0 0 39 2 6 3-1 2 5 2v1h-92l-10 1v2h-2l1-4 4-3 4 1v-2h12v-2l30-2z" fill="#FBF2E4"/>
<path transform="translate(613,682)" d="m0 0h6l1 2v17l2 3h5l2-5 1-16 2-1h37v25h-7l1-22h-12v22h-6v-21l-12-1v15l-4 6-2 1h-10l-3-6-1-5z" fill="#31232E"/>
<path transform="translate(307,682)" d="m0 0h38l4 2 1 7-4 2 2 6 5 6v2h-6l-9-11v11h-5l-1-2 1-21-4 2-8-1v22h-6l-1-2 1-21h-4v3h-3z" fill="#2B202C"/>
<path transform="translate(682,681)" d="m0 0h8l5 3 3 6v7l-4 8-6 3-9-2-4-5-1-3v-9l4-6z" fill="#30232E"/>
<path transform="translate(771,681)" d="m0 0h7l6 4 2 5v8l-4 7-5 3-8-1-4-4-3-7 1-7 4-6z" fill="#382831"/>
<path transform="translate(467,682)" d="m0 0h15l5 3 3 6v6l-5 8-4 2h-14v-22z" fill="#3A2831"/>
<path transform="translate(500,577)" d="m0 0h35l47 1 5 2-1 11-2 5-8 1-55 1-32-1-9-2-1-1v-13l4-3zm-16 3-3 2v11l3 2 34 1 53-1 11-1 3-9-1-4-1-1z" fill="#F0E2AD"/>
<path transform="translate(590,682)" d="m0 0h13l4 4v9l1 7-2 4-2 1h-15v-24z" fill="#291F2B"/>
<path transform="translate(116,681)" d="m0 0 13 1 2 3 1 10v10l-3 2h-15l-1-25z" fill="#33242F"/>
<path transform="translate(449,681)" d="m0 0h3l-1 4-6 9-1 12-5 1-1-5-1-6-4-8-2-2h-6l-5-1v22h-6l-1-5v-16h-8l-2-3 4-1h31l3 9h2l4-9z" fill="#2D212D"/>
<path transform="translate(791,681)" d="m0 0 5 1 7 14 3-3 6-11h5v25l-4 1-2-1v-14l-4 6-3 7h-4l-3-9-2-3v8l1 5h-5l-1-1 1-10 1-7-2-7z" fill="#2C202D"/>
<path transform="translate(543,682)" d="m0 0h23l2 4v5l-3 3 1 5 6 6v2h-6l-8-10-2-1 1 11-4 1-2-1v-23l-6 2-3-1z" fill="#31232E"/>
<path transform="translate(96,577)" d="m0 0h62l35 1 1 4-27-1h-42l-34 1-1 12h-1v-15z" fill="#EDD994"/>
<path transform="translate(775,577)" d="m0 0h77v2h2l2 6-2 9-2 1v-14l-2-1-103 1 1-3h26z" fill="#F3E3B5"/>
<path transform="translate(701,681)" d="m0 0 5 1 7 8 5 6v-14l5-1-1 25-4-1-11-13h-1l1 15h-4l-1-1v-19l-2-5z" fill="#2C212D"/>
<path transform="translate(870,681)" d="m0 0 6 2 9 11 3 2-1-14 4-1 1 24-5 1-7-9-4-5-1 15h-5l1-4v-16l-2-5z" fill="#2C202D"/>
<path transform="translate(825,682)" d="m0 0h10l5 3-1 7-2 3-8 1v11l-3 1-2-1v-24z" fill="#3E2B33"/>
<path transform="translate(613,682)" d="m0 0h6l1 2v17l2 3h5l2-5 1-16 2-1h8v3h-7v15l-4 6-2 1h-10l-3-6-1-5z" fill="#352630"/>
<path transform="translate(683,683)" d="m0 0 6 1 3 4v12l-5 5-4-1-3-3-1-3v-9z" fill="#FCFBFA"/>
<path transform="translate(189,682)" d="m0 0 4 2 5 12 3 7v4h-6l-5-15-2-1-1 7-4 9-4 1-1-3 8-17 2-5z" fill="#2E212D"/>
<path transform="translate(771,684)" d="m0 0h7l3 6v8l-3 5-2 2-5-1-4-7 1-9z" fill="#FCFCFB"/>
<path transform="translate(139,681)" d="m0 0 4 1 1 16 2 5 4 1 3-3 1-5 1-14h4l-1 18-5 7h-10l-4-4-1-3v-18z" fill="#251C2A"/>
<path transform="translate(854,682)" d="m0 0 4 2 8 21v2h-7l-4-14-2-2-5 15-1 1h-5l4-10 5-10 1-4z" fill="#281E2B"/>
<path transform="translate(746,681)" d="m0 0h8l5 2 2 8-8-6-7-1-2 4v11l4 4h6l5-2-1 3-4 3h-10l-5-5-2-5v-7l4-6z" fill="#2F222E"/>
<path transform="translate(292,681)" d="m0 0h7l5 2v9l-3-3-1-5h-6l-3 3h-2v10l3 5 5 2 4-2 1-2h2l-1 6-2 1h-12l-4-4-2-9 2-8 4-4z" fill="#2F222E"/>
<path transform="translate(217,682)" d="m0 0h16l1 2-2 4-3-3-7-1v15l1 4h7l3-3h3l-2 6-1 1h-16z" fill="#251C2A"/>
<path transform="translate(745,589)" d="m0 0 2 4 1 1 46 1h58l-1 2-71 1h-29l-6-3z" fill="#FBF3E7"/>
<path transform="translate(379,681)" d="m0 0 10 1v8l-4-4v-2h-6l-4 5v10l5 5 6-2 3-2-1 5-5 3-8-1-5-5-1-3v-10l4-6z" fill="#2D212D"/>
<path transform="translate(263,682)" d="m0 0h15l2 2v3l-5-2h-6l-1 8 1 11 6-1 5-4v6l-2 2h-15l-1-5v-19z" fill="#2B202C"/>
<path transform="translate(474,684)" d="m0 0h6l4 6v8l-6 7-4-1-1-1v-18z" fill="#FCFCFB"/>
<path transform="translate(90,594)" d="m0 0 98 1v1l-8 1h-86z" fill="#EDD993"/>
<path transform="translate(307,682)" d="m0 0h24l2 2-4 2-8-1v22h-6l-1-2 1-21h-4v3h-3z" fill="#34252F"/>
<path transform="translate(95,682)" d="m0 0 5 1 6 17 3 5v3l-7-1-4-8-5-9 1-7z" fill="#2F222E"/>
<path transform="translate(100,575)" d="m0 0h75l1 3h-86l2-2z" fill="#FCFBF9"/>
<path transform="translate(407,682)" d="m0 0h17l-1 2-3 1v22h-6l-1-5v-16h-8l-2-3z" fill="#2B202C"/>
<path transform="translate(239,682)" d="m0 0h7v22l4 1 5-5 2-1 1 4-2 4h-16z" fill="#1D1727"/>
<path transform="translate(832,269)" d="m0 0 6 1 2 2v4l-8-1-1 7 1 5h9l-2 6-7 1-5-5v-13l4-6z" fill="#FCFCFA"/>
<path transform="translate(804,269)" d="m0 0 7 1v3l-4 2-1 6 3-2v-3h2v7l-5 8-3 1-2-1v-18l1-3z" fill="#FCFCFA"/>
<path transform="translate(120,683)" d="m0 0 5 1 1 2v6l-3 1v2l4 1v7l-3 2-5-1v-10l-1-9z" fill="#F4EAE5"/>
<path transform="translate(358,681)" d="m0 0 5 1v25h-6v-25z" fill="#281E2B"/>
<path transform="translate(169,681)" d="m0 0 4 1v17l-2 7-7 2-3-3v-2h5l1-5 1-16z" fill="#291E2B"/>
<path transform="translate(640,682)" d="m0 0 12 1-1 24h-6v-21l-7-2z" fill="#211A28"/>
<path transform="translate(395,682)" d="m0 0h6v25h-7v-24z" fill="#271D2B"/>
<path transform="translate(535,682)" d="m0 0h8l-3 4v21h-7l1-22-2-1z" fill="#261D2A"/>
<path transform="translate(478,682)" d="m0 0 7 1 5 8v6l-5 8-7 1 5-8v-8l-3-5-5-1z" fill="#2F222D"/>
<path transform="translate(137,562)" d="m0 0 31 1 14 1v2l-15-1h-23l-26 2h-12l-1-2 4-2h18z" fill="#FBF2E4"/>
<path transform="translate(495,681)" d="m0 0 5 1 1 25h-7v-25z" fill="#362630"/>
<path transform="translate(575,682)" d="m0 0h7v25h-6z" fill="#352630"/>
<path transform="translate(116,681)" d="m0 0 8 1-4 2-1 5 1 6v12h-6l-1-25z" fill="#251C2A"/>
<path transform="translate(682,681)" d="m0 0 2 1-4 7v9l3 5 4 3 1 2-9-2-4-5-1-3v-9l4-6z" fill="#2F222D"/>
<path transform="translate(773,681)" d="m0 0 7 1 5 5 1 3v8l-4 7-4 2-4-1 5-5 1-3v-8l-2-6-6-1z" fill="#271D2B"/>
<path transform="translate(825,682)" d="m0 0h5l-1 3v22l-3 1-2-1v-24z" fill="#30232E"/>
<path transform="translate(814,272)" d="m0 0h4l1 4v8l1 3 5 5-1 2h-6l-3-5-2-7v-9z" fill="#FCFBFA"/>
<path transform="translate(632,682)" d="m0 0h8v3h-7v15l-4 6-4 1 3-4 1-4 1-16z" fill="#3E2B34"/>
<path transform="translate(898,681)" d="m0 0h5l3 4 2 10h-4l-7-11z" fill="#382731"/>
<path transform="translate(595,695)" d="m0 0h7l1 1v6l-4 3-5-1-1-5z" fill="#FBF8F6"/>
<path transform="translate(804,269)" d="m0 0 7 1v3l-4 2-3 8-3 1v-11l1-3z" fill="#FBF9F7"/>
<path transform="translate(509,682)" d="m0 0h26l-5 4-9-2 1 2v6l-4-5-1-3-8-1z" fill="#5A3B3D"/>
<path transform="translate(121,695)" d="m0 0 6 1v7l-3 2-5-1v-7z" fill="#FCFCFC"/>
<path transform="translate(851,690)" d="m0 0 1 4-4 12-1 1h-5l4-10 4-6z" fill="#30232E"/>
<path transform="translate(595,684)" d="m0 0h5l2 2v6l-8 1v-8z" fill="#FAF6F3"/>
<path transform="translate(95,496)" d="m0 0 1 4 1 8 4 2h-12l3-9z" fill="#2D2131"/>
<path transform="translate(557,684)" d="m0 0h5l1 1-1 7-6 3v-10z" fill="#FBF9F7"/>
<path transform="translate(703,689)" d="m0 0 2 2 2 16h-4l-1-1v-9z" fill="#392831"/>
<path transform="translate(338,684)" d="m0 0h6v7l-2 2h-4l-1-7z" fill="#FBF9F7"/>
<path transform="translate(829,684)" d="m0 0 5 1 1 5-4 4-3-1v-8z" fill="#FCFCFB"/>
<path transform="translate(778,575)" d="m0 0m-26 1h26l-4 3-21-1z" fill="#FCF9F5"/>
<path transform="translate(233,700)" d="m0 0h3l-2 6-1 1h-8l-1-3 7-2z" fill="#422D35"/>
<path transform="translate(506,699)" d="m0 0 4 2 3 3 4 1v2h-8l-2-1z" fill="#2E222D"/>
<path transform="translate(750,681)" d="m0 0 8 1 3 9-8-6-3-2z" fill="#5E3E3F"/>
<path transform="translate(279,699)" d="m0 0h1v6l-2 2h-9l1-2 6-3z" fill="#3D2A33"/>
<path transform="translate(379,681)" d="m0 0 10 1v8l-4-4v-2l-7-1z" fill="#442E35"/>
<path transform="translate(296,681)" d="m0 0 7 1 1 1v9l-3-3-1-5-4-1z" fill="#442E35"/>
<path transform="translate(811,271)" d="m0 0h1v6l-3-1 1 4-5 2 1-7 5-2z" fill="#234D6D"/>
<path transform="translate(275,690)" d="m0 0h3l-2 7-4 1-1-4 1-3z" fill="#412D34"/>
<path transform="translate(517,682)" d="m0 0h18l-5 4-13-3z" fill="#7D504A"/>
<path transform="translate(256,699)" d="m0 0 2 4-2 4h-6v-2l5-5z" fill="#3A2831"/>
<path transform="translate(318,682)" d="m0 0h13l2 2-4 2-6-1v-1l-5-1z" fill="#764C48"/>
<path transform="translate(261,507)" d="m0 0 3 1 24 1v1h-26z" fill="#171425"/>
<path transform="translate(228,691)" d="m0 0 4 1-2 4-5 1 1-5z" fill="#442E35"/>
<path transform="translate(625,433)" d="m0 0h1l1 6v8h-2l-1-12z" fill="#FBF2E3"/>
<path transform="translate(227,682)" d="m0 0h6l1 2-2 4-3-3-6-1z" fill="#493137"/>
<path transform="translate(543,682)" d="m0 0h10l-2 2-6 2-3-1z" fill="#452F35"/>
<path transform="translate(271,682)" d="m0 0h7l2 2v3l-10-3z" fill="#31232E"/>
</svg>
