<?xml version="1.0" encoding="UTF-8"?>
<svg version="1.1" viewBox="0 0 1000 1000" width="1280" height="1280" xmlns="http://www.w3.org/2000/svg">
<path transform="translate(0)" d="m0 0h1e3v1e3h-1e3z" fill="#FDFCFC"/>
<path transform="translate(262,334)" d="m0 0h10l4 1 4-1 114 1-3 9-10 23-3 7-4 9-5 13-7 15-8 20-5 10-8 19-11 25-4 4-16 4-9 1-10 2h-53l-18-2 2 4 17 1h27l25-1 13-2 7-2 15-1-3 9-4 7-9 2-17 3h-82l-11-1v3l15 1h75l26-3-2 6-12 16-15 15-13 9-14 6-10 3-7 1-94 1-2 1h-10l-3-1-17 2h-30l-32-1-2-6-1-9v-11l-1-1-2-31v-31l1-8 1-5-1-1 1-13 1-7 1-13 5-30 8-32 8-24 5-12 1-1 8-1 36-1h26l1 5 1-3h4v-2z" fill="#FEF818"/>
<path transform="translate(758,335)" d="m0 0h82l16 1 12 3 14 6 5 5 3 5 1 9-3 12-15 34-13 30-14 32-10 23-8 11-8 7-17 9-23 7-7 1h-100l1-5 6-13 13-31 20-45 9-21 16-37 11-25 7-16z" fill="#020101"/>
<path transform="translate(465,335)" d="m0 0h78l17 1 14 3 10 4 8 6 3 5v10l-5 15-7 16-6 10-8 8-15 8-17 4v2l9 2 10 6 5 8-2 10-6 15-12 27-7 10-8 8-14 8-13 5-11 3-7 1h-101l3-9 26-60 11-25 17-39 14-32 11-25 1-4z" fill="#020101"/>
<path transform="translate(278,334)" d="m0 0 116 1-3 9-10 23-3 7-4 9-5 13-7 15-8 20-5 10-8 19-11 25-4 4-16 4-9 1-10 2h-53l-16-2-11-2 3-9 5-10 15-37 19-46 16-39 7-16z" fill="#FB2C04"/>
<path transform="translate(622,335)" d="m0 0h125l1 2-9 21-3 4h-60l-3 9-14 32-5 10h55l-3 7-5 11-2 6-3 1h-52l-5 10-12 29-12 26 60 1-1 6-10 20h-126l-1-2 11-23 9-21 18-41 13-30 16-36 16-38z" fill="#020101"/>
<path transform="translate(496,534)" d="m0 0h414l39 1v9l-2 14-1 1-15 1h-562l1-8 3-8 4-8 1-1z" fill="#FB2B04"/>
<path transform="translate(920,347)" d="m0 0 4 1 5 12 8 28 6 27v12l-11 25-16 37-5 11 1 3 8 1 5-3 6-12 13-31 2-6h2l1 6 1 16v49l-2 5-15 3-23 2h-14l-28-3-13-5-6-4-4-5-2-10 6-17 22-50 28-64 8-14 12-13z" fill="#020101"/>
<path transform="translate(118,335)" d="m0 0 31 1-1 7-14 35-6 16-11 28-12 29-5 11-6 12-3 1h-8l-2 2 10 2-1 6-8 15-5 10-10 16-12 16h-4l-2-28v-31l1-8 1-5-1-1 1-13 1-7 1-13 5-30 8-32 8-24 5-12 1-1 8-1z" fill="#24E613"/>
<path transform="translate(314,514)" d="m0 0h2l-2 6-12 16-15 15-13 9-14 6-10 3-7 1-94 1-2 1h-10l3-3 15-8 13-10 10-9 9-11 8-10 4-6 16 2h75z" fill="#FB2B04"/>
<path transform="translate(88,336)" d="m0 0h15l1 2-15 1-3 3-4 6-2 2-4 10-1 7-3 5-2 10-1 2h-2v8l-3 12-1 11-2 13-1 12-2 7 2 1 10 1v1h18v1l9 3v2h-2v2h-21l9 2h12l-1 4 2 7-3 4h-10l-2 2 10 2-1 6-8 15-5 10-10 16-12 16h-4l-2-28v-31l1-8 1-5-1-1 1-13 1-7 1-13 5-30 8-32 8-24 5-12 1-1z" fill="#1ED11C"/>
<path transform="translate(811,362)" d="m0 0 8 1 6 2-1 5-11 26-15 34-13 30-14 32-6 9-7 3-7 1-1-4 13-29 13-30 15-34 18-42z" fill="#FDFCFC"/>
<path transform="translate(323,493)" d="m0 0h3l-3 9-4 7-9 2-17 3h-82l-10-1 2-6 6-11 13 2 17 1h27l25-1 13-2 7-2z" fill="#E6200C"/>
<path transform="translate(526,590)" d="m0 0h23l6 4 4 4 2 6v12l-3 9-4 5-6 2h-23v-41z" fill="#020101"/>
<path transform="translate(79,590)" d="m0 0h19l6 4 2 2v9l-1 2v6l3 3v7l-4 7-4 2h-26l-1-3v-16l1-22z" fill="#020101"/>
<path transform="translate(464,593)" d="m0 0 5 1 2 3v4h9l5 2 3 7 2 9 1 1 7-17 2-2h5l-1 9-5 14-5 13-5 5-5 2-6-1-1-4 3-3 5-2 1-3-6-15-3-7-7-2v14l7 9v2h-13l-3-5-1-18-1-2-4-1-1 1v23l-2 2h-6l-2-2v-26l1-2h13l4-8z" fill="#020101"/>
<path transform="translate(737,593)" d="m0 0 7 2 4 8 2 3-5 1v17l3 3h4v-20-4l2-2 7 1 1 1v23l-1 6h-22l-3-4-2-22-5-1-1 26-1 1h-22l-4-4-2-9v-10l1-7 1-1 7 1 1 6v17h9l1-23h14l2-8z" fill="#020101"/>
<path transform="translate(65,477)" d="m0 0h10v2h11l3 1v7l-8 16-7 11-5 9-5 6v-3l1-5-2-2-6-2-2-4v-20l4-10 2-4z" fill="#24E613"/>
<path transform="translate(486,436)" d="m0 0 7 1 7 3-3 9-14 32-8 17-5 4-12 3-2-1 2-5 10-22 13-31 4-9z" fill="#FDFCFC"/>
<path transform="translate(612,593)" d="m0 0h6l2 2 2 7 4 2-2 3-3 1-1 2v11l3 6 3 3v2h-12l-3-7-1-3-1-14h-7l3 9 3 5-5 9-3 1h-14l-4-3-1-8h3l6 4 6 1 2-1 1-3-9-3-7-3-2-2v-8l2-3 3-1h13l10 1 1-8z" fill="#020101"/>
<path transform="translate(851,590)" d="m0 0h23l7 4 4 7-1 9-6 5-6 2h-11v15h-10z" fill="#020101"/>
<path transform="translate(668,589)" d="m0 0 5 1 2 12h14l4 4 2 5v12l-3 6-4 3h-11l-4-2v2h-7l-1-1v-40z" fill="#020101"/>
<path transform="translate(360,593)" d="m0 0 7 1 3 9 4 2-5 3-1 2v8l2 7 3 3v4h-11l-3-5-1-18-5-1-3 7-8-6-6-1-3 3-1 8 3 6 4 1 6-3 2-4 3-1 2 2v6l-6 5-2 1h-12l-6-5-3-8v-7l4-6 5-4 4-1h7l10 5 2-4 2-2z" fill="#020101"/>
<path transform="translate(243,590)" d="m0 0h31v7l-9 1h-13l1 8 19 1v8l-10 1h-10v8h21v8h-30l-1-37z" fill="#020101"/>
<path transform="translate(518,362)" d="m0 0 10 1 3 1-1 9-11 26-6 10-10 5h-6l1-6 11-25 8-20z" fill="#FDFCFC"/>
<path transform="translate(778,601)" d="m0 0h9l5 3 4 5 1 10-2 7-5 5-2 1h-12l-7-6-1-3v-13l4-6z" fill="#020101"/>
<path transform="translate(305,601)" d="m0 0 9 1 5 5 2 9-2 11-3 4-3 1h-12l-5-3-4-7v-9l3-6 6-5z" fill="#020101"/>
<path transform="translate(120,602)" d="m0 0h12l6 4 1 2v14l-2 6-2 3-3 1h-12l-5-3-3-5-1-9 2-6 5-6z" fill="#020101"/>
<path transform="translate(631,601)" d="m0 0 4 1h14l11 1v28l-1 1h-8v-25l-11 4-1 4v16l-1 1h-10l1-24-1-4z" fill="#020101"/>
<path transform="translate(379,602)" d="m0 0h27l1 1v29h-9l-1-22-1-1h-6l-4 9v13l-2 1h-7l-1-4 1-25z" fill="#020101"/>
<path transform="translate(803,601)" d="m0 0 10 1h11l5 3 1 2 1 24-1 1h-8l-1-1-1-22h-7l-1 1-1 22h-9v-30z" fill="#020101"/>
<path transform="translate(192,602)" d="m0 0h22l5 2 1 2 1 25-1 1h-8l-1-23h-9l-1 22-1 1h-7l-1-1z" fill="#020101"/>
<path transform="translate(145,602)" d="m0 0h23l5 5 1 14v10l-1 1h-8l-1-23h-9l-1 23h-8l-1-1z" fill="#020101"/>
<path transform="translate(912,601)" d="m0 0h7l8 4 2 2v6h-5l-5-4-6-1-4 4v10l3 3h6l4-2 4-4h3v6l-4 5-5 2h-11l-6-4-4-8v-7l3-6 6-5z" fill="#020101"/>
<path transform="translate(422,601)" d="m0 0h8l8 4 2 3v5h-5l-7-5h-5l-3 4-1 6 3 7 4 1 5-2 3-5h5l1 5-4 6-4 2h-12l-6-4-3-6v-10l5-8z" fill="#020101"/>
<path transform="translate(276,336)" d="m0 0 3 1-1 5-7 14-5 12-1 3h-2l-1 6-1 4h-2l-1 7-1 3h-2l-1 6-5 13-7 15-1 4h-2l-1 7-1 3h-2l-1 6-5 14-6 13-4 9-2 5-2-2 1-4 48-117 11-25z" fill="#E9210B"/>
<path transform="translate(537,597)" d="m0 0 8 1 5 4 2 10-2 9-4 3-8 1-3-2-1-23z" fill="#FDFDFD"/>
<path transform="translate(279,590)" d="m0 0h8l1 5-1 37h-9v-32z" fill="#020101"/>
<path transform="translate(889,590)" d="m0 0h6l2 2v40h-9v-38z" fill="#020101"/>
<path transform="translate(566,602)" d="m0 0h7l1 1 1 28-1 1h-8l-1-1v-28z" fill="#020101"/>
<path transform="translate(179,602)" d="m0 0h8v30h-9v-29z" fill="#020101"/>
<path transform="translate(101,462)" d="m0 0 2 3v5l-4 4-2 9h-2l-1 6-9 16-1-4 1-5 5-13 1-4-10-1-2-2 4-2h10l5-9h2z" fill="#FDFCEB"/>
<path transform="translate(777,608)" d="m0 0h9l3 4v9l-3 5-6 1-5-4-2-7 3-7z" fill="#FDFDFD"/>
<path transform="translate(675,608)" d="m0 0h8l4 3v11l-3 3-5 1-4-2-1-2v-11z" fill="#FDFDFD"/>
<path transform="translate(862,596)" d="m0 0h8l4 3v8l-3 3-8 1-2-2v-11z" fill="#FDFDFD"/>
<path transform="translate(86,614)" d="m0 0h11l1 2v6l-3 3h-7l-5-2v-6z" fill="#FDFDFD"/>
<path transform="translate(88,596)" d="m0 0 8 1 1 1v8l-1 1h-11l-2-1v-7l1-2z" fill="#FDFDFD"/>
<path transform="translate(146,566)" d="m0 0h3v2l86 1v1l-86 1-2 1h-10l3-3z" fill="#E9210B"/>
<path transform="translate(314,514)" d="m0 0h2l-1 3-12 2-5 1h-61v-1l40-1 22-2z" fill="#E7200C"/>
<path transform="translate(391,335)" d="m0 0h3l-1 5h-2v-2h-42l-39-1v-1z" fill="#E51F0C"/>
<path transform="translate(366,396)" d="m0 0 1 4-11 25-5 12-8 18-2 1 3-11 4-9 4-8 6-15z" fill="#EC250A"/>
<path transform="translate(132,390)" d="m0 0h2l-1 5-11 28-2-1v-10l2-5h2l2-5h2v-3h2v-8z" fill="#FDFCE7"/>
<path transform="translate(146,349)" d="m0 0 2 2v7l-5 12h-3l-1-7 5-13z" fill="#FDFCDB"/>
<path transform="translate(230,450)" d="m0 0 1 3-4 11-4 8-4 9-2 5-2-2 1-4 12-29z" fill="#E8210B"/>
<path transform="translate(133,616)" d="m0 0 2 1-1 6-4 3h-6l-4-3v-4l11-2z" fill="#FDFCFA"/>
<path transform="translate(315,617)" d="m0 0h2l-1 5-6 4-7-1-2-2v-4l11-1z" fill="#FDFCF3"/>
<path transform="translate(945,535)" d="m0 0h4v9l-2 14-1 1-13-1v-1h11l2-15 1-3-10-2v-1z" fill="#E8210B"/>
<path transform="translate(52,468)" d="m0 0h20l9 1h5l4 2 3 2-16-1-21-2z" fill="#25E713"/>
<path transform="translate(124,607)" d="m0 0h5l3 3v3l-11 3v-6z" fill="#FDFCF9"/>
<path transform="translate(210,496)" d="m0 0 12 2 17 1v1l-22 2-7-2z" fill="#F82905"/>
<path transform="translate(94,473)" d="m0 0 1 3-3 7-1-4-10-1-2-2 4-2h10z" fill="#FFF918"/>
<path transform="translate(131,384)" d="m0 0 3 1v5h-2l-2 9h-2v3l-5 5 1-5z" fill="#FEF934"/>
<path transform="translate(590,607)" d="m0 0 9 1 2 7-9-2-3-3z" fill="#FDFCF9"/>
<path transform="translate(305,607)" d="m0 0h5l2 2v4l-4 2-6-1 1-4z" fill="#FDFDFD"/>
<path transform="translate(171,548)" d="m0 0 2 1-1 3-4 2-5 6-5 3-4 2-1-3 10-7z" fill="#EA220A"/>
<path transform="translate(445,590)" d="m0 0h7l2 1-2 6-7-1-1-5z" fill="#020101"/>
<path transform="translate(567,589)" d="m0 0 7 1v6l-8 1v-7z" fill="#020101"/>
<path transform="translate(399,590)" d="m0 0h8l-1 6-7 1-1-6z" fill="#020101"/>
<path transform="translate(179,590)" d="m0 0h8l1 3-1 3h-9z" fill="#020101"/>
<path transform="translate(653,590)" d="m0 0h6v7l-7-1-1-5z" fill="#020101"/>
<path transform="translate(754,590)" d="m0 0h7v5l-4 2-2 2-2-5z" fill="#020101"/>
<path transform="translate(222,469)" d="m0 0 1 3-4 9-2 5-2-2 1-4 4-10z" fill="#E9260B"/>
<path transform="translate(366,396)" d="m0 0 1 4-7 14-2 1 3-9z" fill="#E9210B"/>
<path transform="translate(333,471)" d="m0 0h2l-1 5-5 10-3-1 6-10z" fill="#EA210A"/>
<path transform="translate(203,507)" d="m0 0 5 4 5 2-2 1-10-1z" fill="#FC3A05"/>
<path transform="translate(270,353)" d="m0 0 1 3-3 6-3 1 2-7z" fill="#E7200B"/>
</svg>
