<?xml version="1.0" encoding="UTF-8"?>
<svg version="1.1" viewBox="0 0 1000 1000" width="1280" height="1280" xmlns="http://www.w3.org/2000/svg">
<path transform="translate(0)" d="m0 0h1e3v1e3h-1e3z" fill="#FEFEFE"/>
<path transform="translate(248,380)" d="m0 0h505v239h-505l-1-1v-237z" fill="#FEFDFD"/>
<path transform="translate(256,565)" d="m0 0h487l1 1v44l-347 1-141-1z" fill="#FDFDFD"/>
<path transform="translate(248,380)" d="m0 0h505v239h-505l-1-1v-237zm9 9-1 1v164l1 1 30 1h345l111-1 1-107v-58l-2-1zm-1 176v45l165 1 323-1v-44l-1-1z" fill="#130E43"/>
<path transform="translate(517,402)" d="m0 0 3 1-4 7-8 10h20v27l-44 1-7 7-5 6h55l1 1v26l-1 1-43 1v11l44 1v28l-1 1h-63l-14-1-1-41-12 14-7 8-3-1 1-10 3-11 2-7v-4l-16 15-4 3 2 4 7 8 16 16 3 4-1 3-40-1-9-10v-2l-4 2-11 11-5 3h-3l1-4 8-11h2l2-4 1-6-10-9-7-8-1-1v-26l3-5 12-14 14-17 7-9 35-1-2 4-11 14-12 15-11 14-6 7 1 4 5 6 4 2 2-4 29-38 18-24h44l6-6h2v-2z" fill="#FECC48"/>
<path transform="translate(534,420)" d="m0 0h63l11 3 8 4 10 9 8 13 4 12 1 6v18l-4 14-5 9-8 9-10 6-10 4-14 3-15 1h-38l-1-35v-34l1-1h32l1 1 1 41 9-1 10-3 8-5 6-8 2-6v-12l-4-10-4-5-7-4-5-1-49-1-1-1z" fill="#312D5E"/>
<path transform="translate(517,402)" d="m0 0 3 1-4 7-8 10h20v27l-44 1-7 7-5 6h55l1 1v26l-1 1-43 1v11l44 1v28l-1 1h-63l-14-1-1-41-12 14-7 8-2-1 6-7 7-9 13-13 3-5 4-6 10-12 9-11 8-7 10-11 8-10-4 1-2-2-2-1 4-4h2v-2z" fill="#302C5D"/>
<path transform="translate(724,419)" d="m0 0 2 2-1 27-24 3-9 4-5 5-4 8-1 3v8l3 10 5 6 10 5 6 1 19 1v28l-1 1h-23l-16-2-12-4-10-6-8-9-6-12-4-16v-13l3-14 6-12 10-11 11-7 12-4 7-1z" fill="#312D5E"/>
<path transform="translate(278,461)" d="m0 0h78v28h-44v13h44l1 3-1 26h-29l-48-1z" fill="#312D5E"/>
<path transform="translate(752,385)" d="m0 0h1v234h-218v-1l214-1 1-8-5 2-1-1-1-44-487-1v-1l479-1-5-1h-13l-2 1-1-2-9-1h-10l-4-2-1 2-4-1h-3-7l-2 1v-2l-8 2-2-1h-6-3l-3-1-20-2v-1h111v-107l1-21 1 2h2l1-4h1l1 6v-28z" fill="#312D5E"/>
<path transform="translate(433,419)" d="m0 0h2l-2 4-11 14-12 15-11 14-6 7 1 4 5 6 4 2v2h-2l-2 5-12 14-4 4-11-10-7-8-1-1v-26l3-5 12-14 14-17 7-9z" fill="#332D5D"/>
<path transform="translate(280,419)" d="m0 0 77 1-1 27h-77l-1-15v-12z" fill="#312D5E"/>
<path transform="translate(517,402)" d="m0 0 3 1-4 7-8 10h20v27l-44 1-7 7-10 13-4 5h-2l-2 5-2 1 1-5 11-14 11-13 8-7 10-11 8-10-4 1-2-2-2-1 4-4h2v-2z" fill="#322C5C"/>
<path transform="translate(436,470)" d="m0 0h1v12l-4 13-5 12-1-3 4-15 2-7v-4l-16 15-4 3 2 4 7 8 16 16 3 4-1 3-40-1-9-10 2-4 9-11h2l2-4 9-10 7-8 8-8z" fill="#332B5B"/>
<path transform="translate(452,419)" d="m0 0h43l-2 4-11 9-15 15h-15l2 5h7l-1 3-7 5h-3v-12l2-23-5 4-10 15-10 13-7 10-5 6h-2l-2 5-7 7v-3l14-18 16-21 12-16z" fill="#332D5E"/>
<path transform="translate(290,380)" d="m0 0h463v3l-3-1h-16l-16 1h-50l-51-1-327-1z" fill="#322E5F"/>
<path transform="translate(408,581)" d="m0 0h7l8 1 13-1 8 3v6h2v-8l5 1-4 9-1 6h-5l1-7-1-6-8-1v14l-3 1-2-1v-14h-4l-2 12-1 2-3 1h-11l-2-3v-12z" fill="#AA262A"/>
<path transform="translate(639,580)" d="m0 0 5 2 2 2 1 8-3 7h-6l-4-3-3 1-1 2h-7l-4-3-1-8 3-5 2-2h6l3 3v2z" fill="#AA262A"/>
<path transform="translate(451,420)" d="m0 0h3l1 2v23l9-1 6-3 5-5 2 1-10 10h-15l2 5h7l-1 3-7 5h-3v-12l2-23-5 4-10 15-10 13-7 10-5 6h-2l-2 5-7 7v-3l14-18 16-21 12-16z" fill="#A8262A"/>
<path transform="translate(623,380)" d="m0 0h130v3l-3-1h-16l-16 1h-50l-45-1z" fill="#332D5E"/>
<path transform="translate(247,381)" d="m0 0h1v235h2v3l-3-1z" fill="#312D5E"/>
<path transform="translate(295,582)" d="m0 0h11l3 3v9l-1 3-3 2h-8l-3-3-1-9z" fill="#AA262A"/>
<path transform="translate(675,581)" d="m0 0 6 1 4 8 1 4 1-1 1-12 4 1 3 12-1 3-2-2h-3l-2 4h-4l-4-14-2-1-2 13-2 2h-5l4-16z" fill="#AA262A"/>
<path transform="translate(586,580)" d="m0 0 5 1 6 10-6 7-1 1h-6l-3-4v-9l3-5z" fill="#AA262A"/>
<path transform="translate(268,582)" d="m0 0h9v8l-2 1 1-7-3 2-2 9h7l4-3v-9l1-1h5l1 16-3-1-2-2-3 3h-14v-15z" fill="#AA262A"/>
<path transform="translate(436,470)" d="m0 0h1v12l-4 13-5 12-1-3 4-15 2-7v-4l-16 15-12 12v-3l10-11 7-8 8-8z" fill="#AA262A"/>
<path transform="translate(385,581)" d="m0 0h6l2 6-1 11 3-1 2-5-1-9 4-1 1 2v12l-2 3h-9l-2-1v-14h-2l-1 11-1 3h-2v-15z" fill="#AA262A"/>
<path transform="translate(460,581)" d="m0 0h8l1 2-6 2-1 9h4l1-7 3-4h3l1 2v7l-7 7-8-1-1-1v-14z" fill="#B1383A"/>
<path transform="translate(386,513)" d="m0 0 5 1v3l-8 7-7 7-5 3h-3l1-4 8-11h2l2-4z" fill="#AA262A"/>
<path transform="translate(432,581)" d="m0 0 7 1 5 2v6h2v-8l5 1-4 9-1 6h-5l1-7-1-6-8-1v14l-3 1-2-1v-16z" fill="#AA262A"/>
<path transform="translate(517,402)" d="m0 0 3 1-4 7-9 11-1-3-4 2-2-2-2-1 4-4h2v-2z" fill="#B7412E"/>
<path transform="translate(495,432)" d="m0 0v3l-7 9-5 5-11 12-9 12h-2l-2 5-2 1 1-5 11-14 11-13 8-7z" fill="#A9272A"/>
<path transform="translate(412,583)" d="m0 0 6 1 1 1v8l-3 4h-6l-2-4v-6z" fill="#FCFAF9"/>
<path transform="translate(480,461)" d="m0 0h47v7l-5-1-1-3-43-1z" fill="#23194A"/>
<path transform="translate(535,461)" d="m0 0h32v6h-6l1-3h-24l-1 1-1 20h-1z" fill="#191549"/>
<path transform="translate(512,581)" d="m0 0 5 1 3 9-2 6-5 1 2-4v-10h-2l-1 14-4-1 1-13z" fill="#AA262A"/>
<path transform="translate(360,581)" d="m0 0h5l1 5-8-1 1 8 4 2h2v4h-7l-4-5-1-7 5-5z" fill="#AA262A"/>
<path transform="translate(632,555)" d="m0 0h41l-2 4-5 1-2-1h-6-3l-3-1-20-2z" fill="#352D5D"/>
<path transform="translate(256,554)" d="m0 0 31 1v1l-6 1-3 2-16 1-4 1-2-3z" fill="#2E2A5C"/>
<path transform="translate(318,581)" d="m0 0h5l-1 15h5v2l-2 1h-6l-2-3v-13z" fill="#AA262A"/>
<path transform="translate(343,581)" d="m0 0h5l1 2v10l1 5-1 1h-5v-4l1-3-1-2-2 4-1-6v-5z" fill="#AA262A"/>
<path transform="translate(625,584)" d="m0 0 5 1 2 2v8l-7 1-2-2v-8z" fill="#FEFEFE"/>
<path transform="translate(497,581)" d="m0 0h6l1 2-2 16h-4l-1-4-1-13z" fill="#A8262A"/>
<path transform="translate(298,584)" d="m0 0h6l2 3v6l-4 3-4-1-1-2v-8z" fill="#FEFBF6"/>
<path transform="translate(555,581)" d="m0 0h3l1 11-3 3-1-7-1 7-1 4h-6l2-5 3-6 2-6z" fill="#AA262A"/>
<path transform="translate(699,581)" d="m0 0h5l1 7-4 10-5 1v-3l2-2z" fill="#AA262A"/>
<path transform="translate(329,581)" d="m0 0 4 1 1 10 3 3 2 1v3h-6l-3-3-2-14z" fill="#AA262A"/>
<path transform="translate(533,581)" d="m0 0 4 1v17h-6l1-4v-13z" fill="#AA262A"/>
<path transform="translate(720,582)" d="m0 0h6l-4 15-4 1v-9l-1-6z" fill="#AA262A"/>
<path transform="translate(651,581)" d="m0 0 5 1 1 9-2 7h-4z" fill="#AA262A"/>
<path transform="translate(662,582)" d="m0 0h6l-4 16h-4l1-12z" fill="#AA262A"/>
<path transform="translate(586,583)" d="m0 0 4 2 2 4-1 5-6 1-1-1v-9z" fill="#FEFEFE"/>
<path transform="translate(484,582)" d="m0 0h5l1 11 1 5-1 1h-5v-10z" fill="#AA262A"/>
<path transform="translate(373,581)" d="m0 0h4v17l-4 1-1-4v-13z" fill="#AA262A"/>
<path transform="translate(638,583)" d="m0 0 4 1 1 1v8l-3 3h-3l-1-12z" fill="#FEFCF8"/>
<path transform="translate(563,581)" d="m0 0h5l-1 16-2 2h-3l1-5z" fill="#AA262A"/>
<path transform="translate(454,481)" d="m0 0v3l-7 7-9 11-8 9-2-1 6-7 7-9 8-8z" fill="#A9292D"/>
<path transform="translate(523,582)" d="m0 0 5 1v11l-3 5h-3l1-5z" fill="#AA262A"/>
<path transform="translate(609,581)" d="m0 0 3 3v14l-5 1-2-1 4-8-1-8z" fill="#AA262A"/>
<path transform="translate(451,447)" d="m0 0 2 4 1 1h7l-1 3-7 5h-3v-12z" fill="#AA262A"/>
<path transform="translate(712,581)" d="m0 0 3 2-2 6-1 9-5 1 1-9z" fill="#AA262A"/>
<path transform="translate(534,420)" d="m0 0h5l-1 3h-2v22h2v2l-4-1z" fill="#1E1A4D"/>
<path transform="translate(574,582)" d="m0 0h3l1 14-3 3-2-1v-15z" fill="#AA262A"/>
<path transform="translate(598,582)" d="m0 0 5 1 3 6-1 4h-5z" fill="#AA262A"/>
<path transform="translate(431,523)" d="m0 0h3l2 5 2 2h-27v-1h19l-1-3z" fill="#100C41"/>
<path transform="translate(278,461)" d="m0 0 43 1v1h-40l-1 5h-1z" fill="#120E43"/>
<path transform="translate(543,582)" d="m0 0h4l-2 13-2 2-2-2 1-12z" fill="#AA262A"/>
<path transform="translate(744,390)" d="m0 0 4 4v14h-2l-1 4h-1z" fill="#302C5D"/>
<path transform="translate(316,503)" d="m0 0h41l-1 4h-3v-3h-37z" fill="#110D42"/>
<path transform="translate(488,503)" d="m0 0h39v4h-5l1-2-35-1z" fill="#100C41"/>
<path transform="translate(477,582)" d="m0 0h3l1 7-1 9h-4l2-10z" fill="#A7262B"/>
<path transform="translate(513,584)" d="m0 0h2l1 3v7l-4 4-1-4z" fill="#FEFBF6"/>
<path transform="translate(351,420)" d="m0 0h6l-1 27-4-1 3-1-1-22z" fill="#110D42"/>
<path transform="translate(489,441)" d="m0 0h6l-3 3 3 1v2h-9z" fill="#161246"/>
<path transform="translate(280,419)" d="m0 0 5 2-3 2h-2v14h-1l-1-10v-7z" fill="#171347"/>
<path transform="translate(434,522)" d="m0 0 4 2 3 4-1 3h-5v-3z" fill="#2C2859"/>
<path transform="translate(492,419)" d="m0 0h3l-2 4-8 7-2-1 4-5h2l-1-4z" fill="#AA262A"/>
<path transform="translate(714,503)" d="m0 0h10v4l-3 1-3-1v-3z" fill="#100C41"/>
<path transform="translate(723,582)" d="m0 0 3 1-2 6-3 1v-7z" fill="#CA797B"/>
</svg>
