<?xml version="1.0" encoding="UTF-8"?>
<svg version="1.1" viewBox="0 0 1000 1000" width="1280" height="1280" xmlns="http://www.w3.org/2000/svg">
<path transform="translate(0)" d="m0 0h1e3v1e3h-1e3z" fill="#FCFDFD"/>
<path transform="translate(765,325)" d="m0 0h25l20 3 17 5 17 7 2 2 1 8v18l-1 22-2 2-6-3-10-8-13-9-11-5-11-3h-15l-12 3-8 4-11 9-6 9-7 16-2 7-1 21 1 17 4 13 7 14 9 10 14 8 16 3h8l16-4 16-8 12-8 9-7 3 1 1 25v22l-4 3-24 9-12 4-18 2h-24l-19-3-17-6-12-7-11-9-9-10-8-13-5-12-5-20-2 3-6 16-8 15-9 11-9 9-15 10-15 6-11 3-28 3-82 1h-333l-8-1-1-42v-161l1-2h347l81 1 29 4 16 6 15 8 13 12 7 8 9 15 5 12 2 12h2l3-14 5-12 9-17 11-13 10-8 15-9 15-5z" fill="#FD1110"/>
<path transform="translate(153,328)" d="m0 0h347l54 1 24 1v1l-77 1-1 13-1 50h-2l-1-64-4 5-12 13-8 10-9 9h-86v33l1 2 78 1v38l-1 1-78 1v43l1 5 85 1 10 11 7 8 11 13 3 4-1 4-155 1h-177l-8-1-1-42v-161z" fill="#FD1110"/>
<path transform="translate(153,328)" d="m0 0h317l23 1v2l-165 1-1 188h-1l-1-12-1-177-5 5-11 13-9 11-7 7-4 1-83 1-1 32 1 2 79 1v37l-1 2-79 1v49h85l4 2 9 11 11 12 8 11v3l-3 1-157 1-8-1-1-42v-161z" fill="#FD1110"/>
<path transform="translate(323,330)" d="m0 0 2 1v201l-4-2-11-14-10-11-7-8v-2l-4-1-85-1-1-25v-24l1-1 73-1 6 1v-18l1-21h-79l-2-3 1-32 1-1 83-1 5-2 13-14 8-10z" fill="#FDFDFD"/>
<path transform="translate(495,330)" d="m0 0 2 1v200l-4-2-14-17-13-14-3-4-85-1-2-6v-43l1-1 78-1 1-38h-78l-2-3v-26l1-7 86-1 11-11 8-10 9-10z" fill="#FCFDFD"/>
<path transform="translate(550,367)" d="m0 0h28l15 4 11 6 10 9 6 10 5 12 2 12v20l-3 17-6 14-9 10-7 6-11 5-3 1-35 2-3-1-1-2v-124z" fill="#FCFDFD"/>
<path transform="translate(596,629)" d="m0 0h8l5 2 1 3 4 1 3 2 9-2 1-4 3-2h11l7 5v2l5-1v2l2 1 1-1 3-4h2v-2l5-1 3 1 2 2 2 3 3 7 1 11 3-3 6-14 6-4 6 2v35l-1 2h-7l-1-1 2-29h-2l-3 9-5 11-5 1-6-12-3-7-2-1 2 24 1 4-1 1-9 1-4-1h-8l-6 2h-12l-7-3-7-8-6 8-3 1h-12l-6-3-5-6-2-5v-11l4-8 3-3h2v-2l5-4z" fill="#EEFDFE"/>
<path transform="translate(221,625)" d="m0 0 7 1-1 2 11 1 5 2 3 2 4-1 1-2h26l1 3 13-4 11 1 3 1v2l5 1 4 9-1 7-5 4 1 6 7 8 2 2 4-1 4-7 1-10-1-9-5-6v-3h19l2 1-2 4-3 3v17l1 7h2v2h2l1 3-1 1h-32l-5-5-6-8-6-2v15l-1 1h-9l-2-4v-3h2l-1-24-2-2-11 1v30l-1 1h-8l-1-1-1-31-12 1-5 1-8-2h-7l-1 5v3l11 1 8 5 2 5-2 7-5 5-5 1h-11l-6-3-2-3 1-4 8 4h10l4-4v-3l-13-3-10-6-1-5-4 1-3-1v20l4 7h-21v-4l5-6 1-5-1-15-6-5v-3l21-1 3-3 4-1-1-2z" fill="#EEFDFE"/>
<path transform="translate(782,629)" d="m0 0h5l3 3h3l2 1v2h2l1 1 4-3 7-1 1-2h7l1 1h8l4 6 1 5h4l2-6 6-4h7l1 3h-2l-2 5-7 12-2 6v13l-7 1-2-1-1-13-3-10-3-1-1-2h-3l-1 2h-4l-1 25-2 1h-7l-5-3-2-5h-3l-1 3 2 1-7 4h-20v-2h-3l-3-8-13 1-1 7-9 1 3-9 9-28 1-1h9l4 9 6 16v3h2v3l3-3 2-10 1-19z" fill="#EEFDFE"/>
<path transform="translate(438,629)" d="m0 0h8v2l5 1h12l1-1h10l6 2-2 5-4 2h-3v18l3 7 3 4v3h-21l2-5 3-7 1-20h-20l-1 32h-7l-1-1v-29l-14-1-1 14-1 1-2 9-4 5-4 2h-13l-6-5-2-12v-21l6-1 3 1v-2l4 1 2 4h3l-4 6-1 9v3h2l-1 4h2l3-6h2l-1-18v-3h7l6-2h16z" fill="#EEFDFE"/>
<path transform="translate(352,628)" d="m0 0 17 3 4 1v-2l7 1 8 2-2 1 1 21 2 12 5 4h13l6-4 2-4 1-7 2-1v9l-4 6-8 4h-9l-12-3-7-1-8 3h-70l-7-1-1-7v-9l8 3 8 10v2h34l1-5 2-6 1-8 1-4v-13l2-4z" fill="#EEFDFF"/>
<path transform="translate(843,565)" d="m0 0h7l-1 4-13 23-1 20h-10l-1-1v-15l-4-9-8-15h-5l-4 2h-8v26l-1 12h-11l-1-37-11-1-1-1v-6l1-1h50l5 10 2 5 3 1 2-5 6-10z" fill="#0B87D6"/>
<path transform="translate(286,634)" d="m0 0h21l3 1 4 8-1 7-5 4 1 6 7 8 2 2 4-1 4-7 1-10-1-9-5-6v-3h19l2 1-2 4-3 3v17l1 7h2v2h2l1 3-1 1h-32l-5-5-6-8-6-2v15h-8v-36z" fill="#0B87D6"/>
<path transform="translate(623,566)" d="m0 0h27l4 2 5 9-2 9-6 4-1 3 8 11 4 5 1 3h-10l-5-5-9-12-6-1v18h-10l-1-3v-26z" fill="#0B87D6"/>
<path transform="translate(225,565)" d="m0 0 5 1 1 45-1 1h-9l-4-5-8-15-4-8-4-4v32h-8l-1-1v-45h13l6 10 8 15 2 1v-26z" fill="#0B87D6"/>
<path transform="translate(495,633)" d="m0 0h10l5 2 6 7 2 7v7l-3 9-6 6-9 2-8-1-8-8-2-5v-13l4-8 3-3z" fill="#0B87D6"/>
<path transform="translate(152,634)" d="m0 0h21l5 3 6 8 1 3v8l-3 8-8 7-6 1h-13l-4-1v-36z" fill="#0B87D6"/>
<path transform="translate(630,633)" d="m0 0h9l6 3 5 6 1 4v11l-3 9-5 5-3 1h-13l-5-3-4-6-1-5v-12l5-10z" fill="#0B87D6"/>
<path transform="translate(303,565)" d="m0 0h14l5 2 4 6v5h-4v-2l-4-2-10-1-6 3h-2l-2 7v11l4 8 6 3 8-1v-8l-7-1-3-7 1-1h18l1 1v19l-4 4-10 2-11-1-8-5-5-6-2-6v-11l4-10 4-5 5-3z" fill="#0B87D6"/>
<path transform="translate(338,566)" d="m0 0h7l1 1 1 15v17l3 5h8l4-4 1-33 2-1h7l1 3v32l-3 5-6 5-3 1h-15l-6-4-4-8v-32z" fill="#0B87D6"/>
<path transform="translate(242,566)" d="m0 0h9l1 31 3 7 6 1 5-3 1-2 1-33 1-1h9v29l-1 9-5 5-6 3h-15l-5-3-4-5-1-4v-33z" fill="#0B87D6"/>
<path transform="translate(501,566)" d="m0 0h31l1 2-2 6h-20l1 8 18 1 1 6-2 2h-14l-3 1v11h18l2 2v6l-1 1h-29l-1-5z" fill="#0B87D6"/>
<path transform="translate(350,634)" d="m0 0h20l4 2 2 5-1 6h-2l2 7 3 3v7l-3 5-8 3h-12l-4-1-1-2z" fill="#0B87D6"/>
<path transform="translate(153,566)" d="m0 0h29l1 1v6l-1 1h-20v9h18l2 1v5l-1 1-18 1v10l1 2h17l2 1v7l-7 1h-23l-1-1v-44z" fill="#0B87D6"/>
<path transform="translate(429,634)" d="m0 0h48v3l-3 3h-3v18l3 7 3 4v3h-21l2-5 3-7 1-20h-20l-1 32h-7l-1-1v-29l-1-1-10-1-1-3 1-2z" fill="#0B87D6"/>
<path transform="translate(425,566)" d="m0 0h30l1 4-1 4-20 1-1 8h20v7l-20 1 2 12 19 1v7l-2 1h-28z" fill="#0B87D6"/>
<path transform="translate(153,328)" d="m0 0h144l22 1 2 2-152 1-11 1-2 2-1 12v173l-1 9h-1l-1-38v-161z" fill="#EB1517"/>
<path transform="translate(692,633)" d="m0 0 6 2v35l-1 2h-7l-1-1 2-29h-2l-3 9-5 11-5 1-6-12-3-7-2-1 2 24 1 4-1 1h-6l-2-1v-36l1-1h9l4 7 4 11v2l3-3 6-14z" fill="#0B87D6"/>
<path transform="translate(714,565)" d="m0 0h14l5 3 3 7-1 4-4-2v-2l-7-2-8 1-5 5-2 6 1 10 4 7 6 3 6-1 7-4h2v6l-4 5-4 1h-15l-5-2-6-7-3-8v-12l3-9 4-5 5-3z" fill="#0B87D6"/>
<path transform="translate(554,565)" d="m0 0h14l5 5 2 5-1 4-8-6h-8l-6 4-3 7 1 9 4 9 2 2 8 1 12-6v6l-5 6-3 1h-17l-6-4-5-6-2-8v-10l3-9 6-7z" fill="#0B87D6"/>
<path transform="translate(416,328)" d="m0 0h54l23 1v2l-165 1-1 188h-1l-1-12v-178l1-1z" fill="#E71619"/>
<path transform="translate(526,634)" d="m0 0h10l5 8 8 15h1v-23h7l1 32-2 6-7-1-8-13-6-11-3-2 1 5 1 22h-8l-1-1v-36z" fill="#0B87D6"/>
<path transform="translate(707,634)" d="m0 0h21l4 2 3 6-1 10-4 5-6 2h-7l-2-1 1 13-1 1h-8z" fill="#0B87D6"/>
<path transform="translate(779,634)" d="m0 0h10l6 9 8 14 1-23h6l1 3v34l-7 1-4-4-11-20-2-2-1 26h-6l-1-19z" fill="#0B87D6"/>
<path transform="translate(751,634)" d="m0 0h9l4 9 7 19 2 10-9-1-3-8-13 1-1 7-9 1 3-9 9-28z" fill="#0B87D6"/>
<path transform="translate(580,566)" d="m0 0h36v8h-12l-1 4v33l-3 1h-7l-1-1v-38l-13 1-1-1v-6z" fill="#0B87D6"/>
<path transform="translate(668,566)" d="m0 0h23l1 4-5 4-1 2v23l4 7 3 5-2 1h-21l-3-1 1-5 4-2 2-9-1-21-6-3-1-4z" fill="#0B87D6"/>
<path transform="translate(742,566)" d="m0 0h21l2 1v6l-7 1 1 25 1 5 5 2 2 4-3 2h-22l-1-5 5-4 1-5v-23l-6-4z" fill="#0B87D6"/>
<path transform="translate(302,564)" d="m0 0h17l7 2 1 2v11l-1 9h-19l2 6 7 1 1 1v6l-3 3-6 1-6-3-4-6-1-3v-11l3-7 8-4 10 1 4 3v2h4l-2-6-2-5-5-1h-18z" fill="#FBFDFD"/>
<path transform="translate(465,566)" d="m0 0h10v36l18 1 1 1v8h-29l-1-1v-37z" fill="#0B87D6"/>
<path transform="translate(224,634)" d="m0 0h18l3 5v3l-6-1-13-1-1 5v3l11 1 8 5 2 5-2 7-5 5-5 1h-11l-6-3-2-3 1-4 8 4h10l4-4v-3l-13-3-9-6 1-9 4-6z" fill="#0B87D6"/>
<path transform="translate(388,633)" d="m0 0 5 1 1 26 1 6h7l5-3 1-3v-25l1-1h6l1 1 1 21-2 9-4 5-4 2h-13l-6-5-2-12v-21z" fill="#0B87D6"/>
<path transform="translate(710,630)" d="m0 0h11l3 1v2l11 1 3-3 6 1 1 7 2 1 2-6 2 1-11 33-2 4 9-1 1-7 13-2 2 2 1 7 3 1-5-1-3-6h-7l-2 1-2 6-3 1h-9l-1-6 1-2 3-1 1-7h2l2-9-4 3-4-4-1 5-1-4v-6l-2-6-4-1-21-1v38l8-1 2-3-1 5h-12l-4-2 1-4 2-3 1-24 2-7h3z" fill="#EEFDFE"/>
<path transform="translate(596,633)" d="m0 0 11 1 5 5v6l-7-4-9-1-5 4-2 5v7l3 7 4 3h7l9-4-1 6-3 3-3 1h-12l-6-3-5-6-2-5v-11l4-8 5-4z" fill="#0B87D6"/>
<path transform="translate(495,630)" d="m0 0h11l7 3h5v2l3 1 1 2 1 7 1-10 2 1v36l-4-1-7-1h-3v2l-11 3h-7l-8-4-2-3 1-4 7 7 8 1 9-2 6-7 2-7v-7l-3-8-5-6-4-1h-10l-6 1 4-4z" fill="#EEFDFE"/>
<path transform="translate(206,643)" d="m0 0 4 2 5-1v6l5 2 8 4 10 2 1 4-5 5h-10l-8-4 1 5 6 3v1h-12l-5-7z" fill="#EEFDFE"/>
<path transform="translate(819,633)" d="m0 0 6 1 4 7 3 6h2l6-11 4-3h5l1 2-8 14-4 9v13l-7 1-2-1-1-13-4-10-6-9v-5z" fill="#0B87D6"/>
<path transform="translate(321,634)" d="m0 0h19l2 1-2 4-3 3v17l1 7h2v2h2l1 3-1 1h-22l5-7 2-13-1-9-5-6z" fill="#0B87D6"/>
<path transform="translate(250,634)" d="m0 0h29v6l-10 1v30l-1 1h-8l-1-1-1-31h-8l-2-2v-3z" fill="#0B87D6"/>
<path transform="translate(189,634)" d="m0 0h21l-1 5-3 1-1 15 2 10 4 7h-21v-4l5-6 1-5-1-15-6-5z" fill="#0B87D6"/>
<path transform="translate(630,639)" d="m0 0 9 1 4 5 1 3v10l-3 6-5 3-8-1-3-4-1-3v-14l4-5z" fill="#FDFDFD"/>
<path transform="translate(495,640)" d="m0 0h10l4 5 2 7-1 8-5 6-2 1h-6l-5-4-2-5v-11l4-6z" fill="#FCFDFD"/>
<path transform="translate(596,639)" d="m0 0 9 1 5 5 2 3-2 12-7 3-13-1-2-6v-7l3-6z" fill="#FCFDFD"/>
<path transform="translate(469,564)" d="m0 0 6 1v1h-10v45l29 1-1-8-14-1v-1h15l5 2v-31l1-7h1l1 46 29-1 1-6 2 4-2 4-23 1-8 1-7-1-6 1v1h-9l-1-1h-13l-5-3-6 1h-29v-1l30-1v-7l1 2 6 1 1-40 1-2z" fill="#EEFDFF"/>
<path transform="translate(161,640)" d="m0 0h8l5 3 3 6v8l-4 6-7 4-6-2v-24z" fill="#FCFDFD"/>
<path transform="translate(744,564)" d="m0 0h77l3 3 4 10 5-3 6-9 3-1h9l1 3-8 13-1-2 6-10 1-3-10 2-9 15-4-1-6-14h-50v6l11 1v1h-12l-4-1-6 1v23l3 5 1 2-4-1-2-5v-25l7-1v-6h-23l-2 4-1-5z" fill="#EEFDFF"/>
<path transform="translate(698,578)" d="m0 0h1v17l4 10 5 5 4 1h15l5-2 2-3 1-6-12 6-6-1-5-4 1-2 3 2h14l2-5h2l1-3h2l1 10 1 3 4-1-1 6h22l2-1-2-5 4 2-1 5-1 1-37 1-3 1h-7l-15-4-4-5-3-7v-17z" fill="#EEFDFF"/>
<path transform="translate(553,564)" d="m0 0h16l9 1 5-1h17l16 1v1l-38 1 1 6h13l1 7v31h10l-1-34 2-4 12 1-2 2h-9l-1 31h2l-2 5-2 1h-11l-1-1 1-36h-15v5l-2 1-1-3 1-4-4-8-2-1h-14l-8 4-5 7-1-3 6-7z" fill="#EEFDFF"/>
<path transform="translate(665,567)" d="m0 0 2 1 1 3 6 3 1 21-2 9-5 3-1 4h24l3-1v2l-2 1h-39v-1l9-1-4-6-8-10-1-3 5-5h3l-2 2v7l7 6h6l4-2v-24l-6-4z" fill="#EEFDFF"/>
<path transform="translate(302,564)" d="m0 0h17l7 2 1 2v11l-1 9h-19l2 7h-3l-2-7 2-2 14-2-1-7h-11l-7 3 3 1h-2l-1 3h-2l-1 10h-1v-11l3-7 8-4 10 1 4 3v2h4l-2-6-2-5-5-1h-18z" fill="#EEFDFF"/>
<path transform="translate(499,329)" d="m0 0h55l24 1v1l-77 1-1 13-1 50h-1v-65z" fill="#E4171A"/>
<path transform="translate(385,494)" d="m0 0h79l9 10 7 8 11 13 3 4v3h-8l4-3-8-11-9-9-8-10-2-2-12-1h-66z" fill="#E3181B"/>
<path transform="translate(326,329)" d="m0 0h40v1l-25 2h-13l-1 60-2 4v-66z" fill="#E61719"/>
<path transform="translate(205,494)" d="m0 0h86l5 5 10 11 9 11 6 8v3l-9 1 2-2 4-1-6-9-11-12-8-10-2-2-11-1h-68l-7-1z" fill="#E5171A"/>
<path transform="translate(286,580)" d="m0 0 1 4v11l4 9 6 5 9 3 13-1 5-2 1-2 1-19 3 3 1 2h-2v17l-1 2-7 2-17 1-5-2-7-2-6-7-1-5 1-17z" fill="#EEFDFE"/>
<path transform="translate(630,639)" d="m0 0 9 1 4 5 1 3v10l-3 6-5 3-8-1-3-4-1-3v-14l4-5zm-2 3-2 6v9l5 5h6l5-5v-8l-3-6z" fill="#EEFDFF"/>
<path transform="translate(256,404)" d="m0 0h28v37l-1 2-23-1v-1l20-1 1-2v-29l-4-2h-24l-22-1v-1z" fill="#E3181B"/>
<path transform="translate(456,567)" d="m0 0h2l-1 7-4 5 1 4h-20v-8l1-1h20z" fill="#EEFDFE"/>
<path transform="translate(166,573)" d="m0 0h17l-2 6v2l1 3-20-1v-9z" fill="#EEFDFF"/>
<path transform="translate(206,643)" d="m0 0 4 2 5-1 1 7 1 5-1 3h-2v6l-7-1-1-1z" fill="#FCFDFD"/>
<path transform="translate(634,574)" d="m0 0h11l3 4-2 6-3 3-6 1-4-3v-10z" fill="#FDFDFD"/>
<path transform="translate(665,643)" d="m0 0 3 1 7 16 1 3 3 1-10 3v5l-1 1h-7v-1l6-1-2-12z" fill="#EEFDFF"/>
<path transform="translate(807,571)" d="m0 0h5l3 4-1 2-2-2-15 1-1 7v29l-6 2-8-1-1-1 1-37h1v37h11v-36l1-2 11-2z" fill="#EEFDFF"/>
<path transform="translate(365,654)" d="m0 0 5 1 1 2v7l-5 3h-6l-4-3v-9z" fill="#EEFDFF"/>
<path transform="translate(689,642)" d="m0 0h2v14l-1 17-4-2-5-9 3-9z" fill="#EEFDFF"/>
<path transform="translate(633,594)" d="m0 0h6l10 13 4 5h-6l-5-5v-2h-7l1 6-3 1z" fill="#EEFDFF"/>
<path transform="translate(626,564)" d="m0 0 26 1 1 2-30-1v46h10v1h-12v-38l-5-1v-8h5z" fill="#EEFDFF"/>
<path transform="translate(311,651)" d="m0 0v3l5 5 1 3 3 1 5-3 1-5h1v7l-4 7-2 2-4-1-8-8-2-4 1-5z" fill="#EEFDFF"/>
<path transform="translate(729,409)" d="m0 0 2 2v22l1 17 2 8v4h-2l-4-10v-36z" fill="#F01415"/>
<path transform="translate(716,640)" d="m0 0h8l4 4-1 6-6 3h-5l-1-1v-11z" fill="#FDFDFD"/>
<path transform="translate(278,566)" d="m0 0 2 1-1 37-1 2v5l-2 2-10 1h-12l-3-2 15-1 8-4 2-3 1-11z" fill="#EEFDFF"/>
<path transform="translate(293,640)" d="m0 0h8l5 3v5l-5 3-7 1-2-1v-10z" fill="#EEFDFF"/>
<path transform="translate(191,566)" d="m0 0h1l1 45 8 1v1h-14l-4-2v-6l2 2 2 1 2-7 1-28z" fill="#EEFDFF"/>
<path transform="translate(697,628)" d="m0 0h2l-1 4 3 1 1 6-2-3v-2l-3 1-5-1-5 3-7 16-3 1-2-5 1-3 4-5 5-6 7-6z" fill="#EEFDFF"/>
<path transform="translate(554,630)" d="m0 0 3 1v3h-7l1 4v19h-3l-5-10 1-5 2-1 2-8h3v-2z" fill="#EEFDFF"/>
<path transform="translate(532,645)" d="m0 0 4 2 10 18 1 3-4-2-4-8-5-1 2 8 2 2-3 6h-8v-1h7l-1-5z" fill="#EEFDFF"/>
<path transform="translate(357,639)" d="m0 0h8l4 3v6l-7 3h-5l-1-2z" fill="#EEFDFF"/>
<path transform="translate(230,566)" d="m0 0 2 1 1 36 2-1 2 1-1 5-2 4-3 1h-10v-1l9-1z" fill="#EEFDFE"/>
<path transform="translate(530,589)" d="m0 0 1 3-4 2h-7l-6-1v7h14l4 3-1 2-4-1h-13l-2-1-1-4v-7l4-2h14z" fill="#EEFDFF"/>
<path transform="translate(362,566)" d="m0 0 3 1h-2v33l-5 5h-8l-3-3-1-3v-17h1l1 15 2 3h10l1-2v-29z" fill="#EEFDFF"/>
<path transform="translate(440,590)" d="m0 0h14l-1 2h-17v6l4 1 10 1 5 3v1h-19l-2-4v-9z" fill="#EEFDFF"/>
<path transform="translate(839,339)" d="m0 0 5 1 2 2 1 8v18l-3 13h-1v-30l-1-10h-3z" fill="#EB1517"/>
<path transform="translate(335,568)" d="m0 0h1l1 32 4 8 5 3 15 1-4 2h-8l-9-2-6-5v-36z" fill="#EEFDFF"/>
<path transform="translate(201,580)" d="m0 0 3 1 5 8-1 3h-4l-1-2v10l2 1 1 6-3 1-1 4h-1z" fill="#EEFDFE"/>
<path transform="translate(670,565)" d="m0 0h22l2 2-1 4-4 4-2 9v11l3 9 2 1-1 3-5-6-1-3v-23l5-5 1-4-21-1z" fill="#EEFDFF"/>
<path transform="translate(161,640)" d="m0 0h8l5 3v3l-2-2-11-1 1 19 7 1 5-4v3l-5 4-5 1-4-2v-24z" fill="#EEFDFF"/>
<path transform="translate(508,645)" d="m0 0 2 2 1 9-3 7-5 4h-6l-5-4-1-5 1 2 8 2 5-2 3-1z" fill="#EEFDFF"/>
<path transform="translate(201,626)" d="m0 0h2l-1 4h6l1 4h-20l-1 3v-4l3-1 2-4z" fill="#EEFDFF"/>
<path transform="translate(156,631)" d="m0 0h14l9 3 4 4 1 3-1 2 2 1h-3l-6-8-3-1h-22v-2z" fill="#EEFDFE"/>
<path transform="translate(532,568)" d="m0 0h1v6l-6 4h-12l-2 1v2l17 1v1h-18l-1-1v-8h20z" fill="#EEFDFF"/>
<path transform="translate(283,404)" d="m0 0h1v37l-1 2-23-1v-1l20-1 1-2 1-28z" fill="#ED1516"/>
<path transform="translate(432,641)" d="m0 0 2 1v29l6 1v1h-9l-3-4 1-6 2-7z" fill="#EEFDFF"/>
<path transform="translate(240,566)" d="m0 0 2 1v37l-2-2-2-21-2-10z" fill="#EEFDFF"/>
<path transform="translate(466,499)" d="m0 0 4 2 12 13 12 15v3h-8l4-3-8-11-9-9-7-9z" fill="#EA1618"/>
<path transform="translate(754,645)" d="m0 0 4 2 2 5v5l-5 2-5-1 3-9z" fill="#EEFDFF"/>
<path transform="translate(251,566)" d="m0 0h1l1 23 1 12 10 1 3-2-2 4-4 2-6-1-3-4-1-4z" fill="#EEFDFF"/>
<path transform="translate(181,589)" d="m0 0 1 2-8 1h-10v8l6 1v2l12-1 1 2h-19l-2-3v-10l1-1z" fill="#EEFDFF"/>
<path transform="translate(719,572)" d="m0 0 8 1 4 2v2l-12-1-6 3-2 3-1 13h-1l-1-10 3-8 5-4z" fill="#EEFDFF"/>
<path transform="translate(431,404)" d="m0 0h25v14l-2 2-1-12-1-1-19-1z" fill="#E51719"/>
<path transform="translate(557,634)" d="m0 0 3 1-1 35-1 2-2-1 1-11z" fill="#EEFDFF"/>
<path transform="translate(579,647)" d="m0 0h1l1 11 4 8 5 4 3 1h15l-4 3h-10l-9-4-4-5-2-6z" fill="#EEFDFF"/>
<path transform="translate(452,639)" d="m0 0h8v1l-16 2-1 9v13l2 2-1 5-3 1v-29l1-3z" fill="#EEFDFF"/>
<path transform="translate(324,630)" d="m0 0h15l3 3v2h-12l-9-1 2-1z" fill="#EEFDFE"/>
<path transform="translate(634,574)" d="m0 0h11l3 4-2 6-3 3-6 1-4-3v-10zm0 2v8l2 2h6l3-2 1-7-1-1z" fill="#EEFDFF"/>
<path transform="translate(716,640)" d="m0 0h8l4 4-1 6-6 3h-5l-1-1v-11zm1 1-1 1v9l4 1 5-2-1-8z" fill="#EEFDFF"/>
<path transform="translate(220,566)" d="m0 0h1v26l-3-1-4-7 1-2h5z" fill="#EEFDFF"/>
<path transform="translate(733,652)" d="m0 0 1 3-4 4-9 3-1 2h-4l-1 4-1-8 1-2h9l7-3z" fill="#EEFDFF"/>
<path transform="translate(743,573)" d="m0 0 4 1 1 1v23l-2 6h-3l2-3 1-24z" fill="#EEFDFF"/>
<path transform="translate(538,580)" d="m0 0 1 4v10l3 9 3 5h-4l-3-5-1-2v-18z" fill="#EEFDFF"/>
<path transform="translate(529,631)" d="m0 0 8 1v2l4 1 1 9-4-5-2-4h-11v-2h4z" fill="#EEFDFF"/>
<path transform="translate(293,642)" d="m0 0h8v7l-7-1-1-1z" fill="#FDFDFD"/>
<path transform="translate(558,572)" d="m0 0h8l4 4h-13l-4 2-3 3 2-5z" fill="#EEFDFF"/>
<path transform="translate(728,444)" d="m0 0h2l4 14v4h-2l-4-10z" fill="#E71619"/>
<path transform="translate(713,564)" d="m0 0h17l5 3 1 1v7l-2-4-3-4-3-1h-14l-6 1 1-2z" fill="#EEFDFF"/>
<path transform="translate(474,639)" d="m0 0 2 1-3 4v20l-2-2-1-4v-9l1-9z" fill="#EEFDFF"/>
<path transform="translate(753,631)" d="m0 0h6l4 5 3 8-1 4-5-13-9-1 2-1z" fill="#EEFDFF"/>
<path transform="translate(192,640)" d="m0 0 4 2 1 15-2 7-2 1 1-5v-16z" fill="#EEFDFE"/>
<path transform="translate(574,607)" d="m0 0 1 3-5 3-5 1h-8l-6-1v-1l17-1 5-3z" fill="#EEFDFF"/>
<path transform="translate(168,578)" d="m0 0 8 1 1 3-2 1h-7l-1-2z" fill="#FDFDFD"/>
<path transform="translate(815,375)" d="m0 0 4 1 2 1v2l4 2v1h-6l-5-5z" fill="#EEFDFF"/>
<path transform="translate(844,363)" d="m0 0h2l1 5-3 13h-1v-12z" fill="#E5171A"/>
<path transform="translate(185,648)" d="m0 0h1v9l-2 8h-2l-2 4-4 1 6-8 2-6z" fill="#EEFDFF"/>
<path transform="translate(576,592)" d="m0 0 2 1v8l-2 4v-6l-4 3-2-1 4-5z" fill="#EEFDFF"/>
<path transform="translate(485,521)" d="m0 0 4 2 5 6v3h-8l4-3z" fill="#E4171A"/>
<path transform="translate(495,640)" d="m0 0h10l3 3-1 2-2-2h-8l-5 2 2-4z" fill="#EEFDFF"/>
<path transform="translate(596,639)" d="m0 0 9 1 2 2h-9l-8 4 2-4z" fill="#EEFDFF"/>
<path transform="translate(553,600)" d="m0 0 7 2v2h7l-3 2-8-1-3-3z" fill="#EEFDFF"/>
<path transform="translate(790,498)" d="m0 0h6l1 2-5 1h-9l-3-2z" fill="#E81618"/>
<path transform="translate(452,494)" d="m0 0h12l3 5-4-2-11-1z" fill="#E61719"/>
<path transform="translate(240,649)" d="m0 0 5 1 2 4-2 4-3-5-4-3z" fill="#EEFDFF"/>
<path transform="translate(221,656)" d="m0 0 3 1 3 5-2 1-5-2z" fill="#FDFDFD"/>
<path transform="translate(652,358)" d="m0 0 6 5 3 4-1 3-8-9z" fill="#EA1618"/>
</svg>
