<?xml version="1.0" encoding="UTF-8"?>
<svg version="1.1" viewBox="0 0 1000 1000" width="1280" height="1280" xmlns="http://www.w3.org/2000/svg">
<path transform="translate(0)" d="m0 0h1e3v1e3h-1e3z" fill="#FDFDFD"/>
<path transform="translate(211,336)" d="m0 0h34l21 4 14 6 14 10 10 9 9 11 7 10 8 16 5 16 1 6v20l-4 22-6 21-11 27-9 17-12 17-8 10-10 10-10 6-5 2h-13l-10-4-5-4-5-8-2-9v-10l4-37 5-12 9-11 13-10 20-12 6-5h2v-2l5-5 2-4-5 1-14 8-11 8-14 7-13 3h-18l-10-4-14-11-10-9-8-7-6-4h-3l1 6 6 8 15 11 13 10 7 7 4 11 7 30v22l-3 14-5 9-4 5-7 5-8 3h-6l-15-8-13-12-8-10-10-17-11-25-6-20-4-18-1-8v-29l3-19 6-16 8-14 9-12h2v-2l10-8 17-10 14-6 19-5z" fill="#FEFEFD"/>
<path transform="translate(211,336)" d="m0 0h34l21 4 14 6 14 10 10 9 9 11 7 10 8 16 5 16 1 6v20l-4 22-6 21-11 27-9 17-12 17-8 10-10 10-10 6-5 2h-13l-10-4-5-4-5-8-2-9v-10l4-37 5-12 9-11 13-10 20-12 6-5h2v-2l5-5 2-4-5 1-14 8-11 8-14 7-13 3h-18l-10-4-14-11-10-9-8-7-6-4h-3l1 6 6 8 15 11 13 10 7 7 4 11 7 30v22l-3 14-5 9-4 5-7 5-8 3h-6l-15-8-13-12-8-10-10-17-11-25-6-20-4-18-1-8v-29l3-19 6-16 8-14 9-12h2v-2l10-8 17-10 14-6 19-5zm0 15-19 3-16 7-10 6-12 11-11 15-8 17-4 14-1 6v27l5 25 6 21 7 15 6 11 10 14 8 9 9 6 2 1h8l6-5 4-13v-26l-2-14-4-11-9-10-16-13-8-7-5-4-7-10-2-6v-7l3-8 5-4 2-1h7l16 8 9 7 15 14 10 6 10 4h8l16-8 20-15 16-8 7-2 6 4 4 6 1 10-3 9-7 8-10 7-19 12-14 11-5 8-5 19-2 13v18l3 6 2 2h18l8-7 11-12 10-15 10-18 8-19 7-19 3-14 1-7v-25l-3-14-8-16-6-9-9-10-9-8-15-9-10-4-21-2z" fill="#F08E2A"/>
<path transform="translate(653,532)" d="m0 0h19l23 2 20 4 12 6 9 8 8 10 7 14 2 8 1 22-3 16-7 14-7 8-11 9-8 5-11 4-13 2h-35l-13-1-5-3-1-6v-114l9-7z" fill="#082C4D"/>
<path transform="translate(408,532)" d="m0 0h35l19 2 13 4 10 5 6 8 4 11-1 14-3 6-7 6 1 6 7 8 5 4 2 4v30l-4 8-7 7-12 6-11 3h-49l-16-1-4-5v-118l5-3 1-4z" fill="#082C4D"/>
<path transform="translate(164,434)" d="m0 0 5 1 10 9 11 9 12 10 9 5 4 1h18l16-4 14-8 13-9 11-6 4 1-4 7-4 2v2l-10 7-22 14-11 9-7 10-4 10-4 37v10l2 9 5 8 10 6 4 1h13l7-2 1 5v6l4 2 5 5 1 4-1 14-1 2h-2l-1 5-4 5-6 2-49 1h-30l-9-1-3-3-7-8-1-9 2-6 4-11 3-3 9-2-1-4-3-3-8-5 2-1 13 7h6l9-4 7-5 6-10 3-9 1-7v-22l-7-30-4-11-8-8-28-21-6-9z" fill="#FFFFF5"/>
<path transform="translate(532,532)" d="m0 0h74l5 3 6 5v10l-2 7-2 1-39 1h-25l1 26 40 1v20l-1 3-12 1-27 1v27l64 1 4 1 1 9v9l-3 5-4 1h-76l-9-1-3-5-1-12v-106l8-5z" fill="#082C4D"/>
<path transform="translate(823,532)" d="m0 0h20l16 3 18 7 7 9 1 6-3 9-1 1h-11l-8-2-6-4-9-2h-24l-8 3-8 7-7 12-2 7v19l4 13 6 10 3 2v2l5 2 11 3h16l12-3 16-7 4-1 7 3v3l3 1 1 6-3 6-10 9-12 6-13 3-15 1-15-2-12-4-14-9-6-5-8-11-4-9-3-17v-23l4-17 4-8 9-11 14-10 10-5 5-2z" fill="#082C4D"/>
<path transform="translate(158,419)" d="m0 0h7l16 8 9 7 15 14 10 6 10 4h8l16-8 3-1v2l-4 4 1 3 7 2 1-2 4 1-12 7-16 4h-18l-10-4-14-11-10-9-8-7-6-4h-3l1 6 6 8 15 11 13 10 7 7 4 11 7 30v22l-3 14-5 9-4 5-7 5-8 3h-6l-15-8-13-12-8-10-10-17-11-25-5-16 1-4 3 3 2 5-1 5h2l4 13 3 5 7 13 6 9v2h2l5 9 3 3 3 1v2h4l-1-6-3-1 1-5 7 6 5 5 8 5h8l5-4 4-13v-26l-2-14-4-11-9-10-15-12-8-7-6-5-7-10-2-6v-7l3-8 6-5z" fill="#F08E2B"/>
<path transform="translate(665,559)" d="m0 0h37l7 4 12 11 5 8 2 10v14l-3 12-7 10-10 7-4 2-15 2h-24l-1-78z" fill="#FDFDFD"/>
<path transform="translate(192,584)" d="m0 0h24l23 2 26 4 8 4 2 4v10l-4 10-5 4-4 1-49 1h-30l-9-1-3-3-7-8-1-9 2-6 4-6 5-4 5-2z" fill="#F08D29"/>
<path transform="translate(171,629)" d="m0 0h61l28 1 8 1 6 9 1 4v9l-5 6-9 3-20 2h-43l-21-2-7-3-4-4-2-5v-12l3-6z" fill="#F08C27"/>
<path transform="translate(351,532)" d="m0 0h12l4 8 2 1v114l-3 7-4 2h-14l-5-5-1-13v-104l5-9z" fill="#082C4D"/>
<path transform="translate(224,401)" d="m0 0h11l8 4 5 5 5 6 2 5v10l-4 8-7 7-9 5-10 1-8-3-10-7-4-5-2-6v-10l4-8 8-8z" fill="#F08D2A"/>
<path transform="translate(281,471)" d="m0 0h2l-2 5-9 8-8 6-3 1v2l-5 4-6 8-4 18v14l5-5 2-6v-7l9-11 3-3 4-2 5-6 12-7 7-2v-2h2l-1 3-3 3-2 5-7 14-5 7-2 5-9 13-2 3h-2l-2 5-2 4 1 3h7v-3h2l2-5 4-3 6-2-2 4-12 13-5 4h-18l-4-5-1-3v-18l3-18 5-16 5-7 13-10z" fill="#FFFFF5"/>
<path transform="translate(290,425)" d="m0 0 6 2 6 7 2 6-1 10-3 6-7 8-10 7-5 3h-2v-2l-4 2-5 4h-4v2l-5 2-8 1-4 2-1 2h-2l-2 5-6 4h-2l1-5 8-10 13-10 20-12 6-5h2v-2l5-5 2-4-5 1-14 8-8 6-9 2-6-1-1-4 3-4h2v-3l14-11 16-8z" fill="#E58121"/>
<path transform="translate(248,632)" d="m0 0h21l5 8 1 4v9l-3 4-15 4-8 1-42 1-14-1-3-1v-2l-16-2-1-3v-6h36l34-2 13-1v-3l-12-1v-2h-7v-2l-3 1 1-3 8-1z" fill="#E47D1C"/>
<path transform="translate(419,607)" d="m0 0h32l15 1 5 4 1 4v16l-2 6-1 1-46 1-4-1z" fill="#FDFDFC"/>
<path transform="translate(232,399)" d="m0 0h8l8 5 5 5 6 8 2 5 2 7 9-1 10-1 2-4 6-2h13l4 4 2 4 1 10v11l-7 13-8 5-6 3-5 1-1-2 11-8 7-9 2-7-1-10-4-6-6-4-7 2-16 8-12 9-9 7-15 7h-8l-10-4-10-6-7-7-8-7-9-7-16-8h-7l-4 1 1-2h2v-2l5-3 7 1 14 8 9 8 1 2 4 1 3-1v-11h1l2 12 4 7 11 8 7 2 10-1 10-6 7-8 2-5v-10l-4-8-3-3v-2l-12-6h-11l-9 2 4-3z" fill="#FFFFF5"/>
<path transform="translate(126,416)" d="m0 0h2l1 4v37h2l5 25 6 21 7 15 6 11 8 12v6l4 4-1 4-4-1v-2l-4-1v-2l-4-2-3-6v-2h-2l-10-16-9-18-1-8h-2v-5l-1-5-3-1-1-2-1-20v-15l1-7-1-10 2-10z" fill="#E47F1E"/>
<path transform="translate(424,558)" d="m0 0 36 1 4 2 5 10v3l-4 1-1 7-2 2h-43v-25z" fill="#FEFEFD"/>
<path transform="translate(187,598)" d="m0 0h17l28 1 8 1 20 1 5 2v7l-4 2h-28l-30-1-10 1h-11v2h-2l-2-5-3-1-1-4 2-4z" fill="#EEA047"/>
<path transform="translate(145,390)" d="m0 0 2 2-6 14-2 9-2 4-2 15 1 22 1 16 4 10 4 19 10 19 9 14 9 11 8 7 4 2h9l3-2-2 4-4 3h-8l-8-5-5-4-7-8-12-18-8-16-5-15-7-29-1-7v-27l3-14 5-13z" fill="#FFFFF5"/>
<path transform="translate(248,632)" d="m0 0h21l5 8 1 4v9l-3 4-15 4-8 1h-27l3-2 11-2 10-1 7-2v-4l-19-1-4-1v-2l26-2v-3l-12-1v-2h-7v-2l-3 1 1-3 8-1z" fill="#F08C28"/>
<path transform="translate(273,611)" d="m0 0h1l1 9-2 5 3 10 1 1-1 17h-1l-2-13-5-8-8-1-28-1h-61l-5 3 1-5 1-8-4-6 1-2 2 4 4 2 1 4 11 1h30l49-1 7-3z" fill="#FFFFF5"/>
<path transform="translate(302,385)" d="m0 0 3 3 8 14 4 10 2 11v25l-3 17-6 18-11 26-8 14h-2l-1-7 7-10 2-12 10-25 4-12 1-11 2-10-2-19-5-13-5-16z" fill="#FFFFF5"/>
<path transform="translate(273,433)" d="m0 0h15l4 4-1 3-4 1v2l-16 9-8 6-9 2-6-1-1-4 3-4h2v-3l14-11z" fill="#E58120"/>
<path transform="translate(167,657)" d="m0 0 10 4 21 2h43l20-2 9-2-3 3h-4v2l-3 2-20 3-25 2h-13l-22-5-9-4-4-3z" fill="#FFFFF5"/>
<path transform="translate(290,425)" d="m0 0 6 2 6 7 2 6-1 10-3 6-4 4v-2h-3l-1-4h-3l-2-2-4 2v-2l5-5 2-4-3-2 4-3-3-4h-9l-3-2z" fill="#F08E2A"/>
<path transform="translate(194,602)" d="m0 0h38l19 3 6 2-1 3h-34l-25-2-5-1v-2h-2v-2z" fill="#FFFFF5"/>
<path transform="translate(213,331)" d="m0 0h32l18 4 11 7-3 1-9-3-17-3h-34l-16 3-4-1 10-6z" fill="#FFFFF5"/>
<path transform="translate(226,414)" d="m0 0h7l5 6 1 6-3 6-3 2h-8l-6-3-2-2v-7l6-7z" fill="#FFFFF5"/>
<path transform="translate(193,641)" d="m0 0h42l14 2v2l-31 2h-38l-3-3 4-2z" fill="#FFFFF5"/>
<path transform="translate(198,639)" d="m0 0h22l32 2 4 1v3l-2 1-26 2-19 1h-31l-6-3v-5zm-5 2-12 1-4 2 3 3h38l31-2v-2l-14-2z" fill="#EEA047"/>
<path transform="translate(259,613)" d="m0 0h7l4 3v2l-8 3-18 1h-20l-4-1v-3h4l1-2 2 1 1-2v2l6-2 23-1z" fill="#E57F1D"/>
<path transform="translate(324,416)" d="m0 0 2 2 1 15v12l-1 13-1 7h-2l-1 5-2 2-1-5v-20h2v-17l1-4z" fill="#E47D1C"/>
<path transform="translate(186,481)" d="m0 0 7 6 5 10 2 9 1 9v26l-2 8h-1v-22l-2-8-2-14-7-20z" fill="#FFFFF5"/>
<path transform="translate(300,508)" d="m0 0 5 1-1 6-11 22h-4l-2-3 1-8 10-17z" fill="#E58020"/>
<path transform="translate(165,597)" d="m0 0 1 3v9l3 5 5 4 2 3h68l18-1 5-2 3 1-4 3-4 1-49 1h-30l-9-1-3-3-7-8-1-9z" fill="#EEA047"/>
<path transform="translate(248,632)" d="m0 0h20l-1 5h-5l-1 3h-4l-7-1-5 1-1-1h-7v-2l-3 1 1-3 8-1z" fill="#E47D1C"/>
<path transform="translate(226,345)" d="m0 0 14 2-1 2 13 1v1h-47l2-2h4l1-3z" fill="#E47F1E"/>
<path transform="translate(269,657)" d="m0 0 2 1-6 3-12 2-12 1h-43l-21-2v-1l35 1 37-1 16-3z" fill="#EEA047"/>
<path transform="translate(210,492)" d="m0 0 2 4 5 22v22l-3 14-2 2 1-6v-24l-2-25z" fill="#EEA047"/>
<path transform="translate(171,629)" d="m0 0h61l28 1v1h-88l-5 6-1 16-2-3v-12l3-6z" fill="#EEA047"/>
<path transform="translate(328,404)" d="m0 0 2 3 4 17v20l-4 22-2 7h-1l1-17 3-14 1-14v-8h-2z" fill="#EEA047"/>
<path transform="translate(314,507)" d="m0 0 1 3-11 21-4 4-1-3 5-10h2l1-7 4-6z" fill="#EEA047"/>
<path transform="translate(211,351)" d="m0 0h27l21 2-2 2-26-1-9-1-11-1z" fill="#FFFFF5"/>
<path transform="translate(211,336)" d="m0 0h34l21 4 8 3-4 1-11-2-8-3-8-1-32-1z" fill="#EEA047"/>
<path transform="translate(236,521)" d="m0 0h2v14l-1 11-2-1-1-11-2-1v-4l2-5h2z" fill="#E57E1D"/>
<path transform="translate(186,437)" d="m0 0h2l1 3 6 5 1 3h-2v3l3 2v2h-3v-2h-2v-2h-2l-4-6-1-4z" fill="#E47D1C"/>
<path transform="translate(217,420)" d="m0 0 1 2v7l4 3 3 1h8l4-4 1-9 2 2-1 8-5 5-2 1h-7l-9-4-1-1v-7z" fill="#EEA047"/>
<path transform="translate(208,572)" d="m0 0 5 2-1 5-2 1-9-1-1-2 1-3z" fill="#FEFEFE"/>
<path transform="translate(122,484)" d="m0 0 4 3 2 5-1 5h2l2 11-2 1-7-21z" fill="#EF9332"/>
<path transform="translate(230,589)" d="m0 0 1 2 6-1 6 2 1 2-2 2h-5-3l-5-2v-3z" fill="#E47D1C"/>
<path transform="translate(322,389)" d="m0 0 4 1 4 8 2 16-2-4-6-15z" fill="#FFFFF5"/>
<path transform="translate(267,618)" d="m0 0 3 1-4 3-4 1h-20l2-2 18-1z" fill="#EE9F45"/>
<path transform="translate(207,522)" d="m0 0h1l1 10v7l-4 2v-13z" fill="#E47D1C"/>
<path transform="translate(206,504)" d="m0 0 4 3 1 5v7l-2-1v-2l-2-1-2-5v-5z" fill="#E47D1C"/>
<path transform="translate(333,419)" d="m0 0 2 4 2 10-3 18h-1z" fill="#FFFFF5"/>
<path transform="translate(233,502)" d="m0 0 4 1 1 5-1 4h-2v2h-2l-1-6 1-5z" fill="#E47D1C"/>
<path transform="translate(291,439)" d="m0 0h3l-1 5-7 9-3 1v-2l5-5 2-4-3-2z" fill="#EE9E44"/>
<path transform="translate(259,354)" d="m0 0 6 1 13 7-3 1-9-3v-2l-5-2z" fill="#FFFFF5"/>
<path transform="translate(122,484)" d="m0 0 4 3 2 5-1 5-4-5z" fill="#F09130"/>
<path transform="translate(273,471)" d="m0 0 3 1 1 3-9 5-1-4 4-2z" fill="#F08F2C"/>
<path transform="translate(181,649)" d="m0 0h17l-3 2-6 1-8-2z" fill="#F18C27"/>
<path transform="translate(286,526)" d="m0 0h2l-2 5-4 5 1-8z" fill="#FFFFF5"/>
</svg>
