<?xml version="1.0" encoding="UTF-8"?>
<svg version="1.1" viewBox="0 0 1000 1000" width="1280" height="1280" xmlns="http://www.w3.org/2000/svg">
<path transform="translate(0)" d="m0 0h1e3v1e3h-1e3z" fill="#FDFDFC"/>
<path transform="translate(395,454)" d="m0 0h58l1 1v105h2l3-9 8-15 9-12 9-10 9-8 12-8 16-8 15-5 15-3h22l17 4 16 6 16 8 15 10 10 9 7 8-2 4-11 12-7 9-22 26-9 11-12 14-9 10-9 11-12 14-11 15-1 2 17 3 10 1h21l10-2 15-6 14-6 5-2h5l-1 6-2 5-1 6v9l4 15 5 13v4l-23 9-18 4-22 2-23-1-25-5-22-9-14-8-13-10-12-11-12-15-8-15-4-10-1-1 1 13 1 10 1 30v28l-2 4h-24l-42-1v-12l3-32 1-216z" fill="#030101"/>
<path transform="translate(506,187)" d="m0 0 6 2 12 7 14 12 12 13 11 16 4 7v3l-24 1 2 21 4-2-2-11 4 2 3 9h25v6l-12 22-3 7v4l30 10 30 13 14 8 18 12 11 8 4 4v2l-9-2-8-4-17-5-22-5-25-3h-51l-10 25-8 14-9 12-7 7-5 6-4-1-4-11-2-10-10 4-11 5-9 2h-10l3 5 1 16v12l-6 2-5 2-3 9-6 4-3 1h-13l-8-5-5-9-9-4-1-2 1-9 1-12h-12l-19-2-15-4-8-3 2-4 5-5 8-7h2l-3-5-12-11-8-9-13-20v-3l4 2 7 7 17 10 19 7 11 2-1 4-12 15h-2l4 4 26 12-1-5v-10l4-2 29-1h15l8 1 2 7 6-4 8-7h2v-2h2l2-4 10-11 3 1 7 16 2 3 5-2 9-8 8-7 9-10 6-9 2-5-4 2-8 10-9 10-9 9-5 2 4-8 4-7 4-11 4-16 2-21 5-1 9 5 6 3h3l3-9-13-2-5-1-25-1h-18l-8 19-14 40-5 8-1 1h-33l-23-1-5-6-7-26-6-16-9-20-7-15-3-11v-19l4-13 7-13 11-13 12-8 15-6 7-2h18l13 3 16 8 10 8 7 8 6 10 6 19v20l21-5 14-1-3-9-8-12-3-4 1-3 23-3-6-16-9-16-8-11-6-7-2-1z" fill="#FFBE13"/>
<path transform="translate(322,334)" d="m0 0 4 2 7 7 17 10 19 7 11 2-1 4-12 15h-2l4 4 26 12-1-5v-10l4-2 29-1h15l8 1 2 7 6-4 8-7h2v-2h2l2-4 10-11 3 1 7 16 2 3 5-2 9-8 8-7 9-10 7-11 3-1 2 4-10 25-8 14-9 12-7 7-5 6-4-1-4-11-2-10-10 4-11 5-9 2h-10l3 5 1 16v12l-6 2-5 2-3 9-6 4-3 1h-13l-8-5-5-9-9-4-1-2 1-9 1-12h-12l-19-2-15-4-8-3 2-4 5-5 8-7h2l-3-5-12-11-8-9-13-20z" fill="#070202"/>
<path transform="translate(266,652)" d="m0 0 5 4 7 11 11 13 11 12 10 10 14 11 16 11 16 9 17 8 6 3-2 4-9 9-13 10-6 4-1 3 4 2 18 13 19 11 21 11 16 7 21 7 14 3 1 3-3 1h-24l-22-2-25-5-19-5-21-7-27-13-21-12-1-3 5-4 12-7 16-10-1-4-8-8-9-11-11-14-13-19-10-19-9-19-5-14z" fill="#FFBE13"/>
<path transform="translate(745,700)" d="m0 0h2l-3 12-8 18-10 18-12 20-12 16-9 11-7 7-7 8-11 11-8 7-7 5h-5l-4-19-5-18v-2l-24 11-26 8-23 5-21 3h-30v-2l35-12 24-11 14-9 17-12 15-13 16-16 4 1 9 23 4 13 4-2 11-7 12-8 17-14 13-12 11-12 10-13 9-11z" fill="#FFBE13"/>
<path transform="translate(256,495)" d="m0 0h2v20l3 24 5 25 7 24 9 20 8 16 6 11v3l-30 2h-11l6 20 10 24 11 22 11 18 12 16 9 10 4 5-1 3-9-6-15-12-11-9-16-15-12-14-13-16-10-15-14-24-8-18-1-6 42 2-4-22-1-14v-36l2-18 6-31z" fill="#D42229"/>
<path transform="translate(365,776)" d="m0 0 6 1 18 6 22 5 23 3h41l27-4 7-1-1 9-9 32h36l29-3 21-4 24-7 20-7-2 4-10 7-16 10-18 10-23 10-30 10-29 6-24 3h-10l1-5 11-26 3-9-14-2-21-5-20-7-27-12-16-9-19-13z" fill="#D42229"/>
<path transform="translate(714,386)" d="m0 0 4 1 6 4 8 8 8 7 12 12 9 11 8 10 18 27 12 22 10 21 4 11-1 4-16-1-26-3 2 9v46l-3 20-5 22-6 21-1 2h-3l-1-27-3-31-5-24-5-16-11-28-1-4h-2l-1-5 7-1h35l-4-15-7-24-8-21-8-16-11-19-10-14z" fill="#FFBE13"/>
<path transform="translate(576,302)" d="m0 0h10l31 4 21 5 21 6 22 9 16 8 15 8 24 16v2l-16 8-17 9-3 2 2 4 12 15 9 13 12 20 8 16 8 20 6 19v5l-5-5-10-15-9-12-12-14-16-16-20-15-14-9-18-10 1-4 9-6 20-14 2-1-2-4-10-9-17-13-11-8-14-8-19-10-29-11-7-3z" fill="#D42229"/>
<path transform="translate(779,535)" d="m0 0h2l4 13 5 22 4 32v34l-3 27-4 22-5 18-3 1-2-1v-2l-4-2-16-15-9-7-2 6-10 15-9 13-11 13-7 8-11 12-10 9-16 12-7 5-2-1 6-9 10-13 11-18 10-19 8-21 6-22 4-20 1-7h4l24 16 5 4h3l8-19 6-19 4-17 4-25 1-9v-35z" fill="#D42229"/>
<path transform="translate(561,538)" d="m0 0h11l-2 4-10 14-13 15-12 14-10 11-11 14-4 5-3-4-2-12v-9l3-13 8-16 8-9 11-7 13-5z" fill="#FEFEFD"/>
<path transform="translate(444,153)" d="m0 0h20l21 3 16 5 14 5v3l-8 7-9 7 1 4 6 5 9 11 10 15 6 12-1 3-6-5-5-5-12-9-14-8-19-7v-3l3-1 2-4 8-8 2-1 1-3-4-2-19-10-20-7-12-3 1-3z" fill="#D42229"/>
<path transform="translate(307,263)" d="m0 0 3 1 5 19 7 16 8 12 7 9v3l-16 4-6 1 4 11 9 15 8 10 11 11 1 4-5-2-18-10-16-13-12-12-10-14-1-4 16-2h8l-4-22v-26z" fill="#D42229"/>
<path transform="translate(340,161)" d="m0 0h2l8 20 3 1 15-8 21-7 12-2h5l-5 5-13 8-10 9-6 5-13 17-2 1-10-17-4-3-20 20-11 17-5 10h-1l1-11 5-19 11-23 8-12 8-10z" fill="#D42229"/>
<path transform="translate(340,198)" d="m0 0 1 3-5 11-4 13-2 13-1 26-18-8-5-1-3 16-1 22 3 21-2 1-8-16-6-16-4-22v-27l5 1 9 6 8 4h2l1-6 10-18 10-13z" fill="#D4222A"/>
<path transform="translate(423,136)" d="m0 0h7l-5 17-1 6 20 4 23 8 13 7v1l-13-1h-23l-16 3-13 4h-2l1-15 2-10-27 4-18 5-14 6-2-1 15-13 13-9 15-8 21-7z" fill="#D4222A"/>
<path transform="translate(534,340)" d="m0 0 3 4-10 25-8 14-9 12-7 7-5 6-4-1-4-11-2-10-10 4-11 5-9 2h-10l2-2 2-8 6-4 8-7h2v-2h2l2-4 10-11 3 1 7 16 2 3 5-2 9-8 8-7 9-10 7-11z" fill="#D42229"/>
<path transform="translate(322,334)" d="m0 0 4 2 7 7 17 10 19 7 11 2-1 4-12 15h-2l4 4 26 12v10h-12l-19-2-15-4-8-3 2-4 5-5 8-7h2l-3-5-12-11-8-9-13-20z" fill="#D42229"/>
<path transform="translate(506,187)" d="m0 0 6 2 12 7 14 12 12 13 11 16 4 7v3l-24 1 2 21-2 2h-13l-7-14-8-11 1-3 23-3-6-16-9-16-8-11-6-7-2-1z" fill="#D42229"/>
<path transform="translate(517,307)" d="m0 0 6 1 7 4 8 4-1 8-8 16-8 10-9 10-9 9-5 2 4-8 4-7 4-11 4-16 2-21z" fill="#D42329"/>
<path transform="translate(483,283)" d="m0 0h2l-2 9-3 6-5 3-20 3-19 2v-2l16-8 17-8z" fill="#FEFEFD"/>
<path transform="translate(545,256)" d="m0 0 4 2 3 10-4 1-3-10z" fill="#D42529"/>
</svg>
