<?xml version="1.0" encoding="UTF-8"?>
<svg version="1.1" viewBox="0 0 1000 1000" width="1280" height="1280" xmlns="http://www.w3.org/2000/svg">
<path transform="translate(0)" d="m0 0h1e3v1e3h-1e3z" fill="#FDFDFC"/>
<path transform="translate(237,358)" d="m0 0 13 1 12 4 10 6 8 8 8 16 2 13v82l8-7 76-76 13-10 14-8 14-5 16-3h10l17 3 7 3-6 7-9 11-7 7-7 8-10 11-9 11-9 9-9 11-12 13-7 8-9 10-2 5 10 8 15 13 11 9 17 14 13 11 14 11 10 8 7 8-2 3-17 2h-21l-16-3-17-6-15-9-14-10-30-21-5 5-13 14-9 11-8 8-7 8-4 3-14-1-10-3-11-7-9-10-5-10-2-7-1-8v-164z" fill="#156F27"/>
<path transform="translate(431,379)" d="m0 0h10l17 3 7 3-6 7-9 11-7 7-7 8-10 11-9 11-9 9-9 11-11 12h-2l-2 2v-2h-4-2v2l-6 1v2l-8 3v-4l-5-2v-2l-5-4-4-9-4-4 2-9 3-7h-2l1-6 2-6 22-22 13-10 14-8 14-5z" fill="#277B28"/>
<path transform="translate(381,507)" d="m0 0 5 3 14 12 22 18 13 11 14 11 10 8 7 8-2 3-17 2h-21l-16-3-17-6-15-9-14-10-20-14-6-4 4-5 26-16 11-7h2z" fill="#7FA22D"/>
<path transform="translate(237,358)" d="m0 0 13 1 12 4 10 6 8 8 8 16 2 13 1 83h-2l-1-51-1-14-3 16-3 8-4 6-7 1-4-2-7-2-9-6-3-7-2-5-1-4v-3h-2l-3-4-1 35-1 80h-1v-164z" fill="#2C7D28"/>
<path transform="translate(431,379)" d="m0 0h10l17 3 7 3-6 7-9 11-7 7-7 8-6 7-2-1v-2l-9 1-7 1-3-8-5-5-5-4-2-6 1-2h2l1-7-6 2h-5l5-4 16-7z" fill="#7EA22D"/>
<path transform="translate(417,540)" d="m0 0 6 1 17 14 17 13 8 8 1 3-2 2-17 2h-21l-16-3-12-4-4-3-8-5 8-2v-2l10-7 4-6h2l2-5 4-4z" fill="#DED840"/>
<path transform="translate(486,488)" d="m0 0h4l-1 7-7 10-2 6 1 9 4 7 7 6 5 2h12l9-5 6-9v-13l-9-18v-2l5 1 6 5 6 9 2 6v13l-4 9-8 9-10 5-11 1-10-2-10-6-6-8-3-5-2-13 3-9 6-9z" fill="#257728"/>
<path transform="translate(557,407)" d="m0 0 4 2 1 54-4 1-3-5-6 4h-12l-5-3-4-6-1-3v-10l3-8 6-5 3-1h8l8 3v-21z" fill="#2A7928"/>
<path transform="translate(581,504)" d="m0 0h7l8 4 5 10v6l-1 1-8 1h-10l-8-2 2 9 6 2h7l7-2h4l-1 5-6 3-9 1-10-3-5-6-2-4v-12l4-7 5-4z" fill="#267728"/>
<path transform="translate(497,427)" d="m0 0h7l7 3 4 5 1 2 1 26-4 1-2-5-7 4-9 1-6-3-4-6 1-9 4-3 3-1h16l2 1-3-7-4-3h-8l-4 2-4-1-1-4z" fill="#297928"/>
<path transform="translate(672,427)" d="m0 0 10 1 5 4 2 5 1 8v18l-5-1v-2l-7 3-8 1-6-2-4-4-1-2v-8l5-5 12-2 7 2-1-7-5-3h-8l-7 2-1-3 2-3z" fill="#277728"/>
<path transform="translate(656,494)" d="m0 0 4 2v9h11l1 5-2 1-9 1v18l2 4h7l5-1-1 6-4 2h-10l-5-4-2-4-1-21-5-3v-4l6-2 1-8z" fill="#257728"/>
<path transform="translate(573,427)" d="m0 0h5l1 1v17l2 10 5 3 8-2 3-2 1-4v-22l5-1 1 1 1 35-4 1-2-5-6 4-9 1-5-2-5-6-1-3z" fill="#227527"/>
<path transform="translate(541,432)" d="m0 0h6l7 4 1 2v14l-7 6h-8l-6-5-1-2v-11l3-5z" fill="#FEFEFD"/>
<path transform="translate(617,427)" d="m0 0h4l1 5 10-5h7l5 3 3 4 1 3 1 26-5 1-2-1v-17l-1-9-3-4h-7l-7 4-1 3v23l-5 1-1-1z" fill="#207427"/>
<path transform="translate(621,505)" d="m0 0h14l5 2v6l-6-1-2-1h-7l-5 1-2 5-1 1v10l3 5 2 1h12l5-2 1 1v5l-5 3h-13l-8-4-4-7-1-2v-9l3-8 6-5z" fill="#247627"/>
<path transform="translate(750,504)" d="m0 0 10 2 4 3v4l-7-1-2-1h-7l-5 3-3 6 1 9 4 5 9 1 6-2h4l-1 5-6 3h-12l-6-3-5-6-2-6 1-10 4-6 5-4z" fill="#217527"/>
<path transform="translate(548,485)" d="m0 0 7 2v30l1 16 4 5v4l-7-1-5-5-1-4v-46z" fill="#297828"/>
<path transform="translate(497,479)" d="m0 0h9l2 2v35l-1 1h-8l-2-3z" fill="#81A42D"/>
<path transform="translate(485,623)" d="m0 0 8 1 5 4 2 5-1 9-4 4-7 1-6-2-1-1-1-10 2-9z" fill="#327D28"/>
<path transform="translate(683,504)" d="m0 0 5 1 1 3 4-1 4-2h9v5l-1 1-10 2-5 2v26l-1 1h-6l-1-3z" fill="#247627"/>
<path transform="translate(715,504)" d="m0 0 6 1v36l-1 1h-5l-1-1v-36z" fill="#287828"/>
<path transform="translate(486,488)" d="m0 0h4l-1 7-7 10-2 6 1 12-2-2-3-9-1 1-3 1v7h-1l-1-9 3-9 6-9z" fill="#87A72E"/>
<path transform="translate(711,629)" d="m0 0 6 2 5 6 1 6-8 3-5 4-5-1 2-16z" fill="#398029"/>
<path transform="translate(668,446)" d="m0 0h15l1 1v6l-5 5-3 1h-7l-5-5v-5z" fill="#FEFEFD"/>
<path transform="translate(283,623)" d="m0 0 2 1-1 19-4 4-7-1-2-3v-7l3-5 5-2h3v-5z" fill="#418429"/>
<path transform="translate(495,446)" d="m0 0h13l3 2-1 5-5 5-3 1h-7l-4-4v-7z" fill="#FEFEFD"/>
<path transform="translate(612,629)" d="m0 0 5 2 3 5v6l-5 5h-6l-3-4v-10z" fill="#347E28"/>
<path transform="translate(450,628)" d="m0 0 7 1 5 4 3 6 1 1 3-10h3l-1 8-5 10-5 2 1-8-6-11-3-1 1 11 1 6-5-1-1-4v-12z" fill="#398029"/>
<path transform="translate(372,630)" d="m0 0 6 1 5 8-6 8h-7l-2-3v-7l2-6z" fill="#357E28"/>
<path transform="translate(671,629)" d="m0 0 4 1 4 5v6l-5 6h-5l-4-4v-8z" fill="#2E7B28"/>
<path transform="translate(252,623)" d="m0 0 1 3-6 7 1 4 6 7v2l-6-1-4-8-3-1-1 8-1 2h-4l1-6 2-6-2-4v-5l4-1 1 7 4 1 2-5z" fill="#337E28"/>
<path transform="translate(325,629)" d="m0 0 5 1 2 2 1 5v8l-6 2h-5l-2-4 2-3 2-10z" fill="#3C8229"/>
<path transform="translate(487,626)" d="m0 0 6 2 3 3 1 5-3 5-3 2h-5l-2-2v-11z" fill="#FEFEFD"/>
<path transform="translate(583,509)" d="m0 0 7 2 4 5 1 4-7 1-14-1 1-5 6-5z" fill="#FEFEFD"/>
<path transform="translate(652,624)" d="m0 0h7l3 3-1 4-3-3h-6l-3 4v6l4 4 6-1h3l-2 5-6 1-7-3-3-7 1-7 4-5z" fill="#2C7A28"/>
<path transform="translate(552,624)" d="m0 0h5l2 3-1 4v11h6l-2-9h-2v-3l5 1 2 2v10l-3 3-6 1-4-5-1-6 1-10z" fill="#317C28"/>
<path transform="translate(262,629)" d="m0 0 4 2 1 2v10l-4 3h-8l3-14z" fill="#4F8B2A"/>
<path transform="translate(515,488)" d="m0 0 5 1 6 5 5 7-1 2-2-1-1 5v10h-2l-1-9-9-18z" fill="#89A82F"/>
<path transform="translate(349,623)" d="m0 0 7 1-2 2-7 2 1 14 4 1 3-1-2 5h-8l-3-5v-14l3-4z" fill="#357E28"/>
<path transform="translate(431,630)" d="m0 0h5l1 2-4 2-1 5 1 4 5 1 2-2-1-8-1-3 5 1 1 11-3 3-10 1-3-5v-8z" fill="#388029"/>
<path transform="translate(685,629)" d="m0 0 4 1 4 2 1 3v11h-5l1-11-4-3v9l-2 5h-3l1-13z" fill="#337E28"/>
<path transform="translate(572,630)" d="m0 0h2l2 13h3l1-2v-10l4 1v11l-4 4h-6l-3-7v-9z" fill="#357E28"/>
<path transform="translate(309,629)" d="m0 0 5 1 3 4v10l-2 2h-3l1-4v-7l-1-2-3-1-2 13-3 1 1-13z" fill="#408429"/>
<path transform="translate(627,629)" d="m0 0 6 1 2 2 1 4v10h-3l-1-14h-4l-1 12-3 2-1-5 2-10z" fill="#3B8129"/>
<path transform="translate(298,630)" d="m0 0 3 1-1 12-4 4h-5l-3-4v-12l4 1v12l4-2 1-8z" fill="#3E8329"/>
<path transform="translate(543,567)" d="m0 0 4 1 3 9v5l-3 2-5-1z" fill="#BFCE7D"/>
<path transform="translate(728,629)" d="m0 0 3 1 4 6v6h-3v-8h-2v12l-3 2-2-1 2-12-1-5z" fill="#3E8229"/>
<path transform="translate(397,627)" d="m0 0 5 1v17l3 1v1h-6l-2-3z" fill="#347E28"/>
<path transform="translate(763,631)" d="m0 0 4 1-4 7-3 10-5 1 1-4 1-9v-3l4 2z" fill="#337D28"/>
<path transform="translate(524,626)" d="m0 0 4 1 1 4v13 3l-4-1-1-4z" fill="#408329"/>
<path transform="translate(741,629)" d="m0 0 4 1 3 4-1 4-5-5-2 13h-4l2-13z" fill="#3F8329"/>
<path transform="translate(513,629)" d="m0 0h3l3 11-1 6-6 1 2-6-2-11z" fill="#337D28"/>
<path transform="translate(588,626)" d="m0 0 4 1 1 6v14l-4-1z" fill="#2C7A28"/>
<path transform="translate(715,488)" d="m0 0 6 1 1 4-1 5h-6l-2-2v-7z" fill="#317C28"/>
<path transform="translate(711,633)" d="m0 0 5 1 3 5v2h-3l-4 4-3-1 1-10z" fill="#FEFEFD"/>
<path transform="translate(358,624)" d="m0 0 5 1 1 2v16l-2 3-3-1 1-2v-13z" fill="#4D8A2A"/>
<path transform="translate(503,623)" d="m0 0h4l1 19v4h-3l-1-2z" fill="#578F2A"/>
<path transform="translate(612,632)" d="m0 0 4 2 1 7-3 3-4-1-1-7z" fill="#FEFEFD"/>
<path transform="translate(469,630)" d="m0 0h3l-1 8-5 10-5 2 2-8h3z" fill="#2C7A28"/>
<path transform="translate(600,622)" d="m0 0h2v22l-3 3-3-1 2-4v-10l1-9z" fill="#388029"/>
<path transform="translate(537,630)" d="m0 0 5 1-1 3-2 1-1 11h-6l2-4v-10z" fill="#317C28"/>
<path transform="translate(549,623)" d="m0 0 2 2-2 6 1 14h-4v-17l1-4z" fill="#317D28"/>
<path transform="translate(419,624)" d="m0 0h4v21l-5 1 1-3 1-15z" fill="#2F7C28"/>
<path transform="translate(559,630)" d="m0 0 1 3h2l2 3v6l-6 1-1-1v-10z" fill="#FEFEFD"/>
<path transform="translate(373,632)" d="m0 0 4 1 2 8-4 4-3-1v-9z" fill="#FEFEFD"/>
<path transform="translate(386,629)" d="m0 0 4 1-1 4v8l2 5h-5l-1-7-1-9z" fill="#247627"/>
<path transform="translate(277,632)" d="m0 0h4v10l-1 1h-5l-1-4z" fill="#FEFEFD"/>
<path transform="translate(438,631)" d="m0 0 5 1 1 11-3 3-10 1v-1l7-2 2-2-1-8z" fill="#478729"/>
<path transform="translate(670,633)" d="m0 0 5 1 1 6-5 3h-2l-1-5z" fill="#FEFEFD"/>
<path transform="translate(411,629)" d="m0 0 4 2v2l-3 3-1 8-5 1 3-13z" fill="#2D7B28"/>
<path transform="translate(688,631)" d="m0 0 5 1 1 3v11h-5l1-11z" fill="#398029"/>
<path transform="translate(372,630)" d="m0 0 6 1 5 8-6 8h-2v-3l3-3-2-8z" fill="#3E8329"/>
<path transform="translate(312,630)" d="m0 0 4 2 1 2v10l-2 2h-3l1-4v-7l-3-4z" fill="#367F28"/>
<path transform="translate(752,630)" d="m0 0 3 1 1 3-2 1-2 10-4 1 2-9z" fill="#347E28"/>
<path transform="translate(620,569)" d="m0 0h4l-1 4-2 5v3l3-7h1v6l-3 4h-3l-1-4z" fill="#A0B534"/>
<path transform="translate(528,501)" d="m0 0 4 2 1 6-2 2h-3l-1 4-1-11z" fill="#2C7E28"/>
<path transform="translate(580,631)" d="m0 0 4 1v11l-2 3-4-1 2-4z" fill="#3C8229"/>
<path transform="translate(326,631)" d="m0 0 3 3v10l-4 1-1-3 1-10z" fill="#FEFEFD"/>
<path transform="translate(263,630)" d="m0 0 3 1 1 2v10l-2 2h-4l2-4z" fill="#277828"/>
<path transform="translate(695,630)" d="m0 0h5l2 6v8h-4v-11l-3-1z" fill="#327D28"/>
<path transform="translate(261,632)" d="m0 0 3 1v8l-5 4 1-12z" fill="#FEFEFD"/>
<path transform="translate(475,511)" d="m0 0 2 1 2 8-4-1-1 7-2-1v-11z" fill="#318028"/>
<path transform="translate(288,631)" d="m0 0 4 1v10l2 4-5-1-1-5z" fill="#357E28"/>
<path transform="translate(453,628)" d="m0 0 7 3 3 4 3 7h-4l-6-11-3-1z" fill="#3C8229"/>
<path transform="translate(283,623)" d="m0 0 2 1-1 13-2 3-1-9-3-1 4-1v-5z" fill="#357E28"/>
<path transform="translate(609,570)" d="m0 0 3 2v10l-3 2-4-1 3-3z" fill="#9AB132"/>
<path transform="translate(497,479)" d="m0 0h7l1 2-5 2v3h-2v12h-1z" fill="#DFD941"/>
<path transform="translate(632,631)" d="m0 0 3 1 1 4v10h-3z" fill="#297828"/>
<path transform="translate(563,572)" d="m0 0 3 2v6l-2 3h-5l3-5z" fill="#84A731"/>
<path transform="translate(633,569)" d="m0 0h2l-1 3v12l-4-1 1-12z" fill="#A0B534"/>
<path transform="translate(583,567)" d="m0 0h2v16l-3 1v-4l1-7-1-5z" fill="#63962D"/>
<path transform="translate(505,632)" d="m0 0h2l1 5v9h-3z" fill="#2A7928"/>
<path transform="translate(571,569)" d="m0 0h2l1 6v8h-4z" fill="#80A32E"/>
<path transform="translate(547,571)" d="m0 0 2 2 1 9-3 2-3-1 2-2z" fill="#86A72E"/>
<path transform="translate(352,631)" d="m0 0 3 1-1 7-4-1-1-4z" fill="#62942B"/>
<path transform="translate(469,630)" d="m0 0h3l-1 8-2 2h-2z" fill="#3A8129"/>
<path transform="translate(386,629)" d="m0 0 4 1-2 11h-1v-6h-2l-1-4z" fill="#448629"/>
<path transform="translate(362,634)" d="m0 0h2v9l-2 3-3-1 2-5z" fill="#267728"/>
<path transform="translate(516,571)" d="m0 0h2v8l-2 4-4-1 3-4z" fill="#5A912B"/>
<path transform="translate(601,570)" d="m0 0h2l-2 10-1 3h-2l1-9z" fill="#9BB233"/>
<path transform="translate(527,573)" d="m0 0h3l1 5-2 4-4 1v-2h2z" fill="#7FA430"/>
<path transform="translate(324,635)" d="m0 0h1v11h-4l-1-3z" fill="#2E7B28"/>
<path transform="translate(419,624)" d="m0 0h4v11l-3-1v-6z" fill="#478729"/>
<path transform="translate(507,572)" d="m0 0 3 1v6l-2 4h-2z" fill="#5D922B"/>
<path transform="translate(552,624)" d="m0 0h5l2 3-1 4-4 1v-6z" fill="#49882A"/>
<path transform="translate(549,623)" d="m0 0 2 2-4 10h-1v-7l1-4z" fill="#428429"/>
<path transform="translate(591,570)" d="m0 0 2 4-1 9-2 1v-13z" fill="#5E942D"/>
<path transform="translate(500,572)" d="m0 0h2l-1 9-4 3-2-1 4-5z" fill="#85A62E"/>
<path transform="translate(557,569)" d="m0 0 1 3-2 11h-2l1-11z" fill="#8FAC30"/>
<path transform="translate(657,571)" d="m0 0 2 1v10l-5 1 2-2v-9z" fill="#85A62E"/>
<path transform="translate(655,624)" d="m0 0 6 1 1 6-4-3-4-1z" fill="#398029"/>
<path transform="translate(535,571)" d="m0 0h2v9l-1 3-3-1z" fill="#65962C"/>
</svg>
