<?xml version="1.0" encoding="UTF-8"?>
<svg version="1.1" viewBox="0 0 1000 1000" width="1280" height="1280" xmlns="http://www.w3.org/2000/svg">
<path transform="translate(0)" d="m0 0h1e3v1e3h-1e3z" fill="#FDFDFD"/>
<path transform="translate(500,155)" d="m0 0h13l26 2 25 5 20 6 24 10 25 13 15 10 14 11 13 11 10 9 11 12 11 14 10 14 10 17 8 16 9 21 8 27 5 26 2 25v20l-2 23-5 25-5 19-10 25-8 16-10 18-12 17-8 10-11 13-16 16-10 8-15 11-15 9-23 12-16 7-24 8-28 6-27 3h-29l-31-4-25-6-21-7-21-9-17-9-14-9-14-10-15-13-23-23-13-17-10-15-13-23-11-27-7-22-4-18-3-21-1-21v-16l2-24 5-25 7-24 11-25 8-15 12-19 8-11 10-13 18-20 11-9h3l12 36 16 49 28 86 12 35 9 29 13-5 36-18 53-28 8-4h3v49l-1 183-1 12h3l1-9 15-48 10-31 14-46 13-43 10-32 9-29 16-53 11-37 7-22 6-19v-2l-9 3-58 27-12 6-23 11-21 10-15 7-3-2-8-24-25-86-16-57 1-4 15-2z" fill="#D42E27"/>
<path transform="translate(500,155)" d="m0 0h13l26 2 25 5 20 6 24 10 25 13 15 10 14 11 13 11 10 9 11 12 11 14 10 14 10 17 8 16 9 21 8 27 5 26 2 25v20l-2 23-5 25-5 19-10 25-8 16-10 18-12 17-8 10-11 13-16 16-10 8-15 11-9 5-4-1v2l-5 1-3-2v2h-10v-4l6-5 1-2h2l1-4-4 1-3 1v2l-6 4v2h-2l-1 2-1-3-2-2 3-3-4-2-5-3-2-10-2-4 5-3 2 1v-2h2v-2h-2l-1-7v-3l-1-2 4-6 1-4-1-2-6 4h-2v-2l-3 1 1-3h2v-2h2l-1-6-2-2 3-1-2-7-3-1-3 3-2-5-2-1v-2h-2l-5-7 1-2-2-2 1-3-1-1-1-2-5 1-4-2 2-14h2l-1-3 1-3h2l1-15 3-6-1-8 2-3v-3h2l-1-4 4-8 3-10h2l2-13 2-4 2-3-2-1 3-9h2l-1-4 4-17 4-14 5-19 6-19 4-15 3-12 1-8 8-26 6-19v-2l-9 3-58 27-12 6-23 11-21 10-15 7-3-2-8-24-25-86-16-57 1-4 15-2z" fill="#E36A29"/>
<path transform="translate(637,266)" d="m0 0 5 1 1 3-2 3-1 10h-2l-2 9-5 17v6l-3 8v8l-2 1-4 15-1 4h-2l1 4-2 4v9l-2 5-5 21v7l-2 6h2l1-4 2-7 4-10 2-1 1 3h2l3 6 4 4 4 2-1 4-4-1v2h2v6h2v7l3 1v-2l4-1 5 8 2 1v8l2 1v2l2 1v10l2 7 3 2v2h2v8l-4 1v2l5-1 1-3 3 1 1 2v12l4 6 5 3 3 6 4 3 2 6 2 1v4l1 4h3v2l4 1 3 6 3 2v6h2v2l3-1 4 2 6-13h1v13l-2 1-3 12-2 6-3 2-3 13 1 2h-6l-2 5-1 2h-2l-2 9 5-5 7-8v3l-8 9-7 8-14 14-10 8-15 11-9 5-4-1v2l-5 1-3-2v2h-10v-4l6-5 1-2h2l1-4-4 1-3 1v2l-6 4v2h-2l-1 2-1-3-2-2 3-3-4-2-5-3-2-10-2-4 5-3 2 1v-2h2v-2h-2l-1-7v-3l-1-2 4-6 1-4-1-2-6 4h-2v-2l-3 1 1-3h2v-2h2l-1-6-2-2 3-1-2-7-3-1-3 3-2-5-2-1v-2h-2l-5-7 1-2-2-2 1-3-1-1-1-2-5 1-4-2 2-14h2l-1-3 1-3h2l1-15 3-6-1-8 2-3v-3h2l-1-4 4-8 3-10h2l2-13 2-4 2-3-2-1 3-9h2l-1-4 4-17 4-14 5-19 6-19 4-15 3-12 1-8 8-26 6-19v-2l-4-1z" fill="#DF5A28"/>
<path transform="translate(500,155)" d="m0 0h13l26 2 25 5 4 2-9-1-9-2-15-2h-19l7 1 8-1-2 1 2 1h8l1 2-1 1 2 4-4 2-7-1v2l3 5 13 4 2 4v8l6-2 4 6 3 3 1 8h-4v2l-4-1-3-4-4 1-2-1 3 3 3 2v6l4 2 3 5 3 2 4-3 2 3h-2l1 6 1 4h2l3 9-1 2 5 1v8l2 5v11l4 1 4-2 2 1v8l4 1-8 4v1h5l3-4 4 1v2l6-1 5-1-4 3-30 14-12 6-23 11-21 10-15 7-3-2-8-24-25-86-16-57 1-4 15-2z" fill="#DF5A28"/>
<path transform="translate(511,714)" d="m0 0h65l14 2 10 4 9 7 6 7 7 14 3 12 1 7v26l-3 14-5 12-9 11-8 6-11 4-16 3h-62l-1-28z" fill="#211D54"/>
<path transform="translate(384,714)" d="m0 0h103v14l-1 16h-63l1 15 58 1v30h-59l1 23 65 1v28l-1 1h-104z" fill="#241D53"/>
<path transform="translate(694,712)" d="m0 0h26l16 4 9 5 8 7 7 11 5 9v4l-17 5-17 4-7-13-8-5-4-1h-10l-10 5-6 9-3 11v23l3 12 5 9 7 4h14l9-4 6-10 2-5 2-7 33 11 1 5-7 16-6 8-7 7-14 7-15 3h-17l-16-3-12-5-8-6-8-9-6-11-4-10-2-10v-28l4-16 6-12 9-10 10-7 8-4z" fill="#201D54"/>
<path transform="translate(240,714)" d="m0 0h45l12 21 10 18v2h2l2-5 9-16 11-20h45l-5 10-8 12-12 19-11 17-11 16-1 4v50l-1 1h-38l-1-51-3-7-10-15-15-24-20-30z" fill="#201D54"/>
<path transform="translate(551,743)" d="m0 0 15 1 11 4 6 7 3 9 1 19-2 16-5 9-5 4-7 2h-17l-1-1v-69z" fill="#FDFDFD"/>
<path transform="translate(459,158)" d="m0 0h7l1 2-7 2-2 8v11l2 3 2 12 2 3 2 11 3 6v3h2l3 9 2 1 10 34-1 4-1-1v3h2v2h2l3 9 5 17v6l1 4 2 15 1 3h2l2 6-3 1-3-5-7-21-25-86-16-57 1-4z" fill="#D53227"/>
<path transform="translate(663,214)" d="m0 0 4 2 15 13 7 7 9 11 10 12 14 21 11 20 11 26 8 27 5 26 1 16h-1l-4-27-3-5-1-11-1-4h-2l-2-13-3-5-2-9-3-8-2-1-1-8h-3l-1-8-4-1-7-14-4-6-4-7-4-5-4-8-2-1v-2l-4-2-1-4h-2l-3-3-1-3-2-1-1-3-7-6v-2l-4-2-5-4v-2l-4-2z" fill="#DD5128"/>
<path transform="translate(459,158)" d="m0 0h7l1 2-7 2-2 8v11l2 3 2 12 2 3 1 7v7l-2-4-13-46 1-4z" fill="#D53227"/>
<path transform="translate(737,314)" d="m0 0h2l8 21 6 23 4 21 1 16h-1l-4-27-3-5-1-11-1-4h-2l-2-13-3-5-2-9z" fill="#E05B29"/>
<path transform="translate(624,321)" d="m0 0h2l-2 12-4 12-6 21-3 9-3 1 3-12 11-36z" fill="#D63627"/>
<path transform="translate(718,276)" d="m0 0 4 4 11 20 5 11-1 3-3-2-1-8h-3l-1-8-4-1-5-11z" fill="#DB4B28"/>
<path transform="translate(626,323)" d="m0 0 2 4v4l-2 1-4 15-1 4h-2l1 4-3 5-1-3 9-33z" fill="#E05B29"/>
<path transform="translate(663,214)" d="m0 0 4 2 15 13 7 7 7 8-3 2-3-3-1-3-2-1-1-3-7-6v-2l-4-2-5-4v-2l-4-2z" fill="#DF5828"/>
<path transform="translate(456,180)" d="m0 0 4 4 2 12 2 3 1 7v7l-2-4-7-25z" fill="#D63727"/>
<path transform="translate(624,321)" d="m0 0h2l-2 12-3 9-3 1 3-11z" fill="#D83D27"/>
<path transform="translate(629,309)" d="m0 0 2 4-2 7-1 3h-2l-1-5 3-8z" fill="#DF5728"/>
<path transform="translate(694,245)" d="m0 0 4 2 8 10-1 2-5-5v-2l-4-2z" fill="#DA4528"/>
<path transform="translate(459,158)" d="m0 0h7l1 2-9 2-7-2v-1z" fill="#D94227"/>
<path transform="translate(712,269)" d="m0 0 5 3 2 4 1 6-4-3-4-8z" fill="#E05B29"/>
<path transform="translate(461,196)" d="m0 0 3 3 1 7v7l-2-4-2-7z" fill="#D73C27"/>
<path transform="translate(497,322)" d="m0 0 3 1v2h2l2 6-3 1-3-5z" fill="#D63627"/>
</svg>
