<?xml version="1.0" encoding="UTF-8"?>
<svg version="1.1" viewBox="0 0 1000 1000" width="1280" height="1280" xmlns="http://www.w3.org/2000/svg">
<path transform="translate(0)" d="m0 0h1e3v1e3h-1e3z" fill="#020101"/>
<path transform="translate(0)" d="m0 0h1e3v1e3h-1e3zm464 50-28 3-25 4-26 6-35 11-28 11-28 13-18 10-21 13-12 8-15 11-14 11-14 12-13 12-22 22-9 11-11 13-13 18-16 24-10 17-14 27-9 20-10 27-6 19-7 26-6 30-3 21-1 10-1 28v23l2 33 4 30 6 30 8 30 9 26 11 26 12 25 10 18 13 20 14 20 14 18 12 14 7 7 7 8 8 8 8 7 14 13 14 11 17 13 15 10 18 11 18 10 15 8 28 12 28 10 28 8 28 6 40 6 15 1h54l24-2 33-5 31-7 27-8 23-8 26-11 24-12 27-16 18-12 11-8 14-11 14-12 15-14 10-9 7-8 12-13 9-11 13-17 12-17 12-19 10-18 8-16 10-21 10-27 9-29 7-30 5-30 3-31v-53l-2-30-3-19-7-34-8-28-10-29-11-25-9-19-10-18-13-21-12-17-9-12-8-10-9-11-14-15-19-19-8-7-13-11-17-13-14-10-19-12-22-13-16-8-24-11-24-9-31-10-25-6-23-4-24-3-13-1z" fill="#FDFDFD"/>
<path transform="translate(155,377)" d="m0 0h42l19 2 20 4 21 7 17 9 12 9 7 7 9 13 6 12v3l-2 1h-53l-7-1-5-8-5-6-14-9-13-5-14-3h-29l-16 3-15 6-10 6-10 9-7 8-6 13-3 13v27l3 11 5 12 9 11 8 6 16 8 15 4 14 2h22l21-4 16-7 11-8 7-8 7-12v-4h-62l-5-1v-30l127-1v-9l4-17 7-16 7-11 11-12 9-8 15-9 16-7 16-5 23-4 10-1h40l22 3 19 5 19 7 16 9 13 10 11 11 9 13 6 12 5 16 2 15-1 18-5 18-8 16-7 10-9 10-9 8-18 11-16 7-17 5-24 5-8 1h-40l-17-2-22-5-21-8-16-9-10-8-6-5v-2h-2l-9-12-8-15-5-17-2-7h-2l-7 21-7 16-9 14-9 10-9 8-14 8-24 7-17 3-30 3h-38l-18-3-21-6-16-7-12-7-10-8-10-9-7-10-2-5h-1l-1-21v-23l1-28 3-24 2-13 3-1 4-6 10-9 17-11 14-7 18-6 25-5z" fill="#E91C26"/>
<path transform="translate(616,393)" d="m0 0h56l1 41 67-1h60l6 8 13 22 16 28 14 26 12 21 3 4 6-12 13-23 14-26 13-23 13-24 3-2 19 1 1-3 2 18-2-1-8 16-14 27-9 16-8 16-13 24-8 16-10 19-1 1h-59l-6-8-18-36-10-19-15-29-12-22-3-6h-79v84l9 3 19 3 14 1h65l1 6v24l-23 1h-96l-17-2-13-4-8-5-5-6-2-9z" fill="#028D4B"/>
<path transform="translate(444,412)" d="m0 0h15l20 3 15 6 11 6 10 9 7 9 7 15 3 12 1 15-3 14-5 12-7 11-8 9-11 7-10 5-14 4-13 2h-24l-18-4-16-7-11-9-7-7-6-10-5-12-2-9v-21l4-16 7-13 9-10 8-7 16-8 14-4z" fill="#020101"/>
<path transform="translate(431,377)" d="m0 0h40l22 3 19 5 19 7 16 9 13 10 11 11 9 13 6 12 5 16 2 15-1 18-5 18-8 16-7 10-9 10-9 8-18 11-16 7-9 3h-6l3-3 6-2 2 1v-2l10-4 15-8 6-4 5-5h2v-2h2l1-3 12-12 2-3 2-4 2-3 4-8 1-6 2-5 2-2 1-8h2v-2l-2-1 3-3-3-3v-3h-8l-16 2h-24l-3 9-2 8-4 10-8 13h-2l-2 4-5 5-5 4-16 8-11 3h-4v-2l16-5 12-6 10-8 9-12 6-13 3-10 1-13-2-13-4-13-7-13-9-10-10-7-15-7-11-3-15-2h-15l-18 3-16 6-10 6-10 9-7 9-6 13-3 13v21l3 12 8 16 9 10 12 9 14 6 18 4h35v1l-12 3-19 1-8-1-1-1-14-3-17-8-3-2v-2l-5-2-10-10v-2h-2l-8-16-4-10v-17h-12l-27-3-14-1-9 2h-7l3-2 9-1v-9l4-17 7-16 7-11 11-12 9-8 15-9 16-7 16-5 23-4z" fill="#EF474C"/>
<path transform="translate(155,377)" d="m0 0h42l19 2 20 4 21 7 17 9 12 9 7 7 9 13 6 12v3l-2 1h-53l-7-1-5-8-5-6-14-9-13-5-14-3h-29l-16 3-15 6-10 6-10 9-7 8-6 13-3 13v27l3 11 5 12 9 11 8 6v2l-5-1-5-5-4-3v-2h-2l-8-13-3-11 1-2h-2l-2-21v-12l1-4h2l2-17 2-2 3-4 3-1v-2l-2-1 1-4-10-2-8-2-10-3-10-4h-5l-1 3h-3v-6l7-8 12-9 13-8 12-6 18-6 25-5z" fill="#EF474C"/>
<path transform="translate(663,475)" d="m0 0 5 1 2 1 1 6 2-2v65l9 3 19 3 14 1h65l1 6v24l-23 1h-96l-17-2-13-4-8-5-5-6-2-9v-60l1-15 2-4 32-3z" fill="#028D4B"/>
<path transform="translate(616,393)" d="m0 0h56l1 41 67-1h60l6 8 13 22 3 5-1 3-1-4h-2l-4-7v-2h-2l-3-4h-9l-9 2-31 3-9 2-78 1-1 30h-1l-1-12-2-4-30 2-18 2-1 3-1 15h-1z" fill="#28A167"/>
<path transform="translate(308,492)" d="m0 0 2 1-2 13-6 17-8 16-9 13-12 12-13 8-8 3-4-1 4-3 8-4 4-4 4-1v-2h3l2-4 3-4h2l3-5 2-3h2l2-4 4-5-1-3h2l1-4h2l1-6-1-2 4-1-1-6 2-3-2-1 3-5 4-2 1-5z" fill="#EE3F45"/>
<path transform="translate(52,531)" d="m0 0 4 2 3 8 5 4 5 5 11 9 12 6 5 2 2 2 6 1 5 3 19 6 5 1 4 2 14 1v2l-3 1h-10l-22-5-19-7-15-8-12-9-11-10-7-10z" fill="#EE4146"/>
<path transform="translate(318,510)" d="m0 0 3 4 5 12 6 8v2h2l2 5 2 4h3l1 4 4 2 5 4v2l7 1 1 3 7 3v2l7 1 2 3 6 1 2 4-7-1-16-8-13-9-8-7v-2h-2l-9-12-8-15-2-6z" fill="#EE3F45"/>
<path transform="translate(255,510)" d="m0 0 1 2-3 8-3 3-3 5-3 4h-2v2l-14 10-12 5-15 4-16 2h-14l-7-2v-1l27-1 21-4 16-7 11-8 7-8 8-13z" fill="#EE3C42"/>
<path transform="translate(942,449)" d="m0 0 1 4-10 19-17 33-10 19-12 22-7 14-2 1 2-7 9-17 7-14 10-19 11-21 6-12 6-11 3-7z" fill="#229E63"/>
<path transform="translate(186,477)" d="m0 0h110l3 2h-65l-5 1h-37v2h-3l-2 4z" fill="#EF4247"/>
<path transform="translate(396,534)" d="m0 0 4 2 10 6 17 6 11 2h35v1l-12 3-19 1-8-1-1-1-14-3-17-8-3-2z" fill="#EE3B41"/>
<path transform="translate(533,492)" d="m0 0 1 3-2 8-4 10-8 13h-2l-2 4-5 5-5 4-16 8-11 3h-4v-2l16-5 12-6 10-8 9-12 6-13 3-10z" fill="#EE3F45"/>
<path transform="translate(308,492)" d="m0 0 2 1-2 13-6 17-6 12-1-4 3-7-3-4 4-1-1-6 2-3-2-1 3-5 4-2 1-5z" fill="#EF454B"/>
<path transform="translate(384,575)" d="m0 0 8 1 2 1 17 2 5 3 9 1 3-1 10 1 1 3h-19l-25-5-10-4z" fill="#EE4046"/>
<path transform="translate(97,471)" d="m0 0h1l1 26 3 11 5 12 9 11 8 6v2l-5-1-5-5-4-3v-2h-2l-8-13-3-11 1-2h-2z" fill="#EE3D43"/>
<path transform="translate(766,486)" d="m0 0 3 3 12 23 11 20 11 23 6 12-2 1-15-30-10-19-15-29z" fill="#209D61"/>
<path transform="translate(208,548)" d="m0 0h5v2l-18 4-10 1h-14l-7-2v-1l27-1z" fill="#ED3B41"/>
<path transform="translate(186,477)" d="m0 0h50l-2 2-5 1h-37v2h-3l-2 4z" fill="#F0484D"/>
<path transform="translate(98,462)" d="m0 0h1v8l-1 1-1 26-2-4-1-12v-12l1-4h2z" fill="#EF454B"/>
<path transform="translate(186,488)" d="m0 0h2v10l4 2v2l4 2 2 3h-12z" fill="#EF474C"/>
<path transform="translate(903,525)" d="m0 0 1 3-10 18-7 14-2 1 2-7 9-17 6-11z" fill="#209D61"/>
<path transform="translate(236,534)" d="m0 0 2 1-4 5-12 7-9 2-1-2 16-7z" fill="#EE3D43"/>
<path transform="translate(97,471)" d="m0 0h1l1 26 3 11v3l-4-2-1-5 1-2h-2z" fill="#EB2E36"/>
<path transform="translate(497,540)" d="m0 0 2 1-4 4-16 5h-4v-2l16-5z" fill="#ED3A41"/>
<path transform="translate(246,574)" d="m0 0v3l-10 3h-9v-2l5-2h8z" fill="#EE4046"/>
<path transform="translate(297,522)" d="m0 0 2 3-5 11-3 1-1-5h2l1-4h2l1-5z" fill="#EF474C"/>
<path transform="translate(208,548)" d="m0 0h5v2l-12 3-10-1v-1z" fill="#EC333B"/>
<path transform="translate(427,582)" d="m0 0 11 1 1 3h-19v-1l6-2z" fill="#EE3D43"/>
<path transform="translate(832,489)" d="m0 0h2l9 17-1 3-10-18z" fill="#209D61"/>
<path transform="translate(248,524)" d="m0 0v3l-4 5h-2v2l-5 4-2-1 8-9z" fill="#EE4046"/>
<path transform="translate(301,520)" d="m0 0 1 3-6 12-1-4 3-7 1-3z" fill="#E91C26"/>
<path transform="translate(942,449)" d="m0 0 1 4-4 8-2-1 1-6z" fill="#239F64"/>
<path transform="translate(909,513)" d="m0 0 1 3-5 10-2-1 2-6z" fill="#219D62"/>
<path transform="translate(384,575)" d="m0 0 8 1 3 2v2l-9-2z" fill="#EE3D43"/>
<path transform="translate(236,534)" d="m0 0 2 1-4 5-6 4-2-1v-2l9-6z" fill="#ED3A40"/>
<path transform="translate(533,492)" d="m0 0 1 3-2 8-3 1 2-10z" fill="#EE4046"/>
<path transform="translate(892,546)" d="m0 0 1 3-7 12-1-2 6-12z" fill="#1E9C60"/>
<path transform="translate(396,534)" d="m0 0 4 2 6 4-1 2-4-1-2-1z" fill="#EC333B"/>
<path transform="translate(306,507)" d="m0 0 1 3-4 10h-1v-8z" fill="#E91C26"/>
</svg>
