<?xml version="1.0" encoding="UTF-8"?>
<svg version="1.1" viewBox="0 0 1000 1000" width="1280" height="1280" xmlns="http://www.w3.org/2000/svg">
<path transform="translate(0)" d="m0 0h1e3v1e3h-1e3z" fill="#102111"/>
<path transform="translate(0)" d="m0 0h1e3v1e3h-1e3zm463 50-35 4-31 6-25 7-33 11-26 11-21 10-24 14-18 11-17 12-14 11-11 9-14 12-30 30-9 11-11 13-13 18-10 15-13 21-14 27-9 19-9 23-10 30-7 29-5 26-3 23-1 12v68l4 36 7 36 8 29 10 29 11 26 15 30 12 20 13 19 14 19 13 16 11 12 7 8 14 14 8 7 11 10 11 9 18 14 20 13 14 9 2-1v-60l1-8 15-5 5-1h24l9 3h7l14-3h21l11 3 8 6 4 8 1 3 1 12v44h-11l-4-2v-51l-3-7-5-3-4-1-16 1-10 2-1 1v60l-14-1v-50l-3-8-6-4-9-1-15 1-5 1-1 62h-10l1 3 27 14 25 11 28 10 26 8 33 7 32 5 24 2h53l26-2 36-6 30-7 33-10 28-11 29-14 17-9 21-13 19-13 18-14 11-9 17-16 10-9 11-12 12-13 11-14 12-16 7-10 10-15 12-21 8-15 13-29 10-27 8-26 7-30 5-30 3-30v-62l-4-35-6-32-7-27-11-33-11-26-12-25-11-20-22-33-12-16-9-11-9-10-7-8-24-24-8-7-12-10-17-13-18-13-20-12-19-11-26-13-27-11-43-14-27-6-23-4-29-3z" fill="#FDFDFC"/>
<path transform="translate(484,108)" d="m0 0h32l25 3 26 5 1 2-26 91-4 1-17-4h-37l-16 3-12 4-16 7-12 8-10 8-11 10-11 15-6 10-7 17-4 15-1 9v21l2 15 5 17 7 15 7 12 9 11 12 12 15 10 16 8 14 5 13 3 8 1h32l23-5 16-6 15-8 11-8 12-11 10-12 10-17 6-16 4-17 1-8v-14l-2-16v-9l36-10 36-9 22-5h4l3 9 3 21 1 12v23l-3 24-7 26-10 24-9 19-10 19-17 33-10 19-13 24-15 26-12 22-10 18-15 28-12 23-16 30-12 22-13 24-12 22-10 18h-149l7-14 13-23 16-29 14-24 28-50 8-14 14-24 10-18 3-7v-7l-5-5-34-6-24-7-16-6-16-8-16-9-17-12-15-13-15-15-9-11-11-15-12-21-7-16-6-17-6-25-3-26v-23l2-19 5-23 8-24 12-26 12-18 9-11 12-14 8-8 8-7 17-13 14-9 18-10 16-7 21-7 23-5z" fill="#C9D43C"/>
<path transform="translate(496,260)" d="m0 0h13l16 3 16 8 9 7 8 8 8 13 4 10 2 11v13l-3 14-5 11-8 11-10 10-14 8-16 5-5 1h-17l-14-3-12-5-12-8-9-9-7-11-5-11-2-8v-23l4-13 5-10 9-11 8-7 13-8 12-4z" fill="#FDFDFA"/>
<path transform="translate(500,785)" d="m0 0h14l1 1v29l11-2h14l10 2 9 5 7 8 4 9 1 6v12l-3 16-4 8-5 6-9 5-11 2h-10l-15-3-9-6-4-6-2-8v-83z" fill="#F9FAEC"/>
<path transform="translate(438,813)" d="m0 0h20l11 4 8 6 6 9 3 8 1 6v14l-2 9-5 9-7 7-8 4-11 3h-14l-13-3-9-6-7-10-4-10-1-5v-13l4-12 6-8 9-8z" fill="#F9FAEF"/>
<path transform="translate(683,813)" d="m0 0h18l10 3 8 6 6 7 4 9 1 11-4 8-7 3-11 1h-36l4 11 6 5 12 2 13-1 13-3 5 1v9l-4 4-13 3h-21l-12-3-8-5-6-7-5-13-1-6v-10l2-11 6-12 7-7 9-4z" fill="#F8F9EA"/>
<path transform="translate(589,124)" d="m0 0 7 1 16 8 18 10 14 10 11 9 12 11 9 10 10 12 13 18 11 19 5 15v5l-4 3h-7l-6-9-10-21-10-15-10-13-9-10-11-11-11-9-17-12-26-13-11-7-1-5 5-5z" fill="#F9FAED"/>
<path transform="translate(439,826)" d="m0 0h16l7 3 5 5 3 6 1 5v15l-3 9-5 6-6 3-5 1h-12l-8-3-7-8-2-6-1-11 2-12 4-6 6-5z" fill="#102111"/>
<path transform="translate(573,166)" d="m0 0 6 1 23 12 17 12 13 12 8 8 9 11 12 18 8 16 2 5-1 5-4 3-7-1-6-9-7-14-7-11-10-13-13-13-18-13-25-14-7-6 2-4z" fill="#F9FAEC"/>
<path transform="translate(524,826)" d="m0 0h15l10 4 5 6 2 8v12l-3 13-5 6-7 3-5 1h-9l-9-3-3-5-1-4v-34l2-5z" fill="#102111"/>
<path transform="translate(624,785)" d="m0 0 9 1 5 3 1 5v96l-12 1-4-2v-26z" fill="#F9FAED"/>
<path transform="translate(559,206)" d="m0 0 6 1 12 6 14 10 10 9 8 8 11 15 9 16 1 5-5 5-5 1-7-8-11-18-9-11-10-9-14-9-14-8-1-7 3-5z" fill="#F9FAEF"/>
<path transform="translate(587,814)" d="m0 0h13l1 1v75l-3 1-9-4-3-5-1-10 1-57z" fill="#FAFBF0"/>
<path transform="translate(686,826)" d="m0 0h13l8 4 4 5 3 7v5l-4 1h-37l-1-1 1-9 3-6 6-5z" fill="#102111"/>
<path transform="translate(587,787)" d="m0 0h13l2 2v11l-1 2h-15l-1-2v-11z" fill="#F5F7DE"/>
</svg>
