<?xml version="1.0" encoding="UTF-8"?>
<svg version="1.1" viewBox="0 0 1000 1000" width="1280" height="1280" xmlns="http://www.w3.org/2000/svg">
<path transform="translate(0)" d="m0 0h1e3v1e3h-1e3z" fill="#E20E19"/>
<path transform="translate(0)" d="m0 0h1e3v1e3h-1e3zm465 49-41 5-34 7-36 11-29 11-20 9-25 13-23 14-21 14-17 13-13 11-10 8v2l-4 2-24 24-7 8-12 14-9 12-10 14-14 21-13 22-15 30-11 27-11 33-7 27-5 26-4 29-1 16v53l3 35 5 28 6 27 9 30 10 26 9 21 12 24 10 17 9 14 14 20 13 17 11 13 11 12 7 8 11 11 8 7 28 24 19 13 10 7 25 15 22 12 19 8 11 5 25 9 19 6 24 6 31 6 34 4 47 1 33-2 31-4 34-7 31-9 23-8 21-9 25-12 22-12 22-14 17-12 14-11 11-9 16-15 8-7 7-8 10-10 9-11 11-13 8-11 10-14 13-20 12-22 8-15 13-30 10-28 9-31 6-30 4-30 2-23v-47l-2-24-5-35-6-29-10-34-11-29-12-26-12-23-12-20-11-16-10-14-11-14-12-14-12-13-16-16h-2v-2l-8-7-13-11-10-8-18-13-22-14-17-10-19-10-23-11-26-10-31-10-24-6-27-5-38-4z" fill="#FEFEFD"/>
<path transform="translate(532,249)" d="m0 0h13l18 2 16 5 13 7 15 13 8 10 8 15 4 16v24l-2 14-6 20-7 16-12 19-10 13-14 15-9 9-11 9-15 12-15 10-20 12-19 10-16 6-13 3h-17l-10-5-5-4-6-12-1-4v-14l4-14 9-17 5-7h2l2-4 10-9 11-6 5-1h12l10 5v2h2l4 7v8l-6 10-26 26-4 5-3 6v7l6 1 12-3 16-8 12-7 11-8 17-14 20-20 10-13 10-15 8-17 4-14v-16l-3-9-4-6-5-4-6-2h-18l-14 5-16 8-18 10-15 10-23 15-10 6-15 6-13 4-8 1h-13l-10-3-9-7-5-7-2-6-1-9 2-12 5-13 8-14 9-11 7-8 11-9 15-11 21-13 19-10 20-8 23-6z" fill="#FEFEFD"/>
<path transform="translate(297,623)" d="m0 0h17l9 2 10 5 10 9 5 10 2 9v75l-5 5-9 6-12 5-12 3-7 1h-12l-10-2-12-5-12-11-5-10-3-10v-12l4-12 6-9 8-6 8-4 13-3 27-1 2-1-2-12-3-6-3-2-6-1h-9l-14 3-12 5-3-1-5-12-1-6 12-6 17-5z" fill="#FEFEFD"/>
<path transform="translate(623,624)" d="m0 0h18l13 4 10 7 8 11 5 15 2 10v20l-67 1 1 16 3 10 4 6v2l10 4h16l14-4 8-4h5l6 13-1 5-15 8-14 4-6 1h-18l-14-4-11-7-7-7-8-14-4-13-2-11v-14l4-20 5-13 7-11 11-9 12-5z" fill="#FEFEFD"/>
<path transform="translate(541,591)" d="m0 0h6v34h9l11 1v21l-19 1v72l2 6 7 4 10 2v18l-1 1h-20l-12-3-11-8-5-10-3-14v-119l3-2z" fill="#FEFEFD"/>
<path transform="translate(723,591)" d="m0 0h7l1 126 2 8 5 4 12 3 1 1v16l-1 2h-22l-10-3-9-6-5-7-3-9-2-11v-91l1-28 12-3z" fill="#FEFEFD"/>
<path transform="translate(480,623)" d="m0 0h10l13 2 2 1-1 7-4 8-2 5h-17l-13 4-4 3-1 6v85l-1 6h-29l-2-4v-98l6-7 13-9 14-6z" fill="#FEFEFD"/>
<path transform="translate(397,626)" d="m0 0h8l1 1-1 123h-29l-1-1v-118l7-2z" fill="#FEFEFD"/>
<path transform="translate(312,689)" d="m0 0h6l1 1v37l-4 3-5 1h-14l-7-4-4-6-1-4v-13l5-9 7-4 2-1z" fill="#E20E19"/>
<path transform="translate(387,575)" d="m0 0h8l8 4 6 9v14l-4 6-6 5-3 1h-13l-6-4-5-6-2-5v-7l3-8 5-5 5-3z" fill="#FEFEFD"/>
<path transform="translate(626,647)" d="m0 0h10l7 6 4 10 1 9h-35v-7l3-9 6-7z" fill="#E20E19"/>
</svg>
