<?xml version="1.0" encoding="UTF-8"?>
<svg version="1.1" viewBox="0 0 1000 1000" width="1280" height="1280" xmlns="http://www.w3.org/2000/svg">
<path transform="translate(0)" d="m0 0h1e3v1e3h-1e3z" fill="#FECA08"/>
<path transform="translate(0)" d="m0 0h1e3v1e3h-1e3zm472 48-25 2-18 2-41 8-32 10-35 13-19 9-19 10-16 9-16 10-11 7-18 14-11 9-9 7v2l-4 2-15 14-16 16-9 11-14 17-14 19-12 18-12 20-12 23-8 16-11 27-11 33-4 13-7 36-5 32-1 19v57l2 20 3 20 5 25 7 27 9 27 8 20 8 18 15 30 13 21 12 18 12 16 13 16 9 10 7 8 28 28 8 7 13 11 19 14 18 12 17 10 22 12 14 7 19 8 29 11 27 8 34 7 24 4 14 2 20 1h52l31-3 29-5 30-7 27-8 24-9 20-9 28-14 22-13 30-20 17-14 11-9 13-12 27-27 9-11 9-10 13-18 7-10 11-17 14-24 11-23 9-20 9-24 10-35 6-27 4-27 2-22v-65l-2-23-5-31-5-23-7-26-9-25-15-35-13-25-13-22-13-19-14-19-11-13-9-10-11-12-14-14-8-7-11-10-14-11-10-8-19-13-18-11-22-12-24-12-27-11-27-9-25-7-24-5-25-4-19-2-18-1z" fill="#FEFEFE"/>
<path transform="translate(474,335)" d="m0 0h47l29 2 38 4 31 5 30 7 27 8 23 8 26 11 21 11 16 10 11 8 11 9 10 9 7 8 7 9 9 15 7 17 3 16v20l-4 15-7 16-10 16-12 14-13 12-16 12-14 9-18 10-21 10-29 11-25 8-33 8-35 6-28 3-28 2h-68l-38-3-35-5-31-6-26-7-32-11-26-11-22-11-19-12-13-10-11-9-13-13-11-15-8-16-5-13-2-9v-25l4-15 5-13 8-14 11-13 19-19 16-12 19-12 25-13 27-11 34-11 33-8 36-6 23-3z" fill="#FECA08"/>
<path transform="translate(474,335)" d="m0 0h47l29 2 38 4 31 5 30 7 27 8 23 8 26 11 21 11 16 10 11 8 11 9 10 9 7 8 7 9 9 15 7 17 3 16v20l-4 15-7 16-10 16-12 14-13 12-16 12-14 9-18 10-21 10-29 11-25 8-33 8-35 6-28 3-28 2h-68l-38-3-35-5-31-6-26-7-32-11-26-11-22-11-19-12-13-10-11-9-13-13-11-15-8-16-5-13-2-9v-25l4-15 5-13 8-14 11-13 19-19 16-12 19-12 25-13 27-11 34-11 33-8 36-6 23-3zm2 27-34 2-33 4-38 7-28 7-36 12-21 9-25 13-12 8-13 10-12 11-8 10-7 11-5 11-3 9-1 6v14l2 12 7 16 7 11 11 13 11 10 15 11 13 8 23 12 27 11 29 9 28 7 41 7 28 3 30 2h54l41-3 18-2 41-7 32-8 36-12 19-8 20-10 16-10 13-10 10-9 9-9 9-13 7-14 4-16v-14l-4-15-8-16-7-10-9-10-7-7-17-13-15-9-23-12-25-10-24-8-36-9-34-6-31-4-35-2z" fill="#030102"/>
<path transform="translate(338,445)" d="m0 0h25l4 4 11 18 12 19 2 3 12-20 10-15 7-9h25l1 1v109h-27v-55l1-5-3 3-7 11-8 13-2 1h-19l-6-9-12-19v60h-27v-109z" fill="#030102"/>
<path transform="translate(564,445)" d="m0 0h27l8 12 12 17 13 18 11 16 1-1v-62h26l1 32v78h-27l-4-5-14-20-10-14-11-15-6-9-1 63h-26l-1-109z" fill="#030102"/>
<path transform="translate(459,445)" d="m0 0h93v26l-2 1h-32l1 82-1 1h-26v-83h-32l-1-1z" fill="#030102"/>
<path transform="translate(472,48)" d="m0 0h47l27 2v1h-80l-31 3-29 5-18 4-19 6-13 4-30 11-18 8-17 9-14 7-15 9-9 6-3 3-5 2-18 13-10 8-2-1 9-8 16-12 19-12 20-12 17-9 23-11 29-11 24-8 21-6 25-5 11-2 27-3z" fill="#FFEB3D"/>
<path transform="translate(61,387)" d="m0 0 2 4h-2l1 5h-2l1 5h-2v9h-2v12h-2v11h-2l1 8h-1v9h-1l-2 20v57l4 36 2 13 1 2 1 11 1 9 2 1-1 3 2 1 1 8v4l2 1-1 3 2 1 1 9 2 1-1 2 2 1 3 10-1 2 2 1-1 2 2 1 1 2-1 2 2 1-1 2 2 1 2 9 2 1v4l2 1 3 11 2 1 1 5 2 1 1 6-3-4-7-15-5-13-5-12-6-17-7-25-6-26-3-15-4-36v-57l1-19 8-49 4-19z" fill="#FFEB3D"/>
<path transform="translate(335,444)" d="m0 0h1l1 7v48l-1 57-2-1-2-11v-78l2-20z" fill="#FEE93B"/>
<path transform="translate(186,451)" d="m0 0 1 3-6 13-5 16-1 5v25l4 15 8 18 8 12 9 11 12 12v2l-4-2-4-3v-2l-4-2-5-5-9-10-6-10-6-12-2-7-2-3-1-8-1-1-1-14 1-16 2-10 5-14 5-10z" fill="#FEE330"/>
<path transform="translate(635,448)" d="m0 0h1l1 60h-3l-14-20-9-13 2-2 2 4 4 2v2h2l5 7 3 1 3-15 2-8z" fill="#FEE636"/>
<path transform="translate(403,369)" d="m0 0h6l2 3-21 4-9 2-19 4h-7l-3 3-12 2-3 2-5 1h-7v-2l21-7 30-7z" fill="#FEE22F"/>
<path transform="translate(748,424)" d="m0 0 10 5 11 9 11 11 10 14 7 15 3 10v9h-1l-3-12-4-8-4-6-3-6-6-9v-2l-3-1-7-8-9-9-8-7-4-3z" fill="#FEE12D"/>
<path transform="translate(416,447)" d="m0 0 1 2-2 5-13 20-10 16-3-4-13-21v-4l5 5 5 8 5 2 8-5 7-9 5-9z" fill="#FEE737"/>
<path transform="translate(419,495)" d="m0 0h2l-1 42-1 16h-1l-1-20-2-13-2-2h-6l1-6 9-14z" fill="#FECB0A"/>
<path transform="translate(305,395)" d="m0 0h2l1 3h-5v2h-3v2l-6 2-26 13-5 3h-3v2h-3v2l-9 5-8 6-2-1v-2l17-12 17-10 27-13z" fill="#FEE331"/>
<path transform="translate(562,444)" d="m0 0h2l-1 12v86h-1l-1-55-3-20v-14l1-7z" fill="#FEEA3C"/>
<path transform="translate(489,471)" d="m0 0 4 1v58l-1 23-2 3v-78l-1-4-26-1v-1z" fill="#FEDF2B"/>
<path transform="translate(803,565)" d="m0 0 1 2-6 8-8 7h-2v2l-6 4-4 2-2 4-11 6-2 2-3-1 5-5 13-10 8-7 4-1 4-4h2v-2l3-1z" fill="#FED921"/>
<path transform="translate(363,494)" d="m0 0 4 4 13 21-1 4-3-3v-2h-3l-5-6-2-1v10h-1z" fill="#FECD0D"/>
<path transform="translate(590,490)" d="m0 0 4 5 5 7 3 7 4 6-4-2v-2l-9-3-1 13-2-1z" fill="#FED216"/>
<path transform="translate(204,521)" d="m0 0h3l5 11 2 6 9 11 6 8 6 5 4 2 2 2-1 2-4-2-10-9-11-13-8-14z" fill="#FEE12D"/>
<path transform="translate(412,509)" d="m0 0 5 3 2 6 1 19-1 16h-1l-1-20-2-13-2-2h-6v-3l4-4z" fill="#FFEB3D"/>
<path transform="translate(776,550)" d="m0 0 2 1-3 3-3 5-7 7-9 7h-2l1-5h2l1-4 13-10z" fill="#FEE534"/>
<path transform="translate(950,468)" d="m0 0h1v65l-3 31-1 6h-1v-16l1-1 2-23z" fill="#FFEB3D"/>
<path transform="translate(355,379)" d="m0 0 3 2h-4l-2 4-12 2-3 2-5 1h-7v-2l21-7z" fill="#FEE12E"/>
<path transform="translate(186,451)" d="m0 0 1 3-6 13-5 16-2 9-1 13-2-1 1-16 2-10 5-14 5-10z" fill="#FEE432"/>
<path transform="translate(403,369)" d="m0 0h6l2 3-21 4-2 1h-7l1-2h2v-2l8-2z" fill="#FEE331"/>
<path transform="translate(800,431)" d="m0 0 5 5 4 7 5 5 7 15v4l2 1v4h2l-1 3-3-4-7-16-12-18-3-3z" fill="#FEE534"/>
<path transform="translate(727,379)" d="m0 0 13 6 3 3 4 1 2 2 5 2 6 4 8 6v2l-5-2-14-9-18-10-6-3z" fill="#FEE331"/>
<path transform="translate(635,475)" d="m0 0h1l1 33h-3l-5-7 1-2 2-3 2-13z" fill="#FECF10"/>
<path transform="translate(634,650)" d="m0 0h5l-3 2-4 1 3 2-11 2-4 1h-14v-1l6-1 3-2z" fill="#FEDC25"/>
<path transform="translate(260,417)" d="m0 0h4l-1 3h-3v2h-3v2l-9 5-8 6-2-1v-2l17-12z" fill="#FEE12E"/>
<path transform="translate(799,503)" d="m0 0h1v9l-4 13-7 14-3 1 2-5 5-11 3-7z" fill="#FEDE29"/>
<path transform="translate(284,404)" d="m0 0v3l-4 2-5 5-7 3-5 1-2-2z" fill="#FEDF2A"/>
<path transform="translate(593,445)" d="m0 0 2 2 4 7h2l2 4 8 12v2l-4-2-11-16-4-6z" fill="#FEE22E"/>
<path transform="translate(803,565)" d="m0 0 1 2-6 8-8 7h-2v2l-6 4-4 2 6-7 4-4 6-5h2v-2l3-1z" fill="#FFEB3D"/>
<path transform="translate(592,502)" d="m0 0 7 2 4 6 3 5-4-2v-2l-9-3-1 13h-1v-18z" fill="#FFEB3D"/>
<path transform="translate(589,628)" d="m0 0h9l4 2-17 3h-8l-3-2 13-2z" fill="#FEE12D"/>
<path transform="translate(365,506)" d="m0 0 5 3 2 4 7 4 1 6-4-3v-2h-3l-5-6-2-1v10h-1z" fill="#FEE738"/>
<path transform="translate(456,445)" d="m0 0 2 1-1 24-2-4-1-3v-9l1-8z" fill="#FFEB3D"/>
<path transform="translate(416,447)" d="m0 0 1 2-2 5-10 15-2-3 3-4 5-9z" fill="#FEE22F"/>
<path transform="translate(674,639)" d="m0 0 5 1v2l-8 2-4 2h-6l-2-2z" fill="#FEE02B"/>
<path transform="translate(614,624)" d="m0 0h7l3 2-14 3-9-1 2-2z" fill="#FEE12D"/>
<path transform="translate(599,504)" d="m0 0 5 5 12 17-1 3-9-11-3-7-4-5z" fill="#FED71D"/>
<path transform="translate(618,532)" d="m0 0 4 2 10 14v3h-2l-2-5-3-1-7-11z" fill="#FEDD27"/>
<path transform="translate(355,379)" d="m0 0 3 2h-4l-2 4-11 1v-3l9-3z" fill="#FEDF2A"/>
<path transform="translate(289,596)" d="m0 0 2 1 5 2 10 3 4 3-4 1-19-8z" fill="#FEE12E"/>
<path transform="translate(601,658)" d="m0 0h5l-2 2-8 2h-19v-1z" fill="#FFEB3D"/>
<path transform="translate(184,542)" d="m0 0 4 5 7 11 5 6v2h-2v-2h-2l-7-10-5-9z" fill="#FECC0B"/>
<path transform="translate(376,461)" d="m0 0 5 5 4 9 2 6-3-3-9-14z" fill="#FEDB24"/>
<path transform="translate(802,563)" d="m0 0 3 1h-2l-2 5-2 3h-3v2l-8 6-1-2 8-7z" fill="#FED113"/>
<path transform="translate(310,363)" d="m0 0 3 1-2 2-18 7h-3l1-2 10-5 4-1 2 1v-2z" fill="#FEE534"/>
<path transform="translate(375,345)" d="m0 0 4 2-21 5-5-1 2-1 2 1v-2l4 1v-2l5 1v-2l8-1z" fill="#FEE534"/>
<path transform="translate(815,544)" d="m0 0h2l-3 9-7 9v-3l3-6 2-5z" fill="#FEE22E"/>
<path transform="translate(235,435)" d="m0 0 3 1-4 4h-2v2h-2v2h-2v2l-7 5 2-4 7-8z" fill="#FEDB23"/>
<path transform="translate(419,495)" d="m0 0h2l-1 14-2-3-2-2-1-2z" fill="#FEE331"/>
<path transform="translate(727,379)" d="m0 0 13 6 6 6-6-2-15-8z" fill="#FEEA3B"/>
<path transform="translate(664,612)" d="m0 0h5l1 2-9 3-5-1 1-2z" fill="#FEE02C"/>
<path transform="translate(649,616)" d="m0 0 7 1-2 2-7 2-6-1 2-2z" fill="#FEDF2A"/>
<path transform="translate(591,340)" d="m0 0h7l5 1 2 1h3v2l-13-1-6-1z" fill="#FEE636"/>
<path transform="translate(175,517)" d="m0 0h1l4 13v2l-4-2-2-3z" fill="#FEE02B"/>
<path transform="translate(799,503)" d="m0 0h1v9l-2 8h-2l-1 2 2-11z" fill="#FEE432"/>
<path transform="translate(429,336)" d="m0 0h10l4 2-17 1-2-2z" fill="#FEE432"/>
<path transform="translate(593,445)" d="m0 0 2 2 4 7h2l1 6h-2l-8-12z" fill="#FEE83D"/>
<path transform="translate(219,453)" d="m0 0 1 3-3 5h-2l-2 5-3 3 2-6 3-4 2-5z" fill="#FEE736"/>
<path transform="translate(365,445)" d="m0 0 6 5 2 4 1 4-4-2-5-9z" fill="#FEE330"/>
<path transform="translate(577,630)" d="m0 0h10l1 2-3 1h-8l-3-2z" fill="#FEE22F"/>
<path transform="translate(396,480)" d="m0 0 1 2-5 8-3-4-2-5 4 3 3-1z" fill="#FED31C"/>
<path transform="translate(260,417)" d="m0 0h4l-1 3h-3v2h-3v2l-4 1 1-3h2l2-4z" fill="#FEE636"/>
<path transform="translate(411,457)" d="m0 0v3l-6 9-2-3 6-8z" fill="#FEDB24"/>
<path transform="translate(783,543)" d="m0 0 1 3-9 10v-3l6-8z" fill="#FED61C"/>
<path transform="translate(416,367)" d="m0 0h9l-3 1v2h-10v-2z" fill="#FEE330"/>
<path transform="translate(363,494)" d="m0 0 4 4 2 5-5 1z" fill="#FEE22F"/>
<path transform="translate(612,655)" d="m0 0 9 1-1 2h-14v-1l6-1z" fill="#FFEB3D"/>
<path transform="translate(677,360)" d="m0 0 6 1 5 2v2l-9-2-2-1z" fill="#FEE330"/>
<path transform="translate(400,340)" d="m0 0h8v2l-4 1h-7v-2z" fill="#FEE534"/>
</svg>
