<?xml version="1.0" encoding="UTF-8"?>
<svg version="1.1" viewBox="0 0 1000 1000" width="1280" height="1280" xmlns="http://www.w3.org/2000/svg">
<path transform="translate(0)" d="m0 0h1e3v1e3h-1e3z" fill="#FCFCFC"/>
<path transform="translate(490,76)" d="m0 0h21l23 1 35 4 31 6 26 7 26 9 31 13 22 11 28 17 15 10 12 9 14 11 14 12 31 31 7 8 9 11 10 13 18 27 10 17 12 23 10 22 11 29 8 28 5 21 6 41 2 22v38l-3 34-4 28-6 26-2 1v-10l1-12v-42l-4-35-6-29-7-24-12-32-13-27-12-21-13-19-13-17-9-10-9-11-15-15-11-9-10-9-19-14-17-11-21-12-29-14-27-10-28-8-27-5-25-3-18-1h-22l-33 2-32 5-28 7-24 8-30 13-28 15-15 10-16 11-22 18-13 12-15 15-7 8-11 13-13 19-11 17-12 21-11 23-10 26-7 24-6 28-3 19-2 23v44l4 36 4 19 7 28 10 28 12 26 13 23 7 12 8 12 12 16 9 11 12 13 9 10 12 11 13 11 19 14 18 12 16 9 23 12 27 11 27 9 36 8 18 3 11 1-3 2h-39l-20-1-36-5-31-7-27-8-29-11-24-11-21-11-23-14-20-14-16-13-9-7-20-18-10-10-7-8-8-8-13-17-10-13-12-18-11-18-10-18-11-23-10-25-12-37-7-33-4-28-2-28v-42l3-34 5-29 7-29 8-26 11-28 14-29 12-21 10-16 11-16 11-14 9-11 10-11 7-8 16-16 8-7 10-9 17-13 18-13 21-13 29-16 32-14 34-12 32-8 37-6 20-2z" fill="#0D395B"/>
<path transform="translate(536,244)" d="m0 0h41l23 2 27 5 27 7 29 11 25 12 20 12 19 13 16 13 11 9 24 24 9 11 10 13 10 15 10 16 12 23 10 25 7 21 6 24 4 26 2 27v29l-3 27-4 23-7 27-8 23-12 26-10 19-11 17-11 15-11 14-11 12-19 19-10 8-17 13-17 12-11 6-3-1 10-9 11-9 13-12 7-8 11-13 14-20 8-14 10-19 8-20 7-23 5-23 3-19 1-13v-28l-3-26-5-26-8-27-10-23-8-17-9-14-12-17-9-11-9-10-18-18-10-8-18-13-21-13-25-12-25-9-28-7-27-4-19-1h-18l-16 1-24 4-24 6-20 7-20 8-21 11-12 8-18 13-13 11-15 14-7 8-8 9-12 16-12 19-8 16-6 14-4 10-8 24-6 28-2 14-1 18v22l2 26 5 25 5 19 9 25 10 21 12 20 12 17 7 9 5 6 1 4-8-6-14-14-3-5-7-6-9-11-10-13-16-24-12-22-11-24-8-22-8-30-4-23-3-29v-31l4-35 5-25 5-19 7-20 10-23 10-20 12-20 10-14 11-14 9-10 14-15 8-8 11-9 10-8 20-14 13-8 18-10 20-9 19-7 19-6 26-6 27-4z" fill="#0582C0"/>
<path transform="translate(531,397)" d="m0 0h20l21 1 23 4 22 6 16 6 18 8 18 10 17 11 10 8 13 11 12 12 9 11 10 13 13 21 12 25 7 19 6 22 4 26 1 13v24l-3 24-6 25-7 21-9 21-10 19-13 19-9 11-9 10-17 17-12 9-14 10-16 9-16 8-17 7-19 6-17 4-22 3-17 1h-11l-26-2-29-6-24-7-25-10-3-2 1-2 31 8 12 2 16 1h35l21-4 26-8 20-9 16-9 18-13 13-11 11-11 11-14 10-15 8-14 10-23 8-27 3-16 1-10v-28l-3-25-5-22-8-22-8-17-10-15-9-12-9-10-7-8-11-10-17-13-19-12-21-10-19-6-20-4-15-2h-39l-30 5-24 8-18 8-17 10-14 10-11 9-10 9-12 13-10 13-8 13-9 17-9 23h-1v-9l5-17 10-25 9-19 11-19 10-14 8-10 15-16 10-9 18-14 17-11 23-12 24-9 19-5 22-4z" fill="#6FC0E7"/>
<path transform="translate(426,399)" d="m0 0 4 1-2 4-15 8-9 6-3 1v2l-6 5h-2l-2 4-10 13-10 15-7 7-7 6-5 5-9 11-9 10-5 9-4 3h-2l1-8 13-26 2-3v-7l-1-5 6-9 10-10 7-8 13-12 6-5 2 1-8 9-7 12 16-9 9-7 11-9 13-7 6-5z" fill="#F5FEFE"/>
<path transform="translate(761,730)" d="m0 0 1 4-5 14-1 1-3 15 7-4 2-2h4l-1 7-4 9-6 8-8 7-5 5-6 5h-3l1-5 6-11-9 6-5 7-15 10-3 3-2-1 17-17 11-14 14-21 11-21z" fill="#F5FFFF"/>
<path transform="translate(765,791)" d="m0 0v3l-7 9-5 9-5 5-2 3 9-6 13-11 8-7 2 1-7 7-10 8-17 13-17 12-11 6-3-1 10-9 11-9 13-12 7-8z" fill="#339DD1"/>
<path transform="translate(447,376)" d="m0 0 3 1-14 8-8 4-7 6-11 5-6 4-12 6v-3l13-9 13-8 21-11z" fill="#F5FFFF"/>
<path transform="translate(377,496)" d="m0 0 2 1-11 11-2 1-7 7-6 7-3 1-2 6-1 2h-2v2l-3 2-3-1 11-13 9-10 7-7z" fill="#F6FEFE"/>
<path transform="translate(309,758)" d="m0 0 4 2 9 15 4 5 1 4h2l2 5-3-1-8-8-2-6-4-3-2-5z" fill="#0F466B"/>
<path transform="translate(483,453)" d="m0 0h39l15 2v1h-11l-8-1h-29l-8 2h-8l-4-2z" fill="#F5FFFF"/>
<path transform="translate(911,597)" d="m0 0h1l1 8 2-4v8l-3 8-1 2h-2v-12l1-9z" fill="#F5FFFF"/>
<path transform="translate(424,468)" d="m0 0 3 1-16 8-7 4-1 2-4 1-6 2 4-4 18-10z" fill="#F5FEFE"/>
<path transform="translate(765,791)" d="m0 0v3l-7 9-9 10-7 7-2-1 7-7 7-8z" fill="#6FC0E7"/>
<path transform="translate(763,798)" d="m0 0h2l-2 4h-3l1 2 2 1-12 11v-3l3-4 3-6z" fill="#0D395B"/>
<path transform="translate(729,828)" d="m0 0 2 1-5 6 2 1-12 7-3-1 10-9z" fill="#6FC0E7"/>
<path transform="translate(734,297)" d="m0 0 6 2 16 12 6 5-1 2-15-12-12-8z" fill="#F5FFFF"/>
<path transform="translate(301,757)" d="m0 0 5 5 11 13 6 8-4-2-10-11-6-8z" fill="#F5FFFF"/>
<path transform="translate(647,514)" d="m0 0 12 12 4 5-1 2-9-8-6-9z" fill="#F5FFFF"/>
<path transform="translate(508,920)" d="m0 0 18 1 7 1-4 2h-8v-1l-13-2z" fill="#6FC0E7"/>
<path transform="translate(342,798)" d="m0 0 6 5 2 6-8-6-2-3h2z" fill="#6CBEE5"/>
<path transform="translate(911,597)" d="m0 0h1l1 8 2-4v8h-2l-1 4h-1z" fill="#7EC7E9"/>
<path transform="translate(589,867)" d="m0 0h5l1 3h-19v-1z" fill="#F5FEFE"/>
<path transform="translate(681,828)" d="m0 0 2 1-6 5-2 2-3 2-3-1 3-3z" fill="#F5FEFE"/>
<path transform="translate(763,798)" d="m0 0h2l-2 4h-3l-1 4-3 2-1-2 5-6z" fill="#09527F"/>
<path transform="translate(308,764)" d="m0 0 5 4 5 5 2 6-5-5-7-8z" fill="#5FB7E1"/>
</svg>
