<?xml version="1.0" encoding="UTF-8"?>
<svg version="1.1" viewBox="0 0 1000 1000" width="1280" height="1280" xmlns="http://www.w3.org/2000/svg">
<path transform="translate(0)" d="m0 0h1e3v1e3h-1e3z" fill="#D9016F"/>
<path transform="translate(0)" d="m0 0h1e3v1e3h-1e3zm475 49-31 3-27 4-27 6-30 9-26 9-32 14-23 12-24 15-11 7-19 14-17 14-14 12-28 28-9 11-9 10-12 16-18 27-10 17-9 16-13 27-12 31-8 25-7 27-5 27-3 21-2 26v43l3 35 6 37 8 32 7 22 9 24 10 23 12 24 12 20 9 14 10 14 9 12 11 14 13 14 7 8 18 18 8 7 14 12 18 14 30 20 21 12 17 9 25 11 26 10 25 8 25 6 20 4 26 4 33 3h37l35-3 36-6 26-6 39-12 25-10 29-14 17-9 15-9 18-12 11-8 9-7 16-13 10-9 8-7 19-19 9-11 11-12 12-16 13-19 12-19 11-19 11-23 11-26 12-36 7-26 6-31 3-24 2-26v-38l-3-36-5-30-6-27-7-25-8-23-11-26-12-25-10-18-10-16-13-19-9-12-11-14-9-10-7-8-26-26h-2v-2l-22-18-12-9-14-10-19-12-17-10-27-14-28-12-25-9-28-8-27-6-33-5-28-2z" fill="#FDFEFD"/>
<path transform="translate(341,300)" d="m0 0h319l1 7 3 105v27l-2 2-16 2-2-1-7-35-5-17-10-21-9-13-9-10-11-9-14-8-14-5-20-4-13-1 1 318 3 15 4 8 5 6 10 5 10 3 33 3 1 1-1 20h-196l-1-7v-13l1-1 31-3 15-4 9-6 4-5 4-10 2-9 1-11v-310l-14 1-22 5-13 5-16 10-13 12-6 8-8 13-8 19-7 25-5 26-9-1-10-2-1-2v-28l1-18 2-72 1-18z" fill="#FDFEFD"/>
<path transform="translate(336,483)" d="m0 0h81v81l-1 1h-74l-7-2v-79z" fill="#FDFEFD"/>
<path transform="translate(583,483)" d="m0 0h80l1 1v80l-1 1h-79l-2-5z" fill="#FDFEFD"/>
</svg>
