<?xml version="1.0" encoding="UTF-8"?>
<svg version="1.1" viewBox="0 0 1000 1000" width="1280" height="1280" xmlns="http://www.w3.org/2000/svg">
<path transform="translate(0)" d="m0 0h1e3v1e3h-1e3z" fill="#FDFDFD"/>
<path transform="translate(763,361)" d="m0 0h4v2l-15 4-10 7-10 11-9 11-8 10-7 9 2 5 11 18 13 21 14 22 12 18 10 13 2 1 9 1 2 1v2l-95-1v-2l14-1v-13l-9-16-12-19-5-8v-2l-5 5-9 11-14 19-7 11-3 6 4 5 3 1 12 1 2 2h-34l-21 1-1-3h12l7-2 12-12 8-10 13-16 9-12 8-10-2-5-12-20-14-22-12-19-9-12-8-7-3-1h-13l-11 4-3 2-3 8-1 9h-1v13h1v114l-24-1-5-5-11-14-10-13-14-18-11-14-14-18-12-15-13-17-9-12h-1v111l3 7 4 6 20 1v2l-3 1-24-1-33 1v-2l15-1 5-1 4-6 2-2 1-6v-120l-12-11-4-2-14-3v-1h10l13 3h60l12 16 10 13 28 36 11 14 12 16-1-31-1-56-4-3v-2l-19-4-3-2h9l13 2h14l10-1h16l22 1h34l19-1 6-1h8l-1 2-13 3-2 1-1 4 8 16 10 18 4 6 10-12 11-15 4-7 3-10-7-2-13-2v-2l19 2 5 1h9z" fill="#636465"/>
<path transform="translate(322,417)" d="m0 0h22l6 3 3 3 2 5 2 13 2 1 3-9 7-10 7-6h5l-5 5-5 4-8 13-7 14-11 29-5 14 1 7 4 10-1 2-5-7-1-7h-2l-2 5-10 23-9 23v6l8 1-4 2v2l-5 1-54-1v-2h-6l-1-2h12l6-5 9-17 11-26 15-37 9-20 10-26v-6l-6 1-8 7-10 13-6 11h-2l1-6 7-12 7-9 9-8z" fill="#ED1F1F"/>
<path transform="translate(248,417)" d="m0 0h21l6 3v2h2l5 10v13l-5 14-8 16-9 17-6 12v10l5-3 8-7 9-11 8-12 2-1-1 5-7 12-11 13-10 8h-17l-10-5-5-4-3-7-1-8 3-14 11-23 14-28 2-7-6 1-8 6-11 15-4-1 9-13 9-9z" fill="#ED1F1F"/>
<path transform="translate(384,417)" d="m0 0h16l7 3 7 6 5 10 1 5v15l-4 15-8 16-11 13-9 8-8 5-15 5h-13l-6-2 6-9 7-11 8-15 10-24 7-21 2-7v-5l-3-2-1-4z" fill="#ED1F1F"/>
<path transform="translate(379,416)" d="m0 0h17v1l-12 1v4l3 2-1 8-6 20-10 24-8 16-6 11-8 11-1 2 5 1v1h-6l-2-3-2-8-3-6 1-8 11-30 8-19 9-15 5-6 6-5z" fill="#F9F8F8"/>
<path transform="translate(314,552)" d="m0 0h1l1 5 16 1h172l174 1 90 1 38 1v2h-331l-82-1h-33l-19 1-6 1h-19l3-1-1-3-4-2z" fill="#D4C5C4"/>
<path transform="translate(277,360)" d="m0 0h8l8 3 7 6 4 10-3 9-5 7-8 4h-12l-9-6-3-4-1-3v-11l3-7 10-5-4-2z" fill="#ED1F1F"/>
<path transform="translate(251,558)" d="m0 0h15l-2 2h-3l1 2 52 1 2 2-3 1-1 6 2 5-1 3-7 3h-8l-8 1-10-6-5-5-5-6-7-2-13-2-1-2-4-2z" fill="#D4C5C4"/>
<path transform="translate(549,362)" d="m0 0h9l13 2h14l10-1h16l1 2-13 1-11 4-3 2-3 8-1 9h-1v13h1v60l-3 1-1-5-1-29-1-56-4-3v-2l-19-4z" fill="#646566"/>
<path transform="translate(579,384)" d="m0 0 3 2v130h-1l-1-113h-1z" fill="#D4C5C4"/>
<path transform="translate(325,559)" d="m0 0h6l-2 1v2l2 1-2 1h-13l3-1-1-3z" fill="#D78E8D"/>
<path transform="translate(631,511)" d="m0 0 8 1 1 2h-14l1-2z" fill="#DBCFCE"/>
<path transform="translate(270,362)" d="m0 0h8l-3 3-8 2z" fill="#D0BBBA"/>
</svg>
