<?xml version="1.0" encoding="UTF-8"?>
<svg version="1.1" viewBox="0 0 1000 1000" width="1280" height="1280" xmlns="http://www.w3.org/2000/svg">
<path transform="translate(0)" d="m0 0h1e3v1e3h-1e3z" fill="#878F98"/>
<path transform="translate(0)" d="m0 0h1e3v1e3h-1e3zm465 50-36 4-26 5-24 6-25 8-27 10-24 11-23 12-23 14-22 15-17 13-11 9-12 11-8 7-23 23-9 11-13 16-13 19-7 10-12 19-16 30-11 25-10 26-10 34-6 26-4 23-3 27v71l4 34 5 27 7 28 12 36 11 27 2 2h50l14-3 12-6 9-8 6-10 1-9-5-8-7-4-30-12-10-5-7-8-3-8v-13l4-15 9-17 9-11 6-7 14-11 14-8 14-6 23-6 9-1h30l22 3 32 8-6 7-15 10-10 5-15 4-6 1h-36l-12 3-12 6-6 5-6 10-1 8 4 5 16 8 13 5 16 8 8 7 5 10v15l-5 16-8 16-10 14-9 9-13 10-21 11-15 5-18 4-17 2h-16l1 4 7 11 14 20 14 19 12 14 11 12 25 25 11 9 11 10 20 15 23 15 24 14 23 12 28 12 36 12 30 8 32 6 33 4h63l35-4 33-6 30-8 33-11 29-12 16-8 19-10 21-13 12-8 16-12 11-9 2-4-3-1 2-9 3-6 8-5 7-2h9l4-3-1-7-3-2h-6l-8 6-6 1 2-6 6-5 2-1h11l9 2 2 3 4-2 7-7 7-8 13-16 10-14 12-17 10-16 12-21 11-23 11-27 10-30 9-36 5-27 4-33v-61l-3-32-5-30-9-36-12-36-11-26-8-16-11-21-15-24-14-20-11-14-11-13-7-8-11-12-12-12-8-7-10-9-14-11-13-10-21-14-25-15-27-14-27-12-28-10-31-9-29-6-31-4-11-1z" fill="#FDFEFD"/>
<path transform="translate(476,118)" d="m0 0h26l21 2 27 7 16 8 16 10 15 13 13 12 11 13 7 11 9 19 4 12 5 23 2 17v20l-4 26-5 16-7 13-15 23-13 16-2 3h-2v2l-14 11-12 8-12 6-24 8-15 3-24 2-25-1-19-3-19-6-9-5-10-6-14-10-16-12-8-9-6-9-9-12-7-12-9-23-4-18v-28l2-26 4-18 10-23 11-20 11-13 7-8 6-7 11-9 16-9 16-7 10-4 16-4h12z" fill="#A7C636"/>
<path transform="translate(407,512)" d="m0 0h20l11 2 12 6 8 9 4 10 1 7 11-9 8-6 13-8 16-7 12-3 7-1h23l12 3 11 6 6 7 4 9 1 17-2 14-6 22-18 50-16 44-14 38-1 1-15 1h-29l-10-1 3-10 17-48 15-41 8-21 7-21 1-5v-11l-3-6-10-5h-15l-12 4-11 7-10 10-10 16-8 16-10 26-22 61-9 24-2 5h-20l-33-1 1-6 15-44 15-40 14-39 5-17v-11l-4-6-6-4-8-2-10 1-11 4-10 6-8 7-9 12-9 16-9 20-34 94-4 9-2 1h-40l-12-1 1-5 6-16 13-35 9-25 10-28 10-26 7-11 7-6 7-3 15-3 12-6 16-12 13-11 13-9 12-7 14-5z" fill="#FDFEFD"/>
<path transform="translate(848,512)" d="m0 0h25l18 3 14 6 9 7 7 9 5 12 2 10v16l-3 21-6 23-5 16-2 2-142 1-2 9v13l2 9 6 8 7 6 11 4 6 1 78 1-1 6-6 15-5 4-15 6-20 5-19 3-12 1h-18l-19-3-15-5-13-7-7-7-6-9-5-11-3-12v-14l4-23 7-21 7-16 10-18 12-17 11-12 11-11 15-11 14-8 17-7 17-4z" fill="#FDFEFD"/>
<path transform="translate(732,422)" d="m0 0h51l-1 6-7 20-18 50-14 39-19 52-18 49-15 41-8 15-11 12-10 7-11 5-13 4-6 1h-11l1-6 14-39 11-30 14-39 18-49 14-39 13-36 19-51 4-10z" fill="#FDFEFD"/>
<path transform="translate(477,112)" d="m0 0h11l6 1h17l12 2-1 3-16-1-7-1v2h-23v2l-16 2-14 4-20 8-17 9-9 7-8 7-7 8-9 11-7 10-11 21-8 20-3 15-2 26v28l4 18 10 25 10 16 8 10 7 10 9 8 10 7 17 12 11 6 10 5 19 5 14 2 25 1 24-2 15-3 27-9 9-5 12-8 10-8 4-2v-2h2l2-4 13-16 15-24 8-16 4-15 3-22v-20l-3-22-6-25-8-18-6-11-9-12-12-13-10-9-11-9-11-7-10-6-11-5-27-7v-1l9 1 1-2h2l2-2 8 2h9v2h10 3v2h6l2 1 1-2 3 1v2l6 2h6l5 2v3l5 1v2l4 2 4 3 4 2-1 2 3 1v3h2v-2h2l1 4h-3v2l6 1v4l4 2-1 4-1 3 4 2 2 4 5-1h3v5l2 1v2l4-2v2l4 1 2-1 8 4-1 5-3-1-3-3-1 1 3 5 6 5 1 5 1 2v6l-1 5v12l-2 3-4-1v26l-1 5h-2l1 8 1 3-1 12-1 1 1 2-1 7h-2v14l-4 21-4 12-7 11-7 9-8 11-6 8h-2l-2 5-4 5-5 5-6 7h-2v2h-2v2l-15 8-9 7-14 7-5 2-18 5-11 1-31 2-16-2v-2l-8-1-14-3-16-6-11-3-5-1-4-4-7-3-9-5v-2l-6-1-4-4-6-3-1-4-6-1-2-1v-2h-2l-2-5-4-2-7-8-4-8-3-5-4-7-2-6-2-3-2-8-2-4-3-17 1-3 2 3-2-18v-22l-2 4-1-11v-9l-2-13-2-5 2-13 2-5 3-21 5-12 2-6 5-9 3-8 4-5 5-4 1-2h2l1 2h2l2 4 10-8 5-6-4 2 2-5 4-4 6-5 7-3v2l11-8h3v-2l4 1v-3l4-1h7l2 1 16-4 10-3z" fill="#878F91"/>
<path transform="translate(623,517)" d="m0 0h54l-1 5-18 50-35 95-11 31-9 24-1 1-9 1h-37l-8-1 1-5 23-63 10-27 35-97 5-13z" fill="#FDFEFD"/>
<path transform="translate(536,117)" d="m0 0 9 2h9v2h10 3v2h6l2 1 1-2 3 1v2l6 2h6l5 2v3l5 1v2l4 2 4 3 4 2-1 2 3 1v3h2v-2h2l1 4h-3v2l6 1v4l4 2-1 4-1 3 4 2 2 4 5-1h3v5l2 1v2l4-2v2l4 1 2-1 8 4-1 5-3-1-3-3-1 1 3 5 6 5 1 5 1 2v6l-1 5v12l-2 3-4-1v26l-1 5h-2l1 8 1 3-1 12h-2l-4 25-4 17-6 14-18 27-10 13-2 3h-2l-2 4-13 11-20 13-13 6-18 5-17 4-19 3-24-1-13-2-13-3-10-2-22-8-11-6-7-6v-2l-5-2-7-5v-2l-4-1-4-4v-2h-2l-4-6v-2h-2l-14-21-8-17-8-24-3-16-1-13 3-35 2-13 4-13 7-16 9-17 2-1-2 6-8 15-8 20-3 15-2 26v28l4 18 10 25 10 16 8 10 7 10 9 8 10 7 17 12 11 6 10 5 19 5 14 2 25 1 24-2 15-3 27-9 9-5 12-8 10-8 4-2v-2h2l2-4 13-16 15-24 8-16 4-15 3-22v-20l-3-22-6-25-8-18-6-11-9-12-12-13-10-9-11-9-11-7-10-6-11-5-27-7v-1l9 1 1-2h2z" fill="#878F90"/>
<path transform="translate(643,443)" d="m0 0 3 1-3 5 1 4 8-1v-2h3v-2l8-1v-1l16-1 9 1h3l4-1 5-2 3 6 5 5 5 1 1 4v-5l3 4-11 30-5 13h-3v2h-3v7l-3-1-1-3-5-4-4-1-13 4-6 1-1 3-5 2-3 5h-31l-2-3 2-1-1-7-2-7 1-3h2v-5h3l-1-4 5-21 2-10 3-6 6-4h2z" fill="#878F90"/>
<path transform="translate(843,551)" d="m0 0h8l14 3 8 6 4 7 1 3v13l-2 16-3 1h-88l-1-3 11-18 9-10 12-9 13-6z" fill="#878F98"/>
<path transform="translate(613,175)" d="m0 0 5 4 9 13 10 21 4 12 5 23 2 17v20l-4 26-5 16-7 13-15 23-13 16-2 3h-2v2l-14 11-12 8-12 6-24 8-15 3-24 2-25-1-19-3-19-6-9-5-10-6-14-10-16-12-8-9-6-9-9-12-7-12-9-23-4-18v-28l2-26 4-18 10-23 4-7 1 2-7 15-4 10-3 10-1 12v15l-1 11v25l4 10 3 9 2 11h2l3 11 6 11v2l4 2 9 10 2 4 6 5v2l4 2 8 6 4 5 5 5 10 8 9 5 6 2 20 8 12 3 19 2h21l25-6 3-1 4-1 5-1v-2l16-6 5-3 5-4 7-3 11-8 7-4 5-4h2l2-4 8-10 5-10h2l1-5 5-10h2l2-7 6-11 3-13 3-15v-14l1-3v-15l-3-9v-7l-3-21-8-18-7-13-8-11z" fill="#84AC42"/>
<path transform="translate(667,450)" d="m0 0h31l2 2-1 7-8 14-9 10-13 9-12 6-12 3-7 1h-8l-2-1 1-8 4-16 8-14 8-7 12-5z" fill="#A5C536"/>
<path transform="translate(587,149)" d="m0 0 4 2 8 6v2l4 2 7 7 3 2v2h2l5 6v2l3 1 4 5 1 4 5 5 2 5 2 7 5 13 5 19 2 9 1 9v31l-3 18-4 17-6 14-18 27-10 13-2 3h-2l-2 4-13 11-20 13-13 6-18 5-17 4-19 3-24-1-13-2-13-3-10-2-22-8-11-6-7-6v-2l-5-2-7-5v-2l-4-1-4-4v-2h-2l-4-6v-2h-2l-14-21-8-17-8-24-3-16-1-13 3-35 2-13 4-13 7-16 9-17 2-1-2 6-8 15-8 20-3 15-2 26v28l4 18 10 25 10 16 8 10 7 10 9 8 10 7 17 12 11 6 10 5 19 5 14 2 25 1 24-2 15-3 27-9 9-5 12-8 10-8 4-2v-2h2l2-4 13-16 15-24 8-16 4-15 3-22v-20l-3-22-6-25-8-18-6-11-9-12-12-13-10-9-6-5z" fill="#8A9789"/>
<path transform="translate(409,339)" d="m0 0 7 1 13 8 17 8 18 5 24 4h20l22-4 18-6 21-11 9-5h3l-1 5-8 8-16 10-15 7-21 7-12 2h-22l-22-4-18-6-15-8-11-8-10-9z" fill="#FDFEEF"/>
<path transform="translate(634,804)" d="m0 0h13l6 3 5 6 1 3v7l-3 11-6 9-5 4-7 3h-12l-6-3-5-6-1-2v-12l4-10 6-8z" fill="#FDFEFC"/>
<path transform="translate(438,804)" d="m0 0h13l6 3 4 5 1 3v12l-4 10-7 8-7 4-3 1h-13l-6-4-4-6-1-10 3-10 7-10 8-5z" fill="#FDFEFC"/>
<path transform="translate(546,243)" d="m0 0h11l10 9 3 5v12l-4 10-8 9-8 3h-7l-8-4-5-5-3-6v-11l4-10 7-8z" fill="#FDFEEF"/>
<path transform="translate(435,243)" d="m0 0h9l9 6 6 7 3 9v8l-3 10-7 6-9 2-11-3-7-6-6-12v-11l4-8 7-6z" fill="#FDFEEF"/>
<path transform="translate(365,786)" d="m0 0h9l3 2 13 35 4 9v2h2l2-15 7-31 2-2 6 1 1 4-9 37-4 18-3 3-7-1-3-3-10-26-7-17-2-1-9 41-3 7h-5l-1-1v-7l10-46 3-8z" fill="#FDFEFC"/>
<path transform="translate(536,804)" d="m0 0 5 1-1 5-5 8-14 25-3 5-5 1-5-1-2-18-1-14h-2l-2 6-12 23-3 3-7 1-3-3-4-35v-6h8l2 4 2 28 10-18 5-8 3-5 1-1h8l2 1 3 30 12-22 7-9z" fill="#FDFEFC"/>
<path transform="translate(608,804)" d="m0 0 4 1-1 5-7 10-17 28-11 16-5 2-3-2 1-5 6-8v-8l-7-35 1-3h8l2 4 5 27 4-5 13-21 5-5z" fill="#FDFEFC"/>
<path transform="translate(676,805)" d="m0 0h7l-1 9-4 20v7l4 2 9-1 4-4 4-14 4-17 1-2h7l1 3-6 31-3 9-5 1-6-2-6 3h-10l-6-5-1-2v-11l5-24z" fill="#FDFEFC"/>
<path transform="translate(762,804)" d="m0 0h10l5 3 4 5v7l-5 1-5-6v-2l-9-1-5 3-4 9-2 10 1 7 3 2h8l9-9 4-1 1 1v5l-6 7-7 4-3 1h-9l-6-4-3-3-2-7 1-10 6-12 4-5z" fill="#FDFEFC"/>
<path transform="translate(441,810)" d="m0 0 9 1 3 4 1 9-3 10-6 7-8 3-6-1-3-3-1-3v-10l3-9 5-6z" fill="#8F99A1"/>
<path transform="translate(636,810)" d="m0 0h7l5 3 2 5-1 11-5 10-6 4h-11l-3-4-1-10 2-8 4-6 4-4z" fill="#8F99A1"/>
<path transform="translate(762,810)" d="m0 0h6l5 5 3 4h4l2-2v5l2 1-1 4-4 1-4-1-3 7-9 9h-8l-4-3-1-7 2-10 4-9z" fill="#8F99A1"/>
<path transform="translate(256,634)" d="m0 0h2l-3 11-9 25-8 21-3 3h-1l-3-16h-2l2-5 8-16 5-16 1-3 2 1 2 3h-2v7l2 1 1-7 4-1v-4h2z" fill="#8F99A0"/>
<path transform="translate(369,800)" d="m0 0 4 4 9 23v3l-4-1v-2h-4l-1 9-4 5-6 1-3 5h-1l1-9 8-37z" fill="#8F99A1"/>
<path transform="translate(660,138)" d="m0 0h7l6 4 2 3v8l-3 5-7 3-11-2-3-2v-9l2 2 2 4-2-8 1-6z" fill="#FDFEFA"/>
<path transform="translate(621,141)" d="m0 0h15l3 3-1 7h2l3-9h6v10l-3 4-3 1h-7l-5-2v-8l-2-2-1 1v8l1 3-5-1-1-1-2-10z" fill="#FDFEFB"/>
<path transform="translate(620,808)" d="m0 0h5l-7 11-3 8-1 11-2 1-3-7-2-4-5 5-5-1 2-5 8-13h4 4v-2l4-2z" fill="#8F99A1"/>
<path transform="translate(501,440)" d="m0 0h23l1 5-4 2v-2h-3l-1 4-7-3h-2l1 5-1 1h-9l-5 1-3-1 1-4 3-3h2l1-4z" fill="#878F91"/>
<path transform="translate(503,816)" d="m0 0h2l1 3 2 23v6l2 1-4-1-2-4-10-5h-3z" fill="#8F99A1"/>
<path transform="translate(450,440)" d="m0 0 3 1v3l2-2 8-2 12 2h7l2-1h7l-2 4-5 5h-15l-5-2-10-2h-4l-1-5z" fill="#878F91"/>
<path transform="translate(807,810)" d="m0 0h6l3 2 1 7-4 3h-9l-9 2h-4l-2-8 3-2 1 2h6z" fill="#889099"/>
<path transform="translate(529,807)" d="m0 0h3l-1 4-10 18-5 8h-1l-1-10v-10l5-1 4-4h2v-2h2v-2z" fill="#8F99A0"/>
<path transform="translate(784,830)" d="m0 0 2 2-1 13h-7l-7 6-16 1-3-2 12-2 7-4 5-6 2-7 4 2v-2z" fill="#8F99A1"/>
<path transform="translate(596,813)" d="m0 0h3l-2 5-12 19-2-1-3-15v-6l4 4 5 1v-2l5-2v-2z" fill="#8F99A0"/>
<path transform="translate(631,480)" d="m0 0 1 4-4 17h10l16-3 9-4 11-6 5-4 2 1-10 8-7 4-2 4-12 4-10-1-13-1-1-1v-6l3-9z" fill="#8A9789"/>
<path transform="translate(384,807)" d="m0 0 3 1v3l5 1 5 3 1 10-2 9h-2l-7-16-3-8z" fill="#8F99A1"/>
<path transform="translate(697,828)" d="m0 0 1 4-4 9-3 2-9 1-5-3v-7l3-5h1l2 7 6 1 5-6z" fill="#8F99A0"/>
<path transform="translate(686,504)" d="m0 0h2v6l-4 5-6 1h-13l-7-1v-4l5-1 8 2 11-5z" fill="#878F91"/>
<path transform="translate(441,810)" d="m0 0 9 1 2 3-1 2v8l-2 2h-3v-2h-2l-2-4-5-5v-4z" fill="#878F98"/>
<path transform="translate(482,815)" d="m0 0 1 4h6l4-1 1 3-9 16-2 1-1-10z" fill="#8F99A0"/>
<path transform="translate(636,810)" d="m0 0h7l3 1v16l-3-1-3-8-7-1-1-5z" fill="#879099"/>
<path transform="translate(546,243)" d="m0 0h11l10 9 3 5v12l-2 1-1-13-6-7-6-3-9-1-8 3 1-3z" fill="#FDFEF7"/>
<path transform="translate(276,886)" d="m0 0 10 3 16 8 23 10-1 2-16-6-12-5-19-10z" fill="#909AA3"/>
<path transform="translate(470,808)" d="m0 0h2l2 11 1 11v11l-2-1-3-7v-5l-2-1 1-5z" fill="#8F99A0"/>
<path transform="translate(436,127)" d="m0 0 1 2-9 4-19 10-9 7-8 7-7 8v-3l7-8 5-5 11-8 11-7 13-5z" fill="#878F98"/>
<path transform="translate(423,344)" d="m0 0 6 2 9 5 9 2 2 2 10 3 11 3 11 2v1h-7l-22-5-15-6-13-7z" fill="#85AA46"/>
<path transform="translate(428,132)" d="m0 0 3 1-11 6-13 8-11 9-12 12v-3l11-12 11-9 16-9z" fill="#84AC42"/>
<path transform="translate(658,144)" d="m0 0h4l1 3 2-2 6 1v6l-2 2h-5l-1-2-4 2-1-1z" fill="#899397"/>
<path transform="translate(670,817)" d="m0 0h2l-1 9-1 6v11l3 4v2l-5-2-1-5v-5l-3-4 3-11z" fill="#8F99A0"/>
<path transform="translate(425,809)" d="m0 0 3 1-7 10-3 10-1 5-2-4-2-5 1-4 3-1 2-7 4-2v-2z" fill="#8F99A0"/>
<path transform="translate(409,808)" d="m0 0 2 4 1 9-1 4-3 2-1 3h-2l-1 4 1-10z" fill="#8F99A0"/>
<path transform="translate(666,449)" d="m0 0h33l2 1v8l-3 5-1 5-4 2 2-6 4-7v-5l-1-1h-31l-12 2 2-2z" fill="#8E9B8D"/>
<path transform="translate(802,828)" d="m0 0h6l-6 7h-2l-1 3-5 2v-6l6-5z" fill="#889298"/>
<path transform="translate(721,622)" d="m0 0 2 1-3 11-3 12-2-4v-9l2-4 1-5z" fill="#8F99A0"/>
<path transform="translate(791,814)" d="m0 0 2 2h6l3-1v3l-4 3-1 3-3-1-3 1-2-8z" fill="#8F999F"/>
<path transform="translate(392,821)" d="m0 0 6 2-2 11h-2l-4-10z" fill="#899298"/>
<path transform="translate(768,642)" d="m0 0h1l1 8v9l2 9-1 4-3-6-1-6v-13z" fill="#8E999B"/>
<path transform="translate(651,141)" d="m0 0h2l3 14-3-1-1-4-1 6-3-2 1-12z" fill="#8C9896"/>
<path transform="translate(611,502)" d="m0 0 3 3 2 5-1 4h-4l-2-6-2-1v-2h3z" fill="#878F91"/>
<path transform="translate(629,144)" d="m0 0 3 3v8l4 2-4 1-3-1-2-3v-8z" fill="#889196"/>
<path transform="translate(450,356)" d="m0 0 5 1 15 4 11 2v1h-7l-22-5-2-1z" fill="#86AC45"/>
<path transform="translate(698,432)" d="m0 0h5l2 5-2 6-5-5-1-2h2z" fill="#878F91"/>
<path transform="translate(564,432)" d="m0 0 4 1 5 1v2l-8 3h-6l1-4 4-2z" fill="#878F91"/>
<path transform="translate(578,339)" d="m0 0h3l-1 5-3 3h-2l-1-2h-4v-2z" fill="#FDFEF6"/>
<path transform="translate(536,117)" d="m0 0 2 4v2l9 2-4 1-20-5v-1l9 1 1-2h2z" fill="#88938D"/>
<path transform="translate(379,139)" d="m0 0 2 2-1 4-7 2-3 5-3-1 6-8 5-1z" fill="#878F91"/>
<path transform="translate(483,116)" d="m0 0m-11 1h11v1h-7v2l-20 2 2-2z" fill="#879096"/>
<path transform="translate(202,556)" d="m0 0 2 1-3 3-5 2-7 8h-2l2-5 9-7z" fill="#8E999D"/>
<path transform="translate(435,243)" d="m0 0h9l4 2v2l-4-1h-10l-6 3-2-1 6-4z" fill="#FDFEF7"/>
<path transform="translate(656,832)" d="m0 0 2 1-1 7h-3v3l-5 1z" fill="#8F99A0"/>
<path transform="translate(807,810)" d="m0 0h6l-1 3h-3l-1 3-6-1z" fill="#8E999C"/>
<path transform="translate(360,161)" d="m0 0 3 1-2 7-2 5-3-3v-2h2l1-7z" fill="#878F99"/>
<path transform="translate(688,434)" d="m0 0 8 1 3 6v2h-3l-4-6-4-2z" fill="#878F91"/>
<path transform="translate(917,624)" d="m0 0 1 3-1 4-2 5-2 2h-12v-1l11-1z" fill="#8E999E"/>
<path transform="translate(213,839)" d="m0 0 9 6v3l-5-2-5-4z" fill="#909AA3"/>
<path transform="translate(815,813)" d="m0 0 2 2-1 5-5 2-5-1 4-2 5-2z" fill="#8E999D"/>
<path transform="translate(700,450)" d="m0 0h1v8l-3 5-1 5-4 2 2-6 4-7z" fill="#8A9789"/>
<path transform="translate(473,535)" d="m0 0 2 2-6 5-2-1 1-4z" fill="#8F99A1"/>
<path transform="translate(411,341)" d="m0 0 5 1 2 2-1 4-4-2z" fill="#FDFEFB"/>
<path transform="translate(658,145)" d="m0 0h3l1 8h-4z" fill="#8E999D"/>
<path transform="translate(185,572)" d="m0 0 1 2-1 9h-3l1-8z" fill="#8E989D"/>
</svg>
