<?xml version="1.0" encoding="UTF-8"?>
<svg version="1.1" viewBox="0 0 1000 1000" width="1280" height="1280" xmlns="http://www.w3.org/2000/svg">
<path transform="translate(0)" d="m0 0h1e3v1e3h-1e3z" fill="#FDFDFD"/>
<path transform="translate(796,172)" d="m0 0h5l7 6v2l4 2 7 7 7 8 11 12 9 11 10 13 11 16 10 16 8 13 12 22 10 21 11 28 7 21 8 30 6 31 3 23 2 30v34l-3 39-7 39-5 20-8 27-9 24-9 20-8 16-6 11-10 18-7 11-8 12-12 17-11 13-7 8-9 10-13 14-8 7-16 15-10 8-16 12-10 7-15 10-17 10-18 10-27 13-15 6-29 10-20 6-33 7-27 4-34 3h-20l-34-1-7-1v-3l11-5 25-11 8-4 12-5 26-12 62-27 43-19 29-13 32-14 92-42 15-7 20-11 9-7 8-7 7-8 12-16 3-5 8-14 6-11 1-6-12 2-22 9-37 15-29 12-14 5-13 6-20 8-27 11-15 6-34 14-28 11-24 10-39 15-24 9-18 6-3 4-1 4 3 10 6 13-1 4-25 12-21 9-19 10-15 7-26 12-15 7-13 6-13-2-24-7-28-10-16-7v-4l18-8 12-5 55-22 29-12 27-11 36-14 80-32 34-14 40-16 17-7 25-10 32-13 19-8 18-7 50-20 28-11 34-14 18-7 1-3v-71h-9l-15 6-13 6-35 15-25 11-40 17-19 8-21 9-26 11-84 35-34 14-25 10-26 9-30 11-24 11-4 6 1 9 3 9 1 8-12 7-19 8-13 5-12 6-26 11-19 8-13 6-32 14-13 6-10 4-16 7-7-1-16-9-11-8-16-11-10-8 2-4 28-11 21-9 75-30 28-11 30-12 27-11 28-11 34-14 36-14 50-20 17-7 66-26 34-14 33-13 24-10 13-5 33-13 14-6 16-6 28-11 12-4 1-1v-8l-22-50-5-13v-3l-11 1-13 4-26 10-20 8-24 10-43 17-29 12-23 9-15 6-24 10-35 14-37 15-17 7-26 11-10 5 1 10 6 18v5l-4 3-12 5-32 14-15 6-13 6-26 11-42 18-19 8-25 11-15 6-12 6-13 5-14 6-11 5-20 8-11 5-23 10-7-1-15-15-9-11-11-13-3-6 4-4 30-14 43-18 35-14 34-14 22-9 37-15 35-14 24-10 28-11 19-8 18-7 34-14 28-11 69-28 30-12 32-13 65-26 28-11 18-7 11-5 25-10 9-5-1-7-10-9-7-8-8-11-10-12-4-6v-2h-2l-2-3-4-2-10 2-16 7-12 6-17 7-40 18-13 5-12 6-34 14-15 7-32 14-11 5-31 13-12 5-9 4-11 5-26 11-25 11-7 4-3 1 2 8 1 2 10 5 1 3-10 5-16 6-28 12-30 12-28 12-25 10-27 11-41 17-32 13-21 8-9 4-52 22-8 5-3 7-3-1-8-13-8-16-12-22-7-18 1-3 20-8 16-6 12-5 27-11 24-10 46-18 100-40 28-11 14-5 11-5 28-11 15-6 44-17 39-16 28-11 45-18 27-11 16-6 65-26 18-7 27-11 15-6 4-3 1-9-7-8-9-12-12-20-5-5-4-1-24 12-20 8-32 13-31 12-15 6-49 20-29 12-40 16-29 13-28 13-20 9h-3l-1 8v14l-21 9-25 9-12 5-30 12-21 8-22 9-17 6-6 3-16 6-61 24-26 10-23 9-12 5-32 12-4-1-2-6-5-21v-6l16-8 29-12 66-27 38-16 73-30 48-20 32-13 35-14 19-8 27-11 26-11 50-20 31-13 24-10 30-12 19-8 24-10 32-13 15-6 7-3-1-8-9-22-4-11-3-11-1-11 3-13v-2l-6-2h-8l-24 10-28 12-45 19-20 9-63 27-26 11-63 27-20 9-26 11-22 10-3 1 6 19 2 5 4 2 3 2v3l-14 7-20 9-18 8-25 11-23 10-10 5-17 7-13 6-15 6-10 5-16 7-42 19-30 13-34 15-7 2-1-1-2-31v-34l3-3 35-15 36-15 41-17 30-13 32-13 28-12 41-17 17-7 30-13 24-10 13-5 10-5 16-6 25-11 26-11 43-18 29-12 25-11 20-8 25-11 20-9 11-4 30-13 28-12 33-14 18-7 11-5 37-15z" fill="#F91213"/>
<path transform="translate(471,55)" d="m0 0h54l33 3 29 5 23 5 25 7 21 8 4 2v2l-35 14-28 11-20 8-16 6-7 2-24 2-28 2-33 5-25 6-15 5-20 8-17 8-24 16-11 9-8 7-18 22-16 7-23 11-25 11-15 7-35 16-28 13-11 5-18 8-15 7-27 12-12 6-13 5h-4l2-6 11-23 13-23 12-19 10-15 20-26 10-11 9-11 9-9 8-7 8-8 11-9 16-13 17-12 21-14 22-13 16-8 17-8 25-10 27-9 32-8 27-5 26-3z" fill="#F91213"/>
<path transform="translate(693,101)" d="m0 0 6 1 18 10 2 3-5 3-51 22-20 8-23 10-25 11-24 10-26 11-14 6-10 5-17 7-30 13-26 11-29 13-26 11-56 24-22 10-1 1v16l1 16v12l-4 3-28 12-20 9-30 13-17 7-9 4-25 11-16 7-11 5-30 13-19 8-13 6-20 9-11 4h-6l5-28 8-37 4-11 16-8 36-15 31-14 21-9 23-10 44-19 72-31 95-41 41-18 30-13 42-18 19-8 15-7 24-10 21-9 17-7 13-6 17-7 11-5z" fill="#F91213"/>
<path transform="translate(888,595)" d="m0 0 6 1 1 12v53l-1 12-4 3-6 2 1 3-4 3-12 3-7 1-15 6-10 5-5 3-6 3-5 2-14 7-8 2-3 2h-3v2l-6 1-10 5-10 3-6 3-4 1-6 2-10 4h-7v2l-10 4-12 5-14 6-7 2-5 2-18 6-10 6h-2v2l-10 4-1 1-7 1-5 3-15 6-4 2-7 2-9 1v2l-9 2-2 3-9 1-1 3-11 3-7 3-4 3-6 1v2l-12 4-4 1-5 1-16 5-3-1 9-3v-2l27-11 30-12 34-14 40-16 17-7 25-10 32-13 19-8 18-7 50-20 28-11 34-14 18-7 1-3 1-72z" fill="#DF151B"/>
<path transform="translate(913,657)" d="m0 0 1 2-2 8-9 20-8 16-6 11-10 18-7 11-8 12-12 17-11 13-7 8-8 9h-2l2-4 4-5h2v-2h2l2-5 6-8v-5l-7 1-4 4-6 1-17 8-9 4-3-1 16-8 20-11 5-5 11-10 7-8 12-16 3-5 8-14 6-11 1-6-16 1 4-3 6-2h5v-2l6-3h7l3-1 2-7 3-4 5-15z" fill="#DE151B"/>
<path transform="translate(807,500)" d="m0 0 4 1-13 5-12 6-11 4-8 4-10 3-7 4-11 4-9 3-20 8-12 5-9 4-9 3-45 18-12 5-25 10-8 4-15 6-16 6-21 8-15 6-23 9-12 5-6 1 4-3 26-10 11-5 16-6 3-3 39-16 30-12 32-13 33-13 20-8 27-11 56-22 11-5 15-4z" fill="#DA151D"/>
<path transform="translate(862,245)" d="m0 0 4 2 9 15 9 14 13 24 10 21 11 28 7 21 8 30 6 31 3 23 2 30v34l-3 39-7 39-5 20-8 27-1 2h-2v-6l3-8 5-18 4-12 2-11 2-7 2-15 2-12 2-40 1-7v-13l-2-24-1-10-1-22-3-14-2-12-4-17v-3h-2l-2-14-2-3-2-11-3-9-3-6-3-10-8-20-6-13-8-16-6-11-7-12-10-16-4-6z" fill="#DE151B"/>
<path transform="translate(872,586)" d="m0 0 1 2-10 4-18 8-17 6-19 8-7 3-15 6-1 2-5 1-17 6-13 5-12 5-8 4h-2v2l-5 2-16 4-16 7-30 12-22 8-4 1 3-3 9-3v-2l22-9 65-26 19-8 13-5 33-13 14-6 16-6 28-11 8-3z" fill="#E41419"/>
<path transform="translate(679,337)" d="m0 0 4 1-23 10-26 11-16 6-8 4-10 4-19 8-13 5-14 6-16 7-13 6-15 5-22 9-16 6-9 4-14 6-11 4-26 11-23 9-5 1 1-2 13-5 15-6 20-9 16-6 26-11 12-5 21-8 31-13 16-7 13-5 27-11 33-14h2v-2l21-9 10-4 9-2z" fill="#D8161E"/>
<path transform="translate(473,56)" d="m0 0h64l28 3 37 7 30 8 22 8 6 3v2l-15 6h-5l4-3 6-3 1-3-9-3-11-4-25-7-31-6-18-3-50-3h-29l-20 2h-16v-1z" fill="#E51419"/>
<path transform="translate(872,586)" d="m0 0 1 2-10 4-18 8-17 6-19 8-7 3-15 6-1 2-5 1-17 6-13 5-6 3-4-1 5-3 40-16h2v-2l24-10 54-21z" fill="#E2141A"/>
<path transform="translate(943,484)" d="m0 0h1v34l-3 39-7 39-5 20-8 27-1 2h-2v-6l3-8 5-18 4-12 2-11 2-7 2-15 2-12 2-40 2-5z" fill="#E4141A"/>
<path transform="translate(693,101)" d="m0 0 6 1 18 10 2 3-5 3-12 5h-5l5-4 3-2v-3l4-2-4-1-1-2-7-4h-5v2l-10 3-23 10-18 8-2-1 4-2v-2l18-8z" fill="#E2141A"/>
<path transform="translate(568,268)" d="m0 0 4 1-3 3-16 7-12 5-17 8-17 6-24 10-6 1 4-3 7-2v-2l16-7 29-12 25-11z" fill="#EA1318"/>
<path transform="translate(626,684)" d="m0 0m-3 1h3v2l-28 11-11 5-47 18-12 5-3-1 3-1v-2l27-11 25-10 17-7 15-6 9-2z" fill="#EA1318"/>
<path transform="translate(544,393)" d="m0 0m-3 1h3v2l-7 4-10 4-17 6-22 9-16 6-9 4-14 6-11 4-26 11-23 9-5 1 1-2 13-5 15-6 20-9 16-6 26-11 12-5 21-8 31-13z" fill="#D8161E"/>
<path transform="translate(89,362)" d="m0 0h4v2l-16 8-6 14-3 16-3 13-2 18-3 10 10-3h3v2l-11 4h-6l5-28 8-37 4-11z" fill="#E1141A"/>
<path transform="translate(84,473)" d="m0 0 2 1-26 13-2 4-1 14 1 24 1 15v3h7v2l-9 3-1-1-2-31v-34l3-3 19-8z" fill="#E41419"/>
<path transform="translate(713,536)" d="m0 0 3 1-26 11-30 12-29 12-20 8-16 6-20 8-22 9-10 4-3-1 31-13 65-26 32-13 35-14z" fill="#FA1213"/>
<path transform="translate(509,918)" d="m0 0 2 1-18 9h-2l-2 5-9 6-1 2 15 1v1h-27l-8-1 4-4 4-1v-2l23-10 9-3z" fill="#DB151C"/>
<path transform="translate(633,127)" d="m0 0h5v2l-25 11-19 8-21 9-13 5-5 3-13 5-2-1 3-1 1-3 12-5 26-11 21-9 17-7z" fill="#E2141A"/>
<path transform="translate(520,725)" d="m0 0 4 1-1 2-70 28-3-1 13-6h2v-2l29-12z" fill="#E81418"/>
<path transform="translate(408,337)" d="m0 0 3 1-10 5-19 8-20 8-28 12-6 1 2-2 11-5h2v-2l25-11 13-5 8-2z" fill="#E1141A"/>
<path transform="translate(785,619)" d="m0 0 3 1-46 19-3 3-8 4h-2v2l-5 2-8 2-8-1 4-3 28-11 14-6 13-5z" fill="#EA1318"/>
<path transform="translate(105,573)" d="m0 0 2 1-10 5-16 6-6 4-6 2v11l3 11 1 7 3 3-4 1-2-2-6-26v-6l16-8 17-7z" fill="#E1141A"/>
<path transform="translate(811,610)" d="m0 0m-6 1h6v2l-5 3-15 5-4 2-1 2-5 1-17 6-13 5-6 3-4-1 5-3 40-16h2v-2z" fill="#DD151C"/>
<path transform="translate(473,56)" d="m0 0h64l12 1 1 1 7 1v1h-17l-33-2h-29l-20 2h-16v-1z" fill="#DB151C"/>
<path transform="translate(453,206)" d="m0 0m-2 1h2v2l-57 25-12 5-4 2-4-1 16-7 3-3 32-14 13-4z" fill="#DE151B"/>
<path transform="translate(938,443)" d="m0 0 3 1 2 21v46l-2-2v-13l-2-24-1-10z" fill="#DD151C"/>
<path transform="translate(653,233)" d="m0 0h3v2l-12 5-18 8-10 4-13 5-2-1 5-2v-2l17-8 11-4 12-5z" fill="#E2141A"/>
<path transform="translate(128,649)" d="m0 0h2v2l-19 7-11 6-4 2h-4v11h-2l-4-11 3-3 16-6 14-6z" fill="#E4141A"/>
<path transform="translate(943,484)" d="m0 0h1v34l-3 39-2 12h-1v-14l2-39 2-5z" fill="#E71419"/>
<path transform="translate(862,245)" d="m0 0 4 2 9 15 9 14 13 24 2 6-3-1-11-20-6-11-8-13-9-14z" fill="#E2141A"/>
<path transform="translate(796,172)" d="m0 0h5l7 6v2l4 2 7 7 7 8 11 12 2 3-1 3-10-10-3-4v-2h-2l-7-8-7-7v-2l-4-2-5-4-5-1z" fill="#E51419"/>
<path transform="translate(679,337)" d="m0 0 4 1-23 10-26 11-4-1v-2l21-9 10-4 9-2z" fill="#E3141A"/>
<path transform="translate(762,518)" d="m0 0m-6 1h6v2l-12 6-11 4-1 1h-9l-9 4-4-1 20-8z" fill="#E61419"/>
<path transform="translate(55,505)" d="m0 0h2l1 24 1 15v3h7v2l-9 3-1-1-1-10z" fill="#DC151C"/>
<path transform="translate(102,297)" d="m0 0h2l-3 10-5 10v2l9-1 5-2v3l-17 7h-4l2-6z" fill="#E3141A"/>
<path transform="translate(340,895)" d="m0 0 3 1-12 7v5l6 3-1 2-8-3-8-2-3-2 1-3 15-5z" fill="#DD151C"/>
<path transform="translate(584,148)" d="m0 0 3 1-6 3-3 3-18 7-5 3-13 5-2-1 3-1 1-3 12-5 26-11z" fill="#E81418"/>
<path transform="translate(475,195)" d="m0 0h4v2l-19 9-7 2-9 3-9 4-3-1 38-17z" fill="#ED1317"/>
<path transform="translate(162,762)" d="m0 0 3 1-9 5-4 1 3 9 5 6-1 2-6-5-7-10 1-3 5-3z" fill="#E0141B"/>
<path transform="translate(310,290)" d="m0 0h1l2 31 1 7-1 7-5 3-3-1 5-5-1-40z" fill="#D8161E"/>
<path transform="translate(458,773)" d="m0 0h1l1 13 5 13-1 4-3 3-8 2 7-7-1-8-2-7v-11z" fill="#D9151D"/>
<path transform="translate(364,245)" d="m0 0 3 1-15 7-19 8-13 6-10 4-6 1 2-2 13-6 10-4 21-9z" fill="#D8161E"/>
<path transform="translate(466,313)" d="m0 0 2 1-13 6-21 9-20 8-3-1 21-9 24-10z" fill="#D8161E"/>
<path transform="translate(245,837)" d="m0 0 2 1-14 7-6 2v3l4 2 2 2-6-1-6-5 2-4 8-3 9-2z" fill="#DB151C"/>
<path transform="translate(345,418)" d="m0 0h5l1 4-22 11-10 2 3-3 22-10z" fill="#E81418"/>
<path transform="translate(488,649)" d="m0 0 1 3 3 12 4 11v8l-9 4-1-2 5-3h3l-2-9-5-15-1-5z" fill="#D8161E"/>
<path transform="translate(406,225)" d="m0 0 4 1-3 3-13 6-10 4-4 2-4-1 16-7 3-3z" fill="#E2141A"/>
<path transform="translate(433,60)" d="m0 0h8v1l-33 6-4 1h-7l3-1v-2l10-2 19-2z" fill="#DF151B"/>
<path transform="translate(647,81)" d="m0 0 7 1 6 3v2l-15 6h-5l4-3 6-3 1-3-4-1z" fill="#E2141A"/>
<path transform="translate(596,256)" d="m0 0 4 1-1 2-23 10-3-1 5-2v-2z" fill="#E51419"/>
<path transform="translate(568,268)" d="m0 0 4 1-3 3-16 7-9 4-3-1 4-3 17-7h2v-2z" fill="#D8161E"/>
<path transform="translate(617,72)" d="m0 0h8l21 7 2 2-4 1-13-5-14-4z" fill="#E41419"/>
<path transform="translate(934,418)" d="m0 0 3 1 3 18v6h-2l-4-17z" fill="#E0141B"/>
<path transform="translate(526,854)" d="m0 0 5 5 3 7-1 4-6 3h-5l4-4 4-2-4-9z" fill="#E61419"/>
<path transform="translate(478,743)" d="m0 0m-6 1h6v2l-25 10-3-1 13-6h2v-2z" fill="#DF151B"/>
<path transform="translate(626,684)" d="m0 0m-3 1h3v2l-28 11-6 2 4-4 19-8z" fill="#D8161E"/>
<path transform="translate(645,675)" d="m0 0 3 1-11 5-3 3-8 2-5 1-6 1 3-2z" fill="#EF1316"/>
<path transform="translate(170,288)" d="m0 0h3v2l-23 11h-5l1-2 7-3z" fill="#E91418"/>
<path transform="translate(545,715)" d="m0 0 3 1-2 3-16 6-5 1 1-2h2v-2z" fill="#E3141A"/>
<path transform="translate(440,586)" d="m0 0 11 3 3 2v2l-7 4h-6l4-3 1-5-6-2z" fill="#E2141A"/>
<path transform="translate(105,573)" d="m0 0 2 1-10 5-13 5-4-1 4-3 13-5z" fill="#E2141A"/>
<path transform="translate(533,170)" d="m0 0h4v2l-19 9-3-1 5-2v-2z" fill="#E61419"/>
<path transform="translate(766,628)" d="m0 0m-3 1h3v2l-11 5-10 4-4-1 5-3z" fill="#D8161E"/>
<path transform="translate(633,127)" d="m0 0h5v2l-19 8-2-1 3-1 1-3z" fill="#E0141B"/>
<path transform="translate(937,565)" d="m0 0h1v10l-3 17-3 1 2-10 2-15z" fill="#E1141B"/>
<path transform="translate(339,204)" d="m0 0 1 3-9 11-8 1 3-3 7-5z" fill="#E3141A"/>
<path transform="translate(115,722)" d="m0 0 4 5 4 2h3l-2 8-3-1-6-9z" fill="#E81418"/>
<path transform="translate(822,604)" d="m0 0 4 1-3 3-9 4-6-1 4-3z" fill="#E41419"/>
<path transform="translate(59,439)" d="m0 0 1 4 10-3h3v2l-11 4h-6l1-6z" fill="#E51419"/>
<path transform="translate(593,65)" d="m0 0 9 1 19 5v1h-9l-15-4v-2z" fill="#E91318"/>
<path transform="translate(394,496)" d="m0 0 2 1-3 3-14 4-5 2-3-1 19-8z" fill="#E0141B"/>
<path transform="translate(656,117)" d="m0 0 3 1-5 4-13 6-2-1 4-2v-2z" fill="#E3141A"/>
<path transform="translate(821,777)" d="m0 0m-1 1m-2 1h2v2l-16 8-5 2-3-1 16-8z" fill="#D8161E"/>
<path transform="translate(333,390)" d="m0 0h1l2 8 4 13 5 6-4-1-5-8-4-13z" fill="#D8161E"/>
<path transform="translate(546,826)" d="m0 0h4v2l-15 5h-7l2-2z" fill="#E51419"/>
<path transform="translate(923,627)" d="m0 0h1l-1 10-3 8h-2v-6z" fill="#E1141A"/>
<path transform="translate(502,297)" d="m0 0m-2 1h2v2l-19 8-6 1 4-3z" fill="#D8161E"/>
<path transform="translate(839,785)" d="m0 0v3l-13 14h-2l2-4 4-5h2v-2h2l1-3z" fill="#E71419"/>
<path transform="translate(689,103)" d="m0 0h9l1 2h-7v2l-8 1v-3z" fill="#DE151B"/>
<path transform="translate(844,221)" d="m0 0 7 5 4 6-1 3-7-8-3-4z" fill="#E2141A"/>
<path transform="translate(783,731)" d="m0 0 3 1-4 1v2l-8 3h-6l2-2z" fill="#E4141A"/>
<path transform="translate(681,221)" d="m0 0 3 1-10 4-5 3-4-1h2v-2l7-3z" fill="#E1141A"/>
<path transform="translate(84,473)" d="m0 0 2 1-11 6-6-1 2-2z" fill="#E1141A"/>
<path transform="translate(56,543)" d="m0 0 1 4h9v2l-9 3-1-1z" fill="#E91418"/>
<path transform="translate(333,427)" d="m0 0 3 1h-2v2l-5 3-10 2 3-3z" fill="#E2141A"/>
<path transform="translate(617,134)" d="m0 0 3 1-5 4-4 2-3-1v-2z" fill="#E41419"/>
<path transform="translate(585,607)" d="m0 0 2 1-1 2-7 3h-6l4-3z" fill="#E51419"/>
<path transform="translate(584,148)" d="m0 0 3 1-6 3-3 3-5 1v-3z" fill="#E91318"/>
<path transform="translate(443,811)" d="m0 0 3 1h-2v2l-6 3h-6l4-3z" fill="#E41419"/>
<path transform="translate(535,719)" d="m0 0 3 1-3 3-7 3-3-1 3-1v-2z" fill="#E51419"/>
<path transform="translate(388,68)" d="m0 0h8l-4 2-5 2h-6l3-1v-2z" fill="#E1141A"/>
<path transform="translate(585,262)" d="m0 0m-5 1h5v2l-9 4-3-1 5-2v-2z" fill="#DC151C"/>
<path transform="translate(231,841)" d="m0 0 3 1-10 5 1 3-4-2 2-4z" fill="#FA1213"/>
<path transform="translate(806,818)" d="m0 0 1 3-7 7-3-1z" fill="#E2141A"/>
<path transform="translate(571,154)" d="m0 0 3 1-1 2-7 3-4-1 4-1v-2z" fill="#E0141B"/>
<path transform="translate(590,146)" d="m0 0 3 1-1 2-10 4-2-1 5-3h2v-2z" fill="#DE151B"/>
<path transform="translate(872,586)" d="m0 0 1 2-10 4-3-1 6-2v-2z" fill="#DD151C"/>
<path transform="translate(155,295)" d="m0 0 3 1h-2v2l-6 3h-5l1-2 7-3z" fill="#E3141A"/>
<path transform="translate(568,268)" d="m0 0 4 1-3 3-7 2 2-4z" fill="#E3141A"/>
</svg>
