<?xml version="1.0" encoding="UTF-8"?>
<svg version="1.1" viewBox="0 0 1000 1000" width="1280" height="1280" xmlns="http://www.w3.org/2000/svg">
<path transform="translate(0)" d="m0 0h1e3v1e3h-1e3z" fill="#2AAA52"/>
<path transform="translate(0)" d="m0 0h1e3v1e3h-1e3zm468 49-41 5-31 6-35 10-33 12-24 11-23 12-25 15-22 15-13 10-16 13-12 11-10 9-10 10-7 8-10 11-11 14-10 13-16 24-11 18-11 20-12 26-9 23-9 27-7 26-6 31-3 24-1 11-1 23v33l2 26 3 24 6 31 8 31 9 26 10 24 12 25 12 22 12 19 12 17 13 17 11 13 7 8 14 15 8 8 8 7 15 13 13 11 18 13 22 14 21 12 23 12 22 10 28 10 28 8 36 8 28 4 24 2h54l38-4 18-3 27-6 31-9 28-10 27-12 19-10 24-14 18-12 11-8 18-14 12-11 8-7 7-6 5-5 5-6 5-5 14-15 11-14 10-13 14-20 11-18 14-25 9-19 11-27 9-27 7-27 5-24 4-29 2-23v-58l-4-36-5-28-7-28-9-29-10-25-11-24-14-26-15-24-12-17-10-13-9-11-12-14-29-29-11-9-12-10-16-12-26-17-22-13-23-12-28-12-30-11-28-8-29-6-20-3-31-3z" fill="#FDFEFD"/>
<path transform="translate(487,287)" d="m0 0h23l22 2 24 5 16 5 16 6 23 12 15 10 14 11 10 9 12 12 9 11 11 15 10 17 11 24 7 22 5 27 2 22-1 29-5 27-6 21-10 25-10 18-12 17-12 14-13 14-8 7-15 12-16 10-17 9-23 9-22 6-25 4-10 1h-23l-27-3-22-5-21-7-18-8-19-11-14-10-14-12-16-16-9-11-13-18-12-22-9-22-5-17-5-25-2-19v-22l3-26 6-26 8-22 8-16 9-16 8-11 9-11 11-12 14-14 14-11 14-9 14-8 17-8 27-9 20-4z" fill="#2AAA52"/>
<path transform="translate(348,460)" d="m0 0h51l1 1v14l-3 9-12 17-7 11-9 14h20v-16l2-10 6-9 7-6 10-5 4-1h7l7 2 5 4 5-1 4-2 12 1 2 2 5-1 3-3 6-2 11 1 8 7 3 2 9-7 7-3h9l8 3 6 5 4 6 1 4 1 47-1 3h-18l-2-2-1-40-3-5-4-2-5 1-4 4-1 2-1 40-3 2h-17l-1-1-1-39-3-7-3-2-5 1-4 2-2 4-1 40-1 2-15 1-6-4-10 5h-16l-8-3-4-4-4-1-2 4-2 2h-53l-1-2v-9l7-14 11-16 14-21 1-4h-11l-10-1-5-5-2-6 1-8z" fill="#FDFEFD"/>
<path transform="translate(487,287)" d="m0 0h23l22 2 24 5 16 5 16 6 23 12 15 10 14 11 10 9 12 12 9 11 11 15 10 17 11 24 7 22 5 27 2 22-1 29-5 27-6 21-10 25-10 18-12 17-12 14-13 14-8 7-15 12-16 10-17 9-23 9-22 6-25 4-10 1h-23l-27-3-22-5-21-7-18-8-19-11-14-10-14-12-16-16-9-11-13-18-12-22-9-22-5-17-5-25-2-19v-22l3-26 6-26 8-22 8-16 9-16 8-11 9-11 11-12 14-14 14-11 14-9 14-8 17-8 27-9 20-4zm-7 7-20 3-17 4-21 7-19 9-18 11-14 10-14 12-12 12-11 14-10 14-9 15-10 21-8 25-4 20-2 23v22l2 18 6 29 6 18 12 25 10 16 9 12 12 14 10 10 8 7 17 13 19 11 14 7 16 6 21 6 24 4 15 1h19l20-2 27-6 23-8 17-8 18-11 11-8 10-8 12-11 10-11 13-17 8-13 12-23 9-25 5-21 3-26v-26l-3-24-5-21-7-19-7-16-12-21-12-16-12-14-8-8-11-9-13-10-16-10-21-11-22-8-21-5-22-3z" fill="#FDFEFD"/>
<path transform="translate(605,480)" d="m0 0h17l12 6 8 9 4 8 2 9v7l-1 1-25 1h-23l4 6 6 4 11-1 5-3 18-2 2 4-8 11-9 6-4 2-6 1h-12l-10-4-8-6-6-9-3-10v-13l7-14 5-6 8-5z" fill="#FDFEFD"/>
<path transform="translate(560,460)" d="m0 0h9l2 1 1 9-1 11 8 1 2 4-1 9-2 2-6 1-1 47-1 2-7 1-8-4-3-3-1-3-1-40-7-2-1-3v-8l4-3 4-1 1-4v-9l3-5z" fill="#FDFEFD"/>
<path transform="translate(661,460)" d="m0 0h7l3 3v83l-1 1h-18l-1-1v-79l2-4z" fill="#FDFEFD"/>
<path transform="translate(421,498)" d="m0 0h8l6 4 6 7 1 8-3 6-7 6-5 2-9-2-5-5-3-5v-9l5-8z" fill="#2AAA52"/>
<path transform="translate(610,496)" d="m0 0 10 1 7 8-1 2h-26l1-4 3-5z" fill="#2AAA52"/>
</svg>
