<?xml version="1.0" encoding="UTF-8"?>
<svg version="1.1" viewBox="0 0 1000 1000" width="1280" height="1280" xmlns="http://www.w3.org/2000/svg">
<path transform="translate(0)" d="m0 0h1e3v1e3h-1e3z" fill="#A63380"/>
<path transform="translate(0)" d="m0 0h1e3v1e3h-1e3zm462 50-35 4-34 7-28 8-31 11-24 10-22 11-22 13-19 12-17 12-10 8-11 9-12 11-10 9-23 23-8 10-13 15-16 23-12 19-10 17-13 25-10 23-11 30-9 31-6 27-5 34-1 13v68l4 35 5 28 7 28 12 36 10 24 13 27 11 19 14 22 13 18 10 13 9 11 9 10 11 12 9 9 8 7 12 11 11 9 18 14 18 12 20 12 16 9 22 11 24 10 28 10 34 9 35 7 35 4h63l27-3 30-5 30-7 29-9 24-9 29-13 21-11 17-10 15-10 16-11 15-12 11-9 16-15 12-11 1-3 3-1 7-8 11-12 11-14 14-19 15-23 12-21 8-16 10-21 10-26 8-25 9-36 5-30 3-30v-63l-4-36-6-32-8-29-10-30-13-31-12-24-13-22-16-24-12-16-8-10-9-11-12-13-22-22-8-7-17-14-13-10-24-16-28-17-30-15-27-11-33-11-26-7-27-5-34-4z" fill="#FDFDFD"/>
<path transform="translate(197,447)" d="m0 0h15l18 6 12 6v-11l1-1h35v133h-34l-2-3v-9l-4 1-10 6-10 4-18 2-16-2-13-5-9-6-10-10-7-12-5-15-1-6v-23l5-17 6-10 6-8h2l2-4 10-7 11-5z" fill="#FDFDFD"/>
<path transform="translate(686,447)" d="m0 0h24l15 4 14 7 9 8 7 11 4 10 3 14v25l-1 1-91 1v4l7 9 10 4 4 1h19l10-3 10-6 4-1 10 10 9 8 1 6-9 8-16 8-10 3-8 1h-25l-13-3-14-7-10-8-7-8-8-16-4-20 1-17 4-15 6-12 11-12 8-6 13-6z" fill="#FDFDFD"/>
<path transform="translate(571,447)" d="m0 0h18l18 5 10 6 9 8-1 5-15 15-3 5-5-2-11-6-4-1h-14l-9 3-7 5-5 8-2 8v18l3 8 6 7 10 5 4 1h14l12-4 5-5 5 1 19 19 1 5-10 8-10 6-12 4-6 1h-23l-16-4-12-6-12-11-7-9-5-12-3-13v-23l4-16 7-13 11-12 9-6 18-6z" fill="#FDFDFD"/>
<path transform="translate(354,390)" d="m0 0h5v32l-4 1-9 3-4 4-2 6-1 10 28 1 1 1v15l-1 15-28 1v100l-1 1h-34l-1-1v-100h-10l-2-2v-29l1-1 10-1 1-13 5-15 7-10 8-7 14-7z" fill="#FDFDFD"/>
<path transform="translate(776,391)" d="m0 0h34l1 1v187l-1 1h-34l-1-2v-186z" fill="#FDFDFD"/>
<path transform="translate(824,391)" d="m0 0h35l1 1v31l-1 156-1 1h-33l-1-1z" fill="#FDFDFD"/>
<path transform="translate(382,447)" d="m0 0h35v10l14-7 15-3 5 1v34l-2 1-14 2-10 6-6 7-1 6-1 75-1 1h-34l-1-1v-130z" fill="#FDFDFD"/>
<path transform="translate(465,447)" d="m0 0h34v132l-1 1h-33l-1-1v-130z" fill="#FDFDFD"/>
<path transform="translate(201,480)" d="m0 0h12l9 4 8 6 6 9 3 8 1 9-3 12-5 9-7 7-10 5-4 1h-10l-12-4-9-8-6-10-2-7v-12l4-12 7-9 10-6z" fill="#A63380"/>
<path transform="translate(685,352)" d="m0 0h27l16 4 12 5 12 7 10 9v6l-4 6-5 1-6-4-10-7-15-7-11-3-8-1h-13l-16 3-16 6-12 7-7 5-6-1-4-5 1-6 7-7 11-7 11-5 15-4z" fill="#D37B42"/>
<path transform="translate(685,379)" d="m0 0h23l11 3 12 5 12 7 4 5 1 6-3 6-4 1-13-7-14-7-8-2h-20l-16 5-15 9-5 1-5-6v-5l3-3h2v-2l13-8 11-5z" fill="#D37B42"/>
<path transform="translate(689,405)" d="m0 0h15l13 3 13 7 2 5v8l-2 2-9-2-21-6h-7l-19 5-6 2h-5l-3-8 1-5 8-5 14-5z" fill="#D37B42"/>
<path transform="translate(698,478)" d="m0 0 9 1 12 5 5 4 3 9h-57l1-5 5-6 6-4 9-3z" fill="#A63380"/>
</svg>
