<?xml version="1.0" encoding="UTF-8"?>
<svg version="1.1" viewBox="0 0 1000 1000" width="1280" height="1280" xmlns="http://www.w3.org/2000/svg">
<path transform="translate(0)" d="m0 0h1e3v1e3h-1e3z" fill="#025699"/>
<path transform="translate(0)" d="m0 0h1e3v1e3h-1e3zm478 49-25 2-29 4-30 6-31 9-23 8-24 10-25 12-26 15-30 20-13 10-11 9-14 12-16 15-9 9v2h-2l-9 11-10 11-10 13-12 17-13 20-15 26-11 22-13 32-9 27-9 36-6 37-3 32v46l4 40 5 30 6 25 9 30 14 35 10 21 12 22 13 21 12 17 13 17 9 11 13 15 26 26 8 7 13 11 20 15 27 18 26 15 22 11 32 13 30 10 28 7 27 5 29 4 23 2h36l34-3 38-6 30-7 29-9 21-8 25-11 20-10 17-10 19-12 19-13 16-13 14-12 15-14 16-16v-2h2l7-8 11-13 10-13 14-19 8-13 10-17 10-18 10-21 12-30 7-21 8-30 6-32 3-24 2-22v-48l-3-32-6-36-9-36-10-30-12-29-8-16-10-19-16-26-14-20-11-14-11-13-7-8-14-15-7-7h-2v-2l-8-7-10-9-14-11-19-14-15-10-20-12-16-9-16-8-20-9-27-10-25-8-19-5-31-6-34-4-25-1z" fill="#FDFDFD"/>
<path transform="translate(720,380)" d="m0 0 18 1 16 4 12 5 11 6 13 11 11 14 8 15 5 15 3 14 1 7v22l-4 22-6 18-9 16-9 11-8 8-14 9-14 6-17 4-7 1h-24l-17-4-15-6-11-7-13-12-10-14-8-17-5-17-2-14v-18l2-18 5-19 8-17 9-13 14-14 11-7 14-6 15-4z" fill="#FDFDFD"/>
<path transform="translate(527,382)" d="m0 0h22l16 3 12 5 9 6 7 7 5 9 2 10v19l-1 2-6-1-15-8-19-6-15-2h-13l-19 3-12 5-13 10-6 8-7 14-3 14v16l3 15 5 13 7 10 8 7 12 6 16 4h18l10-3 4-4 1-8v-20l-2-19-1-8 4-1h23l10 2 9 7 4 6 1 3v45l-3 12-6 11-7 7-12 7-16 5-11 2h-32l-17-3-16-5-16-8-14-10-13-13-8-13-6-13-5-18-2-13v-18l3-17 6-18 7-13 9-12 13-13 10-7 10-6 15-6 19-5z" fill="#FDFDFD"/>
<path transform="translate(198,340)" d="m0 0h11l2 2v43h68l1 1v24l-4 8-8 7-8 3-9 1h-40l1 88 4 12 6 8 8 4 4 1h23l16-4 7-1v22l-3 10-6 8-7 5-9 3-12 2h-13l-18-2-16-6-11-7-9-9-7-12-5-16-2-12v-143l4-12 7-11 7-8 10-7z" fill="#FDFDFD"/>
<path transform="translate(473,626)" d="m0 0 4 2 9 11 10 11 8 7 14 11 11 7 16 8 14 5 18 4 19 2h20l23-3 23-6 18-8 16-9 16-12 15-14 12-16h3v22l-2 16-5 15-6 11-7 9-10 11-17 13-19 11-20 8-18 5-11 2-24 1-20-2-17-4-16-5-20-9-12-8-12-9-8-7v-2h-2l-11-14-8-16-3-9-1-5-1-32z" fill="#FDFDFD"/>
<path transform="translate(321,389)" d="m0 0 19 1 11 4 8 7 5 10 1 4 1 34v74l3 12 5 6 7 3 21 2 3 3v15l-3 10-4 6-6 4-7 2h-23l-12-3-12-6-8-7-7-11-4-11-3-17v-140z" fill="#FDFDFD"/>
<path transform="translate(712,425)" d="m0 0h16l13 4 6 4 5 4 7 11 4 9 3 14v32l-3 13-6 12-7 8-10 6-11 3h-12l-12-3-11-6-8-10-4-8-4-13-2-12v-20l3-16 4-11 7-9 9-8z" fill="#025699"/>
<path transform="translate(720,278)" d="m0 0 20 1 21 5 18 8 14 10 8 7 7 10 4 9 1 4 1 13v14l-4-2-12-12-12-9-15-9-21-7-13-2h-23l-18 3-21 7-16 9-10 8-8 8-4 5-3-1 1-26 4-11 7-10 11-10 14-9 15-7 14-4z" fill="#FDFDFD"/>
<path transform="translate(334,313)" d="m0 0h12l10 4 8 7 5 10 1 9-2 9-5 8-9 8-10 3-12-1-8-4-5-4-6-10-2-9 1-10 5-9 8-7z" fill="#FDFDFD"/>
</svg>
